<svg xmlns="http://www.w3.org/2000/svg" viewBox="198.27 362.68 397.17 397.17"><metadata xmlns:fl="https://football-logos.cc/turkey/fatih-karagumruk">dl1_8603aa96ccb9a47890985bb3533c694afdc4d5e00f85e783ff04382cb514c2a7</metadata><!-- Source: https://football-logos.cc --><defs data-source="https://football-logos.cc"><clipPath id="a" clipPathUnits="userSpaceOnUse"><path d="M0 841.89h595.276V0H0Z"></path></clipPath><clipPath id="b" clipPathUnits="userSpaceOnUse"><path d="M0 841.89h595.276V0H0Z"></path></clipPath><clipPath id="c" clipPathUnits="userSpaceOnUse"><path d="M0 841.89h595.276V0H0Z"></path></clipPath><clipPath id="d" clipPathUnits="userSpaceOnUse"><path d="M0 841.89h595.276V0H0Z"></path></clipPath><clipPath id="e" clipPathUnits="userSpaceOnUse"><path d="M0 841.89h595.276V0H0Z"></path></clipPath><clipPath id="f" clipPathUnits="userSpaceOnUse"><path d="M0 841.89h595.276V0H0Z"></path></clipPath><clipPath id="g" clipPathUnits="userSpaceOnUse"><path d="M0 841.89h595.276V0H0Z"></path></clipPath><clipPath id="h" clipPathUnits="userSpaceOnUse"><path d="M0 841.89h595.276V0H0Z"></path></clipPath><clipPath id="i" clipPathUnits="userSpaceOnUse"><path d="M0 841.89h595.276V0H0Z"></path></clipPath><clipPath id="j" clipPathUnits="userSpaceOnUse"><path d="M0 841.89h595.276V0H0Z"></path></clipPath><clipPath id="k" clipPathUnits="userSpaceOnUse"><path d="M0 841.89h595.276V0H0Z"></path></clipPath><clipPath id="l" clipPathUnits="userSpaceOnUse"><path d="M0 841.89h595.276V0H0Z"></path></clipPath><clipPath id="m" clipPathUnits="userSpaceOnUse"><path d="M0 841.89h595.276V0H0Z"></path></clipPath><clipPath id="n" clipPathUnits="userSpaceOnUse"><path d="M0 841.89h595.276V0H0Z"></path></clipPath><clipPath id="o" clipPathUnits="userSpaceOnUse"><path d="M0 841.89h595.276V0H0Z"></path></clipPath><clipPath id="p" clipPathUnits="userSpaceOnUse"><path d="M0 841.89h595.276V0H0Z"></path></clipPath><clipPath id="q" clipPathUnits="userSpaceOnUse"><path d="M0 841.89h595.276V0H0Z"></path></clipPath><clipPath id="r" clipPathUnits="userSpaceOnUse"><path d="M0 841.89h595.276V0H0Z"></path></clipPath><clipPath id="s" clipPathUnits="userSpaceOnUse"><path d="M0 841.89h595.276V0H0Z"></path></clipPath><clipPath id="t" clipPathUnits="userSpaceOnUse"><path d="M0 841.89h595.276V0H0Z"></path></clipPath><clipPath id="u" clipPathUnits="userSpaceOnUse"><path d="M0 841.89h595.276V0H0Z"></path></clipPath><clipPath id="v" clipPathUnits="userSpaceOnUse"><path d="M0 841.89h595.276V0H0Z"></path></clipPath><clipPath id="w" clipPathUnits="userSpaceOnUse"><path d="M0 841.89h595.276V0H0Z"></path></clipPath><clipPath id="x" clipPathUnits="userSpaceOnUse"><path d="M0 841.89h595.276V0H0Z"></path></clipPath><clipPath id="y" clipPathUnits="userSpaceOnUse"><path d="M0 841.89h595.276V0H0Z"></path></clipPath><clipPath id="z" clipPathUnits="userSpaceOnUse"><path d="M0 841.89h595.276V0H0Z"></path></clipPath><clipPath id="A" clipPathUnits="userSpaceOnUse"><path d="M0 841.89h595.276V0H0Z"></path></clipPath><clipPath id="B" clipPathUnits="userSpaceOnUse"><path d="M0 841.89h595.276V0H0Z"></path></clipPath><clipPath id="C" clipPathUnits="userSpaceOnUse"><path d="M0 841.89h595.276V0H0Z"></path></clipPath><clipPath id="D" clipPathUnits="userSpaceOnUse"><path d="M0 841.89h595.276V0H0Z"></path></clipPath><clipPath id="E" clipPathUnits="userSpaceOnUse"><path d="M0 841.89h595.276V0H0Z"></path></clipPath><clipPath id="F" clipPathUnits="userSpaceOnUse"><path d="M0 841.89h595.276V0H0Z"></path></clipPath><clipPath id="G" clipPathUnits="userSpaceOnUse"><path d="M0 841.89h595.276V0H0Z"></path></clipPath><clipPath id="H" clipPathUnits="userSpaceOnUse"><path d="M0 841.89h595.276V0H0Z"></path></clipPath><clipPath id="I" clipPathUnits="userSpaceOnUse"><path d="M0 841.89h595.276V0H0Z"></path></clipPath></defs><path d="M446.575 420.945c0-82.256-66.681-148.938-148.937-148.938S148.7 338.689 148.7 420.945s66.681 148.937 148.938 148.937 148.937-66.681 148.937-148.937" clip-path="url(#a)" style="fill:#000;fill-opacity:1;fill-rule:nonzero;stroke:none" transform="matrix(1.33333 0 0 -1.33333 0 1122.52)"></path><path d="M197.738 420.945c0 55.173 44.726 99.9 99.9 99.9s99.9-44.727 99.9-99.9-44.726-99.899-99.9-99.899-99.9 44.725-99.9 99.899" clip-path="url(#b)" style="fill:#fff;fill-opacity:1;fill-rule:nonzero;stroke:none" transform="matrix(1.33333 0 0 -1.33333 0 1122.52)"></path><path d="M201.509 420.945c0 53.083 43.033 96.116 96.116 96.116s96.116-43.033 96.116-96.116c0-53.084-43.033-96.117-96.116-96.117s-96.116 43.033-96.116 96.117" clip-path="url(#c)" style="fill:#ee2e24;fill-opacity:1;fill-rule:nonzero;stroke:none" transform="matrix(1.33333 0 0 -1.33333 0 1122.52)"></path><path d="m266.042 286.98 3.954 18.088-5.101 1.117.742 3.399.471-.101c3.4-.745 5.783.101 6.907 2.811l3.834-.839-5.597-25.612z" clip-path="url(#d)" style="fill:#fff;fill-opacity:1;fill-rule:nonzero;stroke:none" transform="matrix(1.33333 0 0 -1.33333 0 1122.52)"></path><path d="M288.468 296.272c2.106-.15 3.018 1.196 3.271 4.743.177 2.994-.074 5.201-2.549 5.381-2.586.181-3.039-2.013-3.25-4.966-.253-3.547.46-5.009 2.528-5.158m-2.936-6.285c-.139-1.959.404-3.185 2.177-3.311 2.807-.201 3.451 2.575 3.725 6.415l.089 1.258-.074.003c-.981-1.264-2.78-2.029-5.07-1.865-4.654.333-6.142 3.927-5.807 8.619.427 5.984 3.289 9.157 9.124 8.742 7.314-.522 7.821-6.424 7.365-12.814-.529-7.425-1.178-14.43-9.821-13.814-3.767.267-7.089 2.1-6.804 7.129z" clip-path="url(#e)" style="fill:#fff;fill-opacity:1;fill-rule:nonzero;stroke:none" transform="matrix(1.33333 0 0 -1.33333 0 1122.52)"></path><path d="m315.459 284.271-16.103-1.152c-.333 4.654 1.323 8.003 4.945 11.861l2 2.148c2.178 2.273 2.498 3.484 2.306 6.18-.155 2.178-1.155 3.184-2.817 3.065-2.659-.188-2.752-2.534-2.591-5.308l-5.097-.365-.071 1c-.345 4.837 2.008 7.751 7.586 8.151 5.245.375 8.017-2.063 8.338-6.569.243-3.399-.67-5.691-3.471-8.603l-2.758-2.944c-1.452-1.512-2.235-3.015-2.423-4.034l9.862.704z" clip-path="url(#f)" style="fill:#fff;fill-opacity:1;fill-rule:nonzero;stroke:none" transform="matrix(1.33333 0 0 -1.33333 0 1122.52)"></path><path d="M326.646 289.449c2.532.554 2.347 2.786 1.715 5.683-.759 3.471-1.855 4.673-3.882 4.228-2.061-.449-2.556-1.999-1.798-5.47.677-2.922 1.541-4.969 3.965-4.441m-1.118 16.736c-.427 1.956-1.296 2.977-3.031 2.597-2.75-.6-2.583-3.443-1.761-7.208l.277-1.263.072.015c.575 1.528 2.086 2.768 4.33 3.258 4.558.997 7.001-2.034 8.004-6.629 1.282-5.858-.567-9.713-6.284-10.962-7.161-1.565-9.316 3.953-10.684 10.211-1.581 7.235-2.946 14.179 5.519 16.027 3.69.805 7.394-.012 8.551-4.956z" clip-path="url(#g)" style="fill:#fff;fill-opacity:1;fill-rule:nonzero;stroke:none" transform="matrix(1.33333 0 0 -1.33333 0 1122.52)"></path><path d="m193.269 330.133-9.526 12.123 3.586 2.817 6.087-7.748 5.105 4.009-5.73 7.292 3.585 2.817 5.729-7.292 9.42 7.403 3.437-4.377z" clip-path="url(#h)" style="fill:#fff;fill-opacity:1;fill-rule:nonzero;stroke:none" transform="matrix(1.33333 0 0 -1.33333 0 1122.52)"></path><path d="m193.223 359.755-2.635 4.725-9.535-8.37.038-.066zm-14.661-9.013-3.35 6.006 20.54 19.815 2.824-5.063-4.476-3.956 3.575-6.412 5.718 1.729 2.822-5.062z" clip-path="url(#i)" style="fill:#fff;fill-opacity:1;fill-rule:nonzero;stroke:none" transform="matrix(1.33333 0 0 -1.33333 0 1122.52)"></path><path d="m164.922 381.401 4.277 1.577 2.087-5.655 21.606 7.968 1.926-5.22-21.607-7.967 2.085-5.658-4.277-1.575z" clip-path="url(#j)" style="fill:#fff;fill-opacity:1;fill-rule:nonzero;stroke:none" transform="matrix(1.33333 0 0 -1.33333 0 1122.52)"></path><path d="m190.531 393.193-26.879-6.219-1.254 5.421 26.879 6.22z" clip-path="url(#k)" style="fill:#fff;fill-opacity:1;fill-rule:nonzero;stroke:none" transform="matrix(1.33333 0 0 -1.33333 0 1122.52)"></path><path d="m160.831 399.587-.501 5.54 10.506.95-.585 6.465-10.506-.949-.5 5.54 27.477 2.485.5-5.542-12.199-1.103.585-6.465 12.198 1.103.502-5.541z" clip-path="url(#l)" style="fill:#fff;fill-opacity:1;fill-rule:nonzero;stroke:none" transform="matrix(1.33333 0 0 -1.33333 0 1122.52)"></path><path d="m161.039 442.019 10.887-1.901.013.076-9.677 8.828 1.037 5.939 10.359-9.418 16.965 5.511-1.076-6.167-12.13-3.649 2.731-2.555 8.069-1.409-.956-5.481-27.178 4.745z" clip-path="url(#m)" style="fill:#fff;fill-opacity:1;fill-rule:nonzero;stroke:none" transform="matrix(1.33333 0 0 -1.33333 0 1122.52)"></path><path d="m183.21 460.393 1.878 5.074-12.558 1.804-.027-.072zm-16.381 5.28 2.388 6.45 28.408-2.727-2.012-5.436-5.914.83-2.548-6.885 5.029-3.221-2.012-5.436z" clip-path="url(#n)" style="fill:#fff;fill-opacity:1;fill-rule:nonzero;stroke:none" transform="matrix(1.33333 0 0 -1.33333 0 1122.52)"></path><path d="m187.653 482.779 1.189 1.99c1.368 2.288 1.147 4.176-1.407 5.703-2.189 1.308-3.977.802-5.266-1.354l-1.348-2.255zm-13.203 1.41 5.274 8.822c2.339 3.914 5.824 5.072 9.87 2.653 3.151-1.884 4.519-4.413 3.477-7.436l.067-.04c2.374 2.992 4.462 2.419 9.51-.508 2.507-1.454 3.88-2.095 4.879-1.477l.199-.119-3.093-5.174c-.941-.067-1.896.368-2.844.89l-4.623 2.584c-1.897 1.044-3.52.889-4.67-1.034l-1.527-2.555 10.016-5.987-2.855-4.776z" clip-path="url(#o)" style="fill:#fff;fill-opacity:1;fill-rule:nonzero;stroke:none" transform="matrix(1.33333 0 0 -1.33333 0 1122.52)"></path><path d="m204.975 498.764 3.573 4.061-11.075 6.189-.052-.058zm-13.397 10.802 4.542 5.165 25.54-12.734-3.827-4.352-5.224 2.895-4.848-5.513 3.54-4.81-3.828-4.353z" clip-path="url(#p)" style="fill:#fff;fill-opacity:1;fill-rule:nonzero;stroke:none" transform="matrix(1.33333 0 0 -1.33333 0 1122.52)"></path><path d="M219.977 525.232c-1.268 1.609-3.598 3.07-5.358 1.683-2.125-1.674-1.254-4.529 3.002-9.932 4.112-5.221 7.18-8.117 9.699-6.133 1.033.814 1.817 3.252-.024 5.589l-1.745 2.216-2.884-2.272-2.534 3.218 7.073 5.571 9.205-11.687-3.218-2.534-1.578 2.004-.06-.048c.306-2.513-.607-4.414-2.641-6.015-5.372-4.232-9.591-1.062-15.496 6.435-5.739 7.285-6.98 12.359-1.394 16.757 4.795 3.778 8.675 2.85 12.142-1.552z" clip-path="url(#q)" style="fill:#fff;fill-opacity:1;fill-rule:nonzero;stroke:none" transform="matrix(1.33333 0 0 -1.33333 0 1122.52)"></path><path d="m231.028 549.432 3.825 2.026 2.134-4.03-3.825-2.025zm-.837-7.832 9.006-17.006c1.284-2.424 2.823-3.927 5.11-2.715 2.289 1.211 1.911 3.329.627 5.754l-9.006 17.004 4.917 2.605 9.006-17.006c3.291-6.215.369-9.861-3.626-11.976-3.996-2.117-8.492-2.792-11.946 3.731l-9.005 17.004zm-5.036 4.722 3.824 2.025 2.134-4.03-3.825-2.025z" clip-path="url(#r)" style="fill:#fff;fill-opacity:1;fill-rule:nonzero;stroke:none" transform="matrix(1.33333 0 0 -1.33333 0 1122.52)" data-source="https://football-logos.cc"></path><path d="m248.088 550.542 7.955 2.255 9.105-17.66.074.02-1.484 19.822 7.918 2.246 7.527-26.542-4.907-1.391-6.008 21.188-.075-.022 1.288-22.527-4.164-1.181-10.73 19.851-.074-.021 6.009-21.189-4.907-1.392z" clip-path="url(#s)" style="fill:#fff;fill-opacity:1;fill-rule:nonzero;stroke:none" transform="matrix(1.33333 0 0 -1.33333 0 1122.52)"></path><path d="m286.201 546.586 2.314.149c2.66.17 4.09 1.424 3.899 4.393-.163 2.545-1.594 3.731-4.101 3.57l-2.622-.169zm-6.325 11.675 10.257.658c4.551.292 7.48-1.92 7.782-6.625.235-3.663-1.072-6.225-4.154-7.081l.006-.077c3.811-.259 4.523-2.304 4.974-8.122.224-2.889.475-4.383 1.549-4.856l.016-.232-6.015-.385c-.589.736-.772 1.77-.88 2.847l-.493 5.273c-.216 2.154-1.264 3.403-3.501 3.259l-2.969-.19.747-11.645-5.552-.356z" clip-path="url(#t)" style="fill:#fff;fill-opacity:1;fill-rule:nonzero;stroke:none" transform="matrix(1.33333 0 0 -1.33333 0 1122.52)"></path><path d="m315.889 564.504 4.297-.505-.534-4.529-4.298.507zm-6.601.779 4.297-.507-.533-4.527-4.298.506zm1.461-6.747-2.253-19.111c-.321-2.724.091-4.835 2.661-5.138 2.572-.303 3.464 1.653 3.785 4.378l2.253 19.11 5.527-.651-2.253-19.11c-.824-6.985-5.3-8.324-9.791-7.795-4.489.53-8.572 2.528-7.708 9.858l2.254 19.11z" clip-path="url(#u)" style="fill:#fff;fill-opacity:1;fill-rule:nonzero;stroke:none" transform="matrix(1.33333 0 0 -1.33333 0 1122.52)"></path><path d="m335.204 553.971-3.222-10.571.075-.023 9.949 8.522 5.765-1.756-10.618-9.126 3.39-17.514-5.987 1.825-2.135 12.485-2.871-2.397-2.387-7.836-5.323 1.622 8.042 26.391z" clip-path="url(#v)" style="fill:#fff;fill-opacity:1;fill-rule:nonzero;stroke:none" transform="matrix(1.33333 0 0 -1.33333 0 1122.52)"></path><path d="m357.443 524.136-.428-.689c-1.367-2.198-1.621-3.996.872-5.548 1.443-.898 3.393-.837 4.618 1.132 1.327 2.133.734 3.593-1.709 6.615-3.302 4.057-4.155 7-1.727 10.904 2.836 4.56 7.076 5.155 11.537 2.379 4.2-2.614 6.127-6.316 3.332-10.811l-.409-.656-4.528 2.817c1.368 2.198 1.411 3.947-.395 5.07-2.131 1.326-3.526.328-4.384-1.05-.898-1.444-1.023-2.594.448-4.693l2.662-3.84c2.584-3.746 2.38-6.123.604-8.977-3.082-4.954-7.49-5.307-12.607-2.123-5.348 3.328-5.896 7.127-3.201 11.458l.591.951z" clip-path="url(#w)" style="fill:#fff;fill-opacity:1;fill-rule:nonzero;stroke:none" transform="matrix(1.33333 0 0 -1.33333 0 1122.52)"></path><path d="m379.347 516.484 1.845-1.646c1.645-1.465 3.644-1.487 5.521.619 1.8 2.019 2.02 3.893-.057 5.744l-1.731 1.543zm4.151 13.019 7.269-6.479c4.212-3.753 2.902-8.125.15-11.211-3.805-4.27-8.152-3.863-12.075-.366l-2.22 1.979-7.328-8.22-4.154 3.703z" clip-path="url(#x)" style="fill:#fff;fill-opacity:1;fill-rule:nonzero;stroke:none" transform="matrix(1.33333 0 0 -1.33333 0 1122.52)"></path><path d="M387.406 491.438c2.031-2.582 4.582-1.263 10.413 3.323 5.8 4.563 7.714 6.756 5.684 9.337-2.029 2.582-4.613 1.239-10.413-3.323-5.831-4.586-7.715-6.755-5.684-9.337m19.317 15.192c5.159-6.56 1.126-11.059-5.463-16.242-6.591-5.184-11.913-8.042-17.073-1.482s-1.128 11.059 5.462 16.242c6.592 5.184 11.914 8.042 17.074 1.482" clip-path="url(#y)" style="fill:#fff;fill-opacity:1;fill-rule:nonzero;stroke:none" transform="matrix(1.33333 0 0 -1.33333 0 1122.52)"></path><path d="m407.874 482.334 1.077-2.053c1.239-2.361 2.965-3.156 5.601-1.774 2.258 1.185 2.758 2.975 1.591 5.199l-1.22 2.327zm8.089 10.529 4.777-9.101c2.117-4.038 1.289-7.615-2.886-9.805-3.25-1.706-6.122-1.555-8.158.912l-.069-.036c1.316-3.586-.263-5.069-5.395-7.849-2.546-1.38-3.809-2.218-3.804-3.393l-.204-.108-2.802 5.338c.433.838 1.303 1.426 2.243 1.962l4.616 2.597c1.881 1.074 2.595 2.54 1.554 4.524l-1.384 2.635-10.333-5.422-2.585 4.927z" clip-path="url(#z)" style="fill:#fff;fill-opacity:1;fill-rule:nonzero;stroke:none" transform="matrix(1.33333 0 0 -1.33333 0 1122.52)"></path><path d="m431.968 453.533-10.794-2.371.015-.076 12.303-4.497 1.294-5.887-13.156 4.784-13.607-11.536-1.342 6.113 9.838 7.979-3.498 1.328-8-1.759-1.194 5.435 26.945 5.922z" clip-path="url(#A)" style="fill:#fff;fill-opacity:1;fill-rule:nonzero;stroke:none" transform="matrix(1.33333 0 0 -1.33333 0 1122.52)"></path><path d="m435.572 429.63-19.226-.746c-2.742-.106-4.763-.842-4.662-3.429.098-2.586 2.17-3.163 4.913-3.058l19.227.747.217-5.561-19.228-.746c-7.029-.274-9.047 3.942-9.223 8.459-.175 4.518 1.165 8.862 8.54 9.148l19.227.746z" clip-path="url(#B)" style="fill:#fff;fill-opacity:1;fill-rule:nonzero;stroke:none" transform="matrix(1.33333 0 0 -1.33333 0 1122.52)"></path><path d="m408.222 413.941 27.373-3.446-.696-5.518-22.849 2.874-1.23-9.777-4.524.57z" clip-path="url(#C)" style="fill:#fff;fill-opacity:1;fill-rule:nonzero;stroke:none" transform="matrix(1.33333 0 0 -1.33333 0 1122.52)"></path><path d="m437.81 384.493-1.247-4.144-4.366 1.31 1.245 4.145zm-1.914-6.365-1.247-4.145-4.366 1.312 1.247 4.144zm-4.985 6.098-18.429 5.54c-2.627.79-4.778.749-5.523-1.73s1.026-3.697 3.655-4.486l18.427-5.541-1.601-5.327-18.427 5.538c-6.737 2.024-7.277 6.666-5.975 10.996 1.3 4.33 3.978 8.003 11.046 5.877l18.428-5.537z" clip-path="url(#D)" style="fill:#fff;fill-opacity:1;fill-rule:nonzero;stroke:none" transform="matrix(1.33333 0 0 -1.33333 0 1122.52)"></path><path d="m412.07 366.057-.723-1.412c-1.391-2.717-1.097-4.431 1.206-5.611 2.338-1.197 3.78-.506 5.031 1.938l.917 1.786zm-10.831 5.549-.987-1.924c-1.217-2.374-1.186-4.431 1.668-5.893s4.508-.27 5.619 1.897l1.093 2.131zm23.444-5.763-4.248-8.286c-2.079-4.06-5.089-6.207-9.801-3.792-2.649 1.358-4.024 3.669-3.461 6.464l-.069.035c-1.771-2.522-4.733-3.22-7.999-1.544-3.851 1.971-6.218 5.575-3.257 11.352l4.283 8.355z" clip-path="url(#E)" style="fill:#fff;fill-opacity:1;fill-rule:nonzero;stroke:none" transform="matrix(1.33333 0 0 -1.33333 0 1122.52)"></path><path d="m415.87 337.334-2.632-3.434-3.619 2.774 2.634 3.433zm-4.042-5.276-2.634-3.434-3.617 2.773 2.632 3.437zm-2.503 7.471-15.271 11.707c-2.178 1.67-4.202 2.393-5.779.34-1.575-2.056-.348-3.824 1.829-5.494l15.272-11.707-3.386-4.415-15.271 11.707c-5.581 4.28-4.445 8.812-1.694 12.399 2.75 3.588 6.557 6.076 12.413 1.585l15.272-11.707z" clip-path="url(#F)" style="fill:#fff;fill-opacity:1;fill-rule:nonzero;stroke:none" transform="matrix(1.33333 0 0 -1.33333 0 1122.52)"></path><path d="M253.674 366.858c-3.967 0-7.195 3.227-7.195 7.195 0 3.966 3.228 7.195 7.195 7.195s7.195-3.229 7.195-7.195c0-3.968-3.228-7.195-7.195-7.195m-22.167 7.387c-3.967 0-7.195 3.23-7.195 7.194a7.2 7.2 0 0 0 7.195 7.195 7.2 7.2 0 0 0 7.194-7.195c0-3.964-3.227-7.194-7.194-7.194m16.272 30.662a7.2 7.2 0 0 0 7.195-7.195c0-3.965-3.228-7.194-7.195-7.194s-7.195 3.229-7.195 7.194a7.2 7.2 0 0 0 7.195 7.195m5.895-18.83c-4.3 0-8.07-2.276-10.195-5.681.03.345.052.691.052 1.043 0 2.054-.518 3.988-1.429 5.679a11.9 11.9 0 0 1 5.677-1.43c6.63 0 12.025 5.396 12.025 12.024 0 6.632-5.395 12.025-12.025 12.025s-12.025-5.393-12.025-12.025c0-2.053.519-3.983 1.43-5.676a11.96 11.96 0 0 1-5.677 1.428c-6.631 0-12.025-5.393-12.025-12.025 0-6.628 5.394-12.024 12.025-12.024 4.3 0 8.069 2.276 10.195 5.682a12 12 0 0 1-.053-1.044c0-6.632 5.395-12.025 12.025-12.025s12.025 5.393 12.025 12.025c0 6.629-5.395 12.024-12.025 12.024" clip-path="url(#G)" style="fill:#fff;fill-opacity:1;fill-rule:nonzero;stroke:none" transform="matrix(1.33333 0 0 -1.33333 0 1122.52)"></path><path d="M356.062 374.418c0 1.921.748 3.729 2.106 5.088a7.16 7.16 0 0 0 5.088 2.106 7.15 7.15 0 0 0 5.088-2.106 7.15 7.15 0 0 0 2.107-5.088c0-3.966-3.228-7.195-7.195-7.195s-7.194 3.229-7.194 7.195m-1.308 8.503a11.94 11.94 0 0 1-3.523-8.503c0-6.629 5.395-12.025 12.025-12.025s12.025 5.396 12.025 12.025c0 3.214-1.252 6.232-3.522 8.503a11.94 11.94 0 0 1-8.503 3.521 11.94 11.94 0 0 1-8.502-3.521m-21.669-19.915c0 3.966 3.228 7.195 7.194 7.195 3.967 0 7.195-3.229 7.195-7.195 0-3.968-3.228-7.194-7.195-7.194s-7.194 3.226-7.194 7.194m-4.83 0c0-6.632 5.393-12.025 12.024-12.025s12.025 5.393 12.025 12.025c0 6.629-5.395 12.025-12.025 12.025s-12.024-5.396-12.024-12.025m8.689 27.351c0 3.965 3.228 7.195 7.195 7.195a7.15 7.15 0 0 0 5.088-2.107 7.15 7.15 0 0 0 2.107-5.088c0-3.968-3.229-7.195-7.195-7.195s-7.195 3.227-7.195 7.195m-4.83 0c0-6.631 5.395-12.024 12.025-12.024s12.025 5.393 12.025 12.024c0 3.21-1.252 6.233-3.522 8.503a11.95 11.95 0 0 1-8.503 3.522c-6.63 0-12.025-5.396-12.025-12.025" clip-path="url(#H)" style="fill:#fff;fill-opacity:1;fill-rule:nonzero;stroke:none" transform="matrix(1.33333 0 0 -1.33333 0 1122.52)"></path><path d="M298.589 367.245c-.64-.418-1.312-.437-2.009-.139-2.466 6.95-8.566 25.716-10.267 45.47 2.921 1.947 7.338 5.255 7.338 5.255 18.016 4.639 25.195 17.446 24.114 36.383-11.843-7.789-21.843-18.6-27.742-34.143 0 0-1.792-2.995-4.052-2.221a107 107 0 0 0-.109 4.673c0 14.938 4.482 32.758 4.482 32.758s-8.11-7.15-8.11-38.198c0-.585.01-1.167.018-1.752-.001-.006-.003-.003-.005-.01-.437-4.697-3-1.547-3-1.547-8.945 23.768-16.792 33.893-35.851 42.04 5.225-19.206 16.115-33.928 32.757-43.958 2.065-.808 4.962-3.195 6.604-6.515 1.177-13.818 4.111-26.355 6.263-34.144-10.069 9.815-18.978 17.201-26.418 18.356 19.2-14.874 31.185-33.037 33.397-55.486l5.44 2.349s-.636 2.667-.636 7.682c-1.601 22.298 24.754 29.128 30.942 34.251-11.266 0-20.715-2.639-28.362-9.714 8.975 45.794 31.355 56.565 39.672 68.293-24.13-13.49-40.747-34.021-44.466-69.683m81.811 43.222c-5.693 12.114-17.139 19.15-35.636 19.846 0 0 .854-9.496 12.803-15.044 11.95-5.547 22.833-4.802 22.833-4.802m3.627 35.317s-5.867 1.494-9.923 1.494c-14.831 0-24.86-12.911-24.86-12.911 14.336-1.213 26.422 1.748 34.783 11.417m-14.829 20.913s-5.335-1.493-11.631-7.789c-6.295-6.295-7.469-14.831-7.469-14.831 10.75 3.609 17.421 10.902 19.1 22.62m-17.392 10.67s-18.033-11.202-18.033-32.117c0-4.053 1.707-9.068 1.707-9.068 11.096 4.054 16.326 17.818 16.326 41.185m-45.244 2.992c-6.507-9.175-8.216-21.66-8.216-21.66 13.231 6.276 21.607 17.466 24.434 34.144 0 0-9.711-3.308-16.218-12.484m-16.219-20.38s12.911 17.179 12.911 32.437c0 7.362-1.494 11.736-1.494 11.736-6.028-3.04-11.417-8.535-11.417-44.173m-3.734 5.015s1.281 3.947 1.281 8.75c0 19.525-11.951 31.476-11.951 31.476 0-22.087 1.067-30.623 10.67-40.226m-36.491 25.928s10.778-4.802 20.7-12.697c9.923-7.895 11.95-21.34 11.95-21.34s-12.163 1.175-20.059 11.417c-7.896 10.243-12.591 22.62-12.591 22.62" clip-path="url(#I)" style="fill:#fff;fill-opacity:1;fill-rule:nonzero;stroke:none" transform="matrix(1.33333 0 0 -1.33333 0 1122.52)" data-source="https://football-logos.cc"></path><!-- source: https://football-logos.cc --></svg>