<svg xmlns="http://www.w3.org/2000/svg" fill="none" viewBox="0.79 0.79 86.43 86.42"><metadata xmlns:fl="https://football-logos.cc/turkey/genclerbirligi">dl1_8b2d7ac028715c9b33f2d2db99600eb64a5fd2b90b89a92224518314cce00469</metadata><!-- Source: https://football-logos.cc --><path fill="#1C1C1C" d="M43.983.794c11.917 0 22.712 4.862 30.54 12.691C82.354 21.314 87.215 32.117 87.215 44c0 11.9-4.862 22.712-12.69 30.54-7.829 7.829-18.632 12.674-30.54 12.674-11.884 0-22.687-4.845-30.516-12.674C5.648 66.703.786 55.891.786 43.991c0-11.882 4.862-22.686 12.69-30.514C21.307 5.648 32.1.794 43.984.794" data-source="https://football-logos.cc"></path><path fill="#fff" d="M74.064 13.944c7.718 7.701 12.487 18.351 12.487 30.048 0 11.73-4.769 22.363-12.487 30.081-7.718 7.701-18.351 12.487-30.081 12.487-11.696 0-22.347-4.786-30.048-12.487C6.217 66.355 1.44 55.722 1.44 43.992c0-11.696 4.786-22.347 12.504-30.048C21.644 6.226 32.295 1.44 43.99 1.44c11.722 0 22.355 4.786 30.073 12.504"></path><path fill="#CFA36E" d="M22.563 22.572c-5.49 5.49-8.908 13.09-8.908 21.42 0 8.364 3.409 15.946 8.908 21.454 5.491 5.49 13.09 8.907 21.42 8.907 8.364 0 15.955-3.408 21.454-8.907 5.491-5.508 8.908-13.09 8.908-21.454 0-8.33-3.408-15.93-8.908-21.42-5.49-5.508-13.09-8.908-21.454-8.908-8.33 0-15.929 3.4-21.42 8.908"></path><path fill="#E00712" d="M33.23 16.23a29.7 29.7 0 0 0-10.276 6.732C17.548 28.36 14.2 35.799 14.2 43.993c0 8.21 3.35 15.665 8.747 21.063 5.397 5.388 12.852 8.737 21.037 8.737 8.211 0 15.666-3.349 21.063-8.737 5.398-5.398 8.738-12.853 8.738-21.064 0-8.193-3.332-15.631-8.738-21.037a30 30 0 0 0-10.293-6.732 24 24 0 0 1 6.17 4.462c4.336 4.352 7.022 10.336 7.022 16.95 0 6.57-2.686 12.58-7.021 16.914-4.352 4.335-10.345 7.038-16.95 7.038-6.57 0-12.58-2.703-16.914-7.038-4.335-4.334-7.038-10.336-7.038-16.915 0-6.604 2.703-12.597 7.038-16.949a24.5 24.5 0 0 1 6.17-4.454"></path><path fill="#1C1C1C" d="M43.984 14.208c-6.435 0-12.283 2.635-16.533 6.868-4.242 4.241-6.868 10.106-6.868 16.557 0 6.435 2.627 12.283 6.868 16.533 4.241 4.242 10.09 6.868 16.533 6.868 6.451 0 12.316-2.626 16.557-6.868 4.242-4.241 6.868-10.09 6.868-16.532 0-6.452-2.626-12.317-6.868-16.558-4.241-4.233-10.106-6.869-16.557-6.869" data-source="https://football-logos.cc"></path><path fill="#CFA36E" d="M42.81 22.172h-3.825l3.086 2.27-1.173 3.62 3.068-2.235 3.137 2.286-1.19-3.671 3.102-2.27h-3.842L44 18.559zM42.377 14.905c.136 0 .263-.018.4-.034l.459 2.932c-.111.11-.23.212-.357.323zM40.957 15.058c.127-.034.246-.043.383-.06l1.13 3.46q-.166.114-.357.229zM39.46 15.304c.137-.034.281-.043.417-.077l1.853 3.69c-.11.059-.23.127-.357.186zM37.871 15.687c.136-.043.28-.077.417-.111l2.703 3.723c-.128.06-.247.11-.374.153zM36.172 16.23c.136-.042.28-.093.416-.136l3.562 3.553c-.136.043-.28.111-.434.137zM34.336 17.004c.136-.06.28-.128.416-.187l4.352 3.145c-.187.043-.357.093-.527.128zM32.347 18.067c.136-.077.28-.154.416-.247l4.769 2.44c-.264.034-.51.042-.757.059zM30.222 19.52c.136-.11.263-.204.4-.297l6.17 2.006q.027.204.043.433zM27.994 21.441l.357-.357 8.628 1.377c.017.136.042.28.076.417zM25.793 23.974c.094-.136.204-.264.306-.4h11.144c.042.136.093.264.136.4zM23.77 27.187c.076-.153.152-.289.229-.45l13.6-2.142c.06.127.11.246.17.373zM22.197 31.072c.043-.153.094-.306.136-.46l15.691-5.108c.06.127.128.246.187.374zM21.314 35.568c.017-.153.034-.323.042-.476l17.145-8.738c.076.11.153.23.229.34zM21.39 40.439c-.017-.154-.034-.306-.042-.46l17.714-12.851c.076.11.17.203.246.305zM22.614 45.445a4 4 0 0 0-.153-.416l17.22-17.205c.094.111.188.204.281.298zM25.036 50.214c-.076-.128-.153-.23-.23-.358l15.556-21.385c.093.076.204.17.306.246zM63.202 49.857c-.077.127-.154.229-.247.357L47.332 28.717c.11-.076.204-.17.306-.246zM65.53 45.029c-.042.135-.093.28-.136.416L48.046 28.113c.093-.093.187-.186.28-.297zM66.652 39.98a9 9 0 0 1-.06.459L48.676 27.432c.093-.11.187-.203.263-.305zM66.627 35.084c.034.152.043.322.06.475l-17.425-8.873c.076-.111.153-.23.212-.34zM64 26.737c.077.153.154.289.23.45L50.24 24.96c.059-.128.11-.247.152-.374zM61.9 23.575c.111.136.205.263.307.399H50.62c.043-.136.094-.264.12-.4zM59.632 21.093c.127.127.246.229.374.357l-9.078 1.436c.034-.136.06-.28.093-.416zM57.38 19.223c.135.093.263.187.382.297l-6.605 2.142c.017-.153.034-.297.034-.433zM55.237 17.82c.136.093.28.17.4.247l-4.412 2.252c-.247-.017-.51-.034-.774-.06zM53.231 16.817c.136.06.28.128.417.187l-4.233 3.085a5 5 0 0 1-.527-.127zM51.395 16.086c.136.043.28.094.416.136l-3.553 3.553c-.136-.034-.28-.093-.416-.136zM49.712 15.585c.135.033.263.059.399.11l-2.728 3.765a2.6 2.6 0 0 1-.383-.152zM48.122 15.228c.136.034.28.042.417.076l-1.947 3.791c-.127-.06-.23-.127-.357-.187zM46.635 14.998c.128.017.264.034.4.06l-1.19 3.629c-.11-.077-.23-.153-.34-.23zM45.207 14.87c.127.018.263.035.4.035l-.51 3.221c-.12-.11-.247-.213-.358-.323zM43.983 14.837c.077 0 .136.017.204.017v2.329c-.06-.094-.136-.187-.204-.281q-.09.14-.204.28v-2.328c.085 0 .145-.018.204-.018M65.811 31.072l-16.03-5.203c.076-.127.135-.246.203-.373l15.691 5.108c.043.162.085.315.136.468M43.754 41.663c-1.003-.46-1.93-.621-2.746-.553-.867.077-1.606.434-2.142.969a8.9 8.9 0 0 1-.204 3.051c-.23.986-.603 1.972-1.113 3.052.51 1.063.875 2.048 1.113 3.043a9.5 9.5 0 0 1 .204 3.069c.544.527 1.284.875 2.142.96.816.077 1.743-.093 2.746-.552zm-7.344-1.25c.323.17.646.357.986.553.4.246.799.475 1.19.722.603-.587 1.42-.969 2.38-1.046.892-.076 1.93.094 3.026.621 1.113-.527 2.133-.697 3.026-.62.969.076 1.802.459 2.405 1.045.383-.247.79-.476 1.19-.723.323-.204.663-.382.986-.552a10.88 10.88 0 0 0-7.607-3.085 10.8 10.8 0 0 0-7.582 3.085m15.18 15.555c-.322-.187-.662-.374-.985-.57-.4-.229-.8-.459-1.19-.714-.604.57-1.437.961-2.406 1.046-.892.077-1.912-.11-3.026-.62-1.096.51-2.133.697-3.026.62-.96-.093-1.776-.476-2.38-1.045-.382.246-.79.475-1.19.713-.34.204-.663.383-.986.57 1.964 1.912 4.633 3.102 7.574 3.102 2.975 0 5.644-1.19 7.616-3.102m-15.52-.357c.374-.204.722-.4 1.096-.62.383-.23.8-.477 1.233-.757a8.9 8.9 0 0 0-.204-2.898c-.213-.944-.57-1.879-1.063-2.916H33.12a10.82 10.82 0 0 0 2.95 7.191m-2.95-7.667h4.012c.493-1.02.85-1.972 1.063-2.916.212-.926.289-1.87.204-2.89-.434-.28-.85-.526-1.233-.756-.374-.212-.722-.416-1.096-.62a10.82 10.82 0 0 0-2.95 7.182m21.743.476h-4.012c-.476 1.037-.85 1.972-1.062 2.916a9.1 9.1 0 0 0-.187 2.898c.433.28.85.527 1.232.756.374.213.723.417 1.097.621a10.8 10.8 0 0 0 2.932-7.191m-2.932-7.65c-.374.204-.723.4-1.097.62-.382.23-.799.477-1.232.757a8.8 8.8 0 0 0 .187 2.89c.212.944.586 1.895 1.062 2.916h4.012a10.77 10.77 0 0 0-2.932-7.183M44.23 54.702c1.003.459 1.93.629 2.745.552.876-.076 1.624-.433 2.16-.96a9.5 9.5 0 0 1 .186-3.069c.23-.986.62-1.972 1.13-3.043-.51-1.08-.892-2.065-1.13-3.052a9.8 9.8 0 0 1-.187-3.051c-.544-.544-1.283-.892-2.159-.969-.816-.06-1.742.093-2.745.553zm-11.382-8.594-4.216 8.288a5 5 0 0 1-.306-.281l5.083-9.979.009-.026c.28-.739.646-1.444 1.07-2.099l.018-.026 6.579-12.945c.11.076.23.136.34.213l-5.653 11.109-.008.026a3 3 0 0 1 .22-.221 11.7 11.7 0 0 1 3.205-2.236l.009-.017 2.72-8.381c.127.06.246.127.374.187l-2.593 7.982v.008a11 11 0 0 1 2.006-.62l.009-.018 1.122-7.106c.127.06.246.111.374.153l-1.088 6.877v.017a12 12 0 0 1 1.691-.161v-6.5200000000000005c.077.017.136.034.204.06.077-.034.136-.043.204-.06v6.519q.866.013 1.692.154v-.018l-1.088-6.876q.204-.064.382-.153l1.13 7.115v.008c.69.144 1.36.348 1.998.612l-.008-.017-2.61-7.956c.128-.06.247-.127.357-.187l2.729 8.373.008.008a11.5 11.5 0 0 1 3.213 2.244l.23.23-.009-.017-5.67-11.127c.111-.076.213-.136.324-.212l6.536 12.809.043.093c.459.698.85 1.446 1.147 2.245v.008l5.058 9.928c-.11.093-.204.187-.306.28l-4.216-8.27.008.042c.12.655.179 1.335.179 2.023 0 1.981-.51 3.86-1.42 5.483l.009.017 1.224 3.766c-.12.059-.247.136-.374.203l-1.14-3.493-.008-.017A11.3 11.3 0 0 1 52 56.215a11.4 11.4 0 0 1-2.38 1.827v.026l.246 1.564c-.136.034-.263.059-.4.11l-.229-1.462v-.017a11.16 11.16 0 0 1-5.057 1.292v.85h-.408v-.85a11.2 11.2 0 0 1-5.04-1.3v.008l-.23 1.47a5 5 0 0 0-.383-.11l.247-1.564v-.017a11.7 11.7 0 0 1-2.397-1.828 11.3 11.3 0 0 1-1.632-2.073l-.009.017-1.139 3.51c-.127-.06-.23-.136-.357-.204l1.224-3.774.009-.017a11.3 11.3 0 0 1-1.411-5.483c0-.705.06-1.385.187-2.056z"></path><path fill="#1C1C1C" d="M37.803 70.299h-.85v-5.474h-1.028v-.731h1.878zM42.173 66.228c0-.383-.128-.706-.374-.978a1.2 1.2 0 0 0-.91-.4q-.586-.002-.943.366c-.238.238-.357.561-.357.96q0 .575.357.944c.238.246.544.365.91.365.365 0 .68-.127.934-.373.255-.238.383-.536.383-.884m-1.437 4.071h-1.011l1.41-2.108c-.084.034-.17.068-.254.085a1 1 0 0 1-.23.026q-.814 0-1.385-.613a2.08 2.08 0 0 1-.57-1.47q-.002-.293.085-.587c.06-.195.136-.39.247-.578q.28-.52.765-.799c.323-.186.68-.28 1.08-.28.288 0 .569.051.824.161a2.2 2.2 0 0 1 1.156 1.165c.11.255.17.519.17.782 0 .535-.298 1.241-.893 2.133l-.017.035zM47.527 70.299H43.6v-.867l2.168-2.082.034-.034c.57-.553.858-1.012.858-1.369a1.102 1.102 0 0 0-1.13-1.122c-.34 0-.612.11-.8.331-.195.221-.288.527-.288.91v.068h-.85v-.017c0-.646.187-1.165.552-1.556.366-.39.859-.586 1.462-.586.544 0 .995.187 1.369.561s.56.833.56 1.368c0 .298-.067.587-.212.859-.144.272-.374.552-.688.85l-1.93 1.819h2.814v.867zM48.02 68.395h.833c.017.349.128.638.34.859q.32.33.791.331a1.173 1.173 0 0 0 1.198-1.207c0-.382-.119-.68-.348-.892-.238-.213-.57-.315-.995-.315h-.22100000000000003v-.833h.179c.315 0 .561-.068.723-.195.161-.128.246-.323.246-.587q0-.33-.204-.544a.68.68 0 0 0-.51-.221c-.23 0-.408.068-.544.204s-.204.323-.221.561h-.816c.017-.484.17-.867.468-1.156.288-.289.671-.434 1.139-.434.424 0 .79.154 1.096.451s.45.663.45 1.088q-.002.382-.144.663a1.26 1.26 0 0 1-.459.493c.331.127.587.34.765.629q.265.431.264 1.028c0 .596-.196 1.088-.578 1.496a1.9 1.9 0 0 1-1.428.604c-.621 0-1.105-.178-1.462-.544q-.536-.523-.562-1.479M69.662 17.25l-1.734-1.742.366 2.44-2.185 1.113 2.423.383.382 2.465 1.13-2.21 2.449.382-1.751-1.751 1.113-2.184zM17.251 18.339 15.51 20.08l2.44-.374 1.113 2.185.382-2.423 2.465-.383-2.21-1.13.374-2.448-1.742 1.751-2.185-1.105zM11.581 27.612l-.51.901-2.048-1.156c-.128-.782.068-1.657.484-2.38.901-1.59 2.67-2.142 4.208-1.275s1.98 2.669 1.07 4.275c-.484.859-1.18 1.42-2.005 1.59l-.247-.935c.63-.179 1.08-.536 1.386-1.088.62-1.096.314-2.286-.757-2.881-1.045-.587-2.244-.247-2.856.841-.204.365-.34.765-.331 1.207zM6.847 34.004l-.867-.297 1.42-4.191 5.593 1.896-1.377 4.08-.867-.298 1.028-3.043-1.453-.493-.91 2.703-.858-.289.91-2.703-1.539-.518zM10.536 42.13l-5.848-.79.119-.893L9.2 37.752l-3.961-.535.144-1.08 5.849.791-.12.893-4.394 2.694 3.961.535zM6.456 48.471l-.629.748c-.646-.493-1.037-1.258-1.122-2.176l-.332-.068c-.025.502-.297.756-.663.773-.484.035-.824-.407-.867-1.096-.017-.306.026-.57.128-.782l.51.162c-.085.178-.11.374-.102.578.017.314.144.441.331.425.162-.009.272-.145.247-.46l-.017-.263.756.145c.111-1.573 1.241-2.763 2.84-2.857 1.759-.11 3.11 1.165 3.221 2.975.06.961-.238 1.802-.842 2.389l-.705-.663a2.1 2.1 0 0 0 .595-1.615c-.077-1.224-.986-2.048-2.202-1.98-1.215.076-2.014 1.011-1.946 2.226.042.621.297 1.14.799 1.539M11.088 50.12l.255 1.063-4.836 1.147.714 3-.901.213-.97-4.072zM9.559 61.213l-.85.356-1.726-4.08 5.432-2.303 1.683 3.97-.85.357-1.25-2.959-1.41.596 1.113 2.626-.833.348-1.114-2.609-1.496.638zM12.007 66.959l.782-1.956a1.5 1.5 0 0 1-.136-.186l-.731-1.114-1.437.944-.603-.919 4.93-3.247 1.334 2.032c.85 1.292.723 2.533-.365 3.256-.748.492-1.547.475-2.244-.026l-.876 2.202zm3.34-3.979-.705-1.07-1.964 1.292.706 1.07c.527.8 1.173.978 1.785.57.62-.408.705-1.062.178-1.861M19.002 72.416c-.722.705-1.7.552-2.762-.536l-2.049-2.1 4.216-4.13 1.938 1.98c.995 1.011 1.097 1.972.425 2.627-.433.424-.969.518-1.462.365.298.603.238 1.258-.306 1.793m-.697-.867c.425-.417.298-.919-.28-1.505l-1.241-1.266-1.216 1.19 1.241 1.266c.57.587 1.071.723 1.496.315m.255-4.506-1.164 1.14 1.088 1.104c.527.544 1.028.663 1.41.281.392-.382.281-.876-.246-1.42zM23.243 70.231l.867.663-3.587 4.683-.867-.662zm.672-.969a.58.58 0 0 1 .841-.11.583.583 0 0 1 .11.841.583.583 0 0 1-.84.11.59.59 0 0 1-.111-.841M26.04 79.054l-.204-2.1-.204-.101-1.156-.655-.85 1.496-.952-.535 2.898-5.143 2.117 1.19c1.351.765 1.802 1.93 1.156 3.06-.442.782-1.156 1.13-2.015 1.003l.23 2.355zm1.156-5.066-1.114-.629-1.156 2.049 1.114.629c.833.475 1.487.331 1.853-.315s.136-1.258-.697-1.734M31.191 74.949l1.037.365-1.658 4.692 2.907 1.028-.305.876-3.944-1.394zM36.274 76.547l1.07.229-1.257 5.763-1.071-.23zm.204-1.165a.586.586 0 0 1 .714-.459c.34.076.527.374.459.714a.586.586 0 0 1-.714.459c-.34-.077-.536-.374-.46-.714M42.964 80.338l1.037.076-.162 2.346c-.646.45-1.521.646-2.355.587-1.827-.128-3.085-1.488-2.958-3.247.12-1.76 1.556-2.933 3.4-2.805.986.067 1.785.45 2.295 1.121l-.739.63a2.23 2.23 0 0 0-1.572-.791c-1.25-.085-2.193.697-2.278 1.921-.085 1.198.739 2.133 1.98 2.218.416.026.841-.025 1.232-.22zm-2.474-4.71.688.052c-.008.39.298.654.723.688.416.026.765-.195.807-.578l.689.051c-.085.748-.731 1.165-1.538 1.114-.8-.069-1.386-.57-1.369-1.326M45.743 76.207a.58.58 0 0 1 .553-.638.58.58 0 0 1 .637.552.58.58 0 0 1-.552.638.577.577 0 0 1-.638-.552m.145 1.172 1.096-.076.434 5.89-1.097.077zM52.5 81.842l.128-.927c.561.23 1.352.28 2.048.077.884-.255 1.165-.68 1.046-1.105-.357-1.224-3.494.552-4.105-1.547-.264-.918.238-1.904 1.793-2.355.68-.195 1.445-.229 2.032-.042l-.094.918a3.25 3.25 0 0 0-1.691.008c-.876.255-1.131.698-1.012 1.131.348 1.207 3.485-.552 4.088 1.53.264.91-.246 1.895-1.801 2.346-.885.246-1.845.23-2.431-.034M62.08 74.677c.578 1.164.068 2.311-1.318 3l-1.19.595.757 1.53-.986.484L56.725 75 58.9 73.92c1.394-.697 2.6-.416 3.179.757m-.986.492c-.332-.662-.97-.832-1.828-.399l-1.147.57 1.037 2.099 1.147-.57c.867-.433 1.122-1.037.79-1.7M63.738 74.702c-1.071-1.377-.8-3.221.646-4.343 1.445-1.122 3.298-.944 4.369.442 1.08 1.385.799 3.221-.646 4.343-1.437 1.122-3.298.935-4.37-.442m4.148-3.23c-.74-.952-1.972-1.096-2.907-.365-.935.73-1.105 1.954-.366 2.906.74.953 1.972 1.097 2.907.366s1.105-1.955.366-2.907M74.813 68.42l-2.1-.212c-.042.06-.093.119-.144.178l-.858 1.02 1.309 1.122-.714.834-4.48-3.843 1.581-1.844c1.012-1.181 2.236-1.394 3.23-.535.68.578.884 1.36.595 2.167l2.355.23zm-4.743-2.108-.833.97 1.785 1.53.833-.97c.63-.73.62-1.394.051-1.878-.57-.484-1.207-.382-1.836.349M77.184 59.929l.468 1.258 1.368.646-.467.995-5.338-2.517.467-.994 2.737 1.292-1.496-3.927.527-1.122 1.335 3.366 4.071-.995-.544 1.157zM78.952 55.5l-3.23-.807.263-1.062 3.188.798c1.181.298 1.819-.11 2.048-1.037s-.144-1.572-1.326-1.87l-3.187-.798.263-1.046 3.23.808c1.666.416 2.338 1.589 1.947 3.145-.383 1.58-1.53 2.294-3.196 1.87M77.158 47.987l.068-1.097 4.964.323.204-3.077.927.06-.272 4.173zM76.036 40.141a.496.496 0 0 1-.57-.45c-.033-.29.154-.528.46-.562a.49.49 0 0 1 .56.451.507.507 0 0 1-.45.561m.179 1.624a.496.496 0 0 1-.57-.451c-.034-.289.153-.527.46-.561a.49.49 0 0 1 .56.45.5.5 0 0 1-.45.561m4.522.782-3.315.365-.12-1.088 3.273-.357c1.207-.136 1.666-.731 1.564-1.683-.102-.944-.68-1.428-1.887-1.292l-3.272.357-.12-1.071 3.316-.365c1.708-.187 2.745.671 2.924 2.278.17 1.597-.655 2.668-2.363 2.855M78.995 29.848c.96-.306 1.768.263 2.227 1.708l.892 2.796-5.618 1.803-.842-2.636c-.433-1.351-.093-2.252.8-2.541.577-.187 1.096-.034 1.47.323 0-.654.34-1.215 1.07-1.453m-2.006 4.998 1.547-.493-.476-1.48c-.23-.722-.62-1.053-1.13-.883-.52.17-.647.663-.417 1.385zm2.235-3.91c-.56.178-.671.688-.425 1.47l.544 1.683 1.624-.518-.544-1.683c-.247-.791-.63-1.131-1.199-.953M72.016 28.012a.5.5 0 0 1-.697-.187.494.494 0 0 1 .204-.689.49.49 0 0 1 .689.195c.144.247.06.536-.196.68m5.27.39-2.907 1.624-.535-.96 2.873-1.607c1.062-.595 1.25-1.326.782-2.159s-1.182-1.046-2.244-.45l-2.873 1.606-.527-.944 2.907-1.623c1.504-.841 2.788-.45 3.578.952.79 1.411.45 2.72-1.054 3.561m-4.47 1.037a.5.5 0 0 1-.698-.186.494.494 0 0 1 .204-.689.49.49 0 0 1 .689.195c.144.247.06.536-.196.68M28.599 12.822l-2.627 1.437.144 1.504-1.003.553-.51-6.554.952-.527 5.253 3.961-1.02.561zm-.748-.586-2.253-1.76.272 2.839zM35.186 5.563l1.725 5.746-.875.264L31.7 8.63l1.164 3.893-1.062.315-1.726-5.746.876-.264 4.335 2.941-1.165-3.893zM40.626 8.317l-.867 1.054.127 1.53-1.113.094-.51-5.976 1.113-.094.264 3.069 2.694-3.315 1.25-.11-2.278 2.89 2.95 3.077-1.301.11z"></path><path fill="#1C1C1C" d="m49.075 9.626-2.983-.306-.731 1.317-1.14-.119 3.307-5.686 1.088.11 2.074 6.248-1.156-.119zm-.28-.91-.859-2.728-1.385 2.49zM55.459 12.66l-.646-2.04q-.117-.023-.221-.059l-1.292-.4-.519 1.667-1.062-.332 1.785-5.729 2.354.74c1.505.467 2.193 1.53 1.802 2.796-.272.867-.91 1.368-1.785 1.428l.731 2.295zm.068-5.27L54.286 7l-.714 2.277 1.24.391c.936.29 1.548.017 1.777-.705.221-.714-.136-1.284-1.062-1.573M61.987 14.276 59.36 12.83l-1.19.934-1.003-.552 5.253-3.952.96.527-.518 6.561-1.02-.56zm.093-.944.272-2.839-2.244 1.76z" data-source="https://football-logos.cc"></path><!-- source: https://football-logos.cc --></svg>