<svg xmlns="http://www.w3.org/2000/svg" viewBox="0 0 117.18 139.22"><metadata xmlns:fl="https://football-logos.cc/turkey/turkish-football-federation">dl1_18d141403ead403b39b17a4989849d550b651d470fdee86ee68c41b13885562b</metadata><!-- Source: https://football-logos.cc --><defs data-source="https://football-logos.cc"><clipPath id="turkey-turkish-football-federation-football-logos-cc-a" transform="translate(-453.41 -442.39)"><path d="M489.26 539.85a23.08 23.08 0 1 0 23.08-23.1 23.1 23.1 0 0 0-23.08 23.1" style="fill:none"></path></clipPath></defs><path d="m568.14 466.72-25.89-24.28s-17.09 6.19-29.91 5.5h-.68c-13.08.7-30.36-5.42-30.36-5.42L456 466.31c-16 73.39 49.07 111.43 56 115.25 6.91-3.81 71.72-41.73 56.13-114.84" style="fill:#e51936" transform="translate(-453.41 -442.39)"></path><path d="m568.14 466.72-25.89-24.28s-17.09 6.19-29.91 5.5h-.68c-13.08.7-30.36-5.42-30.36-5.42L456 466.31c-16 73.39 49.07 111.43 56 115.25 6.92-3.81 71.73-41.72 56.14-114.84Z" style="fill:none;stroke:#fff;stroke-miterlimit:3.864000082015991;stroke-width:.08399999886751175px" transform="translate(-453.41 -442.39)"></path><path d="m565.1 470.55-97.19 62.74c14.9 27.33 40 42 44.1 44.22 6.47-3.57 66.82-38.89 53.09-107" style="fill:#fff" transform="translate(-453.41 -442.39)"></path><path d="M488.92 539.86a23.43 23.43 0 1 1 23.43 23.43 23.44 23.44 0 0 1-23.43-23.43" style="fill:#e51936" transform="translate(-453.41 -442.39)"></path><path d="M508.39 491.32a17.23 17.23 0 1 1-5.54-26.9 22.5 22.5 0 1 0 9.66 17.77 17 17 0 0 1-4.12 9.13" style="fill:#fff" transform="translate(-453.41 -442.39)" data-source="https://football-logos.cc"></path><path d="M65.36 15.89 65.12 23l6.45 2.64-6.91 1.75-.48 7.19-3.97-6.04-6.49 1.48 4.13-5.34-3.55-5.86 6.43 2.37z" style="fill:#fff"></path><path d="M489.26 539.86a23.08 23.08 0 1 1 23.08 23.08 23.09 23.09 0 0 1-23.08-23.08" style="fill:#fff" transform="translate(-453.41 -442.39)"></path><path d="M489.26 539.86a23.08 23.08 0 1 1 23.08 23.08 23.09 23.09 0 0 1-23.08-23.08" style="fill:#fff" transform="translate(-453.41 -442.39)"></path><g style="clip-path:url(#turkey-turkish-football-federation-football-logos-cc-a)"><path d="m533.13 540.65-2.83 10-.12 4.27-3.39 3.36-6.75 4-2-2.18-11.75-.44c-.63.48-2.42 1.86-2.42 1.95-2.5-.84-8.8-5.74-8.8-5.74l-.67-5.89-2.62-10.88-2.65-3 2.92-9 5-1.46 7.61-5.38 3.06-3.57 8.27-.14 3.53 3.86 8.9 5.85 4.76 2.18 2.62 8.81Zm-3.13 9.91 2.83-10-4.21-6.33-9.25 2.09-2.58 8 5.23 8.44Zm-33.33-17.63 8.57 3.08 6.9-5 .17-7.27-7.31-3.28-7.75 5.48Zm8.62 3.44-8.74-3.13-4.48 5.84 2.54 10.73 7.54 2 5.65-7.7Zm16.42 16.52-5.23-8.46H508l-5.63 7.69 4 7.28 11.68.44ZM519.39 536l9-2-.33-7.44-8.93-5.86-6.53 3.11-.17 7.21Z" style="fill:#e51936" transform="translate(-453.41 -442.39)"></path></g><path d="M536.73 510.87a1 1 0 0 1 .1.22v.2c-.35.22-.81.51-1.41.84s-1.06.63-1.43.88-.84.57-1.41 1-1 .73-1.33.94c0 0-.09 0-.17-.07l-.17-.19a.7.7 0 0 1-.1-.23v-.17a7 7 0 0 0 1-.93c.21-.25.15-.68-.26-1.27l-2.12-3.24c-.38-.57-.74-.8-1.11-.7a6 6 0 0 0-1.2.49s-.09 0-.16-.07a.8.8 0 0 1-.17-.19.7.7 0 0 1-.1-.23q-.06-.17 0-.19c.35-.23.81-.52 1.39-.85s1.07-.64 1.46-.89.83-.57 1.39-1 1-.73 1.32-.94c0 0 .09 0 .16.06a1 1 0 0 1 .19.2 1.2 1.2 0 0 1 .1.25v.16a4.2 4.2 0 0 0-.89.94q-.31.48.19 1.26l2.13 3.24c.37.56.73.79 1.1.7a5.3 5.3 0 0 0 1.2-.48s.07 0 .15.07a.7.7 0 0 1 .19.19m6.97-8.93a6.26 6.26 0 0 1 .63 5.39 14.7 14.7 0 0 1-3.47 5.95s-.07 0-.16 0a2 2 0 0 0-.22-.1 1 1 0 0 1-.16-.21c0-.09-.06-.14 0-.17a9.63 9.63 0 0 0 1.94-4.74 6.9 6.9 0 0 0-1.17-4.39 9.6 9.6 0 0 0-1.83-2.18 1.21 1.21 0 0 0-1.53-.07 1.25 1.25 0 0 0-.57 1.32 5.5 5.5 0 0 0 .93 2 4.4 4.4 0 0 0 1.23 1.39.88.88 0 0 0 1-.06.46.46 0 0 0 .17-.15.7.7 0 0 0 .16-.17s.07 0 .19 0a1 1 0 0 1 .23 0l.22.11c.09.06.12.1.11.15a3.4 3.4 0 0 1-.33.93 2.8 2.8 0 0 1-.86.83 3.22 3.22 0 0 1-2.46.47 3.06 3.06 0 0 1-2.12-1.42 3.87 3.87 0 0 1-.53-3.23 5 5 0 0 1 2.31-3 4.38 4.38 0 0 1 3.5-.78 4.56 4.56 0 0 1 2.84 2.11m8.21-4.21q.06.54.22 1.55c.12.69.23 1.23.35 1.67a4.7 4.7 0 0 0-.95.49c-.42.27-1 .63-1.73 1.12s-1.47 1-2 1.36a8 8 0 0 0-1 .79s-.11 0-.2 0a.5.5 0 0 1-.21-.19v-.09a.2.2 0 0 0 0-.09 34 34 0 0 0 1.38-4.08 2.8 2.8 0 0 0-.26-2.2 1.5 1.5 0 0 0-.84-.64 1.47 1.47 0 0 0-1.16.3 1.73 1.73 0 0 0-.74.93 8 8 0 0 0-.3 1.21s-.07.06-.16.1a.7.7 0 0 1-.26 0 .5.5 0 0 1-.22-.07q-.13-.06-.15-.11a7.9 7.9 0 0 1 .38-2.63 3.78 3.78 0 0 1 1.58-1.94 3 3 0 0 1 2.23-.57 2.39 2.39 0 0 1 1.68 1.09 2.87 2.87 0 0 1 .33 2.27 10 10 0 0 1-1.65 3.29l2.27-1.58a1.6 1.6 0 0 0 .6-.75 3.1 3.1 0 0 0 .12-1s0-.1.14-.15a.54.54 0 0 1 .25-.1 2 2 0 0 1 .26 0c.09 0 .14 0 .14.07m8.27-2.4a3.72 3.72 0 0 1 .19 3.47A6.48 6.48 0 0 1 558 502a3.5 3.5 0 0 1-1.76.68 1.23 1.23 0 0 1-1.15-.54 1.14 1.14 0 0 1-.16-.94 1.35 1.35 0 0 1 .6-.83.93.93 0 0 1 .79-.15 2.5 2.5 0 0 1 .65.3 6 6 0 0 0 .59.33.55.55 0 0 0 .53 0 1.52 1.52 0 0 0 .72-1.44 4.56 4.56 0 0 0-.9-2.26 3.05 3.05 0 0 0-1.07-1 1.21 1.21 0 0 0-1.33.14 2.3 2.3 0 0 0-.56.48 4 4 0 0 0-.32.57s-.07 0-.17 0a1 1 0 0 1-.27-.07.7.7 0 0 1-.19-.16c-.07-.06-.1-.12-.07-.17a5.35 5.35 0 0 0 .78-2.21 2.63 2.63 0 0 0-.3-1.72 1.4 1.4 0 0 0-.76-.6 1.14 1.14 0 0 0-1 .19 1.7 1.7 0 0 0-.65.78 5.3 5.3 0 0 0-.33 1.16s-.07.07-.17.1a.5.5 0 0 1-.26 0 1.3 1.3 0 0 1-.22-.09.21.21 0 0 1-.14-.1 6.2 6.2 0 0 1 .53-2.43 3.85 3.85 0 0 1 1.43-1.64A2.85 2.85 0 0 1 555 490a2.37 2.37 0 0 1 2 2.78 5.1 5.1 0 0 1-1.06 2 3.4 3.4 0 0 1 2.6-.68 3 3 0 0 1 1.84 1.28" style="fill:#e51936" transform="translate(-453.41 -442.39)" data-source="https://football-logos.cc"></path><!-- source: https://football-logos.cc --></svg>