<svg xmlns="http://www.w3.org/2000/svg" viewBox="29.19 148.53 728.5 802.01"><metadata xmlns:fl="https://football-logos.cc/turkey/eyupspor">dl1_7838f99fead3db31fc73eca56b64d3f8b1721610b6bac8d218d2b92ed9b6064a</metadata><!-- Source: https://football-logos.cc --><path d="M425.49 648.243c72.582-31.186 140.84-42.84 140.84-42.84s6.646-48.44-4.694-125.72-50.05-201.7-162.747-290.08c-53.2-41.721-103.81-62.51-103.81-62.51s-50.61 20.789-103.81 62.51c-112.7 88.38-151.407 212.8-162.748 290.08s-4.692 125.72-4.692 125.72 68.255 11.654 140.84 42.84c93.03 39.97 130.41 80.36 130.41 80.36s37.38-40.39 130.41-80.36" style="fill:#231f20;fill-opacity:1;fill-rule:nonzero;stroke:none" transform="matrix(1.33333 0 0 -1.33333 0 1120)" data-source="https://football-logos.cc"></path><path d="M48.577 433.178c-4.667 18.287-7.699 34.618-9.666 48.03-2.389 16.281-3.962 31.279-4.96 44.784l-.112.73h522.41l-.03-.56a627 627 0 0 0-4.973-44.954c-1.994-13.589-5.08-30.173-9.85-48.753l-.198-.654H48.958zM399.049 332.415l-34.44-71.352-1.594.01h-187.95l.54 1.09 34.521 71.52 1.163.05h188.476z" style="fill:#fff;fill-opacity:1;fill-rule:nonzero;stroke:none" transform="matrix(1.33333 0 0 -1.33333 0 1120)"></path><path d="M382.479 656.792c-47.363 24.163-75.06 46.242-87.4 57.294-12.363-11.072-40.138-33.21-87.654-57.423l-.756-.37v-122.01h176.189l.631-.105v122.01Z" style="fill:#e41a29;fill-opacity:1;fill-rule:nonzero;stroke:none" transform="matrix(1.33333 0 0 -1.33333 0 1120)"></path><path d="m100.951 534.953 45.688 94.655-1.282-.525c-50.113-19.17-94.331-29.04-111.849-32.538-.505-6.376-1.087-16.692-1.087-30.413 0-8.9.245-19.222.916-30.812l.081-1.038h67.201zM442.752 422.96l-38.97-80.736-.448-.932H313.35l-.595-.018 39.5 81.837.574 1.13h90.615zM244.154 424.241H155.85l-1.009-.073L100.315 311.2l-.733-1.574c15.724-26.264 33.938-50.326 54.519-72.031l.82-.893 90.534 187.573zM528.876 601.396l-32.376-67.08-1.082-.034h-88.935l-.602-.066 44.746 92.707 1.107-.448c29.994-11.092 57.471-18.823 77.809-23.841zM270.397 253.517l-38.602-79.977.95-.61c28.895-18.728 53.122-30.242 62.334-34.38a368 368 0 0 1 12.473 5.914l1.043.547 52.338 108.435-1.28.067H271.56z" style="fill:#ffd800;fill-opacity:1;fill-rule:nonzero;stroke:none" transform="matrix(1.33333 0 0 -1.33333 0 1120)" data-source="https://football-logos.cc"></path><path d="M72.828 507.508h35.574v-7.035a9.1 9.1 0 0 1-3.05.525H88.9v-20.685h17.282999999999998q1.016 0 2.218.42v-7.14q-1.11.315-3.236.315H88.901v-20.895h15.988a14.3 14.3 0 0 1 3.513.42v-7.56H72.919q.441 1.385.442 3.05v55.535q-.001 1.849-.533 3.05M132.005 472.116l-14.931 32.619q-.736 1.754-1.658 2.773h17.64v-.557q.184-1.3.647-2.321l10.467-23.018L155 504.736q.468 1.016.607 1.431.141.416.141 1.34h8.492l-1.528-2.703-15.272-32.412v-23.47q0-1.756.42-3.049h-16.318q.463 1.293.463 3.05zM256.004 470.338v-21.419q0-1.015.63-3.046h-16.38q.42 1.477.42 3.05v55.535q0 1.662-.42 3.05h23.54q20.77-.001 20.77-18.4 0-9.061-5.961-13.916-5.962-4.854-17.145-4.854zm0 6.93h3.601q9.42 0 9.42 12.144 0 5.281-2.402 8.434-2.401 3.151-6.462 3.152h-4.157zM292.956 449.709l2.54 9.814q4.715-3.988 7.998-5.564t7.074-1.576q4.535 0 7.215 2.313 2.682 2.313 2.683 6.386-.001 3.516-2.081 5.321-2.082 1.804-10.171 5.367-8.09 3.563-11.464 7.682-3.376 4.118-3.375 10.319-.001 8.515 6.156 13.65 6.156 5.137 16.337 5.137 4.815 0 7.59-.648 2.776-.65 8.419-2.962l-2.31-9.087q-4.734 3.248-7.614 4.454a15.2 15.2 0 0 1-5.941 1.208q-3.622 0-5.989-2.082t-2.368-5.226q-.002-3.237 2.229-5.041 2.228-1.804 10.214-5.134t11.422-7.584q3.435-4.255 3.435-11.007-.002-9.529-6.29-15.077-6.292-5.55-17.115-5.55-4.906 0-8.696.969-3.794.967-9.898 3.918M363.465 470.338v-21.419q0-1.015.629-3.046h-16.38q.42 1.477.42 3.05v55.535q0 1.662-.42 3.05h23.54q20.771-.001 20.77-18.4 0-9.061-5.962-13.916-5.96-4.854-17.145-4.854zm0 6.93h3.6q9.42 0 9.42 12.144 0 5.281-2.403 8.434-2.4 3.151-6.462 3.152h-4.155zM433.273 508.558q15.244 0 23.375-8.233 8.131-8.235 8.131-23.68 0-15.358-8.13-23.59-8.132-8.233-23.376-8.232-15.524 0-23.561 8.324t-8.037 24.237q0 14.893 8.222 23.033t23.376 8.14m-.092-6.614q-15.336 0-15.336-25.298 0-25.208 15.336-25.207 15.428-.001 15.428 25.207 0 25.298-15.428 25.298M494.683 473.593v-24.67q0-1.665.419-3.05h-16.275q.253.739.336 1.71.085.969.084 1.34v55.535q-.002 1.662-.42 3.05h24.551q8.674-.001 13.798-4.574 5.12-4.573 5.122-12.334 0-6.468-2.96-10.118-2.956-3.65-10.162-5.867l15.922-25.97q.746-1.2 1.073-1.618.325-.416 1.166-1.154h-18.501q-.372 1.755-1.017 2.864zm-.315 4.83h3.785q3.88 0 6.19 3.041 2.308 3.044 2.31 8.207-.001 11.431-8.96 11.432h-3.325zM216.904 507.508h7.66q-.415-1.388-.415-3.05v-37.346q0-10.538-6.664-16.362-6.666-5.822-18.79-5.822-12.31-.001-19.206 5.5-6.895 5.499-6.895 15.39v38.64q0 1.662-.42 3.05h16.447q-.487-1.39-.487-3.053v-37.93q0-6.846 3.706-10.548 3.707-3.7 10.564-3.7 6.95.001 10.934 3.977 3.986 3.978 3.986 11.01v37.19q0 1.759-.42 3.054m-27.264 15.435c-5.398 0-7.507-2.21-7.507-4.935s2.109-4.935 7.507-4.935c5.4 0 7.507 2.21 7.507 4.935s-2.108 4.935-7.507 4.935m21.43 0c-5.398 0-7.507-2.21-7.507-4.935s2.109-4.935 7.507-4.935c5.4 0 7.508 2.21 7.508 4.935s-2.108 4.935-7.508 4.935M222.523 312.192l-7.96-3.619v4.315q0 1.241-.439 2.193l20.63 7.102q-.365-1.097-.365-2.412v-44.737q0-1.243.315-2.412h-12.542c.24.684.362 1.486.362 2.414zM258.516 272.151l-1.386 5.791q3.068-.805 5.189-.804 5.553-.001 7.307 3.584 1.754 3.582 2.266 5.812t.512 4.79q-3.582-3.792-8.77-3.792-5.849 0-9.22 4.315-3.375 4.31-3.374 11.914 0 8.698 4.346 13.56 4.345 4.861 12.162 4.862 17.091 0 17.092-22.383 0-14.633-6.678-21.324-6.676-6.694-14.557-6.694zm14.25 26.331.219 3.807q0 7.9-1.24 11.377-1.24 3.475-4.156 3.477-5.104-.001-5.104-11.635-.001-11.781 4.886-11.781c3.792 0 5.396 4.755 5.396 4.755M303.495 312.192l-7.96-3.619-.002 4.315q0 1.241-.437 2.193l20.629 7.102a7.6 7.6 0 0 1-.365-2.412v-44.737q0-1.243.315-2.412h-12.542c.241.684.362 1.486.362 2.414zM339.488 272.151l-1.385 5.791q3.067-.805 5.188-.804 5.552-.001 7.308 3.584 1.753 3.582 2.265 5.812t.513 4.79q-3.584-3.792-8.772-3.792-5.846 0-9.22 4.315-3.374 4.31-3.373 11.914 0 8.698 4.346 13.56 4.346 4.861 12.163 4.862 17.09 0 17.09-22.383 0-14.633-6.676-21.324-6.676-6.694-14.557-6.694zm14.25 26.331.219 3.807q0 7.9-1.241 11.377-1.238 3.475-4.154 3.477-5.106-.001-5.105-11.635c0-7.854 1.628-11.87 4.886-11.781 3.914.105 5.395 4.755 5.395 4.755M95.391 318.39l51.055 105.777-1.097.074H51.794l-.839-.025c6.778-24.59 16.482-52.237 30.374-80.82a445 445 0 0 1 13.665-25.918zM109.369 535l47.604 98.627s8.131 3.374 11.84 4.968a666 666 0 0 1 29.33 13.437l.966.586V535.542l.105-1.26h-90.195zM451.72 424.147 319.746 150.722l.95.523c19.045 10.201 45.132 25.774 71.713 46.621 48.988 38.416 88.157 87.38 116.42 145.53 13.784 28.363 23.445 55.804 30.216 80.251l.123.594h-86.169zM253.79 424.149l-40.03-82.935.993.078h88.726l.902.023 39.988 82.852-1.725.074h-87.675zM442.419 630a623 623 0 0 0-21.075 8.595 663 663 0 0 0-30.253 13.89l-.041-1.022V535.332l.103-1.05h5.356l.955-.11 46.013 95.328zM536.332 599.453l-31.436-65.132.918-.039h50.925l.055.563c.69 11.783.942 22.266.942 31.287 0 13.721-.583 24.037-1.086 30.413a597 597 0 0 0-19.63 4.287zM170.75 252.103l-10.168-21.065.405-.531a402 402 0 0 1 36.761-32.64 472 472 0 0 1 26.77-19.491l.943-.566 35.929 74.435.508 1.268h-90.405z" style="fill:#603195;fill-opacity:1;fill-rule:nonzero;stroke:none" transform="matrix(1.33333 0 0 -1.33333 0 1120)"></path><path d="M295.08 550.567c30.476 0 55.184 25.69 55.184 57.377 0 23.728-13.854 44.093-33.609 52.827 0 0 7.326-5.674 11.25-10.011 6.764-7.477 10.541-17.62 10.541-28.523 0-24.104-19.417-43.644-43.367-43.644s-43.367 19.54-43.367 43.644c0 10.904 3.776 21.046 10.54 28.523 3.924 4.337 11.25 10.011 11.25 10.011-19.755-8.734-33.608-29.099-33.608-52.827 0-31.688 24.708-57.377 55.185-57.377" style="fill:#fff;fill-opacity:1;fill-rule:nonzero;stroke:none" transform="matrix(1.33333 0 0 -1.33333 0 1120)"></path><path d="m305.86 694.558-3.721-13.396 11.589-7.678-13.89-.6-3.72-13.396-4.863 13.025-13.89-.6 10.885 8.649-4.863 13.024 11.589-7.678z" style="fill:#fff;fill-opacity:1;fill-rule:nonzero;stroke:none" transform="matrix(1.33333 0 0 -1.33333 0 1120)" data-source="https://football-logos.cc"></path><!-- source: https://football-logos.cc --></svg>