<svg xmlns="http://www.w3.org/2000/svg" xml:space="preserve" id="turkey-1st-lig-football-logos-cc-Layer_1" x="0" y="0" version="1.1" viewBox="0 0 1184 1504.04"><metadata xmlns:fl="https://football-logos.cc/turkey/1st-lig">dl1_3195ec1a5509bfec96dd7cd934f6ce5f6f434a15006ddd73cca3925adb185194</metadata><!-- Source: https://football-logos.cc --><style data-source="https://football-logos.cc">.st0{fill:#878585}.st1{fill:#f2001d}.st2{fill:#e3e3e3}</style><path d="M565.06 15.51 589.33.85C239.85-21.91 158.55 419.8 441.09 546.34 188.21 397.29 291.49 24.61 565.06 15.51" class="st0"></path><path d="M524.84 43.74c-128.83 131.73-79.75 311.87 77.46 378.19 118.38 40.46 202.65-26.68 202.65-26.68s-29.15 86.71-125.26 130.79c-22.09 8.89-118.89 48.15-218.97-2.16-10.26-4.97-46.02-23.21-79.28-61.48-19.79-22.77-66.8-84.98-64.72-174.74 2.57-111.13 78.37-177.75 90.07-187.69 45.38-38.55 93.41-51.43 118.05-56.23" class="st1"></path><path d="m859.65 167.98-5.86-19.27-8.77-22.12-8.47-13.62-23.71-8.39-76.53-50.82-.05-.08-17.59-25.4-25.45-3.72-24.2.01-18.58 1.42-10.84 2.77-16.64 24.8-.08.06-76.8 50.99-.06.02-25.52 9.25-6.18 10.16-10.67 24.67-7.97 40.26 20.39 23.56.03.12 20.94 84.2v29.5l17.36 19.06 22.39 17.23 19.79 12 27.74-8.36 112.34-.1 23.64 8.46 14.07-6.79 16.93-11.59 24.41-22.21 6.21-8.29.02-30.14 21.27-83.59 19.57-22.37zm-20.05 46.29-20.31 81.9-56.63 10.69-38.54-48.32 1.03 5.79-5.48-2.84 37.71 49.21-26.37 52.34H629.08l-27.41-52.73 37.25-48.32-4.77 2.49 1.2-6.87-38.12 49.35-57.45-11.55-20.27-81.25 38.18-44.93 54.39 14.48-5.83-5.62 7.81-1.05-.78-.19-53.38-14.03-11.57-55.65.27-.19 76.58-50.75 51.92 24.66-.23 49.19 2.55-5.36 2.65 5.51V80.96l51.83-24.73.25.15 76.65 50.49-11.11 57.27L746 177.01l6.76.84-5.68 5.51 52.96-14.06.2.23 39.42 44.49z"></path><path d="M679.23 400.15c-104.81 0-190.08-85.39-190.08-190.35S574.42 19.45 679.23 19.45s190.08 85.39 190.08 190.35-85.27 190.35-190.08 190.35m0-374.7c-101.5 0-184.08 82.7-184.08 184.35s82.58 184.35 184.08 184.35 184.08-82.7 184.08-184.35S780.73 25.45 679.23 25.45"></path><path d="m735.33 183.69-38.72-4.79-17.16-35.73-17.05 35.79-38.69 4.91 27.88 26.86-6.83 39.24 34.83-18.21 34.9 18.1-6.96-39.23zm-22.18 64.35-33.56-17.41-33.49 17.52 6.57-37.78-26.76-25.77 37.16-4.72 16.38-34.4 16.5 34.35 37.18 4.59-26.68 25.87z" class="st2"></path><path d="m750.56 178.58-4.89-.6-44.41-5.49-19.84-41.29-2-4.16-1.98 4.16-19.71 41.36-44.65 5.67-4.63.59 3.99 3.84 31.65 30.49-7.68 44.17-.93 5.33 4.34-2.27 39.79-20.8 39.47 20.48 4.73 2.45-1-5.61-7.78-43.86 31.32-30.38zm-43.03 32.05 6.96 39.23-34.9-18.1-34.83 18.21 6.83-39.24-27.88-26.86 38.69-4.91 17.05-35.79 17.16 35.73 38.72 4.79z" class="st2"></path><path d="m707.53 210.63 6.96 39.23-34.9-18.1-34.83 18.21 6.83-39.24-27.88-26.86 38.69-4.91 17.05-35.79 17.16 35.73 38.72 4.79z" class="st1" data-source="https://football-logos.cc"></path><path d="M519.24 641.97h-14.91l-.13-.31c-12.12-28.49-21.21-41.88-43.17-74.23l-8.14-12 3.4 3.26c24.92 23.87 46.55 52.41 62.56 82.54zM542.37 1179.08l-.31.71c-29.94 66.34-79.91 127.22-152.77 186.11l-3.18 2.57 2.46-3.26c55.44-73.28 91.98-134.06 111.71-185.81l.12-.32zM919.94 1504.04l-3.13-2.35c-114.32-85.7-215.18-231.25-246.65-322.45l-.23-.66h65.79l.11.35c34.93 107.28 94.35 212.62 181.67 322.05zM824.52 410.32 822 414.4c-1.65 2.69-4.2 6.38-7.43 11.05-21.13 30.59-70.63 102.23-95.21 215.92l-.09.4h-41.58l.27-.69c34.76-89.36 104.7-186.7 143.26-227.28z" class="st0"></path><path d="M605.94 945.09v-26.03h25v26.03M747.31 711.15v-70.43h30.52v218.16h-28.07V831.8c-2.5 2.75-3.96 4.45-5.51 6.07-17.63 18.34-39.72 23.46-63.99 20.54-36.32-4.36-64.53-31-70.89-66.08-7.27-40.12 9.25-77.62 42.61-94.49 25.79-13.04 52.19-13.58 78 .3 6.16 3.29 11.33 8.42 17.33 13.01m2.43 62.75c.01-32.79-23.83-57.5-55.6-57.61-31.3-.1-55.81 25.15-55.83 57.52-.02 31.19 24.83 57.05 54.87 57.08 31.4.03 56.55-25.3 56.56-56.99M423.57 786.87H290.31c.06 1.25-.05 2.2.17 3.07 10.26 40.36 56.38 54.8 87.48 27.26 3.15-2.79 6.18-3.79 10.19-3.69 8.58.21 17.17.06 26.74.06-4.93 9.77-10.74 17.35-17.9 23.84-46.82 42.43-119.45 19.67-135.36-42.38-11.98-46.71 15.15-93.23 60.95-104.53 46.83-11.55 94.42 20.65 100.87 68.47.93 6.88.7 13.93.85 20.9.04 2.13-.43 4.27-.73 7m-30.43-23.97c1.87-22.03-23.74-45.79-49.88-46.6-27.04-.85-53.54 22.21-53.17 46.6z"></path><path d="M425.16 1120.23h-57.31c15.32-56.71 30.56-113.08 46-170.23h-30.58c.82-3.25 1.42-5.75 2.09-8.24 3.28-12.19 6.65-24.36 9.83-36.58.63-2.42 1.42-3.75 4.22-3.74 27.63.09 55.26.08 82.9.11.48 0 .95.24 1.88.49-19.7 72.77-39.37 145.49-59.03 218.19" class="st1"></path><path d="M1041.89 688.29c48.9.02 87.21 37.71 87.19 85.77-.02 46.48-39.76 85.24-87.33 85.15-48.21-.08-87.59-39.02-87.59-86.62 0-46.67 39.17-84.32 87.73-84.3m56.69 84.83c-.07-31.4-25.5-56.84-56.81-56.83-31.83.02-56.87 25.47-56.79 57.75.08 31.21 25.81 57.18 56.66 57.17 31.14-.01 57-26.39 56.94-58.09M444.57 692.87h28.32v16.75c2.71-2.76 4.43-4.64 6.29-6.39 12.74-11.94 28.3-15.67 45.16-14.88 23.35 1.1 42.55 10.02 54.97 30.75 6.33 10.56 8.83 22.32 8.92 34.4.26 34.46.09 68.93.08 103.4 0 .49-.13.98-.25 1.89h-30.22v-5.9c0-27.97.08-55.95-.06-83.92-.03-6.3-.48-12.65-1.4-18.87-3.52-23.8-19.04-35.84-42.95-33.63-20.03 1.85-33.35 14.45-36.95 35.23a83 83 0 0 0-1.2 13.89c-.11 29.14-.05 58.28-.05 87.42v5.84h-30.65c-.01-55.33-.01-110.4-.01-165.98M866.01 908.53h-31.63c.77-2.14 1.39-4.11 2.18-6.01 6.47-15.67 13.1-31.27 19.33-47.03.96-2.44.94-5.94-.04-8.37-20.18-50.1-40.57-100.11-60.92-150.14-.49-1.2-.96-2.41-1.73-4.33 10.79 0 21.03-.14 31.26.19 1.17.04 2.69 2.53 3.31 4.17 14.56 38.2 29.02 76.43 43.51 114.66.64 1.7 1.36 3.36 2.43 5.99 3.71-9.51 7.11-18.21 10.49-26.91 12.17-31.28 24.39-62.54 36.39-93.89 1.32-3.45 3.04-4.4 6.51-4.32 9.14.23 18.29.08 28.3.08-29.94 72.33-59.65 144.09-89.39 215.91M809.56 986.71c-6.08 5.78-11.85 11.27-16.81 15.99-5.14-4.66-9.81-9.45-15.04-13.53-17.85-13.93-37.79-16.26-58.38-7.97-20.6 8.29-33.45 24.05-36.93 46.15-5.46 34.64 14.72 64.58 47.61 71.81 25.34 5.57 52.18-10.29 58.57-34.64.46-1.74.62-3.56 1.02-5.91h-40.48v-23.52h67.42c1.1 24.11-2.99 46.09-20 64.79-30.14 33.14-92.38 34.18-124.4-11.53-20.41-29.13-22.08-60.65-4.94-91.41 17.29-31.04 45.14-45.44 81.01-43.54 25.55 1.34 44.9 13.98 61.35 33.31M245.21 735.22c-5.1-3.62-9.5-7.22-14.33-10.08-14.63-8.66-29.59-6.17-40.96 6.47-10.36 11.52-14.19 25.34-14.2 40.47-.03 26.98-.01 53.97-.01 80.95v5.81h-30.94v-165.9h30.68v19.35c.31.31.62.63.93.94 9.72-14.95 22.81-23.2 40.82-23.4 17.45-.19 31.38 7.04 44.35 18.04-5.55 9.27-10.9 18.23-16.34 27.35M1184 858.9h-29.78V640.74H1184zM570.94 1096.92v23.36h-72.76V956.77h24.51v140.15zM605.51 956.77h24.35v163.54h-24.35zM605.37 919.51h24.54v24.34h-24.54z"></path><path d="M460.42 1120.28h-18.64c1.27-4.71 2.35-9.2 3.75-13.6.3-.94 1.7-2.13 2.64-2.16 5.27-.21 10.56-.1 16.5-.1-1.53 5.69-2.89 10.75-4.25 15.86" class="st1"></path><path d="M57.02 855.77c-22.54-9.1-28.27-26.64-28.37-49.33-.13-28.2-.23-56.4-.27-84.6 0-.33-.27-.6-.6-.6H.67c-.43 0-.67-.23-.67-.66v-27.64c0-.43.23-.66.67-.66h28.07c.43 0 .67-.23.67-.66v-51.39c0-.37.3-.66.67-.66h29.24c.53 0 .8.27.8.83v51.22c0 .37.3.66.67.66h50.41c.3 0 .53.23.53.53v27.6c0 .53-.27.83-.8.83H60.72c-.37 0-.63.27-.63.6v82.01c0 39.4 38.48 28.5 58.92 16.48.53-.33.83-.17.83.47v27.94c0 .47-.2.83-.63 1.1-18.58 10.11-42.29 14-62.19 5.93" data-source="https://football-logos.cc"></path><!-- source: https://football-logos.cc --></svg>