<svg xmlns="http://www.w3.org/2000/svg" viewBox="31.35 31.52 787.53 787.53"><metadata xmlns:fl="https://football-logos.cc/turkey/bartinspor">dl1_5c790beeac009771b02edc75cc8de81bf5d5f3793f053a8426da025f9fe92a8f</metadata><!-- Source: https://football-logos.cc --><path d="M425.114 35.516A389.764 389.764 0 0 1 814.878 425.28 389.764 389.764 0 1 1 425.114 35.516Z" style="fill:#fff;fill-rule:evenodd;stroke:#020202;stroke-width:7.99989986;stroke-linecap:butt;stroke-linejoin:miter;stroke-dasharray:none" data-source="https://football-logos.cc"></path><path d="M425.114 49.69a375.59 375.59 0 0 1 375.59 375.59 375.59 375.59 0 1 1-375.59-375.59Z" style="fill:#020202;fill-rule:evenodd;stroke:#020202;stroke-width:.56690001;stroke-linecap:butt;stroke-linejoin:miter;stroke-dasharray:none"></path><path d="M425.114 56.776c203.52 0 368.504 164.985 368.504 368.504S628.633 793.784 425.113 793.784 56.61 628.799 56.61 425.28c0-203.52 164.984-368.504 368.504-368.504" style="fill:#020202;fill-rule:evenodd"></path><path d="M425.114 65.137c198.902 0 360.143 161.242 360.143 360.143S624.016 785.423 425.114 785.423 64.97 624.181 64.97 425.28 226.21 65.137 425.114 65.137" style="fill:#c00;fill-rule:evenodd"></path><path d="M425.114 175.29c138.065 0 249.989 111.925 249.989 249.99s-111.924 249.989-249.99 249.989c-138.065 0-249.988-111.924-249.988-249.99 0-138.064 111.923-249.988 249.989-249.988" style="fill:#020202;fill-rule:evenodd"></path><path d="M425.114 183.652c133.448 0 241.628 108.18 241.628 241.628s-108.18 241.628-241.628 241.628-241.628-108.18-241.628-241.628 108.18-241.628 241.627-241.628" style="fill:#fff;fill-rule:evenodd"></path><path d="M283.188 267.561h40.55v325.697h-40.55z" style="fill:#c00;fill-rule:evenodd"></path><path d="M271.692 267.561h11.496v325.697h-11.496z" style="fill:#020202;fill-rule:evenodd" data-source="https://football-logos.cc"></path><path d="M262.038 166.777c5.731-2.315 10.18-3.344 13.315-3.101 4.496.323 8.031 2.334 10.624 6.038q4.11 5.87 2.08 12.996c-1.69 5.805-6.223 11.281-13.578 16.431l-26.423 18.502-.99-1.414c2.408-1.686 3.875-3.044 4.419-4.108.538-1.04.737-2.038.574-2.996-.151-.967-1.21-2.84-3.18-5.654l-23.624-33.738c-1.97-2.814-3.377-4.462-4.243-4.947-.854-.495-1.872-.64-3.038-.467-1.176.16-2.945 1.087-5.327 2.755l-.999-1.427 24.918-17.448c5.955-4.17 10.558-6.593 13.774-7.265 3.229-.68 6.287-.462 9.19.646 2.914 1.099 5.197 2.855 6.856 5.224 1.76 2.512 2.414 5.37 1.97 8.606-.441 3.215-2.544 7.008-6.318 11.367m-14.684 8.722c3.625-2.538 6.01-4.814 7.17-6.834 1.15-2.035 1.666-4.112 1.56-6.241-.12-2.12-.99-4.339-2.604-6.642-1.603-2.29-3.38-3.854-5.32-4.701-1.929-.833-4.003-1.039-6.232-.629s-5.195 1.94-8.906 4.579zm2.098 2.997 11.675 16.673 1.308 1.952c.962 1.374 2.036 2.183 3.237 2.394 1.192.2 2.474-.172 3.861-1.143 2.042-1.43 3.614-3.194 4.7-5.32 1.095-2.112 1.492-4.36 1.199-6.729-.272-2.365-1.16-4.61-2.645-6.73-1.705-2.434-3.798-4.225-6.27-5.361-2.473-1.136-4.961-1.403-7.478-.79-2.504.602-5.705 2.297-9.587 5.054m84.807-28.11-21.194 7.297-.51 6.714c-.16 2.235-.016 3.977.42 5.246q.875 2.537 3.32 3.014c.952.213 3.036-.116 6.246-.95l.562 1.63-19.956 6.872-.562-1.632c2.031-1.07 3.507-2.575 4.377-4.514.89-1.93 1.572-5.543 2.02-10.818l4.977-55.277.846-.292 38.579 41.768c3.676 3.955 6.377 6.303 8.123 7.054 1.33.573 2.931.613 4.811.134l.562 1.632-29.034 9.997-.562-1.632 1.193-.41c2.327-.802 3.86-1.7 4.572-2.673.489-.692.587-1.486.28-2.377a5.6 5.6 0 0 0-.834-1.538c-.154-.25-.972-1.203-2.474-2.865zm-2.639-2.759-16.043-17.59-2.1 23.838zm63.19-21.778 1.242 17.754q.36 5.14 1.072 6.412c.493.863 1.277 1.528 2.366 1.98 1.104.452 3.099.584 6 .382l.12 1.721-32.417 2.267-.12-1.722c2.932-.205 4.89-.613 5.902-1.245.999-.614 1.683-1.367 2.052-2.274.353-.905.41-3.055.17-6.482l-2.872-41.087c-.24-3.427-.597-5.564-1.074-6.427-.493-.862-1.275-1.513-2.38-1.964-1.09-.468-3.083-.585-5.984-.382l-.122-1.737 29.421-2.058c7.666-.536 13.298-.385 16.926.418 3.612.805 6.65 2.562 9.096 5.258 2.43 2.68 3.795 5.949 4.063 9.774.326 4.67-1.094 8.644-4.242 11.94-2.017 2.079-4.912 3.738-8.702 4.964l16.72 20.372c2.186 2.634 3.724 4.256 4.601 4.883 1.36.882 2.862 1.306 4.558 1.283l.12 1.721-19.938 1.395-22.418-27.437zm-2.17-31.047 1.939 27.732 2.661-.186c4.319-.302 7.527-.911 9.624-1.858q3.144-1.42 4.767-4.658c1.082-2.158 1.515-4.894 1.282-8.225-.337-4.83-1.717-8.304-4.142-10.457-2.409-2.154-6.123-3.047-11.143-2.696zm119.768 5.842-2.986 16.93-1.652-.292c-.3-4.092-.892-7.084-1.788-8.994-.893-1.926-2.307-3.57-4.222-4.946-1.065-.772-3.062-1.4-5.973-1.913l-4.658-.821-8.5 48.208q-.845 4.791-.538 6.086c.22.866.79 1.681 1.708 2.459.93.797 2.278 1.342 4.056 1.656l2.077.366-.3 1.7-32.726-5.77.3-1.7 2.076.366c1.81.32 3.331.247 4.546-.204q1.316-.425 2.28-1.886.71-.994 1.542-5.714l8.501-48.209-4.532-.799c-4.2-.74-7.424-.4-9.644 1.058-3.113 2.014-5.424 5.273-6.945 9.758l-1.746-.308 2.985-16.93zm28.427 76.398-.618 1.612-30.98-11.892.62-1.611 1.968.756c1.716.658 3.223.877 4.501.666q1.374-.165 2.553-1.433.888-.84 2.605-5.315l14.96-38.974q1.744-4.541 1.69-5.872c-.021-.88-.41-1.782-1.178-2.727-.752-.94-1.97-1.732-3.626-2.368l-1.969-.755.624-1.626 30.98 11.891-.625 1.626-1.968-.756c-1.716-.658-3.217-.892-4.496-.681-.92.125-1.781.582-2.597 1.416-.583.58-1.45 2.352-2.59 5.32l-14.96 38.974q-1.745 4.542-1.69 5.872c.05.892.456 1.8 1.207 2.74.761.959 1.965 1.746 3.62 2.382zm58.516-37.77 5.695 49.979 14.46-23.142q3.022-4.837 2.708-7.407c-.317-2.328-1.979-4.402-5.007-6.219l.923-1.477 17.776 11.108-.923 1.477c-2.454-1.138-4.208-1.706-5.282-1.737-1.074-.03-2.158.348-3.243 1.12s-2.428 2.438-4.012 4.972l-28.006 44.82-1.355-.847-8.386-67.56-21.386 34.225c-1.93 3.089-2.53 5.616-1.784 7.588.723 1.978 2.01 3.536 3.826 4.67l1.274.796-.915 1.464-19.09-11.929.915-1.463c2.983 1.826 5.424 2.504 7.334 2.04s3.754-2.119 5.54-4.978l23.74-37.991-.254-2.156c-.249-2.134-.668-3.696-1.26-4.706-.588-.99-1.696-2.02-3.301-3.099l.923-1.477zM210.581 631.57l-10.251 9.047-.803-.957c2.254-2.647 3.443-5.517 3.575-8.62.125-3.096-.663-5.656-2.374-7.697-1.321-1.573-2.789-2.47-4.405-2.678-1.614-.222-2.972.136-4.071 1.058-.688.577-1.173 1.267-1.44 2.043-.355 1.053-.471 2.377-.345 3.956q.146 1.736 1.508 7.305 1.91 7.794 1.112 11.734c-.537 2.62-1.84 4.792-3.912 6.531-2.625 2.203-5.75 3.073-9.352 2.618-3.609-.462-6.74-2.268-9.382-5.415a16.7 16.7 0 0 1-2.055-3.06q-.798-1.577-1.642-4.269c-.315-1.002-.676-1.737-1.074-2.211-.338-.404-.847-.704-1.527-.889q-1.032-.285-2.33.097l-.718-.854 11.863-9.954.716.854c-2.767 3.481-4.21 6.915-4.333 10.334q-.195 5.115 2.622 8.473c1.453 1.732 3.082 2.71 4.886 2.948 1.804.239 3.334-.17 4.584-1.218q1.115-.936 1.66-2.405c.357-.973.524-2.123.472-3.454s-.426-3.43-1.133-6.312c-.988-4.037-1.52-7.095-1.58-9.174-.066-2.087.238-3.973.892-5.667s1.713-3.162 3.184-4.396c2.499-2.097 5.41-2.963 8.713-2.608q4.953.555 8.466 4.741a15.5 15.5 0 0 1 2.125 3.27c.421.888.824 2.059 1.187 3.52.378 1.461.742 2.41 1.087 2.82.338.403.73.614 1.168.638q.664.045 2.323-.845zm8.165 39.228-7.612 8.455c-1.485 1.65-2.318 2.774-2.49 3.383-.188.61-.138 1.28.148 1.995.293.723 1.12 1.703 2.5 2.946l-.746.829-15.489-13.946.746-.829c1.411 1.27 2.48 1.997 3.228 2.184.734.188 1.39.169 1.978-.067.58-.242 1.605-1.18 3.09-2.83l17.807-19.777q2.227-2.473 2.506-3.384c.18-.616.13-1.272-.155-1.988-.272-.717-1.112-1.696-2.509-2.953l.753-.836 13.287 11.964c4.374 3.937 6.807 7.545 7.307 10.816q.75 4.905-2.41 8.415c-1.782 1.98-3.915 3.114-6.414 3.42-2.492.3-5.05-.268-7.669-1.695-1.775-.945-4.396-2.986-7.856-6.102m13.435-14.921-11.86 13.172c.47.48.826.827 1.086 1.062 1.826 1.644 3.72 2.363 5.691 2.165 1.964-.19 3.982-1.43 6.034-3.708 2.037-2.263 3.024-4.362 2.98-6.304-.043-1.942-1.046-3.79-3.01-5.558zm45.077 27.548c5.783 3.053 9.423 7.36 10.94 12.908 1.503 5.553.739 10.965-2.307 16.24-2.601 4.505-6.202 7.707-10.816 9.608q-9.177 3.786-18.738-1.735c-6.384-3.686-10.078-8.703-11.07-15.058-.778-5.014.18-9.872 2.89-14.566 3.045-5.275 7.382-8.636 12.996-10.08 5.627-1.447 10.99-.556 16.105 2.683m-.644 1.857c-3.254-1.879-6.681-1.64-10.295.696-2.946 1.923-5.896 5.441-8.837 10.537q-5.25 9.093-4.567 15.28c.313 2.887 1.812 5.1 4.486 6.643 1.797 1.037 3.551 1.466 5.259 1.296 2.174-.235 4.404-1.332 6.682-3.295 2.272-1.953 4.55-4.907 6.826-8.85q4.072-7.052 4.771-11.298c.471-2.84.313-5.125-.489-6.875-.797-1.736-2.075-3.117-3.836-4.134m36.917 40.605-3.934 10.807q-1.139 3.128-1.052 4.066c.065.639.352 1.238.876 1.791.533.556 1.676 1.16 3.442 1.802l-.381 1.048-19.732-7.182.381-1.048c1.785.65 3.048.923 3.812.817.751-.101 1.352-.365 1.809-.803.446-.442 1.045-1.696 1.804-3.782l9.103-25.008c.759-2.086 1.11-3.442 1.055-4.076-.065-.64-.355-1.229-.889-1.785-.52-.563-1.667-1.156-3.432-1.799l.385-1.057 17.907 6.518c4.666 1.698 7.951 3.267 9.882 4.695 1.92 1.424 3.251 3.26 3.987 5.494.73 2.221.677 4.509-.17 6.837-1.035 2.842-2.917 4.815-5.642 5.933-1.737.698-3.882.916-6.441.644l4.515 16.42c.598 2.129 1.08 3.49 1.432 4.091.571.878 1.347 1.523 2.354 1.956l-.381 1.047-12.136-4.417-6.023-22.088zm6.878-18.897-6.144 16.88 1.62.59c2.629.956 4.683 1.44 6.17 1.431q2.228-.012 4.037-1.496c1.206-.989 2.181-2.491 2.92-4.519 1.069-2.939 1.168-5.353.302-7.26q-1.284-2.856-5.869-4.52zm88.344 31.407 12.793 19.243q2.722 4.062 4.794 5.612c1.013.73 2.106 1.158 3.289 1.261l-.098 1.111-21.267-1.86.097-1.111c1.358-.005 2.241-.146 2.658-.41.427-.263.655-.617.694-1.059.073-.843-.713-2.518-2.36-5.004l-8.338-12.606-1.623 1.133-.975 11.148q-.28 3.194.022 4.013c.19.545.615 1.028 1.26 1.457.657.44 1.73.721 3.242.854l-.097 1.11-20.609-1.803.097-1.11 1.357.118c1.183.104 2.159-.029 2.916-.387q.822-.348 1.33-1.345c.267-.453.48-1.709.66-3.766l2.352-26.872c.182-2.088.193-3.403.013-3.948-.17-.543-.582-1.035-1.217-1.484-.644-.45-1.532-.725-2.674-.825l-1.357-.119.098-1.12 20.331 1.778-.098 1.121c-1.378-.12-2.454-.017-3.209.32q-.825.364-1.359 1.312-.435.723-.707 3.824l-1.112 12.71 16.23-10.931c2.258-1.523 3.438-2.798 3.527-3.816.067-.772-.313-1.406-1.138-1.924-.422-.264-1.511-.494-3.254-.71l.098-1.12 15.94 1.395-.098 1.12c-1.438-.022-2.57.128-3.419.468-.858.34-2.853 1.575-5.99 3.684zm31.8-14.134 20.958-2.945.156 1.114-1.043.146q-2.36.332-3.181.948c-.547.41-.902.93-1.067 1.536-.163.618-.092 2.088.233 4.398l2.794 19.884c.512 3.639 1.125 6.003 1.844 7.111.717 1.098 1.753 1.943 3.121 2.553 1.367.6 3.006.766 4.928.496 2.198-.309 4-1.062 5.404-2.27 1.415-1.21 2.379-2.733 2.9-4.578.523-1.846.487-4.927-.12-9.24l-2.327-16.562c-.256-1.82-.633-3.09-1.12-3.814s-1.044-1.198-1.658-1.414c-.965-.334-2.264-.38-3.91-.15l-.156-1.114 14.046-1.974.157 1.114-.839.118c-1.134.16-2.053.519-2.745 1.085s-1.148 1.329-1.356 2.296c-.165.68-.137 1.843.096 3.5l2.168 15.426c.671 4.774.838 8.264.512 10.467-.336 2.205-1.597 4.363-3.78 6.484s-5.39 3.479-9.603 4.07c-3.506.493-6.292.405-8.345-.265-2.787-.911-4.867-2.287-6.231-4.128-1.355-1.853-2.273-4.456-2.748-7.84l-2.795-19.883c-.327-2.33-.655-3.765-1-4.3-.337-.536-.85-.923-1.541-1.17-.683-.259-1.88-.247-3.595.015zm97.175 6.286 2.49 14.267-35.009 10.038-.307-1.07 1.31-.377c1.14-.327 2.004-.8 2.582-1.406.43-.413.682-.99.77-1.735.077-.516-.164-1.768-.733-3.753l-7.435-25.93c-.578-2.014-1.048-3.243-1.402-3.69-.363-.443-.915-.758-1.678-.947-.753-.191-1.69-.127-2.792.189l-1.31.375-.31-1.081 21.028-6.03.31 1.082-1.717.492c-1.151.33-2.007.79-2.595 1.4-.417.42-.683.99-.79 1.74-.074.526.167 1.778.733 3.753l7.202 25.116c.577 2.015 1.067 3.27 1.451 3.75.398.488.963.777 1.725.849.538.039 1.731-.218 3.587-.75l3.285-.942q3.141-.9 4.923-2.603c1.18-1.133 2.057-2.642 2.611-4.529.567-1.881.858-4.499.88-7.867zm3.04-29.619 18.686-9.935.529.993-.93.495q-2.106 1.12-2.666 1.978c-.374.573-.53 1.182-.477 1.809.058.635.628 1.993 1.723 4.053l9.426 17.728c1.725 3.245 3.11 5.257 4.165 6.052 1.05.787 2.312 1.226 3.806 1.332 1.49.096 3.087-.308 4.8-1.22q2.942-1.56 4.302-3.982c.916-1.62 1.3-3.38 1.16-5.294s-1.228-4.795-3.273-8.642l-7.852-14.766c-.862-1.622-1.652-2.688-2.356-3.2-.707-.515-1.392-.77-2.043-.763-1.02.017-2.257.417-3.724 1.197l-.529-.993 12.525-6.66.528.994-.748.398c-1.011.538-1.753 1.189-2.209 1.958s-.624 1.64-.488 2.621c.077.695.502 1.78 1.286 3.256l7.314 13.754c2.263 4.257 3.614 7.48 4.061 9.661.438 2.188-.009 4.647-1.334 7.386-1.326 2.74-3.877 5.113-7.632 7.11-3.126 1.662-5.774 2.532-7.933 2.604-2.93.097-5.355-.484-7.267-1.748-1.907-1.278-3.66-3.41-5.263-6.426l-9.427-17.729c-1.105-2.078-1.903-3.314-2.411-3.699q-.749-.58-1.848-.572c-.73-.01-1.85.411-3.373 1.243zm17.737-23.133c.993-.529 2.016-.628 3.077-.304 1.057.338 1.835.989 2.359 1.973q.779 1.466.293 3.06c-.324 1.06-.979 1.853-1.954 2.371-.984.524-1.998.618-3.068.3a3.88 3.88 0 0 1-2.372-1.955c-.523-.985-.618-1.998-.299-3.069.334-1.066.98-1.853 1.964-2.376m-9.99 5.311c.993-.528 2.025-.632 3.077-.303 1.056.338 1.844.984 2.368 1.968.518.975.618 1.998.284 3.064-.324 1.061-.97 1.849-1.954 2.372a3.88 3.88 0 0 1-3.06.294c-1.06-.325-1.861-.974-2.38-1.95-.523-.984-.609-2.003-.29-3.073a3.87 3.87 0 0 1 1.955-2.372m71.667-8.01c3.59-1.75 6.41-2.613 8.442-2.598 2.913.005 5.282 1.142 7.121 3.413q2.913 3.598 1.926 8.283c-.827 3.819-3.502 7.552-8.011 11.203l-16.198 13.117-.702-.866c1.476-1.195 2.36-2.137 2.663-2.847.3-.695.384-1.347.235-1.957-.141-.617-.907-1.776-2.304-3.501l-16.748-20.683c-1.397-1.725-2.379-2.724-2.959-2.997-.572-.28-1.235-.328-1.979-.164-.75.156-1.85.833-3.31 2.015l-.707-.874 15.275-12.37c3.65-2.956 6.507-4.725 8.55-5.303 2.051-.585 4.032-.582 5.953.002 1.928.577 3.479 1.606 4.655 3.058 1.247 1.54 1.798 3.352 1.657 5.459-.139 2.092-1.323 4.632-3.56 7.611zm-9.073 6.285c2.223-1.8 3.658-3.374 4.314-4.729q.973-2.043.724-4.093c-.172-1.361-.834-2.752-1.977-4.164-1.137-1.404-2.353-2.332-3.64-2.79q-1.922-.673-4.047-.124c-1.418.365-3.26 1.485-5.534 3.353zm1.488 1.837 8.277 10.221.931 1.2c.682.841 1.41 1.314 2.195 1.397.777.074 1.586-.223 2.437-.912 1.251-1.013 2.186-2.221 2.79-3.64.61-1.411.765-2.878.469-4.392-.281-1.512-.956-2.919-2.008-4.218-1.208-1.492-2.639-2.553-4.284-3.174-1.645-.62-3.26-.68-4.855-.172-1.586.5-3.574 1.738-5.952 3.69m15.571-38.847 14.433-15.477.823.767-.719.77q-1.626 1.744-1.876 2.74c-.167.662-.116 1.288.139 1.864.26.582 1.241 1.68 2.948 3.271l14.685 13.694c2.687 2.507 4.652 3.957 5.907 4.366 1.25.402 2.586.407 4.033.02 1.44-.394 2.818-1.296 4.142-2.715 1.513-1.624 2.44-3.343 2.77-5.166.338-1.83.13-3.62-.626-5.383q-1.131-2.648-5.91-7.106l-12.23-11.405c-1.344-1.254-2.437-2.004-3.27-2.26-.835-.256-1.566-.274-2.18-.055-.959.347-1.998 1.129-3.131 2.344l-.823-.767 9.673-10.374.823.767-.577.62c-.781.838-1.27 1.695-1.451 2.57-.182.876-.056 1.755.391 2.638.3.632 1.054 1.519 2.277 2.66l11.393 10.624c3.526 3.287 5.852 5.894 6.985 7.812 1.127 1.925 1.505 4.396 1.143 7.418s-2 6.095-4.901 9.206q-3.624 3.887-6.653 5.046-4.11 1.57-7.44.713c-2.219-.587-4.57-2.032-7.07-4.363l-14.684-13.693c-1.721-1.606-2.878-2.515-3.484-2.713q-.895-.306-1.933.06c-.694.23-1.616.992-2.784 2.274zm9.238-27.648c.768-.822 1.702-1.25 2.811-1.288 1.11-.025 2.057.337 2.873 1.097a3.88 3.88 0 0 1 1.273 2.798 3.88 3.88 0 0 1-1.075 2.878c-.76.816-1.688 1.235-2.804 1.281a3.88 3.88 0 0 1-2.88-1.075c-.814-.76-1.234-1.688-1.28-2.804-.032-1.117.322-2.07 1.082-2.887M629.69 625c.768-.822 1.71-1.257 2.81-1.288 1.11-.024 2.065.33 2.88 1.09.808.753 1.235 1.688 1.267 2.804.038 1.109-.315 2.064-1.075 2.879a3.88 3.88 0 0 1-2.797 1.274c-1.11.039-2.079-.315-2.886-1.068-.816-.76-1.229-1.696-1.275-2.812A3.88 3.88 0 0 1 629.69 625" style="fill:#fff;fill-rule:evenodd"></path><path d="m450.244 613.084 18.99-3.692-1.511 8.305-15.98 3.106-.734 4.339c6.92-1.08 12.553-.395 16.877 2.06 3.559 2.01 5.723 4.97 6.48 8.86.484 2.491.244 5.07-.703 7.724-.957 2.654-2.59 4.88-4.913 6.666s-5.026 2.98-8.09 3.574c-3.318.645-5.982.517-7.998-.373-1.407-.638-2.212-1.51-2.43-2.632-.167-.858.013-1.677.53-2.456.514-.788 1.206-1.262 2.064-1.429.775-.15 1.604-.142 2.461.02.858.161 2.39.733 4.583 1.716 1.378.6 2.543.978 3.482 1.124.659.116 1.387.101 2.163-.05 1.633-.317 2.907-1.18 3.817-2.606.92-1.419 1.215-2.96.887-4.644-.68-3.503-2.992-6.02-6.93-7.522-3.938-1.513-8.574-1.756-13.924-.716q-.796.155-2.414.5zM428.29 635.062l-.087-1.068c2.248-.849 3.805-1.6 4.65-2.252q1.269-.98 2.09-2.83c.557-1.234.782-2.463.684-3.676q-.202-2.52-2.182-4.176c-1.322-1.114-2.894-1.593-4.719-1.446-2.84.228-5.125 1.925-6.864 5.081l-1.162-.303c1.19-3.498 2.85-6.198 4.995-8.083 2.134-1.882 4.606-2.936 7.405-3.162q4.277-.345 7.27 2.045c1.986 1.593 3.084 3.56 3.271 5.883q.181 2.285-.944 4.49c-.746 1.48-1.994 2.831-3.754 4.048 2.468.97 4.386 2.246 5.766 3.835 1.38 1.59 2.174 3.666 2.38 6.216.345 4.293-.918 8.067-3.776 11.323q-4.302 4.886-12.14 5.517c-3.484.28-6.071-.096-7.76-1.119-1.226-.715-1.88-1.717-1.983-2.991-.075-.934.193-1.749.803-2.465q.928-1.064 2.233-1.171a4.4 4.4 0 0 1 1.92.273c.336.14 1.557.929 3.657 2.377 2.11 1.458 4.02 2.108 5.74 1.97q2.24-.18 3.715-2.084c.973-1.267 1.391-2.814 1.244-4.639-.223-2.778-1.403-5.25-3.53-7.438-2.137-2.176-5.109-3.565-8.923-4.155" style="fill:#020202;fill-rule:evenodd"></path><path d="m392.162 655.542.07-.85c3.421-.49 6.366-1.396 8.821-2.698 2.467-1.31 4.474-3.003 6.013-5.1 1.55-2.095 2.723-4.555 3.499-7.393-1.308.55-2.412.908-3.315 1.095a10.2 10.2 0 0 1-2.809.145c-3.12-.257-5.62-1.59-7.508-4.01-1.899-2.42-2.683-5.574-2.362-9.483.223-2.716.999-5.157 2.304-7.325 1.304-2.157 3.055-3.777 5.242-4.86q3.279-1.609 6.653-1.331c2.415.198 4.628 1.08 6.66 2.634 2.035 1.545 3.59 3.687 4.651 6.404s1.448 5.745 1.174 9.083c-.357 4.333-1.734 8.394-4.134 12.194s-5.76 6.728-10.064 8.796c-4.312 2.056-9.27 2.953-14.895 2.699m19.069-18.554c.393-2.243.661-4.235.803-5.956.302-3.68.16-7.146-.44-10.4-.332-1.801-.95-3.156-1.836-4.064-.461-.487-1.107-.759-1.915-.825-1.016-.084-1.84.287-2.47 1.1-.898 1.138-1.478 3.376-1.755 6.745q-.688 8.412 1.058 11.765 1.136 2.173 3.344 2.353c.799.065 1.862-.172 3.21-.718M390.73 611.623l-5.869 33.281q-.658 3.75-.517 4.852.156 1.089 1.085 1.934c.618.563 1.706.987 3.242 1.258l.932.164-.195 1.106-21.43-3.778.196-1.106 1.085.191c1.742.307 3.018.32 3.825.052.809-.27 1.408-.735 1.787-1.386.389-.65.811-2.265 1.263-4.826l3.719-21.091c.332-1.885.447-3.08.345-3.573-.091-.502-.359-.96-.792-1.386q-.65-.62-1.603-.79c-1.024-.18-2.32-.08-3.898.306l-.341-1.18 16.172-4.203zM430.555 456.61c7.807 2.668 14.729 4.223 21.735 5.395 3.62.606 7.265 1.11 11.065 1.61 6.418.848 16.563 1.333 24.85 4.231 7.595 2.656 13.642 7.39 13.578 15.274-.069 8.46-8.18 18.385-23.778 26.39-13.648 7.004-27.149 9.029-41.145 13.203l53.154.33c-4.18 2.296-8.362 4.326-12.187 6.078l-57.195-.355c-4.866 2.228-9.993 4.952-15.7 8.387l54.546.148c-3.99 1.886-7.86 3.873-11.654 6.122l-52.554-.143a365 365 0 0 0-5.489 3.715 244 244 0 0 0-4.419 3.118l52.609-.04a107 107 0 0 0-7.356 6.159l-53.36.04a160 160 0 0 0-7.384 6.282l54.82-.234a37.6 37.6 0 0 0-4.209 6.171l-56.974.243a97 97 0 0 0-5.382 6.106l59.841-.464a38 38 0 0 0-1.421 6.165l-62.947.488a66 66 0 0 0-3.442 5.864l65.936-.741a56 56 0 0 0 .224 6.15l-68.95.776c-1.038 2.68-1.815 5.229-2.461 7.661 98.072-5.423 155.76 7.522 204.732-68.529 10.324-16.031 15.253-23.822 7.206-43.011-4.8-11.445-12.561-18.649-19.903-28.195 22.202-9.454 39.222-14.18 54.194-13.159 3.602.968 8.905 2.41 14.401 3.966 4.984 1.412 21.488 8.413 23.798.086-8.747.446-20.606-3.233-22.046-9.443 2.917-2.001 7.564-2.018 11.06-1.89 8.13.299 14.564 2.991 16.632 8.377 8.219-7.872-.65-12.848-7.779-15.417-4.626-1.667-9.721-2.615-13.44-2.912-.206-7-2.476-12.096-11.246-16.716-7.534-3.968-26.783-4.857-44.635-5.906-13.435-.788-26.08-1.668-32.344-4.018-4.889-1.834-6.922-5.872-7.156-9.537-.57-8.934 11.606-27.058 18.29-44.616 5.317-13.967 6.11-26.331-.364-40.21-5.636-12.084-16-21.84-28.608-29.102-13.55-7.803-28.374-13.43-42.572-16.488-12.137-2.613-23.658-3.243-35.302-2.927l-50.279 1.128c-4.06.04-6.537-.183-7.611.118a27.3 27.3 0 0 0-1.642 8.126l62.259-.7c-.212 1.908-.283 3.99-.218 6.157l-61.625.692c.515 2.861 1.459 5.675 2.763 8.428l59.715-.88a55 55 0 0 0 1.436 6.133l-57.635.85c1.849 2.732 4.016 5.392 6.419 7.967l54.432-.992a65 65 0 0 0 3.72 6.086l-51.94.947a127 127 0 0 0 8.414 6.836l48.712-1.058a106 106 0 0 0 5.598 6.033l-45.756.993a211 211 0 0 0 10.336 6.33l42.107-1.061a218 218 0 0 0 7.094 5.976l-38.36.967c3.49 1.804 7.326 3.753 11.285 5.875l34.506-.99q1.19.917 2.371 1.821c1.786 1.368 3.471 2.729 5.035 4.122l-31.596.907c15.523 9.458 29.964 21.878 30.116 38.887.127 14.217-12.464 19.917-25.694 23.916-4.73 1.43-17.068 4.922-23.697 6.98l-63.225-21.82c-17.675 34.727-10.817 64.22 3.52 92.26z" style="fill:#020202;fill-rule:evenodd"></path><path d="M398.607 435.78c4.512 5.91 28.315 16.668 44.983 21.011 36.327 9.465 78.43 6.632 112.098-6.27 5.78-2.216 9.314-3.73 13.687-4.824 3.874-.969 8.158-1.646 12.54-1.825 6.22-.254 12.575-.943 18.028-2.919 6.069-2.198 7.633-6.048 7.761-10.003.26-7.992-4.067-12.212-11.23-14.465-8.215-2.582-20.547-2.455-32.827-2.734-9.446-.215-19.225-.347-27.99-2.207-5.358-1.137-10.523-3.032-13.9-4.734-9.914-4.997-11.279-11.015-3.81-26.435 3.554-7.336 8.672-16.392 12.42-24.35 13.664-29.017 2.944-54.042-17.375-66.347-25.495-15.633-49.995-25.68-73.381-23.92-2.867 20.966 7.566 34.112 18.305 46.669 9.628 11.256 18.89 18.078 27.206 24.447 9.96 7.628 16.808 15.038 16.636 29.015-.133 10.843-2.593 17.596-6.145 22.808-8.079 11.857-23.463 13.27-41.74 19.12-23.078 7.387-41.122 11.11-55.266 27.963m194.333-14.103c2.275 0 4.119 2.07 4.119 4.624s-1.844 4.624-4.12 4.624c-2.274 0-4.118-2.07-4.118-4.624s1.844-4.624 4.119-4.624M504.767 467.83c7.02 6.83 18.387 13.768 18.685 24.65.32 11.74-12.183 23.775-26.502 31.817-10.167 5.71-21.471 10.133-28.765 13.276-9.618 4.145-20.298 9.853-28.974 16.75-10.215 8.121-23.045 21.791-16.902 37.568 4.582 1.6 30.173-.588 35.95-1.301 18.613-2.298 37.122-9.628 50.286-19.073 16.247-11.658 23.073-19.913 34.446-36.271 11.769-16.928 18.38-29.506 5.477-51.055-7.205-12.032-14.577-18.7-20.642-21.995-4.914.37-19.974 2.94-23.059 5.634" style="fill:#fff;fill-rule:evenodd"></path><path d="M323.738 267.561h11.497v325.697h-11.497z" style="fill:#020202;fill-rule:evenodd"></path><path d="m381.531 458.804 31.535-9.257c2.87 1.35 5.878 2.628 8.898 3.837l-31.9 16.197c-5.424 2.744-15.861-8.624-8.533-10.778m-4.364-14.435 22.82-2.549c2.612 2.098 5.838 4.066 9.397 5.911l-28.781 7.43c-6.695 2.233-12.068-9.24-3.436-10.792m-5.732-12.829 26.564.287a53 53 0 0 0-3.195 4.312c.66 1.136 1.526 2.24 2.564 3.313l-23.78 2.325c-5.767.564-7.23-10.29-2.154-10.237m1.536-13.565 35.07 4.447a55 55 0 0 0-7.503 6.54l-29.004-.615c-5.855-.123-3.134-10.95 1.437-10.372m4.957-15.857 44.973 12.165c-3.852 1.599-7.66 3.47-11.3 5.743l-37.32-5.81c-4.027-.626-1.301-14.35 3.647-12.098" style="fill:#fff;fill-rule:evenodd" data-source="https://football-logos.cc"></path><!-- source: https://football-logos.cc --></svg>