<svg xmlns="http://www.w3.org/2000/svg" viewBox="15.91 141.8 563.45 558.29"><metadata xmlns:fl="https://football-logos.cc/turkey/keciorengucu">dl1_38c9b65621f6c4b2a958bc5ff7c6537163e9f32f1317e20628262abfa409a713</metadata><!-- Source: https://football-logos.cc --><path d="M481.724 287.63c-.785-.215 4.044 12.273 2.782 13.652l-24.76-11.393c-2.948-1.38-6.35-2.569-9.919-3.4-8.466-1.951-17.838-1.904-24.616 1.997-.214.119-.453.214-.714.357-1.405.594-3.117.808-4.401.404.072-.166.144-.38.262-.595 1.594-3.282 8.585-11.75 12.107-10.726-4.33-1.666-9.61-.214-13.605 1.76-1.19.57-8.706 7.445-10.68 8.443-.213.143-.38.191-.453.143-.118-.047-.237-.119-.355-.167-3.308-1.641-6.186-4.566-7.445-8.087-.525-1.57-1.334-11.06 1.117-11.488-9.872 1.809-13.51 13.13-8.657 25.498.165-.19.405-.404.641-.57l-4.208 9.585c-3.903-18.077-19.386-28.946-38.677-28.02-1.64.072-3.21 1.142-6.16 2.308 2.926 1.355 4.353 2.045 5.804 2.665 17.15 7.135 25.688 16.91 26.829 31.467.501 6.778-3.972 12.915-10.418 15.008l3.735 25.57c1.356-5.186 3.068-10.585 5.184-16.246-2.044 5.495-1.14 13.391-.832 19.599 4.567-2.14 11.157-2.545 20.646.429 0 0-13.247.594-19.765 9.609 1 5.352 3.4 10.3 9.11 12.035 10.132 3.02 14.127 8.42 14.127 8.42-3.282-1.331-7.159-2.426-10.677-1.451-1.43.404-6.068 4.995-6.068 5.16 9.278.31 17.245-.07 26.236 3.403 6.255 2.45 11.726 5.946 17.293 9.632-10.062-6.682-37.556-9.252-32.635 10.204.24.928 4.162 11.156 4.711 10.631 1.64-1.522 2.638-3.09 2.235-4.564 0 0 4.756 4.422 2.022 9.892a93 93 0 0 0 2.95 3.213c3.424-5.115 4.542-11.607-2.046-18.696.762.381 15.46 8.372 8.705 24.975 5.852-3.236 8.612-18.434 8.943-20.336-.643 5.35 6.994 10.963 9.56 14.721 1.597 2.332 3.07 4.688 4.853 6.85 8.637 10.61 20.599 25.714 36.535 28.377a506 506 0 0 0-6.469-1.094c5.733 6.922 13.533 12.153 22.12 14.818 1.784-7.254-.594-15.342-5.995-20.455-4.35-4.116-11.107-9.967-11.107-9.967l-1.331-.785s14.652-6.183 20.74-1.784c2.713 1.951 4.616 4.806 7.04 7.135 5.306 5.02 12.75 6.994 19.932 8.326 3.521.666 7.23 1.215 10.562-.024 4.114-1.498 6.898-5.398 8.634-9.419 1.617-3.734 2.522-9.228 4.21-13.128-.88 1.854-8.254 7.967-8.254 7.967l.262.141-.333-.069c0 .07 0 .119.047.142-.046 0-.095-.047-.19-.073l.072-.092-9.515-2.427c-3.163-.927-18.719-8.397-18.719-8.397s2.26-15.842 2.189-19.027c-.073-2.094-27.377-40.078-41.339-47.286 3.305 1.427 13.676 5.757 15.388 7.088 23.549 18.386 24.761 27.4 37.843 37.986 2.427 1.95 9.373 14.437 8.325 17.576l-11.18-9.751-4.685 10.63 21.62 13.464c.073-.047.12-.095.168-.095l2.569-4.948c2.021-8.276 3.71-21.953-3.236-33.036-3.163-5.067-5.779-12.964-7.92-21.574-.19-.143-.332-.643-.404-1.664a252 252 0 0 1-1.784-8.326c-3.545-10.75-10.894-23.453-9.134-33.06.047-.191.12-.358.168-.549-1.5.238-3.045.31-4.567.31a46.3 46.3 0 0 1-10.966-1.618c-.618 1.333-1.593 2.545-3.068 3.593-5.542 3.852-14.225.617-20.05-2.165-3.712-1.784-12.323-9.348-15.32-11.37v.024c.572.38.763.975.737 1.665 4.664 11.655-6.85 21.074-7.467 21.55 2.236-3.545 2.617-6.827 2.21-9.633-1.616 5.755-7.943 7.183-8.729 7.326 4.806-2.022 5.187-5.257 4.806-7.397-3.78 2.592-7.943 3.329-13.177 4.59-8.134 1.95-11.679-5.066-15.579-10.61-1.215-1.735-7.683-12.915-10.37-12.105-3.427 1.046-11.226 7.992-11.37 13.581 0 0-9.394-12.296-.31-19.836-3.614-10.038-14.889-7.589-14.889-7.589 4.59-6.04 9.396-7.277 13.154-6.968.07-.072.119-.167.19-.238a177 177 0 0 0-15.246-2.474s4.662-.095 10.917.118c.976-.093 2.116-.118 3.354-.093 2.543.07 5.161.236 7.8.474-.832-3.639-1.997-13.962 11.205-14.698 0 0-7.447 4.138-3.568 6.516 3.852 2.379 18.027 1.476 18.027 1.476s-11.462 3.4-11.272 8.942c9.965 2.236 19.314 5.85 27.59 11.87q.5.356.998.712c8.778 6.35 17.912 12.655 28.234 16.223 1.521.547 16.364 3.448 16.341 2.663 0-.143-.405-9.229-.405-9.229l8.277 9.229 17.484-2.354c.023-7.374-3.687-22.62-20.527-46.287l.119 10.157c-1.738-1.166-12.228-14.319-14.153-14.865M298.101 181.548c-2.044.785-4.138 1.545-6.23 2.33q.142.892.285 1.927c3.044.88 6.09 1.855 9.132 2.758 2.95.88 5.923 1.69 9.23 2.617.737-3.116 1.427-6.23 2.117-9.276 1.117-4.923 2.234-9.823 3.472-14.675a19 19 0 0 1 1.022-2.926c.095-.261.214-.5.358-.737 3.614-7.66 11.892-12.797 20.478-13.938a27.3 27.3 0 0 1 5.567-.143c.855.07 1.735.166 2.57.333-3.19-.857-10.467-2.593-13.513-3.283.144.048.263.12.405.167-1.45.237-2.901.452-4.377.642-2.188.31-4.375.619-6.54 1-.073.022-.12.022-.191.047h-.023c-5.47 1.285-10.845 3.211-14.176 6.517-.38.38-.736.762-1.048 1.166-1.997 2.568-3.423 5.09-4.185 7.634-1.593 4.924-.95 9.943 2.046 15.484-2.141.786-4.234 1.595-6.399 2.356M258.12 143.158c1.926-.166 3.876-.31 5.898-.452-2.046.143-3.996.31-5.898.452M199.465 192.442c.403.5.832 1.022 1.213 1.521 1.664-.261 3.378-.475 5.019-.904.286-.07.546-.143.832-.213 4.876-1.38 9.705-3.07 14.723-3.972 3.307-.642 4.876-1.832 4.662-5.162 0-.238-.047-.476.024-.619 1.356-3.115 2.165-6.254 2.783-9.442.713-3.71 1.094-7.469 1.499-11.322.427-4.329 2.9-8.706 6.373-12.106 2.998-2.95 6.78-5.162 10.585-5.947.761-.095 1.546-.19 2.331-.285-8.777.927-16.198 2.069-23.095 3.59-1.38 1.12-2.997 2.356-4.71 3.664-.07.047-.119.095-.166.143-1.071.809-2.165 1.665-3.259 2.45-.214.214-.428.38-.667.547-.974.785-1.95 1.546-2.9 2.307-2.118 1.736-4.115 3.472-5.661 5.042-.12.12-.263.214-.334.333l-.57.595c-.643.69-1.285 1.427-1.76 2.164a16 16 0 0 0-1.428 2.426c-2.45 5.115-1.783 10.347 1.427 13.962-.499.833-.975 1.666-1.474 2.474-1.832 2.95-3.639 5.85-5.447 8.754" style="fill:#fff;fill-rule:evenodd" data-source="https://football-logos.cc"></path><path d="M329.236 280.447c-.714-.167-1.499-.5-2.14-.38-12.844 2.069-25.687 4.138-38.46 6.517-.81.142-2.022 3.448-1.522 4.09 8.061 10.204 16.838 20.17 30.754 21.169 9.56.666 19.314-1.165 28.97-1.594 3.83-.165 7.73.524 11.583.642 1.951.048 3.949-.308 5.923-.474-.81-1.975-1.214-4.377-2.594-5.828-1.282-1.38-3.568-1.975-5.517-2.497-8.016-1.951-15.913-2.022-24.619 2.425.857-3.496 1.5-5.899 2.474-9.703-6.042 2.996-11.203 5.517-17.744 8.728 1.833-3.972 3.187-6.897 4.948-10.727-6.328 1.999-11.893 3.735-17.79 5.59 3.4-8.73 4.756-9.61 25.734-17.958M496.448 465.497c-.476-.24-1.024-.5-1.62-.834-.308-.168-.617-.333-.926-.523.809 4.114 1.261 6.302 1.64 8.516.43 2.424.335 5.017 1.285 7.182.144.334.38.62.666.856l.5.358c.666.428 1.475.783 2.236 1.19.237.118.5.26.714.404.64-1.31 2.02-2.808 1.735-3.88-.927-3.945-2.258-7.848-3.852-11.581-.025-.072-.072-.12-.12-.19-.047-.072-.095-.12-.142-.19-.404-.453-1.143-.834-2.116-1.308" style="fill:#fff;fill-rule:evenodd"></path><path d="M520.375 253.378c-2.592-5.28-8.062-14.437-13.273-22.001-8.23-8.966-17.03-17.41-26.377-25.212 6.35 11.37 10.3 24.261 12.225 38.389.358 2.855.594 5.685.762 8.563.262 4.591.358 9.206.617 13.82.335 5.755.595 11.583.953 17.387.119 2.093.26 4.186.45 6.28l.026 1.568c3.923 4.473 28.66 33.039 27.423 45.669-.38 3.686-.714 6.874-1.069 9.657a15 15 0 0 0-1.474-.072c-.667 0-1.31.072-1.929.143-.69 10.75 7.78 26.71 8.28 36.749 3.804 13.866 8.275 29.089 10.679 32.99 3.02 4.969 5.517 16.079 1.712 24.164.119-.26.237-.545.355-.785-.378 7.208-1.498 16.127-3.446 23.072-.476 1.76-1.071 3.568-2.356 4.853-1.666 1.688-4.162 2.165-6.494 2.424a55.9 55.9 0 0 1-24.926-3.065c5.328 4.518 6.255 13.318 2.02 18.86-2.854 3.759-7.586 5.875-12.32 6.089-4.733.213-9.418-1.285-13.534-3.615-8.205-4.71-14.462-13.2-15.34-22.619-.667-.12-2.118-.262-3.902-.453-1.64 3.186-3.591 9.656 3.473 14.984-.642-.355-5.924-3.424-10.632-8.134 5.589 20.431-17.388 34.18-17.388 34.18s9.609-46.595-22.475-27.853c-20.766 12.13-6.21 48.95-5.661 50.307-42.886-65.84.046-73.07-6.853-73.974-6.469-.855-9.488 7.326-9.846 8.302 4.59-19.695-.046-14.604-.046-14.604-11.252 34.06-62.604 14.7-62.604 14.7s53.018-25.714 22.143-50.212c-2.044-1.641-3.877-3.21-5.47-4.757-2.71-2.64-7.254-.213-6.518 3.497a70 70 0 0 0 1.81 7.065c13.651 44.192-63.055 26.328-63.055 26.328s70.69-3.424 36.201-45.69c-24.118-29.565 9.038-48.57 31.158-57.323-12.606-4.732-24.975 6.137-31.04 12.774 7.231-9.23 9.896-16.246 10.585-21.264-8.728 3.448-17.126 6.66-19.409 7.278-15.341 4.21-31.825 9.204-41.433 21.93 10.656-3.092 21.169-6.684 31.443-10.847-2.568 4.258-6.397 7.635-10.893 10.465 7.04.667 11.702 2.117 11.702 2.117-16.292 1.952-31.063 14.939-36.177 19.862a90 90 0 0 1 9.086-2.878c-.071.213-.12.356-.19.57 19.123-6.135 19.67 2.19 19.67 2.19-7.99 1.806-15.341 4.161-21.906 6.824 12.32 2.95 19.456 8.421 19.456 8.421-7.73-.262-15.983 2.902-22.762 6.518-23.667 20.93-31.159 59.27-17.862 87.218 8.086 17.056 28.97 33.276 17.172 53.947-1.285 2.234-7.04 9.323-7.04 9.323l-10.942 9.61c.215-.644 9.777-26.903 4.924-38.201-3.378-7.92-8.73-14.935-13.32-22.261-3.187 24.261-33.061 27.422-33.061 27.422 10.156-7.087 9.514-33.868 8.8-44.93-3.615 5.09-8.967 9.61-14.913 12.987 5.85-7.04 7.612-14.888 7.017-22.619-.262-3.663-1.094-7.326-2.284-10.893l-.785.285c.071-.713.096-1.38.166-2.07-6.23-16.958-19.955-30.802-19.955-30.802-19.409 9.515-24.547 29.567-24.547 48.119 0 9.918 1.475 19.432 2.998 26.614-4.33-5.375-9.562-12.915-14.724-22.596-18.6-34.988-35.44-98.112 2.022-190.495-.19.262-4.758 6.327-10.56 16.959.119-.095.285-.167.403-.262.976-.427-.736 1.974-.689 2.26 0 .286-.952 1.355-1.855 2.355-.119.167-.262.31-.43.476-16.957 33.133-40.267 100.04-3.186 173.655 2.308 4.543 4.852 9.182 7.683 13.795l.286-.237a196 196 0 0 0 6.041 10.132c33.609 52.636 94.047 87.696 163 87.696 19.67 0 38.699-2.877 56.56-8.157 17.865-5.351 34.584-13.082 49.785-22.881 4.018-2.57 7.848-5.28 11.583-8.064 2.639-2 5.208-4.02 7.73-6.136.642 0 20.05-18.887 27.78-28.851 11.227-14.51 31.849-17.77 47.214-7.73l29.494 19.288c9.134-17.504 16.223-36.059 21.217-55.134 21.335-81.583-.739-159.98-37.153-233.453" style="fill:#fff;fill-rule:evenodd"></path><path d="M439.173 226.858c-3.64-8.086-8.801-13.985-13.916-14.746.952 2.379 1.88 4.733 2.831 7.158a25863 25863 0 0 1 15.675 39.555c1.974-10.417-.31-22.666-4.59-31.967M460.889 221.054c-.31.214-.644.381-.904.643-1.76 1.237-3.617 2.687-5.66 3.26-2.38.689-4.163 1.474-5.378 2.544-.07.095-.165.167-.237.238-.144.142-.262.26-.358.404a5 5 0 0 0-.45.546c-.167.31-.335.595-.453.929a4 4 0 0 0-.285.737c-.048.095-.048.19-.07.261 0 .095-.026.191-.026.286l-.047.119c-.023.047-.023.047-.023.071v.048c0 .071-.025.214-.025.333v.095c-.047.047-.047.072-.047.095v.215c0 .141-.023.332-.023.547v.141c0 .072.023.167.023.262v.38c.047.073.047.12.047.168 0 .07 0 .166.025.261v.334c.07.142.07.333.095.522.023.072.023.167.07.262v.096c.072.189.072.404.12.57.048.214.094.357.12.572 0 0 .046.047.046.118q.072.393.214.785c.69-.334 1.356-.667 2.046-1.023.214-.118.453-.238.69-.356 3.114-1.428 6.279-2.83 8.729-5.02 2.927-2.52 4.994-4.21 6.994-5.066 3.305-1.426 6.42-.595 12.842 2.189-2.782-8.588-10.798-11.155-18.075-6.566M395.216 173.651c.167.118.335.214.5.31l.023-.025c3.735-4.186 7.161-8.158 10.775-12.25.096-.095.168-.19.24-.285a10.7 10.7 0 0 0-2.904-.76c-5.16-.643-10.25 2.664-13.818 9.727a400 400 0 0 0 5.161 3.26zM423.022 200.694c.047-1.736.618-3.163 1.475-4.4a8 8 0 0 1 1-1.26c2.615-3.069 6.42-5.59 6.064-10.656-.24-3.734 1.38-6.732 4.353-8.825.381-.26.808-.524 1.236-.784 1.12-.643 2.404-1.19 3.734-1.619-2.877-.641-6.136-1.403-8.752-1.164-.762.047-1.451.19-2.092.452a3.9 3.9 0 0 0-1.048.524c-2.927 2.163-3.805 7.183-5.447 10.988-.857 1.974-1.118 4.257-2.26 6.065-.19.261-.427.57-.69.833-.664.713-1.57 1.426-2.283 2.068-.855.738-1.426 1.452-1.331 2.022.38 2.356 2.783 4.377 4.376 6.542a100 100 0 0 0 1.665-.786M436.033 203.193a11 11 0 0 0-.737 1.784c-.095.38-.213.784-.285 1.212-.523 3.14 2.21 6.85 3.948 11.536a37 37 0 0 1 2.71-4.187 30 30 0 0 1 3.76-4.138c6.612-5.994 15.341-7.707 27.234-5.803-1.833-2.356-3.046-4.14-4.497-5.686-6.706-7.254-9.728-7.469-17.84-1.76-1.212.88-2.947 1.332-4.494 1.452-4.353.428-8.039 2.283-9.8 5.59M399.808 206.07c-5.4 1.975-9.325 6.612-12.63 11.274a133 133 0 0 0-10.3 17.03c1.928 2.141 3.735 4.21 5.328 6.113 7.517-13.7 22.288-23.57 37.962-24.022-2.428-8.183-12.346-13.272-20.36-10.395M364.177 201.242c-5.828.784-9.656 7.42-8.492 12.939 2.474 1.807 5.066 3.948 7.684 6.35a11 11 0 0 1 .213-1.76c.762-3.52 3.26-6.374 5.138-9.466 2.235-3.71 3.615-7.873 6.065-11.464 5.756-8.468 17.435-12.369 27.14-9.063-3.877-9.039-15.2-14.128-24.594-11.036-9.35 3.068-15.414 13.89-13.154 23.5M249.913 182.855c.904 1.262 3.853 1.238 5.923 1.523 1.212.143 2.497-.19 3.734-.261 8.944-.5 14.628-5.567 15.841-14.392.262-1.759.618-3.448 1.094-4.993 2.926-9.443 10.11-15.533 18.742-20.48.452-.286 1.31-.999 2.164-1.57.311-.214.62-.428.906-.57.093-.048.188-.096.284-.119-2.64.023-5.185-.19-7.777-.048-2.14-.12-4.353.119-6.446.07-.523.192-1.236.453-2.022.739-2.95 1.142-7.206 2.782-8.443 3.473-6.613 3.733-13.605 6.968-19.457 11.63-3.258 2.64-5.185 6.446-4.78 10.751.119 1.451.546 2.901 1.26 4.449.452.974-.166 2.496-.357 3.734-.285 2.092-1.546 4.827-.666 6.064M333.233 183.878c-.072.69-.119 1.332-.119 2.022-2.499 3.687-5.21 5.995-5.59 8.657-1.071 7.256 6.445 5.876 10.466 10.134 1.64-7.018 3.042-13.249 4.59-19.267.262-1.236.594-2.449.952-3.686 1.544-5.85 4.685-9.8 8.848-12.56 3.686-2.544 8.206-4.09 13.033-5.208 1.95-.475 4.02-.57 6.28-1.927-2.046-.785-4.162-1.974-6.303-3.163-.191-.119-.381-.214-.572-.333-2.067-1.165-4.114-2.308-6.134-3.187 0 .024-.05.024-.072.024-.405.118-.809.238-1.213.38-6.708 2.355-12.513 7.398-16.436 11.299-4.497 4.423-7.135 10.036-7.73 16.815M183.862 405.629c.547-.19 1.093-.381 1.664-.572-18.362-42.051-22.191-83.296-2.402-125.039a150 150 0 0 1 3.83-7.54c7.706-14.223 17.006-25.498 27.615-34.465 23.642-20.003 53.683-28.613 86.554-33.37h-34.631c1.38-4.875 2.735-9.728 4.59-16.173-3.662 1.688-7.42 2.33-9.276 4.542-2.022 2.498-3.306 6.445-3.306 9.776.047 6.303-3.64 8.087-8.635 9.942-13.01 4.757-12.939 4.924-17.72-7.302-9.204 3.948-10.489 8.372-5.16 18.077-.405.428-.762.904-1.285 1.237a121 121 0 0 0-11.987 8.419c-18.696 14.866-31.944 34.204-41.363 56.276-.429.976-.856 1.927-1.237 2.926-15.152 37.105-12.083 73.307 8.61 107.771 1.165 1.974 2.736 3.663 4.139 5.495M470.902 281.827h17.767c-7.04-7.54-14.842-7.421-17.767 0M442.882 331.586l-3.853 6.992h-1.594l-1.045-8.777-8.873 1.166c-.95 4.661 1.88 8.134 4.996 11.155 3.092 3.044 11.154-1.19 12.82-2.569 1.665-1.379-1.094-8.514-1.094-8.514z" style="fill:#fff;fill-rule:evenodd"></path><path d="M518.758 244.983c-.738-.952-1.523-1.902-2.306-2.855-3.19-3.972-6.518-7.824-9.944-11.63.095.143.19.31.286.427.095.143.19.286.309.452 5.21 7.564 10.68 16.721 13.272 22.001 36.417 73.474 58.488 151.87 37.153 233.453-4.994 19.075-12.083 37.63-21.217 55.134l-29.494-19.288c-15.365-10.04-35.987-6.78-47.213 7.73-7.73 9.964-27.14 28.851-27.78 28.851a199 199 0 0 1-7.73 6.136c-3.736 2.784-7.566 5.494-11.584 8.064-15.201 9.799-31.92 17.53-49.785 22.88a199.5 199.5 0 0 1-56.56 8.158c-68.953 0-129.391-35.06-163-87.696a196 196 0 0 1-6.041-10.132l-.286.237c-2.83-4.613-5.375-9.252-7.683-13.795-5.268-10.457-9.611-21.383-12.851-32.638a177.6 177.6 0 0 1-6.03-31.178 180 180 0 0 1-.563-29.167 191 191 0 0 1 3.539-26.606 206 206 0 0 1 6.286-23.495 217 217 0 0 1 7.676-19.83c4.36-9.806 9.44-19.418 15.367-28.369q1.404-2.112 2.893-4.16c-37.461 92.383-20.622 155.508-2.022 190.495 5.162 9.682 10.395 17.221 14.724 22.596-1.523-7.181-2.998-16.695-2.998-26.614 0-18.552 5.138-38.604 24.547-48.12 0 0 13.724 13.845 19.955 30.804-.07.69-.094 1.356-.166 2.069l.785-.285c1.19 3.567 2.022 7.23 2.284 10.893.595 7.73-1.165 15.58-7.017 22.62 5.946-3.378 11.298-7.898 14.913-12.987.714 11.061 1.356 37.842-8.8 44.93 0 0 29.874-3.162 33.061-27.423 4.591 7.326 9.943 14.34 13.32 22.26 4.853 11.299-4.71 37.558-4.924 38.202l10.942-9.61s5.755-7.089 7.04-9.323c11.797-20.67-9.086-36.891-17.172-53.947-13.297-27.947-5.803-66.287 17.862-87.218 6.779-3.616 15.033-6.78 22.763-6.518 0 0-7.136-5.47-19.457-8.42 6.565-2.664 13.915-5.019 21.907-6.826 0 0-.548-8.324-19.67-2.189.07-.214.118-.357.19-.57a90 90 0 0 0-9.086 2.878c5.113-4.923 19.884-17.91 36.176-19.861 0 0-4.66-1.45-11.702-2.117 4.496-2.831 8.325-6.208 10.893-10.466-10.274 4.163-20.787 7.755-31.443 10.846 9.61-12.725 26.092-17.719 41.433-21.929 2.283-.619 10.68-3.83 19.41-7.278-.69 5.018-3.355 12.035-10.585 21.264 6.064-6.637 18.433-17.506 31.04-12.774-22.121 8.754-55.277 27.758-31.159 57.323 34.489 42.266-36.2 45.69-36.2 45.69s76.707 17.864 63.054-26.328a70 70 0 0 1-1.807-7.065c-.739-3.71 3.805-6.137 6.515-3.497 1.593 1.547 3.426 3.116 5.47 4.757 30.875 24.498-22.143 50.211-22.143 50.211s51.352 19.36 62.604-14.699c0 0 4.638-5.09.046 14.604.358-.975 3.377-9.157 9.849-8.302 6.896.904-36.036 8.135 6.85 73.974-.548-1.356-15.105-38.177 5.66-50.307 32.087-18.742 22.478 27.853 22.478 27.853s22.975-13.749 17.386-34.18c4.71 4.71 9.99 7.779 10.632 8.134-7.064-5.328-5.113-11.798-3.473-14.984 1.784.19 3.235.332 3.902.453.88 9.419 7.135 17.908 15.34 22.62 4.116 2.33 8.8 3.827 13.535 3.614 4.733-.214 9.467-2.33 12.32-6.089 4.234-5.542 3.307-14.342-2.021-18.86a55.9 55.9 0 0 0 24.926 3.065c2.332-.26 4.828-.736 6.494-2.424 1.285-1.285 1.88-3.092 2.356-4.853 1.948-6.945 3.068-15.864 3.449-23.072-.12.24-.24.525-.358.785 3.805-8.085 1.308-19.195-1.712-24.164-2.404-3.901-6.875-19.124-10.68-32.99-.5-10.039-8.968-25.999-8.279-36.75.62-.07 1.262-.142 1.929-.142.522 0 .998.024 1.474.072.356-2.783.69-5.971 1.069-9.657 1.238-12.63-23.5-41.196-27.423-45.669l-.023-1.568c-.19-2.094-.334-4.187-.453-6.28-.358-5.804-.618-11.632-.953-17.388-.26-4.613-.355-9.228-.617-13.819a128 128 0 0 0-.762-8.563c-1.926-14.128-5.875-27.02-12.225-38.389-.19-.403-.427-.784-.64-1.165-.026-.048-.05-.119-.097-.166-7.588-13.06-18.364-24.047-33.013-32.587-16.34-9.537-33.943-15.77-52.614-17.982a50 50 0 0 0-2.568-.284c-3.686-.405-7.47-.905-11.275-1.237-7.373-.642-14.889-.62-22.239 2.164-1.024-1.022-1.927-.833-2.83-1.094a2.6 2.6 0 0 1-.668-.357c-2.568-1.855-5.493-3.044-8.562-3.615-.023-.024-.048-.024-.118-.024-.834-.167-1.714-.262-2.57-.333a27.2 27.2 0 0 0-5.564.143c-8.588 1.141-16.866 6.278-20.48 13.938a4.3 4.3 0 0 0-.358.737 19 19 0 0 0-1.022 2.926c-1.236 4.852-2.355 9.752-3.472 14.675-.69 3.046-1.38 6.16-2.117 9.276-3.307-.926-6.28-1.736-9.228-2.617-3.045-.903-6.09-1.877-9.134-2.758q-.142-1.035-.286-1.927c2.093-.785 4.187-1.545 6.231-2.33 2.165-.761 4.258-1.57 6.4-2.356-2.997-5.54-3.64-10.56-2.047-15.483.762-2.545 2.188-5.067 4.188-7.635.309-.404.664-.785 1.045-1.166 3.663-3.9 8.752-5.518 14.199-6.517.072-.024.121-.024.19-.047 2.166-.381 4.353-.69 6.541-1 1.476-.19 2.927-.405 4.377-.641-.142-.048-.26-.12-.428-.168-2.425-.927-5.303-1.141-6.469-1.355-9.514-1.618-16.34-2.688-24.619-3.235-.736-.047-1.45-.095-2.188-.143-.213 0-.427.072-.69.191-.095.023-.19.07-.283.119-.286.142-.595.356-.906.57-.855.571-1.712 1.285-2.164 1.57-8.633 4.947-15.816 11.037-18.742 20.48-.476 1.545-.832 3.234-1.094 4.993-1.213 8.825-6.897 13.892-15.84 14.392-1.238.07-2.522.404-3.735.26-2.07-.284-5.02-.26-5.923-1.522-.88-1.237.381-3.972.666-6.064.191-1.238.81-2.76.357-3.734-.714-1.548-1.141-2.998-1.26-4.449-.405-4.305 1.522-8.11 4.78-10.75 5.852-4.663 12.844-7.898 19.457-11.631 1.237-.69 5.494-2.331 8.443-3.473l2.022-.738c.214-.07.428-.166.57-.214-2.782 0-5.541.048-8.252.143h-.38c-9.11.309-17.697 1-25.31 1.88-.498.07-.998.118-1.497.166-.785.095-1.57.19-2.331.285-3.805.785-7.587 2.997-10.585 5.947-3.472 3.4-5.946 7.778-6.373 12.106-.405 3.853-.786 7.611-1.498 11.322-.62 3.188-1.428 6.327-2.784 9.442-.071.143-.024.381-.024.62.214 3.33-1.355 4.519-4.662 5.16-5.018.904-9.847 2.593-14.723 3.973-.286.07-.546.142-.832.213-1.641.429-3.355.643-5.019.904-.38-.5-.81-1.022-1.213-1.521 1.808-2.903 3.615-5.804 5.447-8.754.499-.808.975-1.641 1.474-2.474-3.21-3.615-3.876-8.847-1.427-13.962q.57-1.212 1.427-2.426c.476-.736 1.118-1.474 1.76-2.164l.571-.594c.07-.12.214-.215.334-.334 1.546-1.57 3.543-3.306 5.66-5.042.951-.761 1.927-1.522 2.901-2.307.239-.168.453-.333.667-.547 1.094-.785 2.188-1.641 3.26-2.45.047-.048.094-.096.165-.143 1.713-1.308 3.33-2.545 4.71-3.663a.7.7 0 0 1 .143-.119c-3.307.643-5.71 1.166-7.184 1.45-3.425 1-6.85 2.047-10.251 3.212-.262.072-.57.19-.833.286-.309.07-.57.19-.856.261-.118.024-.238.072-.333.095-.714.238-1.451.5-2.164.738l-1.784.642c-.024 0-.048.023-.095.023l-2.356.857c-.166.071-.309.119-.474.19-.143.048-.263.072-.381.143C92.478 195.105 15.914 298.452 15.914 419.638c0 107.628 66.503 211.403 164.499 256.001 92.382 42.028 206.55 28.9 287.611-31.92a269 269 0 0 0 14.722-11.893c20.243-17.53 37.892-38.01 52.353-60.557 26.52-41.457 42.505-90.266 44.122-142.76.023-.12.023-.26.023-.379.095-2.832.118-5.686.118-8.563 0-65.932-22.666-126.562-60.604-174.584M502.68 478.767c.283 1.07-1.094 2.569-1.737 3.879a7 7 0 0 0-.714-.404c-.762-.407-1.57-.762-2.236-1.19l-.5-.358a2.3 2.3 0 0 1-.664-.856c-.952-2.165-.857-4.758-1.285-7.182-.38-2.214-.833-4.402-1.642-8.516.31.19.618.356.927.523.594.309 1.143.572 1.62.834.974.474 1.711.855 2.115 1.307.049.07.095.119.144.19.046.07.093.12.118.191 1.594 3.733 2.925 7.636 3.854 11.582m-6.803-176.271-.12-10.157c16.841 23.666 20.55 38.913 20.528 46.287L498.8 340.98l-8.277-9.229s.405 9.086.405 9.228c.023.786-14.817-2.115-16.34-2.662-10.323-3.568-19.457-9.872-28.235-16.223q-.497-.356-.998-.712c-8.276-6.02-17.625-9.634-27.59-11.87-.19-5.542 11.275-8.942 11.275-8.942s-14.176.903-18.03-1.476c-3.876-2.378 3.568-6.516 3.568-6.516-13.202.736-12.037 11.06-11.203 14.698a126 126 0 0 0-7.802-.475c-1.238-.024-2.378 0-3.354.094-6.255-.213-10.917-.118-10.917-.118a177 177 0 0 1 15.247 2.474c-.072.07-.119.166-.191.238-3.758-.31-8.564.928-13.154 6.968 0 0 11.275-2.45 14.89 7.588-9.085 7.54.308 19.837.308 19.837.145-5.59 7.947-12.535 11.37-13.581 2.688-.81 9.16 10.37 10.371 12.106 3.9 5.543 7.445 12.56 15.58 10.608 5.233-1.26 9.395-1.997 13.176-4.59.381 2.14 0 5.376-4.806 7.398.786-.143 7.113-1.57 8.732-7.327.404 2.807.023 6.09-2.213 9.633.617-.475 12.131-9.894 7.47-21.549.023-.69-.168-1.284-.74-1.665v-.025c2.997 2.022 11.608 9.587 15.32 11.37 5.828 2.783 14.508 6.017 20.05 2.166 1.475-1.048 2.45-2.26 3.068-3.593a46.3 46.3 0 0 0 10.966 1.618c1.522 0 3.069-.072 4.567-.31-.049.19-.118.358-.167.548-1.76 9.608 5.588 22.31 9.133 33.061a252 252 0 0 0 1.784 8.326c.072 1.021.213 1.52.404 1.664 2.142 8.61 4.757 16.507 7.92 21.574 6.946 11.083 5.257 24.76 3.236 33.036l-2.569 4.948c-.048 0-.095.048-.167.095l-21.62-13.463 4.685-10.632 11.179 9.752c1.048-3.139-5.897-15.626-8.325-17.576-13.082-10.585-14.294-19.6-37.843-37.986-1.712-1.33-12.083-5.66-15.388-7.088 13.962 7.208 41.267 45.192 41.339 47.286.072 3.185-2.189 19.027-2.189 19.027s15.557 7.47 18.72 8.397l9.514 2.427-.072.092c.095.026.144.073.19.073-.046-.023-.046-.073-.046-.142l.332.07-.262-.142s7.374-6.113 8.255-7.967c-1.689 3.9-2.592 9.393-4.211 13.128-1.736 4.021-4.518 7.92-8.634 9.419-3.331 1.239-7.04.69-10.56.024-7.184-1.332-14.628-3.306-19.934-8.326-2.424-2.33-4.327-5.184-7.04-7.135-6.088-4.4-20.74 1.784-20.74 1.784l1.333.785s6.755 5.851 11.108 9.967c5.398 5.112 7.776 13.2 5.992 20.455-8.587-2.665-16.387-7.896-22.12-14.818 2.165.356 4.33.713 6.47 1.094-15.937-2.664-27.9-17.766-36.533-28.377-1.784-2.163-3.26-4.518-4.852-6.85-2.57-3.758-10.205-9.37-9.564-14.72-.331 1.901-3.091 17.099-8.943 20.334 6.756-16.602-7.943-24.593-8.705-24.974 6.588 7.089 5.47 13.581 2.046 18.696-.998-1.048-2-2.119-2.95-3.213 2.734-5.47-2.022-9.893-2.022-9.893.406 1.475-.595 3.043-2.235 4.565-.549.524-4.471-9.703-4.71-10.63-4.922-19.457 22.572-16.887 32.634-10.205-5.565-3.686-11.038-7.182-17.293-9.632-8.991-3.473-16.958-3.092-26.236-3.402 0-.166 4.639-4.757 6.068-5.162 3.518-.974 7.395.12 10.677 1.452 0 0-3.995-5.4-14.127-8.42-5.71-1.736-8.11-6.683-9.11-12.035 6.518-9.015 19.765-9.61 19.765-9.61-9.49-2.973-16.079-2.568-20.645-.428-.31-6.208-1.213-14.104.832-19.599-2.117 5.661-3.829 11.06-5.185 16.246l-3.735-25.57c6.448-2.093 10.92-8.23 10.42-15.008-1.143-14.557-9.682-24.332-26.83-31.468-1.452-.62-2.879-1.309-5.805-2.664 2.95-1.166 4.52-2.236 6.16-2.307 19.29-.927 34.774 9.942 38.677 28.019l4.208-9.586a3.8 3.8 0 0 0-.64.571c-4.853-12.369-1.216-23.69 8.656-25.498-2.45.428-1.64 9.918-1.117 11.488 1.262 3.52 4.14 6.446 7.445 8.087.118.048.237.12.357.167.07.048.238 0 .45-.143 1.975-.998 9.492-7.873 10.681-8.444 3.995-1.973 9.275-3.425 13.605-1.76-3.52-1.023-10.513 7.445-12.107 10.727-.118.215-.19.429-.262.595 1.284.404 2.998.19 4.401-.404.26-.143.5-.238.714-.357 6.778-3.901 16.15-3.948 24.616-1.998 3.568.832 6.971 2.022 9.918 3.401l24.761 11.393c1.262-1.38-3.567-13.867-2.782-13.652 1.927.547 12.415 13.7 14.153 14.866m-50.544 37.057c-1.666 1.38-9.728 5.613-12.82 2.569-3.117-3.02-5.946-6.494-4.996-11.156l8.873-1.165 1.045 8.777h1.594l3.853-6.992 1.357-.547s2.76 7.135 1.094 8.515m-20.076-127.44c5.115.76 10.276 6.658 13.916 14.745 4.28 9.3 6.564 21.55 4.59 31.967a25863 25863 0 0 0-15.675-39.555c-.952-2.426-1.879-4.78-2.83-7.158m63.412 69.714h-17.767c2.925-7.421 10.727-7.54 17.767 0m-9.705-54.207c-6.42-2.784-9.537-3.615-12.842-2.19-1.998.858-4.067 2.547-6.994 5.068-2.45 2.188-5.612 3.59-8.73 5.019a19 19 0 0 0-.69.356c-.689.356-1.356.69-2.046 1.023a5 5 0 0 1-.213-.785c0-.071-.047-.118-.047-.118-.023-.215-.071-.358-.118-.572-.049-.166-.049-.381-.12-.57v-.096c-.048-.095-.048-.19-.07-.262-.026-.19-.026-.38-.096-.522v-.334c-.023-.095-.023-.19-.023-.261 0-.048 0-.095-.049-.167v-.38c0-.096-.023-.19-.023-.263v-.141c0-.215.023-.406.023-.547v-.215c0-.023 0-.048.05-.095v-.095c0-.12.022-.262.022-.333v-.048c0-.024 0-.024.023-.071l.047-.119c0-.095.025-.19.025-.286.023-.07.023-.166.07-.26.072-.262.168-.5.286-.738.12-.334.286-.62.453-.929.141-.19.286-.38.45-.546.096-.143.217-.262.358-.404.072-.071.167-.143.237-.238 1.215-1.07 2.999-1.855 5.378-2.545 2.043-.572 3.9-2.022 5.66-3.26.26-.26.594-.428.904-.642 7.277-4.59 15.293-2.022 18.075 6.566m-28.638-31.468c8.112-5.71 11.134-5.494 17.84 1.76 1.451 1.546 2.664 3.33 4.497 5.685-11.893-1.904-20.622-.19-27.235 5.803a30 30 0 0 0-3.758 4.138 37 37 0 0 0-2.711 4.187c-1.738-4.686-4.471-8.396-3.948-11.536.072-.427.19-.833.285-1.212.19-.62.45-1.237.737-1.784 1.76-3.307 5.446-5.162 9.799-5.59 1.547-.12 3.282-.572 4.494-1.451m-32.014-3.236c.715-.642 1.619-1.355 2.283-2.068.263-.263.5-.572.69-.833 1.142-1.808 1.403-4.091 2.26-6.065 1.642-3.805 2.523-8.825 5.447-10.988.31-.215.666-.406 1.047-.524.642-.262 1.331-.405 2.093-.452 2.616-.239 5.875.523 8.752 1.164-1.33.43-2.615.976-3.734 1.619-.428.26-.855.523-1.236.784-2.973 2.093-4.59 5.09-4.353 8.825.357 5.066-3.45 7.587-6.065 10.656a8.2 8.2 0 0 0-.999 1.26c-.857 1.237-1.428 2.664-1.475 4.4-.547.263-1.094.524-1.665.786-1.594-2.165-3.995-4.186-4.376-6.542-.095-.57.476-1.284 1.33-2.022m1.856 23.549c-15.674.452-30.445 10.322-37.962 24.022a228 228 0 0 0-5.328-6.112 133 133 0 0 1 10.3-17.03c3.307-4.663 7.23-9.3 12.63-11.275 8.014-2.877 17.935 2.212 20.36 10.395M403.85 160.64c.976.119 1.952.357 2.904.76-.073.096-.144.191-.24.286-3.614 4.092-7.04 8.064-10.773 12.25l-.025.024c-.165-.095-.333-.19-.5-.309l-.023-.024a400 400 0 0 1-5.16-3.26c3.566-7.062 8.656-10.369 13.817-9.727m-26.519 17.102c9.396-3.092 20.717 1.997 24.594 11.036-9.705-3.306-21.384.595-27.14 9.063-2.45 3.59-3.83 7.753-6.065 11.464-1.879 3.092-4.376 5.946-5.138 9.466a11 11 0 0 0-.213 1.76c-2.615-2.402-5.21-4.543-7.684-6.35-1.164-5.518 2.664-12.155 8.492-12.94-2.26-9.61 3.804-20.43 13.154-23.5m-49.807 16.815c.38-2.662 3.091-4.97 5.59-8.657 0-.69.047-1.331.119-2.022.595-6.779 3.233-12.391 7.73-16.815 3.923-3.901 9.728-8.944 16.436-11.298.404-.143.808-.262 1.213-.381.023 0 .072 0 .072-.024 2.02.88 4.067 2.022 6.137 3.187.188.119.378.214.569.333 2.141 1.19 4.257 2.378 6.304 3.163-2.26 1.357-4.33 1.452-6.279 1.927-4.83 1.118-9.35 2.664-13.035 5.209-4.163 2.76-7.304 6.708-8.848 12.56-.357 1.236-.69 2.449-.952 3.685-1.545 6.018-2.95 12.25-4.59 19.267-4.02-4.258-11.537-2.878-10.466-10.134m-.428 85.51c.641-.12 1.426.213 2.142.38-20.98 8.348-22.336 9.228-25.736 17.958 5.897-1.855 11.465-3.591 17.79-5.59-1.759 3.83-3.115 6.755-4.948 10.727 6.541-3.211 11.705-5.732 17.744-8.728-.974 3.804-1.617 6.207-2.472 9.703 8.704-4.447 16.601-4.376 24.617-2.425 1.951.523 4.235 1.117 5.52 2.497 1.379 1.45 1.783 3.854 2.591 5.828-1.974.166-3.972.522-5.922.474-3.854-.118-7.754-.807-11.584-.642-9.656.43-19.41 2.26-28.97 1.594-13.916-.999-22.692-10.965-30.754-21.17-.5-.64.712-3.947 1.522-4.089 12.773-2.379 25.615-4.448 38.46-6.518m-155.983 12.296c.38-.999.808-1.95 1.237-2.926 9.419-22.072 22.667-41.41 41.362-56.276a121 121 0 0 1 11.988-8.42c.523-.332.88-.808 1.285-1.236-5.329-9.705-4.044-14.129 5.16-18.077 4.781 12.226 4.71 12.06 17.72 7.302 4.996-1.855 8.682-3.64 8.635-9.942 0-3.33 1.284-7.278 3.306-9.776 1.855-2.212 5.614-2.854 9.276-4.542-1.855 6.445-3.21 11.298-4.59 16.173h34.63c-32.87 4.757-62.91 13.367-86.553 33.37-10.609 8.967-19.909 20.242-27.615 34.465a150 150 0 0 0-3.83 7.54c-19.79 41.743-15.96 82.988 2.402 125.04-.57.19-1.118.38-1.664.57-1.403-1.83-2.974-3.52-4.139-5.494-20.693-34.464-23.762-70.666-8.61-107.771" style="fill:#601872;fill-rule:evenodd"></path><path d="M469.214 304.399s19.288 17.482 18.48 24.261c0 0 8.728-8.54-18.48-24.261M434.485 305.231s40.008 18.362 42.173 29.66c0 0 9.704-18.172-42.173-29.66M506.889 337.128s12.56-9.444-19.577-34.133c0 0 21.719 25.617 19.577 34.133M438.959 400.8c5.303 6.422 9.728 13.51 13.056 21.121 3.117 7.16 6.304 14.153 11.68 19.909 8.705-11.846 20.765-14.652 27.947-15.175.476-.167.975-.309 1.498-.5-7.68-.666-24.475.881-29.492 7.968 3.447-4.853-22.977-40.172-32.159-47.618-10.036-8.134-18.624-13.438-30.826-17.053 6.423 1.879 14.225 9.228 19.6 13.438 6.803 5.329 13.177 11.25 18.696 17.91" style="fill:#601872;fill-rule:evenodd" data-source="https://football-logos.cc"></path><path d="M296.273 555.719v-16.344h-5.477v-3.622h.304q2.958-.001 4.728-.97 1.762-.968 2.355-2.903h4.224v23.839zm23.233-8.933a9.4 9.4 0 0 1-2.027.824 8 8 0 0 1-2.062.267q-3.029.002-4.516-1.831-1.478-1.828-1.478-5.569 0-4.34 2.008-6.466c1.338-1.423 3.371-2.131 6.11-2.131q1.98-.001 3.504.493a7.1 7.1 0 0 1 2.629 1.49c.797.74 1.363 1.76 1.686 3.06q.492 1.954.492 6.86 0 4.291-.255 6.125c-.177 1.229-.463 2.22-.87 2.977-.566 1.065-1.485 1.884-2.745 2.45q-1.89.858-4.6.856-3.615.001-5.604-1.595-1.99-1.6-1.99-4.546l5.842.016q.035 1.101.498 1.659.464.56 1.357.561 1.123 0 1.589-.85.464-.859.462-2.992.001-.645-.006-1.008a18 18 0 0 0-.024-.65zm.14-6.939q0-2.133-.493-3.023c-.323-.588-.883-.882-1.668-.882-.687 0-1.18.289-1.466.872q-.428.866-.426 3.128-.001 2.165.462 3.054.465.882 1.589.882c.754 0 1.271-.273 1.563-.813q.44-.818.439-3.218m15.632-1.501c0 .86.195 1.548.59 2.073q.586.781 1.528.782c.639 0 1.162-.262 1.558-.782.395-.525.596-1.212.596-2.073q-.002-1.289-.56-1.99-.564-.698-1.594-.697-1.015-.002-1.564.698-.555.699-.554 1.989m-.109 10.287q.001 1.739.541 2.603.546.86 1.65.861 1.139-.001 1.685-.829.54-.833.542-2.635c0-1.254-.177-2.157-.523-2.719-.354-.561-.907-.84-1.668-.84q-1.161.001-1.692.846-.537.849-.535 2.713m-2.55-5.574q-1.48-.857-2.22-2.084-.742-1.22-.743-2.834c0-1.957.681-3.495 2.044-4.603q2.036-1.66 5.66-1.658c2.415 0 4.302.55 5.659 1.658 1.363 1.108 2.044 2.646 2.044 4.603q-.001 1.614-.742 2.834c-.493.82-1.23 1.512-2.221 2.084 1.095.588 1.929 1.386 2.5 2.41.58 1.017.865 2.22.865 3.605q-.001 3.362-2.148 5.243-2.144 1.875-5.994 1.874c-2.537 0-4.521-.63-5.939-1.884q-2.129-1.885-2.13-5.233.002-2.078.852-3.606c.572-1.023 1.406-1.82 2.513-2.409M352 555.72q.486-4.15 2.24-8.86 1.76-4.715 4.752-9.878h-10.199v-4.66h16.065v4.03q-2.528 3.889-4.198 8.823c-1.114 3.291-1.887 6.802-2.325 10.545z" style="fill:#283510;fill-rule:evenodd"></path><path d="m64.189 453.665 14.889-6.6-.03-.224-15.976-2.526zM51.703 468.61l-1.004-9.58 6.57-2.666-1.517-12.674-7.778-.88-.527-8.905 38.273 6.378 1.636 11.44z" style="fill:#fff;fill-rule:evenodd"></path><path d="m70.244 406.958 3.867.11c.853.024 3.265-.835 3.37-4.508l.192-6.762-11.022-.474-.308 7.334c-.097 2.326 1.29 4.225 3.901 4.3m-23.734 11.19.31-10.79 12.466-7.617.189-4.842-11.85-.7.455-8.625 37.417 2.384-.672 18.36c-.222 6.09-5.168 9.603-8.912 9.45l-8.724-.354c-3.097-.126-7.06-2.222-7.36-6.188z" style="fill:#fcfffb;fill-rule:evenodd"></path><path d="m68.127 358.903 16.371-.096.063-.216-13.9-8.149zm-17.417 9.052 2.135-8.857 8.258-.134 3.164-12.205-6.812-3.93 2.445-8.537 33.402 20.9-3.017 11.042zM75.345 298.925l4.184-7.988 33.698 16.904-3.894 7.903zM65.219 318.93l4.834-9.309 22.546-1.425 11.835 17.162-4.222 9.675-11.879-18.172zM90.01 272.936l6.8-8.111 26.904 5.053-19.208-14.926 5.44-6.376 29.704 22.897-6.525 8.445-28.906-6.208 21.685 16.122-5.084 6.743zM141.205 237.721l13.206 8.768.17-.148-6.571-14.588zm-19.694-2.448 6.962-5.88 6.826 4.169 9.299-7.863-3.413-7.521 7.055-5.62 16.158 36.076-8.812 7.76zM97.929 490.15l3.707 7.912-34.452 15.431-3.877-8.18zm-12.964 16.43 21.031 1.74 4.983 8.903-22.022-2.224-12.812 18.312-4.31-8.955zM84.84 548.716l31.163-21.219 13.749 19.815-6.275 4.328-8.725-12.78-5.582 3.88 8.245 11.847-6.374 4.313-8.232-11.86-6.311 4.26 8.81 12.565-6.403 4.835zM112.401 601.242c-.746-.825-2.769-3.535-3.238-4.757l2.494-1.687c.602.873 2.382 2.866 3.091 3.653 1.103 1.218 1.349.771 2.051.14.894-.807.45-.98-.4-1.927-.355-.392-.966-.988-1.573-1.578l-.05-1.384 2.721-2.55c-4.844-4.89-4.814-11.345-.464-15.272l12.43-12.114c4.7-4.246 11.418-4.657 17.39 1.95 2.383 2.635 5.369 6.143 7.175 9.227l-6.437 4.558c-1.886-2.69-4.125-5.549-5.832-7.434-2.314-2.56-4.365-3.517-6.618-1.483l-10.202 9.74c-2.25 2.038-2.472 4.303-.16 6.86 1.706 1.886 5.486 4.921 7.934 6.85l-4.938 6.283c-2.495-1.821-5.745-4.488-7.772-6.653l-1.407 1.308c3.023 2.967 3.581 5.045 1.145 7.275-1.27 1.23-4.351 2.299-7.34-1.005M140.157 611.54l23.88-29.074 6.822 5.575-23.43 29.562zm25.86-31.45 5.916-6.762 6.538 5.39-5.61 6.867zM192.742 635.138c-3.142 4.233-9.412 6.677-18.705.955-8.554-5.524-9.009-12.198-6.412-16.888l8.709-14.48c2.924-4.366 9.004-6.94 18.066-1.745 9.143 5.322 9.902 11.86 7.577 16.441zm.33-17.797c1.748-2.849 1.338-5.185-2.391-7.437-3.934-2.375-6.625-1.467-8.146 1.097l-6.682 11.262c-1.26 2.124-1.082 5.176 2.585 7.377 4.604 2.763 6.631 1.144 8.078-1.286zm-5.434-21.14 3.395-5.821 5.929 3.564-3.433 5.523zm9.9 5.623 3.41-5.503 5.938 3.485-3.518 5.574zM222.603 645.196l-4.093-1.565-4.131 11.44-8.824-3.352 13.63-35.63 13.538 5.512c11.527 3.484 10.975 9.594 9.343 14.057l-2.344 6.408c-1.425 3.473-3.252 4.5-7.71 5.29l4.626 15.353-10-3.616zm10.42-9.808c1.672-4.324.2-5.694-2.325-6.727l-5.702-2.33-4.148 10.336 4.8 1.842c4.747 1.821 6.054.297 7.375-3.12M253.66 666.72l6.007-37.597 23.355 3.446-1.085 7.855-15.03-1.993-1.004 6.389 13.916 1.972-1.006 7.609-14.255-2.037-1.329 7.95 15.21 2.127-1.03 7.604zM304.644 646.807l.677 24.457-8.616.223-.362-37.53 10.62-.035 12.601 24.524-.533-24.928 8.608-.186.908 37.362-11.225.192zM362.696 665.828c-9.143 2.55-15.16-.843-16.435-6.26l-3.772-16.017c-1.732-6.948 1.062-13.008 9.225-15.153 5.108-1.612 10.376-1.78 14.86-1.628l-.201 7.934c-3.544-.081-7.872.345-10.865.9-5.424 1.008-4.766 5.487-3.786 9.32l2.676 10.461c.932 3.645 3.781 3.824 7.54 2.917 1.146-.294 1.901-.54 3.326-1.172l-2.88-11.215 8.198-1.98 4.146 17.349c-3.71 1.998-8.29 3.5-12.032 4.544M405.611 610.965l10.36 24.385c2.164 5.21 1.376 11.944-7.71 16.271-8.36 3.98-15.807 2.325-18.853-4.884L379.01 622.13l8.039-3.452 9.347 21.109c2.188 4.941 4.545 6.25 8.194 4.767 3.786-1.538 4.458-3.707 2.422-8.297l-9.58-21.597zm-22.542 6.525-2.878-6.11 6.444-2.926 2.863 6.16zm10.454-4.623-2.595-6.118 6.24-2.69 2.67 6.11zM437.629 621.25c2.022 2.55 4.363 3.96 7.736 1.397 2.094-1.592 4.979-3.93 7.318-6.228l5.328 5.909c-2.707 2.771-5.23 5.19-8.48 7.224-7.806 4.887-13.926 4.348-17.34-.866l-9.927-15.16c-3.264-5.277-.805-12.07 5.354-16.07 3.393-2.204 6.666-3.92 10.43-5.533l3.316 6.96c-3.094 1.33-6.456 3.227-8.795 4.487-3.377 1.818-3.476 4.376-2.065 6.992zM468.324 564.569l18.111 19.345c3.841 4.783 4.815 11.908-2.487 18.834-6.717 6.372-14.182 6.49-19.588.55l-17.276-18.98 6.643-6.07 15.28 16.918c3.62 4.01 6.194 4.482 9.19 1.932 2.939-2.5 3.59-5.085.019-8.873l-16.338-17.33zm-19.342 13.93-4.55-4.92 5.108-4.533 4.423 4.691zm8.624-7.78-4.736-4.865 4.765-4.527 4.71 4.628z" style="fill:#fff;fill-rule:evenodd" data-source="https://football-logos.cc"></path><!-- source: https://football-logos.cc --></svg>