<svg xmlns="http://www.w3.org/2000/svg" viewBox="0.94 1.3 169.59 199.7"><metadata xmlns:fl="https://football-logos.cc/turkey/istanbulspor">dl1_445f5a1ef7c9d04d49c2d7c9366fc204717321d3d9a08cba57a4df0fcd8bfcf1</metadata><!-- Source: https://football-logos.cc --><path fill="#FFED00" fill-rule="evenodd" d="M1.3 73.1c.2 5.5.6 10.8 1.1 16.4.4 4.2.9 8.2 1.6 12.3 3 17.6 7 30.7 14 46.9 13.9 27.9 33.5 45.2 66.4 52 1 .2 1.4.3 1.7.3.5 0 .9-.2 2.6-.6 38.4-10.1 58.8-32.8 69.7-61.2C174 98.6 170.1 46.3 170.1 1.3c-1.4.7-2.8 1.7-4.1 2.5-24.1 14.4-52.1 22.2-80.1 22-35.8-.2-53.8-8.4-84.3-24.5 0 8.8-.3 17.8-.3 26.7 0 14.7-.8 30.5 0 45.1" clip-rule="evenodd" data-source="https://football-logos.cc"></path><path fill="#E31E24" d="M11 115.6C7.4 99.7 6 83.8 5.8 65.2l.4-56.4C33.8 24.1 54.3 29 80.6 30.5z"></path><path fill="#2B2A29" d="M12 119.3c.2.7.3 1.2.4 1.8 4 15.1 10.1 30.3 19.1 42.7 5.8 8 13.5 15.6 22.4 20.8 8.6 5 19.9 9.5 32.1 12.1 12.3-2.7 23.5-7.1 32.1-12.2 8.9-5.2 16.6-12.8 22.4-20.8 8.9-12.3 15-27.5 19.1-42.7 4.6-17.8 6.6-35.1 6.5-55.9l-.4-56.4C136.2 25 114.9 29.5 86 30.7c-.6 0-1.2-.1-1.8-.1z"></path><path fill="#FFED00" d="M110.4 120.3q0 .15 0 0c2.1 4 3.1 8.2 3.1 12.9 0 15.6-12.6 28.2-27.9 28.2s-27.8-12.6-27.8-28.2c0-4.6 1.1-9 3.1-12.9h13.6v-9.2h-3.8V86.8L62 94.1v17.1h-3.8v8c-3.9 5.6-6.3 12.6-6.3 20 0 19 15.2 34.3 33.8 34.3s34-15.3 34-34.3c0-6.9-2-13.4-5.6-18.9h6.3v-9.1h-4.7v-9.3l-8.3 2.6v6.5c-1.7-1.8-3.5-3.1-6-4.1 1.2 1.1 2.4 2.6 3.7 4.3h-3.4l-2.3-5.5c-.2-.7-.2-1.2-.2-1.5 0-2.3 1.8-4.2 4.1-4.2 1.7 0 3.3 1.1 3.9 2.7l7.9-2.5c-1.7-5-6.4-8.7-11.8-8.7-6.8 0-12.4 5.7-12.4 12.7 0 1.2.2 2.3.5 3.4l1.4 3.5h-4.2v-22c4.8-4.6 7.6-10.4 7.6-16.4 0-3.4-1.2-6.9-3.6-10.4L79.1 41.6v52.9c-.4.6-.8 1.2-1.3 1.8-.5-5.7-3.3-10.6-6.2-13.2l-1 1.2c4 4.7 5.6 8.2 5.6 14.4-.6 3.4-1.5 6.7.9 10.1l2 2.4H76v9.1h20.1l2.8 7.1c.7 1.8 1.2 3.8 1.2 5.7 0 8.1-6.6 14.6-14.5 14.6s-14.4-6.6-14.4-14.6c.2-3.9 1.8-8.8 3.1-10.7h-9.2c-1.6 3.3-2.6 6.9-2.6 10.7 0 13 10.4 23.5 23.1 23.5s23.3-10.5 23.3-23.5c0-3.1-.7-6.3-1.8-9.1l-1.6-3.8h4.9zM69.2 81.6v-6.3l5.9-1.9-5.9-2v-6.3l-3.6 5-5.9-1.9 3.6 5.1-3.7 5 5.9-1.9zm19.1 5.5V59c1.4 2.2 2.8 4.4 4.3 6.5 2.4 4.4 2.2 9.1 1 13-1.1 3.8-3.4 7-5.3 8.6m-9.2 21.7c-1.5-1.2-2.3-3.5-2.2-5.4 0-1.8.5-3.1.9-4.4.2-.5.8-1.3 1.2-2v11.8z" data-source="https://football-logos.cc"></path><path fill="#FEFEFE" d="M30 30.5c3.4 0 6.6.9 9.3 2.4 2.1 1.1 4 2.7 5.6 4.5-1.7-1.2-3.8-2.2-5.7-2.7-3.5-1.1-8.3-.4-11.9 1.6-4.9 2.9-8.1 8.3-7.9 14-.2 4.3 2.2 10.4 6.9 13.4.9.6 3 2.2 7.1 2.7 1.8.2 5.7 0 8.8-1.5 1-.6 1.9-1.2 3-1.9-1.3 1.6-3 3.1-4.7 4.2-3 1.9-6.6 3-10.4 3-5.4 0-10.3-2.3-13.8-5.9-3.6-3.6-5.7-8.6-5.7-14s2.2-10.5 5.7-14.1c3.4-3.5 8.3-5.7 13.7-5.7m20.1 26.9v-5.5L45 50.2l5.1-1.7V43l3.1 4.4 5.2-1.7-3.2 4.5 3.2 4.4-5.2-1.6z"></path><path fill="#FFED00" d="m45.6 157.8.4-.4c.2-.1.5-.2.7.1l.4.4c.2.2.2.6 0 .8l-.4.4c-.2.2-.6.2-.7-.1l-.4-.4c-.2-.4-.3-.7 0-.8m-.9.6 1.1 1.3-6 5.4-1.1-1.3zm.1 8.5-.2.3c-.4.6-.3 1.2.3 1.9.3.3.6.5.9.5.4.1.7 0 1-.3.2-.2.2-.5.1-.8s-.2-.6-.3-.8l-.6-1.2c-.1-.3-.3-.6-.4-.8-.3-.8-.2-1.5.4-2.1s1.2-.8 2-.7c.7.1 1.3.5 1.9 1.1.4.4.7.8.9 1.3.1.3.2.6.2.9q0 .9-.6 1.5l-.1.1-1.2-1.2c.5-.6.5-1.2-.1-1.7-.2-.2-.5-.4-.8-.5-.4-.1-.7 0-.9.2-.2.3-.3.6-.1 1 .1.2.1.4.3.6l.8 1.5c.2.4.3.7.4 1.1.1.6-.1 1.2-.6 1.7-.2.2-.5.4-.7.5-.3.1-.6.2-.9.2-.4 0-.8 0-1.1-.2-.5-.2-.9-.5-1.3-.9-1.5-1.5-1.7-2.8-.6-4.1l.1-.2zm14.1 4.3-.7 1-2-1.5-4 5.6-1.3-1 4-5.6-2-1.5.7-1zm3.6 1.8 1.9.9-.5 8.7-1.7-.8.1-1.9-3.1-1.4-1.2 1.4-1.6-.7zm-2.3 4.6 2.3 1.1.4-4.1zm11-1.2 1.1 6.8 1.7-5.9 1.5.4-2.2 7.8-2.2-.7-1.1-6.9-1.7 6.1-1.5-.4 2.2-7.8zm6.4 1.6 1.8.2 1.2.1c.9.1 1.5.3 1.8.5.6.4.8 1 .8 1.8-.1.8-.5 1.4-1.3 1.6l-.4.1.5.2c.9.4 1.3 1.1 1.2 2 0 .6-.3 1.1-.7 1.4-.2.2-.5.3-.8.4-.4.1-.8.2-1.2.2-.2 0-.6-.1-1.2-.1l-.8-.1-1.5-.1zm1 7h1c.5 0 .9 0 1.2-.1.4-.2.6-.5.7-.9 0-.4-.1-.7-.4-.9-.2-.2-.5-.3-.9-.4l-.8-.1-.6-.1zm.4-3.6h1.1c.9 0 1.3-.3 1.4-.9 0-.6-.4-1-1.3-1.1h-.5l-.6-.1zm8.1-2.8.4 4.5v.5c.1 1.4.8 2 1.8 1.9 1.1-.1 1.6-.8 1.6-2v-.6l-.4-4.5 1.7-.1.4 4.5v.9c0 .4 0 .8-.1 1.1-.2.6-.6 1.1-1.1 1.5s-1.1.5-1.8.6-1.4 0-1.9-.3c-.6-.3-1.1-.8-1.4-1.4-.2-.4-.2-.8-.3-1.3v-.5l-.4-4.5zm9.3-1.1 1.5 6.7 3.3-.8.3 1.2-4.9 1.2-1.8-7.9zm8.6 3.4.1.3c.3.7 1 .9 1.8.5.4-.2.7-.3.9-.6.3-.3.3-.7.2-1s-.3-.4-.7-.4h-.8l-1.3.1h-.9c-.8-.1-1.4-.5-1.7-1.3s-.2-1.5.2-2.2c.4-.6 1-1 1.8-1.3q.75-.3 1.5-.3c.3 0 .6.1.9.2.5.3.9.6 1.1 1.2l.1.2-1.5.6c-.3-.7-.9-1-1.6-.7-.3.1-.6.3-.8.6s-.3.6-.2.9c.1.4.4.5.9.5h.6l1.6-.1c.4 0 .8 0 1.1.1q.9.3 1.2 1.2c.1.3.2.6.2.9s-.1.6-.2.9q-.3.6-.6.9c-.4.4-.9.7-1.4.9q-2.85 1.2-3.9-1.2l-.1-.2zm4.5-7.8 2-1.2.5-.3c.2-.1.5-.3.8-.4s.5-.2.8-.3c.4 0 .9 0 1.3.3.4.2.7.6 1 1 .4.8.5 1.5.2 2.2-.2.5-.8 1-1.6 1.6l-.5.3-.6.3 1.5 2.7-1.4.8zm2 .2 1.2 2.2.6-.4c.2-.1.4-.3.6-.4.6-.5.8-1.1.4-1.7-.4-.7-1-.8-1.7-.4l-.5.3zm6.9-1c-.5-.6-.9-1.3-1.1-2-.1-.4-.2-.9-.1-1.3 0-.4.2-.8.4-1.2.3-.5.6-.9 1.1-1.3.8-.7 1.7-1 2.6-.9.5 0 .9.2 1.3.4.5.4 1.1.8 1.6 1.4 1.8 2.2 1.7 4.1-.2 5.7-2 1.7-3.9 1.4-5.6-.8m1.3-1.1c1.2 1.6 2.4 1.9 3.5 1s1-2.1-.2-3.6c-.4-.6-.9-1-1.4-1.3-.6-.4-1.3-.3-2 .3-.2.2-.4.4-.6.7-.6.8-.3 1.8.7 2.9m5-9.9.5-.5c.5-.6 1-1.1 1.3-1.3.6-.4 1.2-.5 1.7-.3.3.1.5.3.7.4.4.4.6.8.7 1.2 0 .4-.1.8-.3 1.4.6-.5 1.1-.7 1.6-.4.2.1.5.3.8.5.4.3.8.5 1.1.7.2.1.4.2.5.3l.2.1-1.2 1.4-.2-.1c-.2-.1-.6-.4-1.1-.7-.7-.5-1.3-.8-1.5-.7-.2 0-.4.2-.7.5l-.4.5-.5.6 2.4 2.2-1.1 1.3-6-5.4zm2.3 2.7.7-.8.2-.3c.6-.8.6-1.4.1-1.9-.1-.1-.2-.2-.3-.2q-.6-.3-1.5.6l-.4.4-.5.6zm21-120.2c-.1-.7-.5-.9-1.1-.9-.5 0-.9.2-1.1.5-.3.4-.5 1.1-.7 2v.6l.2-.3c.5-.6 1.1-.9 2-.9 1 0 1.8.5 2.3 1.5q.3.6.3 1.2c0 .9-.3 1.6-1 2.2-.6.5-1.3.8-2.2.8-1.1 0-1.9-.4-2.5-1.3-.4-.7-.6-1.6-.6-2.8 0-.6 0-1.2.2-1.8.1-.9.5-1.6 1.1-2.2.6-.5 1.3-.8 2.2-.8.7 0 1.3.1 1.8.5.5.3.8.9.9 1.6v.2H148zm-12.8 4.9.3-.3c.4-.3.8-.6 1.3-1.1s1-.9 1.4-1.3l.7-.7c.2-.2.3-.5.5-.8.1-.2.1-.4.1-.6 0-.5-.2-.8-.7-1-.2-.1-.4-.1-.6-.1-.6 0-1 .4-1.2 1.1l-.1.1h-1.6v-.3c0-.8.4-1.3 1-1.7.6-.3 1.2-.4 2-.4s1.5.2 2 .5q.9.6.9 1.8c0 .4-.1.8-.2 1.1-.2.5-.5.9-.9 1.3-.3.4-.8.7-1.2 1.1-.6.5-1 .8-1.4 1.1l-.7.5h4.6v1.3h-6.3v-1.6zm-15.7-5.8c.3-.1.5-.2.9-.5.2-.2.5-.3.6-.5l.2-.2h1.5v8.5h-1.6v-6.9l-.3.2c-.2.2-.5.3-.7.5-.3.2-.6.3-.8.4l-.3.1V43zm8.8 5.2v.3c.1.5.5.7 1.2.8.5 0 .9-.2 1.1-.5.1-.2.2-.3.3-.5.2-.5.3-1.1.3-1.9l.1-.4-.3.2q-.75.9-1.8.9c-.3 0-.8-.1-1.1-.2q-.6-.15-.9-.6c-.5-.5-.7-1.1-.7-1.9s.3-1.6.9-2.1c.6-.4 1.3-.7 2.3-.7 1.2 0 2.1.4 2.5 1.3.5.6.7 1.6.7 3 0 1.8-.4 3-1 3.7q-.45.45-.9.6c-.5.2-1 .3-1.6.3s-1.3-.2-1.8-.4c-.5-.3-.9-.8-.9-1.5v-.3h1.6zm-.1-3.7c0 .4.2.8.4 1 .3.3.6.4 1 .4.5 0 .8-.1 1-.5.3-.3.4-.7.4-1.1s-.1-.8-.4-1.1c-.2-.3-.5-.4-1-.4s-.8.1-1.1.5q-.3.6-.3 1.2m17.2 3.1q0 .75.3 1.2c.2.3.6.5 1 .5.3 0 .5-.1.8-.3.2-.2.4-.4.5-.7.1-.2.1-.4.1-.6q0-.75-.3-1.2c-.3-.3-.6-.5-1.1-.5-.4 0-.8.2-1 .5s-.3.7-.3 1.1" data-source="https://football-logos.cc"></path><!-- source: https://football-logos.cc --></svg>