<svg xmlns="http://www.w3.org/2000/svg" viewBox="0.09 -0.07 525.09 619.03"><metadata xmlns:fl="https://football-logos.cc/turkey/pendikspor">dl1_70d0b0252da7e26747be48258684147f9c08f2d4c4e3e767ff145abfddbbb4d4</metadata><!-- Source: https://football-logos.cc --><defs data-source="https://football-logos.cc"><clipPath id="turkey-pendikspor-football-logos-cc-a"><path d="M0 0h525.2v619H0Zm0 0"></path></clipPath></defs><path d="M387.64 43.07h20.45v25.028l21.45-25.028h27.218l-24.18 24.89 25.29 41.356h-25.184l-13.97-27.199-10.624 11.07v16.13h-20.45ZM355.156 56.52l.055-13.165h19.129l-.285 13.258Zm19.184 52.703-19.13.093V61.488l19.188.016ZM284.672 43.07h30.426c5.98 0 10.84.82 14.523 2.438 3.688 1.637 6.742 3.965 9.16 7 2.406 3.054 4.149 6.586 5.23 10.625 1.094 4.043 1.634 8.312 1.634 12.832 0 7.078-.801 12.566-2.422 16.469q-2.405 5.849-6.707 9.804c-2.868 2.637-5.938 4.395-9.223 5.274-4.484 1.203-8.559 1.804-12.195 1.804h-30.426Zm20.45 14.993v36.175h5.026c4.286 0 7.34-.48 9.157-1.422 1.804-.953 3.226-2.605 4.257-4.964 1.036-2.375 1.543-6.2 1.543-11.504 0-7.016-1.14-11.813-3.44-14.403q-3.446-3.884-11.427-3.883ZM207.508 43.07h19.105l24.844 36.578V43.07h19.336v66.246h-19.336l-24.703-36.375v36.375h-19.246ZM140.508 43.07h54.773v14.157h-34.234v10.546h31.734v13.512h-31.734v13.043h35.25v14.988h-55.79ZM73.598 43.07h34.047c7.418 0 12.968 1.758 16.671 5.29 3.684 3.53 5.536 8.558 5.536 15.081 0 6.692-2.02 11.938-6.043 15.7-4.028 3.777-10.18 5.66-18.446 5.66H94.137v24.515h-20.54Zm20.539 28.313h5.043c3.98 0 6.77-.692 8.375-2.067 1.601-1.37 2.406-3.129 2.406-5.273 0-2.082-.695-3.84-2.098-5.29q-2.084-2.174-7.867-2.175h-5.86Zm0 0" style="stroke:none;fill-rule:evenodd;fill:#ca0500;fill-opacity:1"></path><path d="m75.16 385.04 6.813 7.202c-2.973 2.305-3.887 5.367-3.98 7.469-.095 2.101 1.495 4.723 3.136 6.738 1.734 2.13 3.219 2.719 5.039 2.988 1.824.27 2.71.055 3.973-1.027.812-.7 1.21-1.508 1.414-2.453.203-.937.379-1.82-.125-3.312-.344-1.02-1.075-3.278-2.602-6.653-1.965-4.344-2.738-7.879-2.558-10.472.25-3.641 1.878-6.625 4.601-8.965a12.1 12.1 0 0 1 6.07-2.809q3.444-.538 6.817 1.11c2.254 1.097 4.851 2.87 6.914 5.394 5.32 6.504 6.25 10.695 6.039 14.41-.211 3.723-2.89 7.18-5.988 10.024l-6.137-7.586c1.539-1.805 2.375-2.434 2.805-3.97.53-1.917-1.371-5.796-3.047-7.542-1.707-1.785-2.203-2.617-3.914-2.984-1.102-.235-2.098.023-2.993.789-.812.699-1.234 1.629-1.277 2.78-.055 1.474.445 3.216 2.281 7.122 1.832 3.91 2.528 6.773 3.086 9.082.547 2.25.715 5.18-.047 7.32-.765 2.14-2.77 4.356-4.933 6.215-1.961 1.684-4.371 2.598-6.942 3.024-2.57.421-5.335-.043-7.73-1.243-2.395-1.199-5.055-3.156-7.316-6.168-3.442-4.586-6.454-8.8-6.07-14.144.32-4.535 2.652-9.102 6.671-12.34m0 0" style="stroke:none;fill-rule:evenodd;fill:#cb0503;fill-opacity:1"></path><path d="m90.652 430.902 34.899-29.527 9.965 11.582c4.062 4.723 6.136 7.41 6.976 9.164 2.121 4.414.524 10.383-4.824 14.953-5.156 4.406-11.36 4.438-15.906 1.84-2.157-1.23-4.594-3.48-7.692-6.926l-4.3-4.777-12.743 11.012Zm34.887-17.078-9.426 8.16 3.735 4.23c2.097 2.376 2.879 3.114 4.125 3.837 1.242.722 2.375 1.25 3.648 1.172 1.27-.078 2.41-.543 3.434-1.422 1.254-1.074 2.097-2.563 2.207-4.078.11-1.524-.434-2.809-1.313-4.25-.64-1.055-1.031-1.387-3.433-4.184ZM135.785 444.313c7.766-8.274 19.09-12.168 30.438-3.34 11.152 8.675 12.515 20.68 3.757 32.027-9.011 11.676-20.917 14.371-31.87 5.496-12.962-10.504-13.13-22.668-2.325-34.183m6.61 7.449c-5.766 6.96-8.024 14.101-.465 19.746 6.976 5.215 14.757 2.812 19.738-3.988 4.8-6.555 8.477-13.582.437-19.77-7.195-5.531-14.316-2.5-19.71 4.012M164.242 495.848l21.606-39.805 17.894 9.496c4.793 2.547 8.332 4.766 9.684 6.973 2.008 3.285 2.105 8.02.047 12.363-2.641 5.57-10.641 8.566-16.442 6.05 2.906 4.329 3.317 10.126 3.649 15.141l.61 9.278-10.727-5.196-.754-11.046c-.297-4.38-.907-6.895-1.141-8.215-.227-1.282-.863-2.727-1.672-3.528-1.867-1.851-3.941-2.808-5.113-3.453l-9.09 16.973Zm21.07-18.664 5.86 3.593c4.195 2.57 5.781 2.727 7.039 2.989 2.586.546 4.723-.477 5.984-2.79 1.559-2.851.528-5.453-1.965-7.3-.675-.504-1.57-.742-5.175-2.793l-6.227-3.535ZM250.008 524.871l.152-45.398 9.957.058.067 19.88 18.316-19.806 13.176-.011-17.742 17.87 18.59 27.376-12.657.539-12.586-21.524-7.226 7.243.199 13.726Zm0 0" style="stroke:none;fill-rule:evenodd;fill:#ca0500;fill-opacity:1"></path><path d="m288.148 478.645 9.77-2.938 7.117 23.754c2.277 7.601 4.547 12.992 13.203 9.89 7.325-2.624 6.102-7.882 3.82-14.605l-8.09-23.86 9.856-2.777 8.692 28.907c1.804 5.996 2.867 15.265-11.352 20-16.371 5.453-21.281-2.22-23.742-9.797ZM355.695 449.629l7.785-6.594 16.004 18.945c5.121 6.067 9.348 10.102 16.051 3.805 5.672-5.328 2.45-9.664-2.32-14.918l-16.938-18.648 7.93-6.48 19.5 23.038c4.047 4.778 8.719 12.856-2.43 22.871-12.836 11.528-20.402 6.454-25.683.485ZM415.645 389.965l5.707-8.461 20.543 13.89c6.574 4.446 11.738 7.184 16.48-.699 4.012-6.668-.266-9.965-6.281-13.726l-21.364-13.352 5.872-8.387 25.023 16.88c5.188 3.5 11.879 10.003 3.867 22.671-9.222 14.582-17.883 11.746-24.586 7.438ZM349.867 505.406l-23.082-39.035 8.649-5.129 19.128 32.445 19.645-11.71 4.195 6.906ZM387.809 422.145l11.632-12.762c2.72-2.98 4.727-5.195 6.247-6.488 4.699-4 11.289-4.188 15.66-.176 3.343 3.066 4.562 6.14 3.433 10.758 4.43-3.418 9.258-2.676 13.344.57 3.496 2.785 5.61 7.21 5.297 10.922-.184 2.18-1.461 4.554-3.016 6.816-.965 1.41-3.695 4.422-7.976 9.36l-9.356 10.777Zm12.695-2.079 7.984 6.707 2.684-3.195c2.562-3.05 4.117-4.988 4.664-5.797 1.668-2.469 2.226-5.496-.3-7.617-2.434-2.043-5.005-1.312-7.13.742-.738.711-2.656 2.914-5.75 6.598Zm13.687 11.606 9.27 7.547 4.512-5.164c2.425-2.782 3.847-4.664 4.355-5.535 1.574-2.688 1.3-5.07-1.223-7.204-2.18-1.836-4.246-1.402-6.632-.175-1.297.668-3.13 2.632-6.262 6.093ZM231.324 565.66l-5.976-.004.109-21.582c-2.012 2.028-4.004 4.473-6.293 3.785l-.008-5.066c1.696-.758 3.266-1.805 4.656-3.426 1.473-1.715 2.055-2.777 2.692-4.597h4.68Zm8.7-7.914 5.156-.152c.222 1.281.93 3 2.718 2.984 2.688-.023 3.633-5.293 3.813-8.086-.953 1.84-2.867 2.77-5 2.758-4.574-.023-7.168-5.168-7.168-9.992 0-5.54 3.16-10.434 8.043-10.488 7.031-.079 9.45 8.359 9.355 15.097-.093 6.93-1.218 16.309-9.925 16.309-4.852 0-6.961-5.16-6.993-8.43m11.085-11.848c0-2.425-.992-5.562-3.394-5.543-2.703.02-2.805 2.66-2.805 4.97 0 2.445.38 5.37 3.063 5.32 2.574-.043 3.136-2.399 3.136-4.747m10.547 11.192 5.535-.555c.227 2.133 1.13 4.137 3.48 4.137 2.095 0 3.106-2.598 3.106-5.164 0-2.7-.73-5.371-3.46-5.418-1.56-.028-2.368.394-3.301 2.168l-4.5-.79 2.511-16.183h13.297l.024 6.094h-8.953l-.774 4.57c1.055-.742 1.961-1.043 3.215-1.058 4.844-.07 7.41 5.656 7.41 10.336 0 5.668-3.289 10.789-8.898 10.949-5.27.156-8.032-3.926-8.692-9.086m30.395-22.32c7.668-.004 8.215 9.492 8.387 15.71.187 6.754-1.004 15.735-8.364 15.696-7.394-.035-8.437-9.778-8.437-16.035 0-6.192 1.16-15.364 8.414-15.371m.101 5.468c-3.234-.023-2.953 7.739-2.953 10.125 0 2.395-.383 10.336 3.07 10.348 2.778.008 2.79-7.734 2.743-10.23-.043-2.403.14-10.223-2.86-10.243M163.871 291.43c3.531.996 7.406 1.496 11.254 1.527 5.652.047 11.195-.922 15.434-2.805 6.847-3.039 13.027-5.62 18.847-7.511 5.922-1.926 11.461-3.125 16.91-3.348 3.34-.133 6.41.883 8.715 2.867 2.219 1.914 3.68 4.68 3.938 8.137.105 1.433.148 2.945.12 4.5a47 47 0 0 1-.273 4.379l-.21 1.832-1.774.547a51 51 0 0 0-4.953 1.808c-1.574.68-3.063 1.45-4.281 2.305h-.008l-.668.469c-2.317 1.617-4.317 3.015-5.809 5.093a7.3 7.3 0 0 0-1.351 3.872 7.2 7.2 0 0 0 .957 3.953c.457.797 1.074 1.8 1.66 2.754 1.05 1.71 2.012 3.27 2.84 5.109a74 74 0 0 1 5.015-3.887c2.79-1.969 5.782-3.785 8.832-5.265l.825-.403.914.168c2.957.551 5.441.871 7.777.93 2.285.059 4.496-.133 6.953-.61 3.93-.761 8.094-1.644 12.293-2.726 4.219-1.086 8.633-2.406 13.14-4.066 1.356-.497 2.47-1.172 3.356-1.942.953-.82 1.649-1.758 2.094-2.703l.066-.133 5.532-10.312.03-.055c2.032-3.566 4.548-6.476 7.661-8.476 3.188-2.047 6.938-3.114 11.363-2.934l56.125 2.258c-5.507-2.535-11.05-4.977-16.547-7.145-8.785-3.465-17.433-6.222-25.59-7.5-4.007-.629-8.16-1-12.136-.84-3.828.157-7.485.813-10.664 2.223-4.68 2.074-9.285 3.695-14.012 4.773a58.6 58.6 0 0 1-14.64 1.47c-6.254-.157-11.793-.74-17.579-2.102-5.785-1.36-11.804-3.493-19.004-6.743-5.863-2.648-12.62-3.964-19.73-3.863-7 .102-14.34 1.582-21.512 4.531-6.414 2.637-12.594 5.938-18.406 9.711a123 123 0 0 0-13.504 10.153m11.207 7.175c-6.207-.05-12.531-1.199-17.758-3.546l-3.89-1.75 3.113-2.903a130 130 0 0 1 17.75-13.867c6.102-3.96 12.594-7.426 19.344-10.2 7.832-3.218 15.883-4.839 23.59-4.948 7.945-.118 15.523 1.367 22.12 4.347 6.856 3.094 12.544 5.114 17.965 6.39 5.422 1.274 10.598 1.821 16.426 1.97 4.602.113 8.969-.36 13.27-1.34 4.3-.98 8.57-2.488 12.969-4.442 3.859-1.71 8.214-2.503 12.726-2.683 4.363-.176 8.879.222 13.219.902 8.664 1.36 17.691 4.223 26.785 7.809 9.016 3.558 18.11 7.824 26.977 12.023l2.425 1.149-2.207 5.414-69.05-2.782c-3.192-.128-5.856.618-8.086 2.051-2.29 1.469-4.188 3.688-5.77 6.45l-5.504 10.265c-.762 1.582-1.918 3.133-3.469 4.48-1.386 1.2-3.086 2.239-5.105 2.981-4.59 1.688-9.207 3.066-13.691 4.219-4.508 1.16-8.73 2.058-12.63 2.816-2.827.547-5.417.77-8.148.7-2.418-.063-4.902-.356-7.73-.848-2.469 1.254-4.914 2.761-7.227 4.398a66 66 0 0 0-7.566 6.23l-3.465 3.337-1.227-4.657c-.84-3.172-2.148-5.3-3.683-7.793a94 94 0 0 1-1.746-2.93 12.77 12.77 0 0 1-1.688-7.034 13 13 0 0 1 2.41-6.88c2.047-2.851 4.418-4.507 7.16-6.425l.66-.465-.003-.004c1.582-1.11 3.41-2.066 5.3-2.879 1.204-.52 2.461-.992 3.711-1.418q.07-1.03.086-2.031a44 44 0 0 0-.12-4.016c-.137-1.855-.876-3.3-1.989-4.261-1.207-1.04-2.898-1.57-4.793-1.493-4.867.2-9.914 1.305-15.383 3.082-5.57 1.809-11.597 4.332-18.316 7.313-4.942 2.191-11.317 3.32-17.762 3.27m0 0" style="stroke:none;fill-rule:evenodd;fill:#ca0500;fill-opacity:1"></path><g clip-path="url(#turkey-pendikspor-football-logos-cc-a)" data-source="https://football-logos.cc"><path d="m78.129-.062 379.707.566 66.523 73.027-3.914 5.574c-7.793 11.098-13.883 23.395-17.992 37.102-4.152 13.863-6.3 29.148-6.168 46.07.149 18.461 2.402 37.676 5.84 56.688 3.453 19.074 8.129 38.02 13.094 55.82 4.82 17.3 7.347 28.977 8.648 39.387 1.293 10.344 1.367 19.504 1.293 31.773-.238 39.47-17.535 79.434-52.867 119.625-33.8 38.45-84.277 77.29-152.313 116.29l-1.18.675c-16.624 9.528-34.562 19.809-50.132 32.367l-5.023 4.059-5.239-3.758c-18.566-13.312-38.863-25.371-59.629-37.71-4.59-2.727-9.207-5.473-16.527-9.876-48.383-29.105-93.605-61.449-126.84-98.824C21.508 430.668.027 387.355.094 337.003c.027-21.179 4.293-36.179 9.996-56.222 2.254-7.93 4.738-16.664 7.113-26.242 9.305-37.543 14.25-74.043 11.883-105.969-2.008-27.097-9.305-50.785-23.758-68.754l-4.77-5.933L74.614-.07Zm82.703 143.917h28.5v101.012h-28.5Zm-1.254 0h-3.52l-32.062 31.293c15.598 16.688 16.527 33.38 16.875 50.063.774 37.043-16.078 62.375-15.914 91.781.184 33.024 16.129 58.367 36.043 77.645 27.89 28.894 70.078 51.285 105.637 74.488 29.867-20.004 70.601-40.82 100.922-69.633 21.34-20.277 40.914-46.152 40.78-84.937-.07-20.555-15.995-55-15.925-92.715.04-18.852 3.324-34.485 16.91-46.832l-28.969-31.153h-6.488v101.012h-28.5V143.855h-35.281v101.012h-28.5V143.855Zm86.445 101.012h-28.5V143.855h28.5Zm-97.851 3.973H384.96c2.621 30.074 13.508 45.242 13.035 69.691.004 7.801-2.203 17.336-4.816 27.059H140.234c-2.734-9.297-5.039-19.344-4.867-29.016 0-22.64 11.305-42.375 12.805-67.734m133.414 100.312h28.219v85.922l-28.22 17.008Zm-65.055 0h29.352v99.528l-29.352-19.278Zm129.117 60.977v-60.977h28.22v36.313c-9.009 9.172-18.4 17.43-28.22 24.664m-184.675-60.977h28.214l.083 60.61c-10.477-6.332-19.993-14.524-28.22-25.23 0-11.821-.077-23.56-.077-35.38m-116.38-215.18h436.614c1.148-7.898 2.816-15.429 4.969-22.613 3.96-13.21 9.55-25.273 16.578-36.332l-52.461-57.593-368.652-.551-58.516 58.433c11.488 16.618 18.332 36.524 21.469 58.657m435.47 9.883h-234.04Zm-320.485 0H45.738q.16 1.751.29 3.52c2.503 33.781-2.637 72.05-12.348 111.215-2.63 10.594-5.051 19.11-7.246 26.84-5.364 18.851-9.375 32.957-9.399 51.574-.058 45.64 19.77 85.3 51.067 120.496 31.964 35.95 75.824 67.277 122.851 95.57 3.711 2.23 10.102 6.028 16.461 9.805 19.285 11.46 38.18 22.688 55.695 34.844 15.344-11.645 31.844-21.102 47.254-29.934l1.18-.676c66.375-38.047 115.414-75.707 147.992-112.765 32.543-37.02 48.473-73.242 48.684-108.465.07-11.36 0-19.856-1.227-29.645-1.215-9.726-3.586-20.671-8.117-36.93-5.055-18.132-9.84-37.55-13.426-57.35-3.594-19.868-5.949-40.036-6.105-59.544q-.075-9.584.719-18.555Zm0 0" style="stroke:none;fill-rule:evenodd;fill:#cb0503;fill-opacity:1"></path></g><path d="M226.54 284.941c-4.868.2-9.915 1.305-15.384 3.082-5.57 1.809-11.597 4.332-18.316 7.313-4.942 2.191-11.313 3.32-17.762 3.27-6.207-.051-12.531-1.2-17.758-3.547l-3.89-1.75 3.113-2.903a130 130 0 0 1 17.75-13.867c6.102-3.96 12.594-7.426 19.344-10.2 7.832-3.218 15.883-4.839 23.59-4.948 7.945-.118 15.523 1.367 22.12 4.347 6.856 3.094 12.544 5.114 17.965 6.39 5.422 1.274 10.598 1.821 16.426 1.97 4.602.113 8.969-.36 13.27-1.34 4.3-.98 8.57-2.488 12.969-4.442 3.859-1.71 8.214-2.503 12.726-2.683 4.363-.176 8.879.222 13.219.902 8.664 1.36 17.691 4.223 26.785 7.809 9.016 3.558 18.11 7.824 26.977 12.023l2.425 1.149-2.207 5.414-69.05-2.782c-3.192-.128-5.856.618-8.086 2.051-2.29 1.469-4.188 3.688-5.77 6.45l-5.504 10.265c-.762 1.582-1.918 3.133-3.469 4.48-1.386 1.2-3.086 2.239-5.105 2.981-4.59 1.688-9.207 3.066-13.691 4.219-4.508 1.16-8.73 2.058-12.63 2.816-2.827.547-5.417.77-8.148.7-2.418-.063-4.902-.356-7.73-.848-2.469 1.254-4.914 2.761-7.227 4.398a66 66 0 0 0-7.566 6.23l-3.465 3.337-1.227-4.657c-.84-3.172-2.148-5.3-3.683-7.793a94 94 0 0 1-1.746-2.93 12.77 12.77 0 0 1-1.688-7.034 13 13 0 0 1 2.41-6.88c2.047-2.851 4.418-4.507 7.16-6.425l.66-.465-.003-.004c1.582-1.11 3.41-2.066 5.3-2.879 1.204-.52 2.461-.992 3.711-1.418q.07-1.03.086-2.031a44 44 0 0 0-.12-4.016c-.137-1.855-.876-3.3-1.989-4.261-1.207-1.04-2.898-1.57-4.793-1.493m158.42-36.101H148.173c-1.5 25.36-12.805 45.094-12.805 67.734-.172 9.672 2.133 19.719 4.867 29.016H393.18c2.613-9.723 4.82-19.258 4.816-27.059.473-24.449-10.414-39.617-13.035-69.691m0 0" style="stroke:none;fill-rule:evenodd;fill:#fff;fill-opacity:1"></path><path d="M239.09 294.797a47 47 0 0 1-.274 4.379l-.21 1.832-1.774.547a51 51 0 0 0-4.953 1.808c-1.574.68-3.063 1.45-4.281 2.305h-.008l-.668.469c-2.317 1.617-4.317 3.015-5.809 5.093a7.3 7.3 0 0 0-1.351 3.872 7.2 7.2 0 0 0 .957 3.953c.457.797 1.074 1.8 1.66 2.754 1.05 1.71 2.012 3.27 2.84 5.109a74 74 0 0 1 5.015-3.887c2.79-1.969 5.782-3.785 8.832-5.265l.825-.403.914.168c2.957.551 5.441.871 7.777.93 2.285.059 4.496-.133 6.953-.61 3.93-.761 8.094-1.644 12.293-2.726 4.219-1.086 8.633-2.406 13.14-4.066 1.356-.497 2.47-1.172 3.356-1.942.953-.82 1.649-1.758 2.094-2.703l.066-.133 5.532-10.312.03-.055c2.032-3.566 4.548-6.476 7.661-8.476 3.188-2.047 6.938-3.114 11.363-2.934l56.125 2.258c-5.507-2.535-11.05-4.977-16.547-7.145-8.785-3.465-17.433-6.222-25.59-7.5-4.007-.629-8.16-1-12.136-.84-3.828.157-7.485.813-10.664 2.223-4.68 2.074-9.285 3.695-14.012 4.773a58.6 58.6 0 0 1-14.64 1.47c-6.254-.157-11.793-.74-17.579-2.102-5.785-1.36-11.804-3.493-19.004-6.743-5.863-2.648-12.62-3.964-19.73-3.863-7 .102-14.34 1.582-21.512 4.531-6.414 2.637-12.594 5.938-18.406 9.711a123 123 0 0 0-13.504 10.153c3.531.996 7.406 1.496 11.254 1.527 5.652.047 11.195-.922 15.434-2.805 6.847-3.039 13.027-5.62 18.847-7.511 5.922-1.926 11.461-3.125 16.91-3.348 3.34-.133 6.41.883 8.715 2.867 2.219 1.914 3.68 4.68 3.938 8.137.105 1.433.148 2.945.12 4.5M160.832 244.867h28.5V143.855h-28.5ZM217.523 244.867h28.5V143.855h-28.5ZM281.586 244.867h28.5V143.855h-28.5ZM345.367 244.867h28.5V143.855h-28.5ZM189.188 349.152h-28.215c0 11.82.078 23.559.078 35.38 8.226 10.706 17.742 18.898 28.219 25.23ZM216.531 349.152v80.25l29.352 19.278v-99.528ZM281.586 349.152v102.93l28.219-17.008v-85.922ZM345.648 349.152v60.977c9.82-7.234 19.211-15.492 28.22-24.664v-36.313ZM44.594 133.973h436.613c1.148-7.899 2.816-15.43 4.969-22.614 3.96-13.21 9.55-25.273 16.578-36.332l-52.461-57.593-368.652-.551-58.516 58.433c11.488 16.618 18.332 36.524 21.469 58.657m79.215-54.832c-4.028 3.777-10.18 5.66-18.446 5.66H94.137v24.515h-20.54V43.07h34.048c7.418 0 12.968 1.758 16.671 5.29 3.684 3.53 5.536 8.558 5.536 15.081 0 6.692-2.02 11.938-6.043 15.7m16.699 30.175V43.07h54.773v14.157h-34.234v10.546h31.734v13.512h-31.734v13.043h35.25v14.988Zm67 0V43.07h19.105l24.844 36.578V43.07h19.336v66.246h-19.336l-24.703-36.375v36.375Zm77.164 0V43.07h30.426c5.98 0 10.84.82 14.523 2.438 3.688 1.637 6.742 3.965 9.16 7 2.406 3.054 4.149 6.586 5.23 10.625 1.094 4.043 1.634 8.312 1.634 12.832 0 7.078-.801 12.566-2.422 16.469q-2.405 5.849-6.707 9.804c-2.868 2.637-5.938 4.395-9.223 5.274-4.484 1.203-8.559 1.804-12.195 1.804Zm70.484-52.796.055-13.165h19.129l-.285 13.258Zm32.485 52.796V43.07h20.449v25.028l21.45-25.028h27.218l-24.18 24.89 25.29 41.356h-25.184l-13.97-27.199-10.624 11.07v16.13Zm-32.43 0V61.488l19.187.016-.058 47.719Zm0 0" style="stroke:none;fill-rule:evenodd;fill:#fff;fill-opacity:1"></path><path d="M99.18 71.383c3.98 0 6.77-.692 8.375-2.067 1.601-1.37 2.406-3.129 2.406-5.273 0-2.082-.695-3.84-2.098-5.29q-2.084-2.174-7.867-2.175h-5.86v14.805ZM305.121 58.063v36.175h5.027c4.286 0 7.34-.48 9.157-1.422 1.804-.953 3.226-2.605 4.257-4.964 1.036-2.375 1.543-6.2 1.543-11.504 0-7.016-1.14-11.813-3.44-14.403q-3.446-3.884-11.427-3.883ZM124.957 316.992c-.164-29.406 16.688-54.738 15.914-91.781-.348-16.684-1.277-33.375-16.875-50.063l32.063-31.293H45.739q.158 1.751.288 3.52c2.504 33.781-2.636 72.05-12.347 111.215-2.63 10.594-5.051 19.11-7.246 26.84-5.364 18.851-9.375 32.957-9.399 51.574-.058 45.64 19.77 85.3 51.067 120.496 31.964 35.95 75.824 67.277 122.851 95.57 3.711 2.23 10.102 6.028 16.461 9.805 19.285 11.46 38.18 22.688 55.695 34.844 15.344-11.645 31.844-21.102 47.254-29.934l1.18-.676c66.375-38.047 115.414-75.707 147.992-112.765 32.543-37.02 48.473-73.242 48.684-108.465.07-11.36 0-19.856-1.227-29.645-1.215-9.726-3.586-20.671-8.117-36.93-5.055-18.132-9.84-37.55-13.426-57.35-3.594-19.868-5.949-40.036-6.105-59.544q-.075-9.584.719-18.555h-99.708l28.97 31.153c-13.587 12.347-16.872 27.98-16.91 46.832-.071 37.715 15.855 72.16 15.925 92.715.133 38.785-19.442 64.66-40.781 84.937-30.32 28.813-71.055 49.63-100.922 69.633-35.559-23.203-77.746-45.594-105.637-74.488-19.914-19.278-35.86-44.621-36.043-77.645m60.89 139.051 17.895 9.496c4.793 2.547 8.332 4.766 9.684 6.973 2.008 3.285 2.105 8.02.047 12.363-2.641 5.57-10.641 8.566-16.442 6.05 2.906 4.329 3.317 10.126 3.649 15.141l.61 9.278-10.727-5.196-.754-11.046c-.297-4.375-.907-6.895-1.141-8.215-.227-1.282-.863-2.727-1.672-3.528-1.867-1.851-3.941-2.808-5.113-3.453l-9.09 16.973-8.55-5.031Zm-88.906-82.297q3.444-.538 6.817 1.11c2.254 1.097 4.851 2.87 6.918 5.394 5.316 6.504 6.246 10.695 6.035 14.41-.211 3.723-2.89 7.18-5.988 10.024l-6.137-7.586c1.539-1.805 2.375-2.434 2.805-3.97.53-1.917-1.371-5.796-3.047-7.542-1.707-1.785-2.203-2.617-3.914-2.984-1.102-.235-2.098.023-2.993.789-.812.699-1.234 1.629-1.277 2.78-.055 1.474.445 3.216 2.281 7.122 1.832 3.91 2.528 6.773 3.086 9.082.547 2.25.715 5.18-.047 7.32-.765 2.14-2.77 4.356-4.933 6.215-1.961 1.684-4.371 2.598-6.942 3.024-2.57.421-5.335-.043-7.73-1.243-2.395-1.199-5.055-3.156-7.316-6.168-3.442-4.586-6.454-8.8-6.07-14.144.32-4.535 2.652-9.102 6.671-12.34l6.813 7.203c-2.973 2.305-3.887 5.367-3.98 7.469-.095 2.101 1.495 4.723 3.14 6.738 1.73 2.13 3.215 2.719 5.039 2.988 1.82.27 2.707.055 3.969-1.027.812-.7 1.21-1.508 1.414-2.453.203-.937.379-1.82-.125-3.312-.344-1.02-1.075-3.278-2.602-6.653-1.965-4.344-2.738-7.879-2.558-10.472.25-3.641 1.878-6.625 4.601-8.965a12.1 12.1 0 0 1 6.07-2.809m-6.289 57.156 34.899-29.527 9.965 11.582c4.062 4.723 6.136 7.41 6.976 9.164 2.121 4.414.524 10.387-4.824 14.953-5.156 4.406-11.36 4.438-15.906 1.84-2.157-1.23-4.594-3.48-7.692-6.926l-4.3-4.777-12.743 11.012Zm45.133 13.41c7.766-8.273 19.09-12.167 30.438-3.34 11.152 8.676 12.515 20.68 3.757 32.028-9.011 11.676-20.917 14.371-31.87 5.496-12.962-10.504-13.13-22.668-2.325-34.183m83.371 98.481c1.696-.758 3.266-1.805 4.656-3.426 1.473-1.715 2.055-2.777 2.692-4.597h4.68l.14 30.89-5.976-.004.109-21.582c-2.012 2.028-4.004 4.473-6.293 3.785Zm20.867 14.953 5.157-.152c.222 1.281.93 3 2.718 2.984 2.688-.023 3.633-5.293 3.813-8.086-.953 1.84-2.867 2.77-5 2.758-4.574-.023-7.168-5.168-7.168-9.992 0-5.54 3.16-10.434 8.043-10.488 7.031-.079 9.45 8.359 9.355 15.097-.093 6.93-1.218 16.309-9.925 16.309-4.852 0-6.961-5.16-6.993-8.43m21.633-.656 5.535-.555c.227 2.133 1.13 4.137 3.48 4.137 2.095 0 3.106-2.598 3.106-5.164 0-2.7-.73-5.371-3.46-5.418-1.56-.028-2.368.394-3.301 2.168l-4.5-.79 2.511-16.183h13.297l.024 6.094h-8.953l-.774 4.57c1.055-.742 1.961-1.043 3.215-1.058 4.844-.07 7.41 5.656 7.41 10.336 0 5.668-3.289 10.789-8.898 10.949-5.27.156-8.032-3.926-8.692-9.086m-11.648-32.219.152-45.398 9.957.058.067 19.88 18.316-19.806 9.957-.007-.309-.95 9.77-2.941 7.117 23.754c2.277 7.601 4.547 12.992 13.203 9.89 7.325-2.624 6.102-7.882 3.82-14.605l-8.09-23.855 9.856-2.778 8.692 28.903c1.804 5.996 2.867 15.265-11.352 20.004-16.371 5.453-21.281-2.223-23.742-9.801l-8.172-25.18-15.316 15.426 18.59 27.375-12.657.539-12.586-21.524-7.226 7.243.199 13.726Zm42.043 9.899c7.668-.004 8.215 9.492 8.387 15.71.187 6.754-1.004 15.735-8.364 15.696-7.394-.035-8.437-9.778-8.437-16.035 0-6.192 1.16-15.364 8.414-15.371m101.164-83.903-16.938-18.648 7.93-6.48 19.5 23.038c4.047 4.778 8.719 12.856-2.43 22.871-12.836 11.532-20.402 6.454-25.683.485l-19.899-22.504 7.785-6.594 16.004 18.945c5.121 6.067 9.348 10.102 16.051 3.805 5.672-5.328 2.45-9.664-2.32-14.918m22.43-60.902 5.707-8.461 20.543 13.89c6.574 4.446 11.738 7.184 16.48-.699 4.012-6.668-.266-9.965-6.281-13.726l-21.364-13.352 5.872-8.387 25.023 16.88c5.188 3.5 11.879 10.003 3.867 22.671-9.222 14.582-17.883 11.746-24.586 7.438Zm-65.778 115.441-23.082-39.035 8.649-5.129 19.128 32.445 19.645-11.71 4.195 6.906Zm37.942-83.261 11.632-12.762c2.72-2.98 4.727-5.195 6.247-6.488 4.695-4 11.289-4.188 15.66-.176 3.343 3.066 4.562 6.14 3.433 10.758 4.426-3.418 9.258-2.676 13.344.57 3.496 2.785 5.61 7.21 5.297 10.922-.184 2.18-1.461 4.554-3.016 6.816-.965 1.41-3.695 4.422-7.98 9.36l-9.352 10.777Zm0 0" style="stroke:none;fill-rule:evenodd;fill:#fff;fill-opacity:1"></path><path d="m125.54 413.824-9.427 8.16 3.735 4.23c2.097 2.376 2.879 3.114 4.125 3.837 1.242.722 2.375 1.25 3.648 1.172 1.27-.078 2.41-.543 3.434-1.418 1.254-1.078 2.097-2.563 2.207-4.082.11-1.524-.434-2.809-1.313-4.25-.64-1.055-1.031-1.387-3.433-4.184ZM142.395 451.762c-5.766 6.96-8.024 14.101-.465 19.746 6.976 5.215 14.757 2.812 19.738-3.988 4.8-6.555 8.477-13.582.437-19.77-7.195-5.531-14.316-2.5-19.71 4.012M190.828 467.348l-5.516 9.836 5.86 3.593c4.195 2.57 5.781 2.727 7.039 2.989 2.586.546 4.723-.477 5.984-2.79 1.559-2.851.528-5.453-1.965-7.3-.675-.504-1.57-.742-5.175-2.793ZM400.504 420.066l7.984 6.707 2.684-3.195c2.562-3.05 4.117-4.988 4.664-5.797 1.668-2.469 2.226-5.496-.3-7.617-2.434-2.043-5.005-1.312-7.13.742-.738.711-2.656 2.914-5.75 6.598ZM424.473 421.14c-1.297.669-3.13 2.633-6.262 6.094l-4.02 4.438 9.27 7.547 4.512-5.164c2.425-2.778 3.847-4.664 4.355-5.535 1.574-2.688 1.3-5.07-1.223-7.204-2.18-1.836-4.246-1.402-6.632-.175M251.11 545.898c0-2.425-.993-5.562-3.395-5.543-2.703.02-2.805 2.66-2.805 4.97 0 2.445.38 5.37 3.063 5.32 2.574-.043 3.136-2.399 3.136-4.747M289.2 550.363c0 2.395-.384 10.336 3.07 10.348 2.777.008 2.789-7.734 2.742-10.23-.043-2.403.14-10.223-2.86-10.243-3.234-.023-2.953 7.739-2.953 10.125m0 0" style="stroke:none;fill-rule:evenodd;fill:#fff;fill-opacity:1"></path><path d="m421.75 376.488-6.402-4.23-4.227 6.402 6.399 4.227ZM418.402 367.727l6.47 4.125 4.124-6.47-6.469-4.124ZM376.527 429l-5.207-5.633-5.632 5.207 5.207 5.633ZM366.535 438.016l-5.047-5.782-5.777 5.047 5.043 5.778Zm0 0" style="stroke:none;fill-rule:evenodd;fill:#cb0503;fill-opacity:1" data-source="https://football-logos.cc"></path><!-- source: https://football-logos.cc --></svg>