<svg xmlns="http://www.w3.org/2000/svg" xml:space="preserve" id="turkey-igdir-football-logos-cc-Layer_1" x="0" y="0" version="1.1" viewBox="0 0 651 854.8"><metadata xmlns:fl="https://football-logos.cc/turkey/igdir">dl1_da9b275445d2617a003cd9eccc5529a5a3dc79b7c341c489fa397d5f748cb76a</metadata><!-- Source: https://football-logos.cc --><style data-source="https://football-logos.cc">.st0{fill:none}.st1{fill:#008d36}.st2{fill:#fff}.st4{fill:#063}</style><path d="m563.3 261.4-146-145.9zM63.8 245.2l23.9 16.2-32-21.7z" class="st0"></path><path d="M0 533.6c0 6.3 2.5 12.4 7 16.8L308.9 848c4.6 4.5 10.6 6.8 16.6 6.8s12-2.3 16.6-6.8L644 550.4c4.5-4.4 7-10.5 7-16.8V217.9c0-8.7-4.8-16.8-12.6-20.9-3.5-1.8-7.3-2.8-11.1-2.8-4.6 0-9.3 1.4-13.3 4.1l-47.9 32.5-224-224C337.6 2.3 331.5 0 325.5 0s-12.1 2.3-16.7 6.9l-224 224-47.9-32.5c-4-2.7-8.6-4.1-13.3-4.1-3.8 0-7.6.9-11.1 2.8C4.8 201.2 0 209.2 0 217.9zm325.5 297.6L143.2 651.4zl301.9-297.6zM171 610.3h5.1c-.6-1.3-1-2.9-1-4.8s.5-3.5 1.6-4.6 2.6-1.7 4.7-1.7h5.6c2.1 0 3.8.6 5 1.8s1.9 3 1.9 5.4-.6 4.2-1.9 5.4c-1.2 1.2-2.9 1.7-5 1.7h-16.2c-2.1 0-3.7-.6-5-1.9s-1.9-3.1-1.9-5.5.3-4.3.8-5.9h3q-.9 2.25-.9 5.4c0 3.1 1.4 4.7 4.2 4.7m.3 13.3h-3.5l-3.7-5.1V615h29.3v3.1h-26.1zm-5.7 3.1c1.3-1.2 2.9-1.8 5-1.8h16.3c2.1 0 3.8.6 5 1.8s1.9 3 1.9 5.4-.6 4.2-1.9 5.4c-1.2 1.2-2.9 1.7-5 1.7h-16.3c-2.1 0-3.8-.6-5-1.7-1.3-1.2-1.9-3-1.9-5.4s.6-4.3 1.9-5.4m2.1 26.9h-3c-.5-1.5-.8-3.3-.8-5.4 0-5.1 2.1-7.7 6.2-7.7h2.5c1.6 0 2.9.3 3.9.8s1.9 1.4 2.7 2.6l2.4 3.4c1 1.5 1.8 2.4 2.5 2.9s1.7.7 3 .7h3.3v-10.5h2.9V654H187c-1.8 0-3.3-.4-4.3-1.1-1.1-.8-2.1-1.9-3.2-3.5l-2.5-3.5c-.6-.9-1.2-1.5-1.9-1.8s-1.6-.5-2.8-.5h-2.1c-1.2 0-2 .3-2.6 1-.6.6-.9 1.9-.9 3.8.1 1.9.4 3.6 1 5.2m39.6 35.5V596c6-3.5 12-6.9 17.9-10.4 0 40.3 0 80.7.1 121-6-5.9-12-11.7-18-17.5m48.6 5.5c4 10.6 10.8 20.7 20.1 27.3 1.1.8 2.8 1.9 5 3.3 0-21.8-.1-43.6-.1-65.4 5.6 1.2 11.1 2.4 16.7 3.6.1 37 .1 73.9.2 110.9-7.7-4-14.3-9-20.4-14.9-15.1-14.6-27-33.6-35.2-53.1-7.8-18.6-11.8-38.7-11.7-58.9 0-1.5 0-3 .1-4.5 1.3-7.8 4.2-19.7 10.9-33.9 14.2-30.1 40.2-43.8 40.2-43.8s-13.1 2.8-28.3 16.1c-4.2 3.7-8.9 9.6-12.6 14.7.5-1.1 1-2.1 1.5-3.1 7.8-15.6 19.3-31.2 34.4-39.8 5.9-3.4 11.4-5.4 18.3-5.3 0 13.9 0 27.7.1 41.6-5.7-1.7-11.2-2.2-16.8-.3-6.2 2.2-12.2 6-16.5 11.4-4.8 5.9-7.6 12.9-9.5 20.1-2.7 10-3.1 20.8-3.1 31.1.2 14.3 1.6 29.2 6.7 42.9m120.4-74.3c.1 25.6-1 51.5-5.2 76.9-3.2 19.4-7.9 39-16 56.9-6.7 14.8-15.5 29-27.2 40.4-4.6 4.5-6.4 7.9-11.5 2-3.8-4.4-7.4-9-10.9-13.7-.1-79.4-.3-158.8-.4-238.2 4-4.7 8.1-9.2 12.6-13.3 4.1-3.8 8.6-7.5 13.3-10.3 14.2-8.5 26.5-3.5 33.7 11.3 12.6 25.6 11.5 59.8 11.6 88m4.9-126.8c6-3.6 12-7.2 18-10.9.3 79.5.5 159 .8 238.5l-18 17.7c-.3-81.8-.5-163.6-.8-245.3m108.3-53.4 19.7-15.1.1 9.3-14.7 11.3.8 36.6 13.6-10.8.1 9-13.6 10.8.9 40.4-4.7 3.9zm40.8-31.1 4.8-3.6v74.7c0 6.5-.9 12.4-2.7 17.8s-4.5 9.5-8.1 12.5-6.4 3.3-8.2.9c-1.9-2.4-2.9-6.9-3-13.3l-.9-75 4.9-3.7.7 74.7c.1 8.8 2.2 11.4 6.5 7.9 4.2-3.4 6.3-9.5 6.3-18.2zm51.3 24.8-.2 8.2c-.2 6.4-1.1 12.1-2.8 17s-4.2 8.7-7.4 11.4l-10.9 9 1.3-94.3 11.1-8.5c3.4-2.6 5.9-2.6 7.5.1 1.6 2.6 2.3 7.4 2.2 14.2l-.2 8.1c-.2 9.1-1.9 16.1-5 21.1 3.1 0 4.6 4.5 4.4 13.7m-6.1 47.4q-.15 4.35-2.1 6c-1.3 1.1-2 .2-1.9-2.6q.15-4.35 2.1-6c1.4-1.2 2-.3 1.9 2.6m-7.1 5.8q-.15 4.35-2.1 6c-1.4 1.1-2 .3-2-2.6s.8-4.9 2.1-6c1.4-1.1 2.1-.2 2 2.6m-7.6 17 3.8-3.2-.9 57.7c-.1 6.8 1.5 8.7 4.8 5.8s5-7.7 5.2-14.6l1.2-57.6 3.7-3.1-1.4 57.8c-.1 5-.9 9.7-2.4 14s-3.7 7.7-6.5 10.2-5 2.9-6.4 1.1-2.1-5.2-2-10.3zm65.9-87.1-.4 8.2-15.7 12.9 3.7-93.2 4.3-3.3-3.6 84.9zm-3.4 24.6c-.1 2.9-.8 4.8-2.1 5.8s-1.8.1-1.7-2.7c.1-2.9.8-4.8 2.1-5.9 1.2-1 1.8 0 1.7 2.8m-6.7 5.6c-.1 2.9-.8 4.8-2.1 5.9q-1.95 1.65-1.8-2.7c.1-2.9.8-4.8 2.1-5.9q1.95-1.65 1.8 2.7m-3.9 13.5-2.4 57.2c-.3 6.8 1.2 8.8 4.3 6 3.1-2.7 4.8-7.5 5.2-14.2l2.7-57.1 3.5-2.9-2.8 57.3c-.2 5-1.1 9.6-2.6 13.8s-3.6 7.5-6.2 9.9c-2.7 2.4-4.6 2.6-5.9.8-1.2-1.8-1.8-5.3-1.6-10.3l2.3-57.5zm-4.5-90.2-1.9 52.1c-.2 6.4-1.3 12.2-3.1 17.4s-4.4 9.2-7.6 11.9c-3.3 2.7-5.7 2.8-7.3.4-1.6-2.5-2.3-6.9-2.1-13.3l1.4-52.3c.2-6.8 1.2-13 3.1-18.7 1.9-5.6 4.6-9.8 8-12.4s5.9-2.4 7.5.5c1.6 2.7 2.2 7.6 2 14.4m-13.7 105.4q4.05-3.45 6-.6c1.3 1.9 1.8 5.5 1.6 10.8l-.2 6.3c-.3 7-1.6 12.6-4.2 16.8 2.6-.3 3.7 3.1 3.5 10.3l-.2 6.4q-.3 7.5-2.4 13.5c-1.4 4-3.4 7.1-6.1 9.5l-8.8 7.8 2-73.4zm-35.6-79.5-8.4 6.5-.7 85.2-4.5 3.7.5-85.3-8.6 6.6v-9.3L559 387zm-16.6 123.2 3.9-3.2-.4 67.2 10.6-9.3-.1 6.5-14.3 12.6zM520.1 538l.5 58c.1 6.9 1.8 8.7 5.4 5.6 3.5-3.1 5.2-8 5.2-14.8l-.1-57.9 3.9-3.3v58.1c0 5.1-.7 9.8-2.2 14.2s-3.7 7.9-6.7 10.5-5.3 3.1-6.8 1.4q-2.4-2.55-2.4-10.2l-.6-58.2zm-7.5 81.3-4.3 3.8-8.8-29.1 7.2-44.7 4.4-3.7-7.3 44.5zm-15.1 13.3-3.9 3.5-1.8-74.2 4.1-3.4zm-29.2-126.1c.1 13.8-1 27.9-4 41.5-2.5 11.6-6.3 23.1-12.1 33.5 7.5 21.8 15.4 43.5 23.6 65.1-6.5 6.4-13.1 12.8-19.6 19.3-7.4-20.6-14.4-41.3-21.2-62.1-.4.3-.6.5-1 .8-2.7 2.3-5.6 4.4-8.6 6.4l.3 84.7-17.7 17.4c-.3-76.7-.5-153.5-.8-230.2 3.9-4.7 8-9.3 12.4-13.4 4-3.7 8.4-7.3 13-10 8-4.7 19.7-8.1 26.6 1.1 9.1 12.1 9 31.6 9.1 45.9M23.6 217.9l32 21.7 32 21.7-23.9-16.2 23.9 16.2L325.5 23.6l91.9 91.9 145.9 145.9-146-145.9 145.9 145.9 64.1-43.5v87.7l-153.5 88.1c-2.5 3.4-5.7 6.3-9.4 8.5L201.6 560.1c-5.2 3.1-11.1 4.8-17.2 4.8-2.5 0-4.9-.3-7.3-.8l-77.5 44.5-76-74.9V217.9" class="st1"></path><path d="m369.6 192.1 9.6 9.6L140.8 345c-12.8 7.7-19 23.2-15 37.6S143 407 158 407h168.6l-159.4 95.7c-15.8 9.5-20.9 30.1-11.4 45.9 4.7 7.9 12.6 13.4 21.4 15.4 2.4.5 4.8.8 7.3.8 6 0 12-1.7 17.2-4.8l262.8-157.8c3.7-2.3 6.9-5.2 9.4-8.5 6.1-8.1 8.4-18.8 5.6-29.1-4-14.4-17.2-24.5-32.2-24.5H278.6L428 250.4l93.2 93.2L627 218l.3-.2-64.1 43.5-145.9-145.8c-1.7 33-20.5 61.4-47.7 76.6M225.3 355h221.9c2.1 0 4.1.3 6 1 .5.2.9.3 1.4.5 2.7 1.2 5.1 3 7 5.2l1.5 2.1c.1.2.3.4.4.6.7 1.3 1.3 2.7 1.7 4.2.2.9.4 1.8.5 2.7.1.6.1 1.3.2 1.9 0 1.1-.1 2.2-.2 3.2-.2 1.4-.6 2.8-1.1 4.1-.9 2.3-2.3 4.4-4.1 6.2-1.1 1.1-2.3 2-3.6 2.8l-87.6 52.6L194 547.4c-.8.5-1.5.8-2.3 1.2q-1.35.6-2.7.9c-1.5.4-3.1.6-4.6.6h-1.3c-.4 0-.7-.1-1.1-.1h-.2c-.7-.1-1.4-.2-2.1-.4-.2 0-.3-.1-.5-.1-.2-.1-.4-.1-.6-.2s-.3-.1-.5-.2-.4-.1-.6-.2h-.1c-.3-.1-.7-.3-1-.4-.1 0-.2-.1-.3-.2-.2-.1-.5-.2-.7-.4l-1.5-.9-.9-.6q-2.7-2.1-4.5-5.1c-1.7-2.8-2.5-5.8-2.6-8.8v-1.8c0-.6.1-1.2.2-1.8.2-1.2.5-2.3.9-3.5.3-.9.7-1.7 1.1-2.5.5-.9 1-1.7 1.6-2.5.7-.9 1.4-1.7 2.2-2.4.9-.8 1.9-1.6 3-2.3L380 392.5H158c-.5 0-1 0-1.6-.1-2.1-.2-4-.7-5.9-1.5-2.8-1.2-5.2-3-7.1-5.4-.9-1.2-1.8-2.5-2.4-3.8-.4-.9-.8-1.9-1.1-2.9 0-.1 0-.2-.1-.3-.2-.9-.4-1.7-.5-2.6-.1-.6-.1-1.1-.1-1.7-.1-6.6 3.2-12.9 9-16.4L411 200c.5-.3 1-.6 1.5-.8.1-.1.3-.1.4-.2.5-.2.9-.4 1.4-.6.1 0 .1 0 .2-.1.5-.2 1-.3 1.6-.5.1 0 .3-.1.4-.1.5-.1.9-.2 1.4-.3h.2c.5-.1 1.1-.1 1.6-.1h2.0999999999999996c.5 0 1 .1 1.6.2.1 0 .2 0 .4.1.5.1.9.2 1.4.3h.2c.5.1 1 .3 1.5.5.1 0 .2.1.3.1.5.2.9.3 1.3.5.1 0 .1 0 .2.1.5.2.9.5 1.4.7.1.1.2.1.3.2.4.3.8.5 1.2.8 0 0 .1 0 .1.1.4.3.8.7 1.3 1l.3.3c.4.4.8.7 1.1 1.1l.1.1c.4.4.7.8 1.1 1.3.1.1.2.2.2.3.3.5.7.9.9 1.4 4.2 6.9 3.3 15.5-1.6 21.4-1.3 1.6-2.9 3.1-4.8 4.2l-13.1 7.9zM23.6 218.1l61 85 65.5-65.5 42.8 42.8 87.5-87.5c-27.4-14.6-46.7-42.5-49.2-75.1l94.3-94.3L87.7 261.4l-23.9-16.2-8.1-5.5-32-21.7v.1z" class="st2"></path><path d="M231.2 117.9c2.5 32.6 21.8 60.5 49.2 75.1l45-45 44.2 44.2c27.2-15.2 46-43.6 47.7-76.6l-91.9-91.9zM315.7 46l8.8 6.2 8.6-6.4-3.2 10.2 8.8 6.2-10.7.2-3.2 10.2-3.5-10.1-10.7.2 8.6-6.4zm39.7 51.5c0 8.6-3.5 16.5-9.1 22.1-5.6 5.7-13.4 9.2-22 9.2s-16.4-3.5-22-9.2-9.1-13.5-9.1-22.1c0-5.2 1.3-10.1 3.5-14.4.4-.7.7-1.4 1.2-2.1 2.1-3.4 4.9-6.4 8.1-8.8.3-.2.7.2.5.5-.5.6-.9 1.2-1.4 1.9l-1.2 2.1c-1.9 3.6-3 7.8-3 12.3 0 6.9 2.6 13.2 6.9 17.7s10.1 7.4 16.6 7.4 12.4-2.8 16.6-7.4c4.3-4.5 6.9-10.8 6.9-17.7 0-3.1-.5-6.1-1.5-8.8-.2-.4-.3-.9-.5-1.3-.9-2.2-2.1-4.3-3.6-6.1-.2-.3.2-.7.5-.5 1.1.8 2.1 1.7 3.1 2.6q1.5 1.35 2.7 3c4.2 5.3 6.8 12.1 6.8 19.6" style="fill-rule:evenodd;clip-rule:evenodd;fill:#e20613"></path><path d="M143.5 385.4c-.9-1.2-1.8-2.5-2.4-3.8.6 1.3 1.4 2.6 2.4 3.8M175.3 547.7l-1.5-.9c.5.3 1 .7 1.5.9M165.9 528.7c.2-1.2.5-2.3.9-3.5-.4 1.1-.7 2.3-.9 3.5M191.7 548.6c.8-.3 1.6-.7 2.3-1.2l175.2-105.2L194 547.4c-.8.5-1.5.9-2.3 1.2M461.5 361.7c-1.9-2.3-4.3-4.1-7-5.2 2.8 1.2 5.2 3 7 5.2M225.3 355l191.9-115.3zM176.4 548.3c-.1 0-.2-.1-.3-.2.1.1.2.1.3.2M143.5 385.4c1.9 2.3 4.3 4.2 7.1 5.4-2.8-1.3-5.2-3.1-7.1-5.4M168.4 541c-1.7-2.8-2.5-5.8-2.6-8.8.1 3.1.9 6.1 2.6 8.8 1.2 2 2.8 3.7 4.5 5.1-1.7-1.3-3.3-3-4.5-5.1M139.9 378.3c0 .1 0 .2.1.3.3 1 .6 2 1.1 2.9-.4-.9-.8-1.9-1.1-2.9 0-.1 0-.2-.1-.3M139.5 375.8c-.1-.6-.1-1.1-.1-1.7-.1.5 0 1.1.1 1.7M465.6 371.3c.1.6.1 1.3.2 1.9 0-.6-.1-1.3-.2-1.9M463 363.9c.1.2.3.4.4.6-.1-.2-.3-.4-.4-.6M447.1 355c2.1 0 4.1.3 6 1-1.8-.7-3.9-1-6-1M464.5 380.5c-.9 2.3-2.3 4.4-4.1 6.2 1.8-1.7 3.1-3.9 4.1-6.2M183.2 550h-.1zM465.6 376.4c-.2 1.4-.6 2.8-1.1 4.1.5-1.3.9-2.7 1.1-4.1M177.5 548.8h-.1c0-.1 0-.1.1 0" class="st4" data-source="https://football-logos.cc"></path><path d="M155.7 548.6c-9.5-15.8-4.4-36.4 11.4-45.9L326.6 407H158c-15 0-28.2-10.1-32.2-24.5s2.2-29.9 15-37.6l238.5-143.2-9.6-9.6-44.2-44.2-45 45-87.5 87.5-42.8-42.8-65.5 65.5-61-85v315.4l76 74.9 77.5-44.5c-8.9-1.9-16.7-7.4-21.5-15.3" class="st4"></path><path d="M178.6 549.2c-.2-.1-.3-.1-.5-.2.1 0 .3.1.5.2M179.7 549.5c-.2 0-.3-.1-.5-.1.2 0 .4 0 .5.1M182 549.9h-.2zM521.2 343.7 428 250.4l-149.4 89.7h168.6c15 0 28.2 10.1 32.2 24.5 2.8 10.2.6 20.9-5.6 29.1l153.5-88.1v-87.7l-.3.2z" class="st4"></path><path d="M434.7 495c-3.6 2.2-6.7 5.5-9.6 8.7l.3 69.4c3.2-1.5 6.1-3.5 8.9-5.6 6.1-4.6 10.6-11.4 13.1-18.7 3.4-9.6 4.2-20 4.1-30 0-7.4 0-17.3-4.2-23.8-3.1-4.7-9.2-2.2-12.6 0M571.6 429l-6.4 5.1-.5 33.4 6.2-5.1c3.9-3.2 5.9-8.9 6.1-17.2l.2-8.2c.2-8.4-1.6-11.1-5.6-8M598.2 495.6l.2-6.3c.2-6.9-1.3-8.9-4.5-6.2l-4.9 4.1-.8 26.8 4.8-4.2c3.3-2.7 5-7.4 5.2-14.2M186.9 610.3c2.8 0 4.2-1.4 4.2-4.1s-1.4-4.1-4.2-4.1h-5.4c-2.4 0-3.6 1.3-3.6 3.8 0 1.7.3 3.1 1 4.3h8zM346.5 566.5c-4.2-4-10.1-1.8-14.1.7-3.5 2.2-6.4 5.6-9.1 8.8l.3 173.6c3.3-1.9 6.2-4.5 9.1-7.1 6.5-5.9 10.9-13.7 14.3-21.7 4.6-10.9 6.7-23 8.3-34.6 2.3-16.9 2.7-34.3 2.6-51.4 0-15.5-.2-31.5-2.9-46.7-1.4-7.1-3-16.4-8.5-21.6M572 386l-6.1 4.7-.5 34.5 6-4.7q6-4.65 6.3-17.7l.2-8.1c.1-8.9-1.8-11.8-5.9-8.7M598.3 364.8c-4 3.1-6.2 9.3-6.5 18.4l-1.5 51.8c-.3 8.6 1.6 11.3 5.5 8.2 3.9-3.2 5.9-9 6.3-17.6l1.8-51.7c.3-9.1-1.5-12.2-5.6-9.1M597.4 528.7l.2-6.4c.2-6.6-1.3-8.6-4.4-5.8l-5.1 4.4-.8 26.1 5.1-4.4c3.1-2.8 4.8-7.4 5-13.9M170.6 636.1h16.2c2.8 0 4.2-1.4 4.2-4.1s-1.4-4.1-4.2-4.1h-16.2c-2.8 0-4.2 1.3-4.2 4.1s1.5 4.1 4.2 4.1M430.3 231.8c1.9-1.1 3.5-2.6 4.8-4.2 4.8-5.9 5.7-14.5 1.6-21.4-.3-.5-.6-1-.9-1.4-.1-.1-.2-.2-.2-.3-.3-.4-.7-.9-1.1-1.3l-.1-.1c-.4-.4-.7-.8-1.1-1.1l-.3-.3c-.4-.4-.8-.7-1.3-1l-.1-.1c-.4-.3-.8-.6-1.2-.8-.1-.1-.2-.1-.3-.2-.5-.3-.9-.5-1.4-.7-.1 0-.1 0-.2-.1-.4-.2-.9-.4-1.3-.5-.1 0-.2-.1-.3-.1-.5-.2-1-.3-1.5-.5h-.2c-.5-.1-.9-.2-1.4-.3-.1 0-.2 0-.4-.1-.5-.1-1-.1-1.6-.2h-2.1c-.5 0-1.1.1-1.6.1h-.2c-.5.1-.9.2-1.4.3-.1 0-.3.1-.4.1-.5.1-1 .3-1.6.5-.1 0-.1 0-.2.1-.5.2-.9.4-1.4.6-.1.1-.3.1-.4.2-.5.2-1 .5-1.5.8L148.4 357.6c-5.8 3.5-9.2 9.8-9 16.4 0 .6.1 1.1.1 1.7.1.9.3 1.7.5 2.6 0 .1 0 .2.1.3.3 1 .6 2 1.1 2.9.6 1.4 1.5 2.7 2.4 3.8 1.9 2.3 4.3 4.2 7.1 5.4 1.8.8 3.8 1.3 5.9 1.5.5 0 1 .1 1.6.1h221.9L174.8 515.4c-1.1.7-2.1 1.4-3 2.3-.8.8-1.5 1.6-2.2 2.4-.6.8-1.1 1.7-1.6 2.5-.4.8-.8 1.6-1.1 2.5-.4 1.1-.7 2.3-.9 3.5-.1.6-.1 1.2-.2 1.8v1.8c.1 3 1 6 2.6 8.8 1.2 2 2.8 3.7 4.5 5.1l.9.6c.5.3 1 .7 1.5.9.2.1.5.3.7.4.1.1.2.1.3.2.3.2.6.3 1 .4h.1c.2.1.4.1.6.2s.3.1.5.2.4.1.6.2c.2 0 .3.1.5.1.7.2 1.4.3 2.1.4h.2c.4 0 .7.1 1.1.1h1.3c1.5 0 3.1-.2 4.6-.6q1.35-.3 2.7-.9c.8-.3 1.6-.7 2.3-1.2l175.2-105.2 87.6-52.6c1.3-.8 2.6-1.8 3.6-2.8 1.8-1.8 3.2-3.9 4.1-6.2.5-1.3.9-2.7 1.1-4.1.2-1.1.2-2.1.2-3.2 0-.6-.1-1.3-.2-1.9-.1-.9-.3-1.8-.5-2.7-.4-1.5-1-2.9-1.7-4.2-.1-.2-.2-.4-.4-.6l-1.5-2.1c-1.9-2.3-4.3-4.1-7-5.2-.5-.2-.9-.4-1.4-.5-1.9-.7-3.9-1-6-1H225.3l191.9-115.3z" class="st1"></path><path d="m321.3 62.4 3.4 10.1 3.2-10.2 10.7-.2-8.7-6.2 3.1-10.2-8.6 6.4-8.7-6.1 3.4 10.1-8.5 6.4z" class="st2"></path><path d="M345.7 74.8c-1-.9-2-1.8-3.1-2.6-.3-.2-.7.2-.5.5 1.5 1.8 2.7 3.9 3.6 6.1.2.4.3.9.5 1.3 1 2.7 1.5 5.7 1.5 8.8 0 6.9-2.6 13.2-6.9 17.7s-10.1 7.4-16.6 7.4-12.4-2.8-16.6-7.4c-4.3-4.5-6.9-10.8-6.9-17.7 0-4.5 1.1-8.6 3-12.3l1.2-2.1c.4-.7.9-1.3 1.4-1.9.2-.3-.2-.7-.5-.5-3.2 2.4-6 5.4-8.1 8.8l-1.2 2.1c-2.2 4.3-3.5 9.2-3.5 14.4 0 8.6 3.5 16.5 9.1 22.1 5.6 5.7 13.4 9.2 22 9.2s16.4-3.5 22-9.2 9.1-13.5 9.1-22.1c0-7.5-2.6-14.3-7-19.7-.6-1-1.6-1.9-2.5-2.9M207.3 596v93.1c6 5.8 12 11.6 18 17.5 0-40.3 0-80.7-.1-121-6 3.4-11.9 6.9-17.9 10.4M261.9 600.5c4.4-5.4 10.3-9.2 16.5-11.4 5.5-1.9 11-1.4 16.8.3 0-13.9 0-27.7-.1-41.6-6.9-.1-12.5 1.9-18.3 5.3-15.1 8.6-26.7 24.2-34.4 39.8-.5 1-1 2.1-1.5 3.1 3.7-5.1 8.3-11 12.6-14.7 15.2-13.3 28.3-16.1 28.3-16.1s-26 13.7-40.2 43.8c-6.7 14.2-9.6 26.1-10.9 33.9 0 1.5-.1 3-.1 4.5-.1 20.2 3.9 40.2 11.7 58.9 8.2 19.5 20.1 38.4 35.2 53.1 6.1 5.9 12.7 10.9 20.4 14.9-.1-37-.1-73.9-.2-110.9-5.6-1.2-11.1-2.4-16.7-3.6 0 21.8.1 43.6.1 65.4-2.2-1.4-3.9-2.5-5-3.3-9.3-6.6-16.1-16.8-20.1-27.3-5.2-13.6-6.5-28.5-6.6-42.9 0-10.3.4-21.1 3.1-31.1 1.9-7.2 4.7-14.3 9.4-20.1M364.8 532.3c-7.2-14.8-19.5-19.8-33.7-11.3-4.7 2.8-9.2 6.5-13.3 10.3-4.4 4.1-8.6 8.6-12.6 13.3.1 79.4.3 158.8.4 238.2 3.5 4.6 7.1 9.2 10.9 13.7 5 5.9 6.8 2.5 11.5-2 11.7-11.4 20.5-25.6 27.2-40.4 8.1-17.9 12.8-37.4 16-56.9 4.1-25.3 5.2-51.3 5.2-76.9-.2-28.2.9-62.4-11.6-88m-9.6 153.9c-1.6 11.7-3.7 23.8-8.3 34.6-3.4 8-7.8 15.8-14.3 21.7-2.8 2.6-5.7 5.1-9.1 7.1l-.3-173.6c2.8-3.3 5.6-6.7 9.1-8.8 4-2.5 10-4.7 14.1-.7 5.5 5.3 7.1 14.5 8.4 21.7 2.7 15.2 2.9 31.2 2.9 46.7.1 17-.3 34.4-2.5 51.3M399.2 482.6c-6 3.6-12 7.2-18 10.9.2 81.8.5 163.5.7 245.3l18-17.7c-.2-79.5-.5-159-.7-238.5M432.7 459.6c-4.6 2.7-9 6.3-13 10-4.4 4.1-8.5 8.7-12.4 13.4.3 76.7.5 153.5.8 230.2l17.7-17.4-.3-84.7c2.9-2.1 5.8-4.1 8.6-6.4.4-.3.6-.5 1-.8 6.8 20.8 13.9 41.5 21.2 62.1 6.5-6.4 13.1-12.8 19.6-19.3-8.3-21.5-16.1-43.2-23.6-65.1 5.7-10.4 9.5-22 12.1-33.5 3-13.6 4.1-27.7 4-41.5-.1-14.3 0-33.8-9.1-45.9-6.9-9.3-18.6-5.9-26.6-1.1m18.8 59.2c.1 10-.7 20.4-4.1 30-2.6 7.3-7.1 14.1-13.1 18.7-2.8 2.1-5.7 4.1-8.9 5.6l-.3-69.4c3-3.2 6-6.5 9.6-8.7 3.5-2.1 9.6-4.6 12.6.1 4.1 6.4 4.1 16.3 4.2 23.7M170.3 643.6h2.1c1.2 0 2.1.2 2.8.5s1.3.9 1.9 1.8l2.5 3.5c1.1 1.6 2.1 2.8 3.2 3.5 1.1.8 2.5 1.1 4.3 1.1h6.3v-13.6h-2.9v10.5h-3.3c-1.3 0-2.3-.2-3-.7s-1.5-1.5-2.5-2.9l-2.4-3.4c-.8-1.2-1.8-2.1-2.7-2.6-1-.5-2.3-.8-3.9-.8h-2.5c-4.1 0-6.2 2.6-6.2 7.7 0 2.1.3 3.8.8 5.4h3c-.6-1.6-.9-3.3-.9-5.2s.3-3.2.9-3.8c.4-.7 1.3-1 2.5-1M165.6 637.5c1.3 1.2 2.9 1.7 5 1.7h16.3c2.1 0 3.8-.6 5-1.7 1.2-1.2 1.9-3 1.9-5.4s-.6-4.2-1.9-5.4c-1.2-1.2-2.9-1.8-5-1.8h-16.3c-2.1 0-3.8.6-5 1.8-1.3 1.2-1.9 3-1.9 5.4s.6 4.2 1.9 5.4m5-9.5h16.2c2.8 0 4.2 1.3 4.2 4.1s-1.4 4.1-4.2 4.1h-16.2c-2.8 0-4.2-1.4-4.2-4.1s1.5-4.1 4.2-4.1M193.4 615h-29.3v3.5l3.7 5.1h3.5l-4-5.5h26.1zM164.7 600.1c-.5 1.5-.8 3.5-.8 5.9s.6 4.2 1.9 5.5 2.9 1.9 5 1.9H187c2.1 0 3.8-.6 5-1.7 1.2-1.2 1.9-3 1.9-5.4s-.6-4.2-1.9-5.4c-1.2-1.2-2.9-1.8-5-1.8h-5.6c-2 0-3.6.6-4.7 1.7s-1.6 2.7-1.6 4.6.3 3.6 1 4.8H171c-2.8 0-4.2-1.6-4.2-4.7q0-3.15.9-5.4zm16.8 2.1h5.4c2.8 0 4.2 1.3 4.2 4.1 0 2.7-1.4 4.1-4.2 4.1h-8c-.7-1.2-1-2.7-1-4.3 0-2.7 1.2-3.9 3.6-3.9M496.5 531.7l-.9-40.4 13.6-10.8-.1-9-13.6 10.8-.8-36.6 14.6-11.3-.1-9.3-19.7 15 2.3 95.5zM524.2 501.7c-4.2 3.5-6.4.8-6.5-7.9l-.7-74.7-4.9 3.7.9 75c.1 6.5 1.1 10.9 3 13.3s4.6 2.1 8.2-.9 6.3-7.1 8.1-12.5 2.7-11.3 2.7-17.8v-74.7l-4.8 3.6.2 74.5c.1 8.9-2 14.9-6.2 18.4M537.2 413l8.6-6.6-.5 85.2 4.5-3.7.7-85.2 8.4-6.4.1-9.3-21.8 16.7zM582.3 390.9c.2-6.8-.5-11.5-2.2-14.2-1.6-2.6-4.1-2.7-7.5-.1l-11.1 8.5-1.3 94.3 10.9-9c3.2-2.7 5.7-6.4 7.4-11.4 1.7-4.9 2.7-10.6 2.8-17l.2-8.2c.2-9.2-1.3-13.8-4.5-13.7 3.1-5 4.8-12 5-21.1zm-5 46.1-.2 8.2c-.2 8.3-2.2 14-6.1 17.2l-6.2 5.1.5-33.4 6.4-5.1c3.9-3.1 5.7-.4 5.6 8m.5-42.4-.2 8.1q-.3 13.05-6.3 17.7l-6 4.7.5-34.5 6.1-4.7c4.2-3 6.1-.1 5.9 8.7M598.6 355.3c-3.4 2.6-6.1 6.8-8 12.4s-2.9 11.9-3.1 18.7l-1.4 52.3c-.2 6.4.5 10.8 2.1 13.3s4 2.4 7.3-.4c3.3-2.7 5.8-6.7 7.6-11.9s2.8-11 3.1-17.4l1.9-52.1c.3-6.8-.4-11.6-2-14.5-1.5-2.8-4-3-7.5-.4m5.3 18.5-1.8 51.7c-.3 8.6-2.4 14.5-6.3 17.6-3.9 3.2-5.7.5-5.5-8.2l1.5-51.8c.3-9.1 2.4-15.3 6.5-18.4 4.1-3 5.9.1 5.6 9.1M614.3 344.8l-3.7 93.2 15.7-12.9.4-8.2-11.7 9.5 3.6-84.9zM511.1 545.6l-4.4 3.7-7.2 44.6 8.8 29.1 4.3-3.7-8.8-29.3zM491.7 561.9l1.8 74.2 4-3.5-1.7-74.2zM516.8 599.6q.15 7.65 2.4 10.2c1.6 1.7 3.8 1.3 6.8-1.4 3-2.6 5.2-6.1 6.7-10.5s2.2-9.1 2.2-14.2v-58.1l-3.9 3.3.1 57.9c0 6.8-1.7 11.8-5.2 14.8-3.5 3.1-5.3 1.2-5.4-5.6l-.5-58-4 3.3zM556.3 580.7v-6.5l-10.6 9.3.4-67.2-3.8 3.2-.3 73.8zM566.5 484.4c-1.4 1.1-2.1 3.2-2.1 6 0 2.9.6 3.8 2 2.6q2.1-1.65 2.1-6c0-2.8-.7-3.7-2-2.6M573.6 478.5q-1.95 1.65-2.1 6c-.1 2.9.6 3.8 1.9 2.6q1.95-1.65 2.1-6c.1-2.8-.5-3.7-1.9-2.6M562 572.2c1.4 1.8 3.5 1.4 6.4-1.1 2.8-2.5 5-5.9 6.5-10.2s2.3-9 2.4-14l1.4-57.8-3.7 3.1-1.2 57.6c-.1 6.8-1.9 11.6-5.2 14.6-3.3 2.9-4.9 1-4.8-5.8l.9-57.7-3.8 3.2-.8 57.9c-.2 5 .5 8.4 1.9 10.2M583.6 556.6l8.8-7.8c2.6-2.3 4.6-5.5 6.1-9.5q2.1-6 2.4-13.5l.2-6.4c.3-7.2-.9-10.6-3.5-10.3q3.75-6.15 4.2-16.8l.2-6.3c.2-5.3-.3-8.9-1.6-10.8q-1.95-2.85-6 .6l-8.9 7.4zm5.4-69.4 4.9-4.1c3.3-2.7 4.8-.7 4.5 6.2l-.2 6.3c-.2 6.8-1.9 11.5-5.2 14.2l-4.8 4.2zm-1 33.7 5.1-4.4c3.2-2.8 4.7-.8 4.4 5.8l-.2 6.4c-.2 6.5-1.9 11.1-5.1 13.9l-5.1 4.4zM621.6 438.8c-1.3 1-2 3-2.1 5.9s.4 3.8 1.7 2.7c1.3-1 1.9-3 2.1-5.8.1-2.9-.5-3.9-1.7-2.8M614.9 444.4c-1.3 1.1-2 3-2.1 5.9s.5 3.7 1.8 2.7c1.3-1.1 2-3 2.1-5.9q0-4.35-1.8-2.7M606.9 521c-.2 5 .3 8.4 1.6 10.3 1.2 1.8 3.2 1.6 5.9-.8s4.7-5.6 6.2-9.9c1.5-4.2 2.4-8.8 2.6-13.8l2.8-57.3-3.5 2.9-2.7 57.1c-.3 6.8-2 11.5-5.2 14.2-3.1 2.8-4.6.8-4.3-6l2.4-57.2-3.6 3z" class="st2" data-source="https://football-logos.cc"></path><!-- source: https://football-logos.cc --></svg>