<svg xmlns="http://www.w3.org/2000/svg" xml:space="preserve" overflow="visible" viewBox="0 0 158.48 166.78"><metadata xmlns:fl="https://football-logos.cc/turkey/bandirmaspor">dl1_85301ce916d4737fa69286a40a78e948a560e187cca0f879ad19826f59bc641f</metadata><!-- Source: https://football-logos.cc --><path fill="#651927" d="M3.39.229S38.997 12.708 78.652 0c0 0 30.933 12.215 75.61.229 0 0 7.978 40.108 1.985 67.674s-19.477 62.324-77.307 98.878c0 0-37.444-20.875-60.527-56.331C-10.65 65.806 3.39.229 3.39.229" data-source="https://football-logos.cc"></path><path fill="#FFF" d="m83.064 146.321-4.436-3.223-4.435 3.223 1.694-5.215-4.436-3.223h5.483l1.693-5.214 1.695 5.214h5.481l-4.435 3.223zM5.23 40.003S3.732 18.764 7.927 6.179c0 0 31.768 10.314 71.516-.334 0 0 29.992 10.591 71.076.835 0 0 3.734 17.448 2.898 33.392zm-.003 4.827h21.177v43.843H12.418C4.319 73.779 5.227 44.83 5.227 44.83m42.055-.198h21.177v36.253c-6.894-2.695-21.177 7.588-21.177 7.588zm42.141.198h21.475v38.75s-7.59-3.986-12.482-3.986c-4.894 0-8.992 1.092-8.992 1.092zm41.955 36.963s6.894-3.206 16.681-1.007c0 0-2.496 10.893-6.694 16.58 0 0-8.582-1.488-10.085-2.694zm0 21.36h6.795s.099 2.015-4.298 7.305h-2.497zm-42.054 22.184s9.588-1.205 21.176-6.396v18.084s-8.496 9.489-21.275 17.574zm-42.241-9.389s10.595 3.191 21.574 7.984v30.766s-15.276-11.078-21.574-17.674z"></path><path fill="#651927" d="M138.223 23.979h1.747q1.298 0 1.49-.028.95-.122 1.293-.726.237-.416.238-1.037 0-1.442-1.203-1.668-.255-.058-1.723-.058h-1.843zm-2.376 7.982V18.123h4.981q1.552 0 2.278.217a2.91 2.91 0 0 1 1.815 1.482q.512.954.512 2.181 0 3.323-3.09 3.852a6 6 0 0 1 1.505 1.482q.367.53 1.111 1.926l1.433 2.7h-2.829l-1.711-3.012a93 93 0 0 0-.84-1.463q-.606-.935-1.119-1.152-.375-.151-1.191-.151h-.479v5.779h-2.376zM12.013 18.123h4.686q1.223 0 1.703.066.976.141 1.599.642 1.255 1.01 1.255 2.775 0 .98-.442 1.789a2.95 2.95 0 0 1-1.199 1.213q1.035.359 1.621 1.208.61.887.61 2.133 0 .954-.372 1.841-.373.887-1.017 1.42c-.644.533-.959.574-1.589.656q-.729.096-2.858.097h-3.996v-13.84zm2.376 2.3v3.208h1.545q1.377 0 1.712-.058 1.299-.178 1.298-1.57 0-1.354-1.187-1.522-.335-.058-2.015-.058zm0 5.508v3.692h2.195q1.25 0 1.626-.085 1.194-.273 1.193-1.723 0-1.281-.993-1.686-.489-.198-2.106-.198zm20.057 6.03h-2.577l-1.034-3.15H26.16l-.97 3.15h-2.515l4.569-13.839h2.504zm-4.36-5.488-1.619-5.126-1.569 5.126zm5.646 5.488V18.123h2.29l4.822 9.265v-9.265h2.196v13.839h-2.378l-4.734-9.022v9.022h-2.196zm11.794-13.838h4.329q1.471 0 2.232.265 2.08.718 2.888 3.511.384 1.331.384 3.276 0 3.54-1.616 5.39-.625.708-1.664 1.104-.777.292-2.096.292h-4.457zm2.376 2.338v9.162h1.768q.984 0 1.432-.132 1.176-.35 1.575-1.916.24-.924.24-2.528 0-2.783-.912-3.802a2.15 2.15 0 0 0-1.096-.651q-.504-.132-1.943-.132zm9.402 11.5V18.123h2.376v13.839h-2.376zm4.626 0V18.123h4.981q1.551 0 2.279.217a2.91 2.91 0 0 1 1.815 1.482q.511.954.511 2.181 0 3.323-3.089 3.852a6 6 0 0 1 1.504 1.482q.368.53 1.112 1.926l1.432 2.7h-2.83l-1.711-3.012q-.768-1.35-.839-1.463-.608-.935-1.119-1.152-.375-.151-1.191-.151h-.48v5.779H63.93zm2.376-7.982h1.747q1.3 0 1.491-.028.949-.122 1.292-.726.239-.416.239-1.037 0-1.442-1.205-1.668-.255-.058-1.722-.058h-1.842zm9.434 7.982V18.123h3.543l2.135 9.444 2.102-9.444h3.544v13.839h-2.196V21.07l-2.326 10.891h-2.28l-2.325-10.89v10.89zm24.291 0h-2.576l-1.035-3.15h-4.674l-.97 3.15h-2.515l4.568-13.839h2.504zm-4.361-5.488-1.618-5.126-1.57 5.126zm5.024.987 2.302-.264q.4 2.66 2.559 2.659.894 0 1.525-.416.776-.52.775-1.492 0-.982-1.094-1.436-.4-.17-1.895-.604-1.901-.558-2.668-1.369-1.078-1.142-1.078-2.786 0-1.133.535-2.03c.535-.897.838-1.048 1.44-1.35q.951-.482 2.304-.482 1.936 0 3.096.935 1.336 1.084 1.4 3.255l-2.369.123q-.16-1.1-.688-1.576-.496-.437-1.465-.437-1.033 0-1.617.501-.375.321-.375.86-.001.492.352.841.424.426 2.192.964 1.976.605 2.544.955 1.762 1.106 1.762 3.62 0 1.257-.58 2.273t-1.564 1.499q-1.025.51-2.553.51-4.367 0-4.84-4.753m11.503 4.501V18.123h3.799q2.151 0 2.814.208 1.151.359 1.783 1.52.584 1.067.584 2.53 0 2.37-1.382 3.503-.623.51-1.229.661-.815.199-2.451.199h-1.542v5.218h-2.376zm2.376-11.5v3.923h1.292q1.036 0 1.42-.084.812-.18 1.188-.811a2.13 2.13 0 0 0 .264-1.075q0-.726-.359-1.226a1.56 1.56 0 0 0-.965-.632q-.431-.094-1.699-.094h-1.141zm8.045 4.666q0-3.472 1.632-5.443 1.47-1.793 4.039-1.793 2.712 0 4.238 2.01 1.465 1.915 1.464 5.161 0 3.227-1.456 5.142-1.52 1.992-4.215 1.991-2.703 0-4.223-1.953-1.479-1.898-1.479-5.115m2.442-.094q0 2.025.752 3.295.864 1.469 2.504 1.469 1.656 0 2.505-1.478.728-1.272.728-3.324 0-2.071-.72-3.295-.832-1.412-2.513-1.412-1.68 0-2.527 1.431-.73 1.242-.729 3.314" data-source="https://football-logos.cc"></path><path fill="#B6E1DE" d="M114.48 44.532s-1.354 19.802 10.84 31.058c0 0 1.561 1.46.416 3.231s-9.275 8.441-11.256 8.545-10.109-4.585-16.363-4.585c-6.252 0-15.529 4.377-20.115 4.377s-8.962-4.064-13.547-4.064-28.244 14.798-38.25 23.032c0 0 27.307 7.401 43.148 15.529v-8.129h16.989v9.274s8.857-1.04 19.072-5.313c10.213-4.274 16.882-3.545 20.53-3.545 3.649 0 5.003.73 5.003 0 0-.729.416-1.041-2.814-1.666-3.229-.627-9.899-2.085-9.899-7.609 0-5.523 11.466-4.377 19.072-4.48 0 0 .626-1.252-.626-1.252s-9.795-2.502-13.652-4.689c-3.857-2.189-5.941-4.271-1.252-8.232 4.69-3.962 10.945-11.985 27.203-7.817 0 0 2.291-6.358 3.543-15.425 1.251-9.066.625-18.238.625-18.238H114.48zM14.115 91.64l6.045 12.715s8.651-5.836 11.673-8.649c3.021-2.814 4.69-5.003 4.69-5.837s-2.188-1.564-5.107-.418-5.941 2.293-10.11 2.293-7.191-.104-7.191-.104"></path><path fill="#651927" d="M67.789 111.356h-1.763v-1.523l-.009-6.351h-1.399v-1.509h3.158v7.859zm19.399-2.689h1.86q.442 1.075 1.601 1.075.755 0 1.272-.501a1.66 1.66 0 0 0 .517-1.24q0-1.008-.904-1.492a1.9 1.9 0 0 0-.897-.217q-.495 0-.908.239a1.54 1.54 0 0 0-.621.663l-1.496-.378.853-5.013h5.062v1.51h-3.684l-.361 1.963q.725-.494 1.671-.494.868 0 1.589.433c.721.433.857.682 1.129 1.181q.408.75.408 1.601 0 1.446-1.061 2.403-1.062.957-2.578.957-1.295 0-2.239-.73-.946-.73-1.213-1.96m-4.8-6.863h1.983l-2.213 3.107q.37-.208.84-.207 1.277 0 2.156.967.86.961.86 2.222 0 .934-.459 1.731t-1.272 1.265c-.813.468-1.14.468-1.79.468a3.5 3.5 0 0 1-1.32-.279 3.6 3.6 0 0 1-1.146-.72q-1.034-.999-1.034-2.548 0-1.089.839-2.305zm.119 7.859q1.015 0 1.548-.854a1.6 1.6 0 0 0 .241-.853q0-1.02-.872-1.533a1.75 1.75 0 0 0-.903-.237q-1.022 0-1.542.847a1.65 1.65 0 0 0-.241.872q0 1.022.879 1.521.408.238.89.237m-7.682 1.693h-2.201L75 108.242q-.469.227-.839.228a2.9 2.9 0 0 1-1.77-.584 3.14 3.14 0 0 1-1.106-1.48 3.5 3.5 0 0 1-.228-1.23q0-.91.501-1.719a3.66 3.66 0 0 1 1.302-1.25 3.45 3.45 0 0 1 1.751-.468 3.5 3.5 0 0 1 2.454.955q1.094 1.012 1.094 2.569 0 1.14-.788 2.313zm-.214-4.396q1.04 0 1.555-.896.234-.408.234-.89 0-.974-.911-1.485a1.8 1.8 0 0 0-.878-.23q-1.015 0-1.548.852a1.6 1.6 0 0 0-.247.864q0 1.025.898 1.544.415.241.897.241" data-source="https://football-logos.cc"></path><!-- source: https://football-logos.cc --></svg>