<svg xmlns="http://www.w3.org/2000/svg" xml:space="preserve" width="161.92" height="202.307"><metadata xmlns:fl="https://football-logos.cc/turkey/kocaelispor">dl1_3057968a24ce74920e8314149784d8e899503b41d1a36bc1a2c2652d4fc7a1d0</metadata><!-- Source: https://football-logos.cc --><path d="M288.977 1505.9c213.464-122.98 426.937-120.25 640.406 1.31 92.077-63.98 184.147-127.96 276.217-191.93C1162 543.004 933.203 188.301 604.664 9.91 254.063 242.871-3.52 642.711 8.938 1315.23c93.343 63.56 186.691 127.11 280.039 190.67" style="fill:#1f592b;fill-opacity:1;fill-rule:evenodd;stroke:none" transform="matrix(.13333 0 0 -.13333 0 202.307)" data-source="https://football-logos.cc"></path><path d="m1057.66 1199.03-140.066-49.87V277.961l140.066 264.016zM776.102 1100.04l-140.067-49.86V28.102l140.067 98.796zM492.719 1000.48l-140.067-49.867V227.898L492.719 96zM209.094 902.195 69.031 852.328V751.59l83.836-216.879 56.227-84.75z" style="fill:#1b1a18;fill-opacity:1;fill-rule:evenodd;stroke:none" transform="matrix(.13333 0 0 -.13333 0 202.307)"></path><text style="font-variant:normal;font-weight:700;font-size:61.87306213px;font-family:TimesNewRomanPS;-inkscape-font-specification:TimesNewRomanPS-BoldMT;writing-mode:lr-tb;fill:#fff;fill-opacity:1;fill-rule:nonzero;stroke:none" transform="matrix(1.33333 0 0 1.04216 60.91 157.107)"><tspan x="0" y="0">S</tspan></text><path d="M15.441 1315.02c135.231 94.9 210.75 48.08 291.641 57.67 62.981-23.63 127.313-69.09 153.234-65.9 29.664-15.27 57.543-33.37 77.442-64.27 33.508 9.21 67.004 13.29 100.508 4.94 51.418 18.42 81.945 12.03 102.156-6.58 56.187 15.51 99.937 21.07 126.879 13.18-1.106-7.14-2.199-14.28-3.301-21.42-14.93.4-28.609 2.65-47.781-3.3-24.289-11.57-59.36-10.48-82.387-21.42-24.762-14.9-57.117-12.08-85.68-18.13-2.976 9.85-8.992 17.43-19.769 21.42-11.535-6.03-23.07-12.08-34.606-18.12-49.175 9.84-36.57 13.67-69.203-24.71-31.039-6.55-61.531-16.37-90.621-34.6-25.808-30.78-52.98-49.39-80.738-62.62-26.231-14.2-56.598-22.21-90.621-24.71-18.672-10.44-37.348-20.87-56.024-31.31-25.371-48.738-58.98-62.421-92.273-77.437-21.418-35.918-42.836-50.461-64.258-60.965-12.633 88.426-25.262 176.852-37.898 265.282 1.101 57.66 2.195 115.33 3.3 173" style="fill:#499ddc;fill-opacity:1;fill-rule:evenodd;stroke:none" transform="matrix(.13333 0 0 -.13333 0 202.307)"></path><path d="M901.711 1340.28c14.141 0 25.602-11.46 25.602-25.6s-11.461-25.6-25.602-25.6c-14.137 0-25.598 11.46-25.598 25.6s11.461 25.6 25.598 25.6m-6.008 25.77h12.02v-22.65h-12.02zm57.383-45.36v-12.01h-22.652v12.01zm-45.363-57.38h-12.02v22.65h12.02zm-57.383 45.37v12.01h22.652v-12.01zm83.449 46.58 8.5-8.51-16.019-16.01-8.504 8.5zm-64.152-81.16-8.5 8.51 16.019 16.02 8.504-8.5zm72.652 8.51-8.5-8.51-16.023 16.03 8.504 8.5zm-81.152 64.14 8.5 8.51 16.023-16.02-8.504-8.5zM962.727 910.113l21.511 12.864 21.612-12.864-7.549 22.188 19.099 12.402h-23.888l-9.274 25.125-9.168-25.125h-23.886l19.097-12.402zM896.035 1006.7l21.508 12.87 21.613-12.87-7.554 22.19 19.101 12.41h-23.887l-9.273 25.13-9.168-25.13h-23.887l19.098-12.41zM826.613 908.355l21.512 12.86 21.613-12.86-7.554 22.184 19.101 12.406h-23.887l-9.273 25.129-9.172-25.129H815.07l19.098-12.406z" style="fill:#f7ee0b;fill-opacity:1;fill-rule:evenodd;stroke:none" transform="matrix(.13333 0 0 -.13333 0 202.307)" data-source="https://football-logos.cc"></path><text style="font-variant:normal;font-weight:400;font-size:11.99958134px;font-family:Dutch766BT;-inkscape-font-specification:Dutch766BT-RomanA;writing-mode:lr-tb;fill:#fff;fill-opacity:1;fill-rule:nonzero;stroke:none" transform="matrix(1.33333 0 0 1.22526 65.007 179.013)"><tspan x="0 5.8945227 11.788551 17.683073" y="0">1966</tspan></text><path d="m534.184 743.629 118.722-133.492c17.157-19.289 29.981-34 41.672-41.227 8.387-5.183 17.402-7.695 26.801-7.695v-8.348l-92.688 3.047c-60.48 9.637-109.714 98.481-153.121 146.332l-6.082-4.906v-89c0-17.106.977-27.738 2.86-31.91 1.957-4.172 5.636-7.774 11.113-10.715 5.473-3.027 14.211-4.5 26.227-4.5v-8.348H345.949v8.348h10.707c9.395 0 16.996 1.719 22.715 5.07 4.168 2.293 7.352 6.141 9.559 11.621 1.715 3.84 2.613 13.989 2.613 30.434v214.488c0 16.77-.898 27.242-2.613 31.418-1.801 4.172-5.309 7.852-10.625 10.961-5.313 3.191-12.496 4.742-21.649 4.742h-10.707v8.344h161.285v-8.344c-10.949 0-19.363-1.636-25.082-4.828-4.168-2.285-7.398-6.074-9.804-11.367-1.832-4.027-2.86-14.328-2.86-30.926v-91.691L580.5 818.664c17.059 13.441 25.082 24.945 25.082 33.203 0 6.223-3.437 11.094-10.297 14.649-3.476 1.804-2.344 2.941-16.234 3.433v8.344h126.394v-8.344c-11.355-.816-20.257-2.91-26.715-6.219-6.429-3.289-21.832-14.003-44.613-33.703z" style="fill:#fff;fill-opacity:1;fill-rule:nonzero;stroke:none" transform="matrix(.13333 0 0 -.13333 0 202.307)"></path><path d="M288.977 1505.9c213.464-122.98 426.937-120.25 640.406 1.31 92.077-63.98 184.147-127.96 276.217-191.93C1162 543.004 933.203 188.301 604.664 9.91 254.063 242.871-3.52 642.711 8.938 1315.23c93.343 63.56 186.691 127.11 280.039 190.67Z" style="fill:none;stroke:#1b1a18;stroke-width:17.00799942;stroke-linecap:butt;stroke-linejoin:miter;stroke-miterlimit:22.92560005;stroke-dasharray:none;stroke-opacity:1" transform="matrix(.13333 0 0 -.13333 0 202.307)" data-source="https://football-logos.cc"></path><!-- source: https://football-logos.cc --></svg>