<svg xmlns="http://www.w3.org/2000/svg" xml:space="preserve" version="1.2" viewBox="2 2 231.05 250"><metadata xmlns:fl="https://football-logos.cc/turkey/kayserispor">dl1_16554c224a3af09e9f0ce9360f15b39dbb3459dd2763281af489f2e281bc65d2</metadata><!-- Source: https://football-logos.cc --><path d="M1500.196 2948.538a65.2 65.2 0 0 1-30.23-7.421c-21.241-11.081-523.287-277.677-846.038-724.737-315.065-435.726-462.696-861.93-462.696-1341.438V116.597c0-35.984 29.17-65.15 65.15-65.15H2773.62c35.975 0 65.15 29.169 65.15 65.15v758.345c0 478.464-146.854 904.807-462.18 1342.096-322.752 446.926-824.793 713.519-846.035 724.728a65.1 65.1 0 0 1-30.359 6.772" style="fill:#fff" transform="matrix(.0863 0 0 .0863 -11.913 -2.44)" data-source="https://football-logos.cc"></path><path d="M226.381 116.597v758.345c0 382.562 93.294 809.555 450.316 1303.003C994.237 2617.574 1500.193 2883 1500.193 2883s506.086-264.646 824.018-704.796c356.502-493.832 449.793-920.83 449.793-1302.999V116.597Z" style="fill:#fff" transform="matrix(.0863 0 0 .0863 -11.913 -2.44)"></path><path d="M46.481 185.525c-30.808-42.615-38.86-79.45-38.86-112.463V7.622h219.81v65.44c0 33.012-8.05 69.859-38.815 112.44-27.401 37.937-71.061 60.841-71.061 60.841s-43.672-22.837-71.074-60.818"></path><path d="M2754.203 131.19v741.148c0 460.608-142.162 871.967-446.805 1293.618-290.041 402.104-745.703 660.757-809.683 695.804-63.977-35.182-519.633-293.7-810.205-695.804-304.776-420.609-446.544-832.355-446.544-1293.618V131.19Z" style="fill:#fff" transform="matrix(.0863 0 0 .0863 -11.913 -2.44)"></path><path d="M2684.23 877.814H1509.709v1900.69c134.338-79.097 498.648-312.725 742.703-649.944 294.48-407.454 432.205-804.215 433.643-1247.232v-2.475z" style="fill:#ad1122" transform="matrix(.0863 0 0 .0863 -11.913 -2.44)"></path><path d="M309.382 877.814v3.388c1.433 443.021 139.685 839.263 433.642 1246.313C986.685 2464.74 1351 2698.497 1485.73 2777.981V877.814Z" style="fill:#fbbd1b" transform="matrix(.0863 0 0 .0863 -11.913 -2.44)"></path><path d="M894.95 1839.17H689.991v-780.765H894.95v354.415l282.623-354.415h235.843L1104.737 1419.6l324.053 419.57h-251.217l-235.715-312.074-46.908 57.463z" style="fill:#ad1122" transform="matrix(.0863 0 0 .0863 -11.913 -2.44)"></path><path d="M2312.1 1593.287c0 76.749-32.836 138.902-98.373 186.983-65.543 48.088-154.67 71.923-267.379 71.923a759.2 759.2 0 0 1-169.389-16.938 850 850 0 0 1-135.646-43.254v-187.115h22.021a474.2 474.2 0 0 0 140.469 76.747 456.2 456.2 0 0 0 149.318 26.711c12.242 0 28.406-.949 48.473-2.872a190.7 190.7 0 0 0 48.992-10.167 120.8 120.8 0 0 0 38.176-23.313 55.28 55.28 0 0 0 15.113-41.834 55.85 55.85 0 0 0-22.018-44.164 157.05 157.05 0 0 0-64.109-28.669c-29.316-6.772-60.713-13.023-93.424-19.415a801 801 0 0 1-92.504-23.323c-66.066-21.37-113.496-50.035-142.426-86.52a211.45 211.45 0 0 1-43.523-135.511c0-72.359 32.801-131.646 98.377-177.858 65.15-45.606 149.715-68.929 252.523-68.929A772.8 772.8 0 0 1 2150 1060.883a728 728 0 0 1 130.303 37.397v179.682h-21.242a423.6 423.6 0 0 0-115.965-63.589 401.5 401.5 0 0 0-140.467-26.057 352 352 0 0 0-50.418 3.389 200 200 0 0 0-47.953 13.03 92.3 92.3 0 0 0-35.186 23.845 52.11 52.11 0 0 0-14.725 36.486 53.8 53.8 0 0 0 23.457 47.168c15.629 11.206 45.471 20.848 89.514 30.102 28.926 5.859 56.291 11.594 82.74 17.459a844 844 0 0 1 85.607 22.8c60.199 19.412 104.242 46.122 133.168 79.609a193.26 193.26 0 0 1 43.267 131.083" style="fill:#fbbd1b" transform="matrix(.0863 0 0 .0863 -11.913 -2.44)"></path><path d="M118.364 237.359c-.266.265-.578.479-.922.63a10 10 0 0 0-1.124-.63V73.309H14.784v-2.102h205.057v2.103H118.364Z"></path><path d="M1221.352 853.443h881.346a72.6 72.6 0 0 1-20.459-8.732 22.98 22.98 0 0 1-4.818-18.501c1.434-10.292-5.342-15.114-15.119-6.772a342 342 0 0 1-28.271 22.021c-9.256 5.866-22.402-4.43-33.225-17.068a171.1 171.1 0 0 1-22.014-44.434 69.2 69.2 0 0 0-22.936-29.71c-7.814-4.822-12.248-4.43-12.248 2.865a23.85 23.85 0 0 0 9.777 19.024 13.04 13.04 0 0 1 4.256 10.582 13 13 0 0 1-5.689 9.878c-7.295 4.43-39.086 2.478-53.164 4.821a78.2 78.2 0 0 1-49.254-8.728c-12.242-8.731-22.018-25.409-31.658-26.06-9.643-.65-20.979 5.863-31.271 4.822a67.9 67.9 0 0 1-44.432-20.067 269.7 269.7 0 0 1-31.271-36.615c-3.914-6.385-11.729-6.385-19.551-1.433-7.814 4.952-13.033 6.776-6.773 6.776 6.254 0 11.723 2.865 11.211 10.292-.529 7.427-9.262 13.03-22.021 12.249a207.2 207.2 0 0 1-63.461-16.159c-21.502-9.773-35.576-22.021-46.389-20.979-10.814 1.045-39.086 3.388-51.215 3.908-12.111.522-20.455-3.388-23.448-13.031-3.001-9.639-9.773-13.026-22.018-11.725-12.249 1.305-26.061 6.385-36.616-2.865-10.552-9.254-20.463-20.065-15.117-20.065 5.34 0 14.206-3.911 20.982 0 6.771 3.907 11.723 4.821 8.729-1.953-3-6.776-11.729-11.209-27.361-18.504a289.4 289.4 0 0 1-36.097-19.025c-8.343-5.343-20.979-9.254-26.06 1.433s-9.776 13.03-17.069 13.03c-7.295 0-10.687-1.956-10.687-9.77 0-7.818-7.295-8.735-11.725-5.344-4.43 3.389-7.292 8.338-1.429 8.731 5.859.389 3.911 4.431-1.953 10.685-5.862 6.256-13.029 8.731-15.119 19.023a46.89 46.89 0 0 1-22.403 37.135 247.6 247.6 0 0 1-39.093 27.755c-11.725 5.344-24.886 11.726-41.048 18.111a242 242 0 0 1-30.753 13.026c-5.336 0-10.292-3.387-4.429-8.728 5.865-5.344 3.391-12.248-1.429-18.113-4.825-5.86-8.735-12.245-2.476-18.107 6.254-5.866 13.03-7.821 15.64-10.688 2.609-2.865-2.87-4.82-10.293-1.432-7.43 3.391-17.592 13.029-27.365 17.59a137.7 137.7 0 0 1-29.316 16.418 59.4 59.4 0 0 0-29.714 21.501 61 61 0 0 1-22.021 17.592c-5.343 3.389-15.113 11.203-15.113 14.2s1.95 2.865 9.251 0a76.8 76.8 0 0 0 26.063-12.248c8.34-6.772 8.34-13.03 14.207-19.544a65.1 65.1 0 0 1 22.017-13.029c8.731-4.821 15.117-11.728 22.928-15.114 7.818-3.388 7.298 2.475 5.863 12.249-.096 7.635-5.536 14.158-13.023 15.636a78.2 78.2 0 0 0-25.801 14.854 208 208 0 0 0-24.37 20.066c-5.863 6.385-6.776 13.029 0 12.248a28.58 28.58 0 0 1 19.55 9.25c2.869 3.908 6.77 13.031 13.027 13.031 6.25 0 15.114 6.385 15.114-3.907 0-10.296 0-13.03-8.342-14.207-8.343-1.17-12.247-5.862-12.247-10.292s5.344-7.818 11.726-5.344c6.414 3.718 14.6 2.038 19.024-3.907 7.818-8.34 10.296-14.203 18.504-17.069a104.2 104.2 0 0 1 29.711-1.955 27.92 27.92 0 0 0 19.287-7.946 41.58 41.58 0 0 1 23.974-4.821 35.03 35.03 0 0 0 21.501-12.248 239 239 0 0 1 22.018-26.839c6.776-6.385 11.728-1.955 10.687 5.34a68.44 68.44 0 0 1-9.777 35.186 79 79 0 0 0-18.106 33.615 27.61 27.61 0 0 1-11.209 25.41c-11.2 8.731-20.457 6.772-20.063 11.206.388 4.431 7.815 5.863 3.907 9.773-3.907 3.911.911 8.731-4.43 13.027-5.34 4.298-2.471 4.82-1.43 4.82 1.02-.011 3.889 3.899 3.889 3.899M862.246 853.443h243.924s-1.433-3.911-8.732-4.43c-7.295-.519-16.158-3.388-16.158-6.385 0-2.993 0-5.859 3.388-7.295 3.391-1.436 3.391-3.387-7.292-2.865a127.5 127.5 0 0 1-32.705-1.437c-3.914-1.951-2.472-14.199 2.471-15.112 4.95-.911 7.815-4.822 10.293-6.385s0-4.822-6.77-.911a35.16 35.16 0 0 1-22.021 1.952 151 151 0 0 0-20.457-6.385 137.3 137.3 0 0 0-52.123 3 619 619 0 0 1-62.938 13.031 298 298 0 0 1-50.687 1.955c-25.407-.914-32.183-.914-29.705 2.471a23.97 23.97 0 0 0 16.156 7.822c6.773 0 20.065 1.952 27.361 1.952s13.03 3.911 13.03 7.299a22.28 22.28 0 0 1-7.035 11.723M418.186 853.443h422.561a13.02 13.02 0 0 0-10.296-6.382 77 77 0 0 1-27.361-4.821 43.42 43.42 0 0 0-29.451-1.955 74.6 74.6 0 0 1-22.018 7.818c-5.343 0-13.03-2.478-25.413-13.031a34.92 34.92 0 0 0-26.059-12.248c-4.818.913-17.065 8.731-22.41 9.254a193 193 0 0 0-27.364 4.82 160 160 0 0 1-42.475 5.344c-12.251 0-43.914.91-53.168-.914-9.248-1.82-44.949-6.385-57.588-6.773a146.6 146.6 0 0 0-49.257 6.389 168.7 168.7 0 0 0-29.701 12.499M309.382 775.787v78.175h34.269s11.203-6.775 13.031-13.025a27.35 27.35 0 0 1 9.25-17.072 30.75 30.75 0 0 1 22.021-9.251c8.341 0 15.636 0 13.027-3.389-2.606-3.388-6.382-8.34 2.474-10.687 8.863-2.343 20.066-7.295 11.207-8.728a13.03 13.03 0 0 1-8.828-5.167 13.02 13.02 0 0 1-2.379-9.95c0-8.337.914-12.248 18.114-21.499a173 173 0 0 1 35.179-15.636c4.824 0 7.296-4.43-5.862-4.43a83.5 83.5 0 0 0-44.431 14.203 295.6 295.6 0 0 0-43 28.797c-13.03 9.773-18.498 11.725-28.794 7.818-10.292-3.907-11.206-10.293-14.593-10.684a23 23 0 0 0-10.685.525" style="fill:#2d3359" transform="matrix(.0863 0 0 .0863 -11.913 -2.44)" data-source="https://football-logos.cc"></path><path d="M308.862 760.669s24.368-10.945 54.726-22.799c30.358-11.857 52.119-20.329 71.794-27.752 19.675-7.431 41.436-2.475 57.072-2.475a61.5 61.5 0 0 0 43.389-16.418c14.206-13.03 24.89-22.802 41.436-20.329a260.5 260.5 0 0 0 78.184 1.956 225.3 225.3 0 0 0 91.209-25.278c23.973-14.334 44.431-37.134 72.186-56.03 27.755-18.892 67.887-40.135 87.822-58.501 19.941-18.374 26.844-32.708 52.12-54.075 25.281-21.37 34.134-23.323 39.093-22.801 4.949.522 0 10.947-14.209 22.281-14.203 11.337-12.245 17.329 3.394 3.52a488.3 488.3 0 0 1 58.111-52.123c16.55-13.029 27.88-20.325 34.66-25.274a34.9 34.9 0 0 0 13.026-15.376 202 202 0 0 1 15.636-29.711c12.245-18.896 22.025-22.804 22.416-6.905.384 15.896-5.344 36.224-4.437 41.173a44.35 44.35 0 0 0 22.018 22.544c10.687 5.475 22.024 13.943 24.894-1.434 2.872-15.376 4.436-43.128 12.247-52.123 7.814-8.991 12.245-13.027 20.979-6.905 8.731 6.123 22.405 11.857 10.296-1.955-12.12-13.812-24.893-24.239-24.893-33.227s0-16.418 13.03-1.433c13.027 14.982 34.66 35.702 36.611 43.128 1.953 7.427-1.429 13.03-10.68 15.373a47.75 47.75 0 0 0-20.459 15.376c-3.395 4.43 3.388 1.433 10.292-1.956 6.902-3.388 17.072-8.859 17.072 4.43a30.4 30.4 0 0 1-7.821 23.326c-4.429 5.994 4.825 13.943 9.776 10.42a28.78 28.78 0 0 0 10.162-26.06c0-13.944 4.823-15.896 14.6-13.024 9.771 2.866 19.021 4.431 13.027-4.433a102.5 102.5 0 0 1-21.893-29.711 71.42 71.42 0 0 0-28.278-39.086c-18.104-13.94-31.271-23.322-31.271-27.233s0-10.424 20.463-13.94a504 504 0 0 1 55.632-6.389c14.207 0 24.89 5.997 36.096 3.911 11.209-2.083 12.245-8.468 26.842-3.911 14.597 4.562 17.065 13.944 5.863 20.849s-13.023 14.331-13.023 16.809 5.863 8.469 22.406 18.37c30.752 18.373 42.481 25.281 42.481 36.743 0 11.466-6.382 15.377-18.111 13.03-11.725-2.346-22.021-10.95-22.928-3.907-.917 7.036 2.471 16.418 15.114 23.322a299 299 0 0 0 47.301 15.376c20.063 6.385 34.659 10.425 42.478 18.374a35.25 35.25 0 0 1 7.424 13.939 13.02 13.02 0 0 0 12.245 9.382 36.1 36.1 0 0 0 17.588-4.952 164.2 164.2 0 0 1 51.212-18.896c22.932-4.949 37.131-3.907 42.475 0a136.5 136.5 0 0 0 23.977 18.896c9.775 4.43 24.367 8.469 23.973-2.475 0-8.863-2.471-17.332 7.826-13.03a342.2 342.2 0 0 0 72.178 31.272 195.5 195.5 0 0 0 106.461 5.472c19.547-3.907 26.061 0 27.881 1.436 1.824 1.429 4.824 3.513 9.77-1.042 8.734-8.472 12.25-10.946 22.416 0 10.164 10.943 10.291 22.28 6.773 27.233-3.52 4.948-11.721 1.952-18.107 1.952a27.46 27.46 0 0 0-18.107 16.418c0 4.43 10.295 10.423 22.92 18.373 12.646 7.95 23.98 13.94 34.143 2.475a54 54 0 0 1 28.791-16.81c5.346 0 8.736 2.478 8.736 10.947 0 8.472-8.344 10.423-2.477 15.376 5.865 4.949 12.246 11.856 12.246-1.955s-1.951-26.057.914-29.708c2.869-3.651 8.732-2.475 10.688 6.904a48.8 48.8 0 0 0 12.244 22.804 16.02 16.02 0 0 1 6.379 17.85 20.87 20.87 0 0 0 7.295 21.37c6.387 5.995 10.688 4.953 13.031-5.474a66.46 66.46 0 0 1 12.244-31.791 32.6 32.6 0 0 1 20.979-5.475c4.822 0 4.434-4.952-2.871-17.851a27.91 27.91 0 0 1-4.43-25.281c1.951-4.431 11.205-5.991 16.553-13.031 5.336-7.036 1.43-14.853-8.348-20.847-9.77-5.991-21.492-5.472-27.357-8.857-6.928-3.696-9.748-12.183-6.383-19.284a28.76 28.76 0 0 1 20.98-13.029c6.771 0 15.113 1.041 13.029 6.904-2.086 5.859-4.436 8.859-9.775 9.381-5.338.52-1.434 2.998 6.377 3.517a78.3 78.3 0 0 1 25.412 8.859c7.293 3.52 18.502 11.469 18.502 5.475s6.773-15.376 14.203-15.376c7.424 0 9.777-6.385 13.027-13.03 3.254-6.645 4.434-6.385 8.729-6.385 4.311 0 10.303 4.948 6.779 10.424a11.98 11.98 0 0 0 2.475 13.943c3.959 4.984 3.32 12.19-1.436 16.418-8.676 3.914-12.572 14.094-8.732 22.803a65.12 65.12 0 0 1-1.949 45.084 26.07 26.07 0 0 1-22.672 17.85c-5.861 0-13.025 1.953-17.588 14.854-4.564 12.898-3.391 17.329 3.91 17.329 7.297 0 5.863 7.949 5.344 16.417-.523 8.469-2.871 13.031-11.729 13.031-8.951-1.613-17.588 4.141-19.543 13.03a48.13 48.13 0 0 0-3.914 26.057 27.24 27.24 0 0 0 18.502 6.91c7.814 0 12.24 7.946 17.588 17.329 5.34 9.382 4.82 23.845 8.734 23.845 3.904 0 7.814-3 6.773-14.335-1.041-11.334 0-19.803 6.77-22.28a13.027 13.027 0 0 1 17.592 10.424 215 215 0 0 1 3.906 44.562c0 18.893 3.914 24.755 16.162 27.233 12.244 2.478 28.271 1.956 36.611 15.376 8.344 13.421 8.732 23.845 2.475 30.23a26.04 26.04 0 0 0-10.293 19.806 135 135 0 0 0 7.816 20.325c1.432 4.953 2.869 11.857 9.254-1.045a55.25 55.25 0 0 1 18.498-24.755c6.775-3.52 14.203-3.911 17.068 2.474a29.94 29.94 0 0 1-3.908 27.234 195.7 195.7 0 0 1-20.979 23.321h483.281v-66.45s-10.688-14.851-56.686-38.18c-31.271-15.896-54.725-22.278-92.775-38.177a193.65 193.65 0 0 1-73.75-47.561c-20.977-20.845-50.82-45.604-91.211-81.306a1516 1516 0 0 0-145.408-104.242 475.3 475.3 0 0 1-91.213-74.4c-27.357-29.189-41.436-39.09-52.123-40.132-10.684-1.042-29.836 13.027-39.09 20.848a6.25 6.25 0 0 1-4.619 2.045 6.25 6.25 0 0 1-4.625-2.045c-7.816-7.946-26.061-23.326-41.959-22.803-24.887 1.045-85.475 57.072-112.316 76.356a174.3 174.3 0 0 1-94.73 26.711 246.2 246.2 0 0 1-110.758-24.236c-28.791-14.334-71.793-39.09-103.064-59.938a593.4 593.4 0 0 1-101.892-94.47 171 171 0 0 0-31.013-29.971 18.76 18.76 0 0 0-16.158-1.041 232 232 0 0 0-27.884 14.331 8.73 8.73 0 0 1-10.293-1.042c-4.821-3.907-13.03-10.946-22.931-19.284a208.3 208.3 0 0 0-32.705-22.803 23.83 23.83 0 0 0-19.547 0c-11.725 3.911-31.794 11.857-62.543 24.759-52.126 21.37-60.069 24.235-83.917 45.081-23.842 20.851-66.452 55.511-123.523 106.063-57.076 50.559-83.917 74.404-120.53 107.631a943.7 943.7 0 0 1-137.732 96.162c-42.474 24.759-88.34 34.66-146.977 42.084-73.23 9.904-102.025 17.332-145.936 34.659-43.911 17.328-81.564 29.448-122.481 46.385-40.914 16.941-55.639 24.236-55.639 24.236v6.907z" style="fill:#2d3359" transform="matrix(.0863 0 0 .0863 -11.913 -2.44)"></path><path d="M2629.113 751.941c-31.271-15.636-54.725-22.025-92.768-37.528a193.8 193.8 0 0 1-73.752-46.908c-20.979-20.454-50.818-44.953-91.213-80.004a1516 1516 0 0 0-145.41-102.412 474 474 0 0 1-91.205-73.23c-27.369-28.797-41.439-39.09-52.127-39.09s-29.842 13.027-39.086 20.454a6.37 6.37 0 0 1-9.246 0c-7.82-7.818-26.061-22.932-41.961-22.412-24.893.913-85.479 56.161-112.316 75.182a176.46 176.46 0 0 1-94.732 26.061 249.46 249.46 0 0 1-110.754-23.977c-28.793-14.203-71.797-39.086-103.068-59.027a590 590 0 0 1-103.066-91.21 170.3 170.3 0 0 0-30.23-31.012 19.02 19.02 0 0 0-16.158-.91 233 233 0 0 0-27.884 14.199 8.86 8.86 0 0 1-10.293-.91c-4.821-3.91-13.026-10.687-22.928-19.027a208.4 208.4 0 0 0-32.705-22.412 24.15 24.15 0 0 0-19.55 0c-11.722 3.911-31.794 11.729-62.543 24.368-52.124 20.979-60.069 23.977-83.914 44.433-23.846 20.457-66.455 54.594-123.523 104.24-57.076 49.645-83.917 73.23-120.533 105.935a943.4 943.4 0 0 1-137.732 94.729c-42.474 24.368-88.34 34.138-146.977 41.437-73.23 9.772-102.025 17.072-145.936 34.14s-81.564 28.923-122.481 45.862c-40.914 16.94-55.639 23.977-55.639 23.977V204.421h2376.283V790.77c-.395-1.303-11.209-15.898-56.553-38.829" style="fill:#89c2eb" transform="matrix(.0863 0 0 .0863 -11.913 -2.44)"></path><path d="M1113.464 845.625a44.2 44.2 0 0 0 22.019-2.475c5.343-3.388 1.429-1.952-5.863-1.433a174 174 0 0 1-20.065 1.433c-5.341-.522-4.818 2.475 3.909 2.475" style="fill:#2d3359" transform="matrix(.0863 0 0 .0863 -11.913 -2.44)"></path><path d="M1438.171 808.491c6.504-3.468 9.282-11.334 6.386-18.114a39.13 39.13 0 0 0-18.502-14.199c-7.814-2.475-4.821-13.031-13.026-16.55-8.213-3.52-13.027-3.911-20.46-7.299-7.424-3.387-18.107-6.385-16.543-1.956 1.562 4.434 8.728 9.255 15.639 13.031a47 47 0 0 1 18.104 18.501c6.381 10.292 8.731 17.069 15.117 19.023 6.381 1.96 9.634 9.124 13.285 7.563" style="fill:#fff" transform="matrix(.0863 0 0 .0863 -11.913 -2.44)"></path><path d="M1665.414 717.282a38.22 38.22 0 0 1-26.066-3.389 67.6 67.6 0 0 1-23.447-17.069c-11.729-11.726-22.02-20.066-29.316-28.275s-13.027-15.635-4.826-15.635a90 90 0 0 1 32.711 16.549c9.246 6.389 19.023 17.072 33.223 26.057 14.205 8.991 29.842 20.456 17.721 21.762" style="fill:#2d3359" transform="matrix(.0863 0 0 .0863 -11.913 -2.44)"></path><path d="M1433.61 692.392c-9.254 0-15.116 0-5.34 4.821a94.5 94.5 0 0 0 31.272 14.59c5.942-.25 11.312 3.555 13.029 9.251 2.472 5.344 15.633 9.254 26.835 8.731 11.21-.522 29.318-1.433 31.283 1.956 1.945 3.388 2.467 7.814 17.584 7.295 15.113-.522 27.752-3.911 26.836-7.295a20.44 20.44 0 0 0-19.021-8.731 153.4 153.4 0 0 1-29.316-6.385 105.7 105.7 0 0 1-34.659-4.427 88.5 88.5 0 0 0-22.021-11.729c-7.818-1.433-17.592-4.427-22.412-5.343a80 80 0 0 0-14.07-2.734M1313.998 712.851a36 36 0 0 1-17.069 11.209c-5.346 0-13.026 8.729-5.86 8.729 7.162 0 2.472 6.776-4.433 12.248a17.325 17.325 0 0 0-6.385 20.456c3.388 5.343 10.296 12.248 15.639 8.341 5.34-3.907 11.206-11.728 11.206-4.43 0 7.299 4.821 7.295 11.722 4.821 6.905-2.474 10.292-12.248 19.03-14.207 8.729-1.952 13.027-10.684 9.251-11.726-3.78-1.041-2.869-8.731 1.953-13.026a63.9 63.9 0 0 0 16.549-19.027 40.1 40.1 0 0 1 15.113-16.159c6.385-4.427 8.344-8.337 3.907-14.591-4.426-6.254-.907-5.866 3.389-6.385 4.308-.52 8.738-8.337 4.827-12.245a20.2 20.2 0 0 0-15.12-7.821c-6.379 0-7.288-4.817-11.722-8.337s-8.34 1.953-7.293 8.337c1.042 6.385-.91 15.117-6.772 15.117-5.866 0-8.735-6.773-13.026-9.773-4.309-2.997-10.688 1.956-7.299 8.34 3.392 6.382 11.728 8.338 11.728 16.158 0 7.815 1.433 8.732 8.729 2.472a74.5 74.5 0 0 1 14.597-10.292c3.391-1.434 6.382 3.388-3.388 10.687a104.1 104.1 0 0 0-23.458 22.409c-5.336 8.34-9.25 17.072-15.112 20.069-5.863 2.997-7.815 0-5.34-4.43 2.471-4.43 8.734-9.254 8.734-15.636-.026-6.391-9.668-5.61-14.097-1.308M1482.341 758.326c-8.34 0-11.202 5.34-17.068 5.86-5.863.522-9.773 4.821-3.385 4.821a134 134 0 0 1 27.354 8.34c10.688 3.907 17.591 11.729 32.183 12.248a150.3 150.3 0 0 1 43 1.953 92.5 92.5 0 0 0 37.527 8.34h39.092a42.1 42.1 0 0 1 20.455 2.865c8.738 3.389 18.502 7.296 8.738 7.296-9.779 0-15.127 2.865-11.727 7.818a35.17 35.17 0 0 0 26.059 9.773c10.293 0 27.357 4.821 38.045 3.907 10.688-.911 20.068-1.433 13.023-4.821a65.14 65.14 0 0 0-29.316-8.731c-14.203 0-28.795-5.34-18.502-5.34s10.688-5.867 2.873-6.777c-7.824-.91-15.119-4.43-4.824-4.43 10.293 0 13.025-3.91 7.293-8.34a31.51 31.51 0 0 0-22.406-5.341 296 296 0 0 1-29.715 3.911c-6.389-1.433-10.295-7.818-19.023-9.251a138.5 138.5 0 0 0-29.32 1.953c-6.775 0-18.105-1.953-13.025-4.427 5.082-2.478-.912-9.251-11.205-9.774-10.295-.522-20.979-.913-36.092-1.955-15.123-1.042-17.068-3.907-12.248-5.865 4.818-1.953.914-7.296-9.773-7.296a250 250 0 0 0-28.013 3.263M1987.385 460.067c-9.771 1.956-15.633 1.434-15.633 6.772 0 5.344-5.867 7.296-12.246 5.344-6.385-1.955-11.205 0-11.205 4.821s-5.859 12.248-1.434 17.587c4.434 5.344 8.732 9.251 13.027 3.908 4.303-5.34 11.729 1.955 13.029 8.34 1.305 6.388 8.338 8.731 12.246 17.591 3.912 8.863 11.727 12.248 12.246 1.437.523-10.818-7.291-11.209-1.955-15.636 5.344-4.434 9.258-4.434 14.594-8.345 5.344-3.91 5.344-9.25 0-15.636-5.336-6.381-3.385-11.206-8.73-17.588a15.38 15.38 0 0 0-13.939-8.595M2169.023 593.363c-7.289 0-14.59 1.956-9.775 7.296a54.5 54.5 0 0 0 21.635 14.598 15.1 15.1 0 0 1 11.723 15.113 36.02 36.02 0 0 0 10.301 23.974 44.67 44.67 0 0 0 29.711 7.295c7.291-1.956 8.34-11.207-1.953-17.591s-12.248-11.729-17.596-13.027c-5.336-1.305-4.426-1.955 2.479-5.865 6.902-3.911 15.117-6.773 1.951-14.203a129.2 129.2 0 0 0-33.229-13.03 49.2 49.2 0 0 0-15.247-4.56M2248.512 566c-13.027 0-18.502 3.391-18.502 8.343 0 4.949 5.344 4.821 14.203 8.729 8.867 3.907 26.848 4.821 32.711 10.687 5.857 5.859 2.865 10.683 13.023 14.59 10.166 3.911 13.027 9.777 5.348 8.341-7.689-1.43-17.076-6.772-22.021-6.772a6.49 6.49 0 0 0-5.76 4.686 6.51 6.51 0 0 0 2.361 7.04 38.06 38.06 0 0 0 24.896 10.292 48.1 48.1 0 0 1 28.791 11.207 92.4 92.4 0 0 0 29.316 19.546 83.6 83.6 0 0 1 29.711 8.341 92.56 92.56 0 0 1 32.834 24.759 124.1 124.1 0 0 0 39.086 29.708c18.111 9.251 22.934 11.725 6.777 10.295a194 194 0 0 1-56.557-12.248c-18.107-8.34-35.176-20.457-50.293-26.063-15.113-5.604-31.271-5.344-34.656 0-3.395 5.343-2.873 7.818 5.336 16.55a43.26 43.26 0 0 0 28.791 16.546 117.4 117.4 0 0 1 41.439 6.385 198.2 198.2 0 0 0 45.344 11.209 73 73 0 0 1 33.227 7.815c12.246 6.779 15.637 11.728 22.412 11.728 6.773 0 15.111-5.343 5.861-14.594-9.256-9.251-12.25-13.029-4.426-9.77 7.816 3.26 22.404 9.77 36.09 15.114 13.684 5.343 34.66 15.113 50.688 19.546 16.023 4.43 25.408 9.251 32.182 5.343 6.777-3.907 6.383-8.341-7.816-12.248a62.43 62.43 0 0 1-31.014-16.027 71.94 71.94 0 0 0-39.084-22.415 304 304 0 0 1-60.975-16.678 62.83 62.83 0 0 1-24.375-27.752 34.64 34.64 0 0 0-25.018-21.239c-15.639-5.34-19.029-7.295-19.029-16.154s-2.473-11.732-18.5-13.03c-16.027-1.305-19.027-8.341-20.459-13.03a32.96 32.96 0 0 0-22.018-16.546 112.6 112.6 0 0 0-29.709-1.956c-7.816 0-12.25-2.865-22.412-13.027A63.64 63.64 0 0 0 2248.512 566" style="fill:#fff" transform="matrix(.0863 0 0 .0863 -11.913 -2.44)"></path><path d="m1161.806 2185.628 28.787-14.2a1.79 1.79 0 0 1 1.437 0h32.705c.657 0 1.286.254 1.75.734.468.459.732 1.09.732 1.747v204.953c0 .653-.264 1.291-.732 1.743a2.44 2.44 0 0 1-1.75.734h-39.087a2.44 2.44 0 0 1-1.753-.734 2.44 2.44 0 0 1-.725-1.743v-161.825h-20.07c-3.914 0-4.433-1.433-4.433-5.869v-20.193a4.994 4.994 0 0 1 3.139-5.347M1333.537 2263.295a30 30 0 0 1-7.814-22.416 31.8 31.8 0 0 1 8.343-23.45 32.23 32.23 0 0 1 22.932-8.344 33.89 33.89 0 0 1 23.973 8.344 33.1 33.1 0 0 1 8.337 23.974 26.05 26.05 0 0 1-9.25 21.501 36 36 0 0 1-24.368 8.348 27.77 27.77 0 0 1-21.758-8.081zm-30.745-78.184a69.46 69.46 0 0 0-20.46 52.12 77.27 77.27 0 0 0 17.072 52.12 57.48 57.48 0 0 0 45.343 20.068 56.1 56.1 0 0 0 32.183-7.814 37.4 37.4 0 0 0 14.597-16.553 80.95 80.95 0 0 1-13.03 47.303 39.11 39.11 0 0 1-31.535 12.379 56.8 56.8 0 0 1-29.317-7.296 62.94 62.94 0 0 1-22.017-22.021s-.911-.907-1.433-.907h-1.956a2.95 2.95 0 0 0-1.949 0s-.914.907-.914 1.429l-2.865 37.522v1.437a78.35 78.35 0 0 0 28.791 20.46 94.6 94.6 0 0 0 35.577 6.773 70.51 70.51 0 0 0 62.416-29.715c13.026-19.547 19.543-50.687 19.543-93.161 0-32.187-6.386-56.162-19.025-71.272a73.33 73.33 0 0 0-59.024-22.935 78.2 78.2 0 0 0-51.997 20.063" style="fill:#ad1122" transform="matrix(.0863 0 0 .0863 -11.913 -2.44)"></path><path d="M1623.459 2335.874a28.86 28.86 0 0 1-9.256-22.408 27.77 27.77 0 0 1 9.256-22.936 36.93 36.93 0 0 1 25.412-8.341c8.623-1.284 17.357 1.571 23.521 7.754 6.18 6.165 9.037 14.894 7.752 23.522a28.82 28.82 0 0 1-9.252 22.408 31.7 31.7 0 0 1-22.412 8.735 40.32 40.32 0 0 1-25.021-8.734m-37.133-138.124c-11.727 18.118-17.586 45.877-17.586 82.481a128 128 0 0 0 20.063 78.184c13.943 17.966 35.795 27.999 58.504 26.839a72.69 72.69 0 0 0 54.072-21.384 72.76 72.76 0 0 0 21.117-54.19 65.2 65.2 0 0 0-17.074-46.385 60.96 60.96 0 0 0-45.863-17.592 59.5 59.5 0 0 0-32.188 8.344 69 69 0 0 0-17.588 18.104 93.6 93.6 0 0 1 8.34-39.084c7.264-14.63 22.857-23.206 39.09-21.502a65.1 65.1 0 0 1 27.752 5.35 51.07 51.07 0 0 1 19.549 17.585 2.46 2.46 0 0 0 1.949.911h1.953a3.28 3.28 0 0 0 2.477-1.949l2.869-39.09a1.84 1.84 0 0 0 0-1.436 69.4 69.4 0 0 0-27.361-19.021 94.3 94.3 0 0 0-34.137-5.865c-25.705-2.558-50.826 8.75-65.938 29.7M1829.852 2335.874a28.82 28.82 0 0 1-9.25-22.408 27.76 27.76 0 0 1 9.25-22.936 36.93 36.93 0 0 1 25.412-8.341c8.619-1.284 17.354 1.571 23.516 7.754a27.48 27.48 0 0 1 7.756 23.522 28.84 28.84 0 0 1-9.246 22.408 31.67 31.67 0 0 1-22.16 8.863 38.2 38.2 0 0 1-25.278-8.862m-37.526-138.124c-11.729 18.118-17.584 45.877-17.584 82.481a128 128 0 0 0 20.061 78.184c13.947 17.966 35.795 27.999 58.506 26.839a72.69 72.69 0 0 0 54.072-21.384 72.72 72.72 0 0 0 21.109-54.19 65.18 65.18 0 0 0-17.068-46.385c-12.135-12.04-28.781-18.412-45.865-17.592a59.53 59.53 0 0 0-32.186 8.344 69 69 0 0 0-17.588 18.104 93.5 93.5 0 0 1 8.344-39.084c7.26-14.63 22.854-23.206 39.084-21.502a65 65 0 0 1 27.752 5.35 51.04 51.04 0 0 1 19.553 17.585 2.44 2.44 0 0 0 1.949.911h1.951a3.27 3.27 0 0 0 2.475-1.949l2.869-39.09a1.8 1.8 0 0 0 0-1.436 69.4 69.4 0 0 0-27.361-19.021 94.3 94.3 0 0 0-34.139-5.865 72.44 72.44 0 0 0-65.934 29.7" style="fill:#fbbd1b" transform="matrix(.0863 0 0 .0863 -11.913 -2.44)" data-source="https://football-logos.cc"></path><!-- source: https://football-logos.cc --></svg>