<svg xmlns="http://www.w3.org/2000/svg" viewBox="499.71 267.75 1318.64 1318.89"><metadata xmlns:fl="https://football-logos.cc/turkey/antalyaspor">dl1_17570144ef278459c8c8fdad263a701fb064588414beb04e8f016a3956b436c5</metadata><!-- Source: https://football-logos.cc --><path fill="#FEFEFE" d="m1135.535 267.797 5.161-.021c5.456-.02 10.911-.025 16.367-.026l2.81-.001c35.678-.01 70.867.164 105.92 7.607 4.569.918 9.163 1.636 13.763 2.37 23.894 3.854 47.414 9.847 70.444 17.274l3.824 1.217c29.334 9.357 57.679 20.386 85.533 33.54a804 804 0 0 0 7.569 3.505c24.652 11.362 48.118 25.276 71.172 39.561q2.415 1.492 4.84 2.966c7.447 4.609 14.483 9.776 21.554 14.934 3.378 2.463 6.78 4.89 10.199 7.296 6.683 4.711 13.038 9.734 19.309 14.981q2.654 2.158 5.313 4.313c10.63 8.71 20.954 17.711 30.988 27.101 1.779 1.66 3.566 3.311 5.355 4.961 21.472 19.843 21.472 19.843 30.383 30.383 2.263 2.587 4.614 5.08 6.973 7.58 6.296 6.673 12.284 13.47 17.988 20.662q1.394 1.71 2.793 3.414c6.98 8.551 13.43 17.385 19.716 26.455 1.452 2.076 2.93 4.13 4.42 6.178 7.705 10.63 14.59 21.675 21.293 32.96q1.755 2.952 3.52 5.896c9.451 15.746 18.104 31.85 26.336 48.258q.914 1.825 1.833 3.646C1770.145 672.976 1785.058 712.98 1797 754l.884 2.957c7.805 26.232 12.664 53.466 16.491 80.543l.434 3.038c2.692 20.48 3.507 41.05 3.492 61.685l.013 6.982q.01 7.257.002 14.514-.007 7.324.02 14.65c.125 33.846-.281 67.069-6.524 100.443l-.908 5.016c-4.536 24.76-9.934 49.337-17.106 73.474-.756 2.557-1.49 5.12-2.216 7.686-8.997 31.396-21.547 61.46-35.962 90.721a2048 2048 0 0 0-4.242 8.68c-6.163 12.65-12.492 25.008-20.219 36.788-1.621 2.55-3.103 5.173-4.596 7.8-6.233 10.94-13.438 21.169-20.724 31.43a930 930 0 0 0-4.737 6.75c-4.595 6.571-9.475 12.805-14.672 18.917-2.397 2.887-4.643 5.843-6.868 8.863-3.599 4.865-7.396 9.482-11.337 14.067-3.347 3.908-6.524 7.92-9.662 11.996-7.21 9.307-15.246 17.81-23.646 26.048-1.8 1.833-3.462 3.722-5.12 5.682-3.816 4.39-7.962 8.332-12.235 12.27a3251 3251 0 0 0-4.308 4l-2.138 1.988c-2.129 2.024-4.19 4.102-6.245 6.2-3.272 3.297-6.625 6.067-10.371 8.812-3.686 2.749-7.163 5.51-10.312 8.875-7.886 8.254-17.956 14.641-27.317 21.098-4.086 2.885-8.1 5.866-12.121 8.84-29.163 21.528-59.547 40.027-91.962 56.29q-2.612 1.312-5.223 2.628c-27.374 13.731-55.542 24.365-84.665 33.662q-2.717.87-5.432 1.748c-15.661 5.044-31.45 9.266-47.443 13.125a730 730 0 0 0-7.853 1.953l-2.123.54-5.166 1.32c-39.693 9.423-79.29 10.838-119.943 10.523-4.733-.035-9.466-.047-14.2-.046-38.943.01-77.289-.785-115.74-7.556l-3.437-.604c-31.955-5.75-63.014-14.313-93.876-24.333l-3.448-1.11c-23.022-7.444-45.132-16.637-66.82-27.351a1550 1550 0 0 0-7.155-3.506 988 988 0 0 1-24.518-12.42l-2.345-1.227c-5.659-2.988-11.09-6.24-16.503-9.656-2.714-1.68-5.46-3.225-8.273-4.73-10.923-5.882-21.274-12.354-31.293-19.665-3.046-2.215-6.172-4.285-9.332-6.335-6.379-4.21-12.296-8.921-18.26-13.687a417 417 0 0 0-6.687-5.15c-6.655-5.053-13.059-10.357-19.394-15.805a724 724 0 0 0-5.026-4.257c-14.534-12.26-28.135-25.495-41.555-38.955q-3.252-3.258-6.514-6.508l-4.224-4.228-1.926-1.92a224 224 0 0 1-10.898-11.802c-2.031-2.346-4.15-4.607-6.266-6.876-4.209-4.615-8.112-9.392-11.93-14.333a348 348 0 0 0-7.554-9.464l-1.679-2.028a509 509 0 0 0-3.145-3.754c-4.494-5.432-8.334-11.275-12.205-17.154-2.793-4.242-5.648-8.44-8.507-12.638-10.78-15.894-21.089-31.688-29.834-48.814-1.872-3.607-3.856-7.146-5.838-10.693-29.587-53.125-49.532-110.313-63.214-169.405a171 171 0 0 0-2.4-9.2c-.867-3.117-1.44-6.084-1.874-9.287l-.465-3.354-.48-3.563c-1.145-8.325-2.336-16.632-3.702-24.923-4.629-28.622-4.742-57.03-4.684-85.95.012-5.674.005-11.349-.007-17.023-.08-46.258-.08-46.258 2.268-66.292l.338-2.948c.82-6.992 1.774-13.96 2.787-20.927l.456-3.171c12.38-85.395 43.712-174.44 98.63-255.93a209 209 0 0 0 6.414-9.774c3.564-5.694 7.56-11.045 11.563-16.434a302 302 0 0 0 5.25-7.289c8.69-12.472 18.347-24.14 28.62-35.34 1.92-2.162 3.69-4.387 5.442-6.687 3.896-5.088 8.143-9.806 12.5-14.5l1.74-1.877c7.145-7.688 14.355-15.31 21.76-22.748l1.632-1.646c3.485-3.471 7.118-6.724 10.837-9.943 3.324-2.923 6.511-5.987 9.718-9.036 10.143-9.564 20.738-18.401 31.743-26.95a310 310 0 0 0 7.015-5.632c10.686-8.802 22.03-16.512 33.555-24.168l2.6-1.74c19.71-13.17 40.298-24.49 61.4-35.26l2.293-1.172a820 820 0 0 1 11.843-5.914 612 612 0 0 0 3.674-1.816C889.128 322.48 905.085 316.245 921 310l1.903-.747c33.192-12.995 67.25-22.71 102.152-29.851 2.97-.614 5.936-1.256 8.902-1.894 17.657-3.744 35.397-5.938 53.355-7.633l2.417-.23c15.245-1.346 30.509-1.81 45.806-1.848" data-source="https://football-logos.cc"></path><path fill="#FEFEFE" d="m1229 490 4.178.697c63.65 10.74 124.888 35.277 177.822 72.303l2.394 1.668c8.166 5.719 16.154 11.639 23.918 17.894l1.773 1.423c12.158 9.96 23.255 21.168 34.355 32.27a2734 2734 0 0 0 6.962 6.923c7.658 7.628 15.02 15.228 21.598 23.822l1.668 2.111c13.77 17.444 26.258 35.622 37.332 54.889l1.311 2.271c28.776 50.102 47.25 104.515 54.333 161.863q.37 2.976.77 5.947c4.894 37.086 4.56 75.854-.414 112.919l-.488 3.699c-9.119 66.445-34.192 131.275-72.512 186.301l-1.22 1.762c-9.357 13.46-19.52 26.207-30.31 38.546a262 262 0 0 0-2.896 3.39c-5.526 6.498-11.588 12.467-17.626 18.484a2553 2553 0 0 0-5.634 5.64c-5.934 5.938-11.88 11.776-18.314 17.178l-2.922 2.563c-55.257 47.624-122.213 79.322-193.078 95.437l-2.686.616c-20.86 4.699-42.112 7.336-63.439 8.634l-3.944.243q-5.963.325-11.931.507l-2.125.065c-14.322.371-28.444-.858-42.687-2.253l-3.534-.339c-18.043-1.743-35.885-3.828-53.654-7.473l-2.717-.544C1012.448 1348.62 960.674 1326.1 916 1296l-1.858-1.24c-10.073-6.726-19.766-13.885-29.315-21.335a842 842 0 0 0-4.663-3.605c-12.777-9.965-24.166-21.636-35.604-33.075a2734 2734 0 0 0-6.962-6.923c-7.662-7.633-14.984-15.25-21.598-23.822a750 750 0 0 0-3.047-3.723C761.127 1138.49 729.908 1061.178 719 980l-.462-3.313c-6.083-45.028-3.75-92.23 5.462-136.687l.616-3.096C740.42 757.926 778.876 685.262 833 626l2.617-2.898c7.938-8.767 16.034-17.423 25.043-25.106a469 469 0 0 0 5.711-4.96C874.347 586.023 882.463 579.32 891 573l2.01-1.499c34.618-25.74 72.652-45.333 112.99-60.501l3.097-1.17c17.968-6.715 36.234-11.538 54.903-15.83l3.414-.8c8.833-1.992 17.697-3.338 26.669-4.508 2.388-.313 4.773-.643 7.16-.973 42.01-5.656 86.023-4.863 127.757 2.281"></path><path fill="#eb232c" d="M1044 533c.6 70.184 1.095 140.366 1.13 210.552v2.216q.014 28.517.005 57.033a110165 110165 0 0 0 0 46.29q.004 46.09-.005 92.177-.007 40.677 0 81.354a337559 337559 0 0 1 .004 104.864q-.002 18.144.002 36.287.005 20.56-.003 41.12-.005 10.44 0 20.881c.02 48.061.02 48.061-.579 71.686l-.058 2.44q-.085 3.304-.184 6.609l-.109 3.686C1044 1313 1044 1313 1043 1315c-7.208-.53-13.442-2.665-20.187-5.187l-3.52-1.31c-9.246-3.531-18.202-7.563-27.106-11.878l-1.88-.91c-3.802-1.846-7.592-3.7-11.307-5.715l-3.137-1.293c-3.34-3.158-3.33-3.888-3.601-8.306-.026-2.432-.017-4.864.016-7.296q-.003-2.028-.015-4.057c-.013-3.72.01-7.438.04-11.158.026-4.01.018-8.019.013-12.028q-.003-10.422.05-20.844c.048-10.046.064-20.09.072-30.137.013-16.297.053-32.595.11-48.892a25448 25448 0 0 0 .127-50.456l.023-14.684c.062-40.616.168-81.233.302-121.849l-1.671.001a48114 48114 0 0 1-23.982.013c-17.62.013-35.23-.13-52.847-.452l-7.877-.134A5206 5206 0 0 1 825 957c6.571 41.01 16.714 80.972 35.98 118.017.991 1.927 1.946 3.868 2.895 5.815 4.691 9.44 10.281 18.224 16.125 26.98l1.142 1.715c8.35 13.359 8.35 13.359 18.664 25.076 5.972 5.929 5.963 11.939 6.027 19.903a765 765 0 0 1-.114 9.049q-.015 3.165-.023 6.33c-.021 5.532-.085 11.064-.157 16.597-.052 4.526-.074 9.052-.094 13.579-.042 9.34-.104 18.68-.22 28.02l-.023 2.617c-.048 3.34-.139 6.112-1.202 9.302-3.83-1.747-6.545-4.088-9.65-6.889a616 616 0 0 0-4.501-4.005c-6.683-5.92-13.03-12.132-19.327-18.454a2130 2130 0 0 0-5.153-5.146c-5.668-5.664-11.229-11.352-16.369-17.506l-1.553-1.836c-8.397-9.995-16.086-20.388-23.447-31.164l-1.332-1.933c-6.704-9.75-12.822-19.782-18.668-30.067l-1.414-2.463c-12.85-22.483-23.008-46.122-31.586-70.537l-.735-2.073c-1.605-4.592-2.97-9.24-4.265-13.927l-.886-3.165c-5.415-19.63-9.09-39.302-11.985-59.452l-.305-2.121c-.291-2.086-.563-4.173-.824-6.262l-.285-2.244c-.837-7.33-.894-14.63-.918-22.002l-.009-2.043q-.022-5.377-.028-10.753-.007-4.35-.041-8.7c-.147-18.967.621-37.433 3.281-56.258l.31-2.258c.54-3.87 1.17-7.713 1.878-11.554l.627-3.442C773.113 758.162 818.935 674.496 886 618q1.518-1.328 3.031-2.66c39.825-34.89 87.227-61.262 137.344-78.028l1.989-.668C1039.267 533 1039.267 533 1044 533M1271 537c4.639-.062 8.207.118 12.57 1.73l3.171 1.164 3.384 1.293 3.57 1.349c46.397 17.822 88.752 42.89 126.305 75.464l2.05 1.746c12.697 10.902 25.31 22.485 36.188 35.215 1.958 2.266 3.984 4.46 6.012 6.664 19.75 21.952 36.035 47.074 50.333 72.824q1.346 2.423 2.709 4.836c12.018 21.31 20.773 44.19 28.52 67.34l.803 2.383a892 892 0 0 1 2.217 6.719l.67 2.01c1.14 3.561 1.589 6.543 1.498 10.263q-12.258.035-24.516.052-5.692.007-11.386.023-5.505.016-11.01.02-2.088.003-4.178.01c-6.222.024-12.447.024-18.659-.361l-2.297-.138c-2.725-.845-3.496-2.204-4.954-4.606a162 162 0 0 1-2.625-7.5c-13.598-39.91-36.777-77.953-65.148-109.055a363 363 0 0 1-4.266-4.765c-10.111-11.475-20.845-22.325-32.961-31.68l-4.398-3.445A1342 1342 0 0 0 1343 650l-1 242h30c15.762.188 15.762.188 21.1.28l3.6.06 3.702.062 7.874.128q8.193.132 16.384.27 8.232.137 16.464.27c26.05.42 52.1.847 78.148 1.374l5.82.114c9.533.183 19.056.444 28.58.91l2.454.114c5.635.298 5.635.298 7.874 1.418q.178 13.617.26 27.235c.025 4.22.06 8.44.117 12.66 1.281 95.795-36.501 189.377-113.585 276.383-16.545 16.948-16.545 16.948-25.476 23.902-2.272 1.786-4.38 3.672-6.504 5.632-36.99 33.033-84.318 56.957-131 72.813l-2.083.714c-4.587 1.492-8.954 2.183-13.729 2.661-.762-3.388-1.125-6.513-1.126-9.983l-.008-2.982.007-3.253-.005-3.473q-.004-4.766.001-9.532.002-5.142-.004-10.284-.005-10.07 0-20.14a26665 26665 0 0 0 0-23.44q-.004-22.168.006-44.337.005-19.035-.001-38.07a77307 77307 0 0 1-.003-51.24q0-8.176-.003-16.353a16241 16241 0 0 1 .003-19.911q.005-5.083 0-10.166-.002-5.5.006-11l-.007-3.273.008-2.958v-2.567C1271 1034 1271 1034 1272 1032q10.104-.038 20.209-.055 3.422-.008 6.844-.02 4.98-.017 9.959-.023l2.985-.015c10.38-.001 20.59.617 31.003 1.113v176c24.848-16.566 48.417-35.298 68-58l1.62-1.87c9.31-10.82 17.616-22.154 25.38-34.13l1.44-2.221c22.298-34.726 37.484-72.582 46.56-112.779l.507-2.216c2.223-9.862 3.418-19.747 4.493-29.784l-1.936.006c-17.497.05-34.984-.12-52.478-.408l-8.018-.128q-8.363-.132-16.726-.27-8.407-.137-16.816-.27c-26.605-.42-53.21-.847-79.814-1.374l-5.952-.114A928 928 0 0 1 1272 964c-1.237-8.64-1.137-17.246-1.12-25.951l-.003-5.196q-.002-7.118.007-14.237.005-7.683.002-15.367 0-13.307.008-26.612.011-19.238.012-38.477.004-31.215.019-62.428.014-30.318.02-60.638v-3.776l.005-18.756q.016-77.781.05-155.562M1156.49 519.074c9.603 3.542 15.459 22.179 19.823 30.863q2.01 3.976 4.025 7.95 1.338 2.64 2.674 5.283c3.43 6.771 6.952 13.491 10.502 20.2 3.474 6.577 6.819 13.21 10.111 19.88q1.548 3.135 3.102 6.266l1.474 3.016c1.75 3.486 1.75 3.486 3.841 6.739 6.232 10.074 7.045 18.378 6.74 30.038q-.024 2.557-.035 5.114c-.03 4.435-.109 8.867-.198 13.301-.082 4.546-.118 9.091-.158 13.637-.086 8.88-.222 17.76-.391 26.639l3.797.113q2.476.099 4.953.2l2.5.068c3.555.158 6.119.286 9.298 1.963 2.364 2.696 1.935 5.233 1.913 8.738l-.003 2.096a343 343 0 0 1-.046 4.39 404 404 0 0 0-.04 6.676c-.059 8.35-.654 14.852-4.747 22.256-5.595 11.084-7.221 21.953-7.086 34.25q.003 2.133 0 4.266c.002 3.851.03 7.702.066 11.552q.03 3.702.045 7.404c.318 71.386 2.942 142.722 5.473 214.056a18810 18810 0 0 1 2.53 75.998l.797 25.4q.531 17.042 1.077 34.085.429 13.433.852 26.867l.51 16.046q.241 7.462.473 14.926l.174 5.431c.404 12.41.53 24.802.464 37.219-3.347 1.116-5.849 1.126-9.377 1.127l-1.969.005c-2.18.004-4.362 0-6.543-.003l-4.686.006q-6.369.005-12.737 0c-4.439-.003-8.878 0-13.317 0q-11.182.003-22.365-.005-12.937-.006-25.873.002-11.098.007-22.197.003-6.632-.003-13.264.001-6.235.004-12.47-.005-2.291 0-4.582.002-3.122.002-6.243-.006l-3.533-.001C1079 1263 1079 1263 1076 1262c-.122-20.761.185-41.49.713-62.244q.099-3.87.194-7.74c1.183-47.598 2.748-95.185 4.298-142.772q.483-14.843.959-29.687a147412 147412 0 0 1 1.495-46.365q.258-8.004.52-16.008l.187-5.797c.35-10.916.764-21.827 1.29-32.736.367-7.729.596-15.459.762-23.194l.058-2.661.06-2.741q.063-2.923.13-5.845.134-6.093.264-12.187.13-6.09.27-12.178.483-20.921.8-41.845l.049-3.075q.144-9.101.209-18.204.023-2.817.065-5.634c.215-15.05-.888-29.961-10.143-42.565-5.306-7.295-6.154-13.044-5.818-22.004.076-2.044.103-4.083.12-6.127.193-9.903.193-9.903 2.518-13.391 2.063-.34 2.063-.34 4.57-.293l2.715.03 2.84.075 2.863.042q3.507.053 7.012.146l-.074-2.813q-.335-13.277-.496-26.557a894 894 0 0 0-.26-13.645c-1.024-37.887-1.024-37.887 10.422-54.833 2.37-3.621 4.266-7.484 6.22-11.34q1.227-2.319 2.458-4.636c3.283-6.205 6.504-12.442 9.73-18.676 7.541-14.557 15.105-29.097 22.938-43.5l1.397-2.594 1.317-2.406 1.156-2.125c3.119-4.907 3.119-4.907 6.682-4.801"></path><path fill="#eb232c" d="m1135.535 267.797 5.161-.021c5.456-.02 10.911-.025 16.367-.026l2.81-.001c35.678-.01 70.867.164 105.92 7.607 4.569.918 9.163 1.636 13.763 2.37 23.894 3.854 47.414 9.847 70.444 17.274l3.824 1.217c29.334 9.357 57.679 20.386 85.533 33.54a804 804 0 0 0 7.569 3.505c24.652 11.362 48.118 25.276 71.172 39.561q2.415 1.492 4.84 2.966c7.447 4.609 14.483 9.776 21.554 14.934 3.378 2.463 6.78 4.89 10.199 7.296 6.683 4.711 13.038 9.734 19.309 14.981q2.654 2.158 5.313 4.313c10.63 8.71 20.954 17.711 30.988 27.101 1.779 1.66 3.566 3.311 5.355 4.961 21.472 19.843 21.472 19.843 30.383 30.383 2.263 2.587 4.614 5.08 6.973 7.58 6.296 6.673 12.284 13.47 17.988 20.662q1.394 1.71 2.793 3.414c6.98 8.551 13.43 17.385 19.716 26.455 1.452 2.076 2.93 4.13 4.42 6.178 7.705 10.63 14.59 21.675 21.293 32.96q1.755 2.952 3.52 5.896c9.451 15.746 18.104 31.85 26.336 48.258q.914 1.825 1.833 3.646C1770.145 672.976 1785.058 712.98 1797 754l.884 2.957c7.805 26.232 12.664 53.466 16.491 80.543l.434 3.038c2.692 20.48 3.507 41.05 3.492 61.685l.013 6.982q.01 7.257.002 14.514-.007 7.324.02 14.65c.125 33.846-.281 67.069-6.524 100.443l-.908 5.016c-4.536 24.76-9.934 49.337-17.106 73.474-.756 2.557-1.49 5.12-2.216 7.686-8.997 31.396-21.547 61.46-35.962 90.721a2048 2048 0 0 0-4.242 8.68c-6.163 12.65-12.492 25.008-20.219 36.788-1.621 2.55-3.103 5.173-4.596 7.8-6.233 10.94-13.438 21.169-20.724 31.43a930 930 0 0 0-4.737 6.75c-4.595 6.571-9.475 12.805-14.672 18.917-2.397 2.887-4.643 5.843-6.868 8.863-3.599 4.865-7.396 9.482-11.337 14.067-3.347 3.908-6.524 7.92-9.662 11.996-7.21 9.307-15.246 17.81-23.646 26.048-1.8 1.833-3.462 3.722-5.12 5.682-3.816 4.39-7.962 8.332-12.235 12.27a3251 3251 0 0 0-4.308 4l-2.138 1.988c-2.129 2.024-4.19 4.102-6.245 6.2-3.272 3.297-6.625 6.067-10.371 8.812-3.686 2.749-7.163 5.51-10.312 8.875-7.886 8.254-17.956 14.641-27.317 21.098-4.086 2.885-8.1 5.866-12.121 8.84-29.163 21.528-59.547 40.027-91.962 56.29q-2.612 1.312-5.223 2.628c-27.374 13.731-55.542 24.365-84.665 33.662q-2.717.87-5.432 1.748c-15.661 5.044-31.45 9.266-47.443 13.125a730 730 0 0 0-7.853 1.953l-2.123.54-5.166 1.32c-39.693 9.423-79.29 10.838-119.943 10.523-4.733-.035-9.466-.047-14.2-.046-38.943.01-77.289-.785-115.74-7.556l-3.437-.604c-31.955-5.75-63.014-14.313-93.876-24.333l-3.448-1.11c-23.022-7.444-45.132-16.637-66.82-27.351a1550 1550 0 0 0-7.155-3.506 988 988 0 0 1-24.518-12.42l-2.345-1.227c-5.659-2.988-11.09-6.24-16.503-9.656-2.714-1.68-5.46-3.225-8.273-4.73-10.923-5.882-21.274-12.354-31.293-19.665-3.046-2.215-6.172-4.285-9.332-6.335-6.379-4.21-12.296-8.921-18.26-13.687a417 417 0 0 0-6.687-5.15c-6.655-5.053-13.059-10.357-19.394-15.805a724 724 0 0 0-5.026-4.257c-14.534-12.26-28.135-25.495-41.555-38.955q-3.252-3.258-6.514-6.508l-4.224-4.228-1.926-1.92a224 224 0 0 1-10.898-11.802c-2.031-2.346-4.15-4.607-6.266-6.876-4.209-4.615-8.112-9.392-11.93-14.333a348 348 0 0 0-7.554-9.464l-1.679-2.028a509 509 0 0 0-3.145-3.754c-4.494-5.432-8.334-11.275-12.205-17.154-2.793-4.242-5.648-8.44-8.507-12.638-10.78-15.894-21.089-31.688-29.834-48.814-1.872-3.607-3.856-7.146-5.838-10.693-29.587-53.125-49.532-110.313-63.214-169.405a171 171 0 0 0-2.4-9.2c-.867-3.117-1.44-6.084-1.874-9.287l-.465-3.354-.48-3.563c-1.145-8.325-2.336-16.632-3.702-24.923-4.629-28.622-4.742-57.03-4.684-85.95.012-5.674.005-11.349-.007-17.023-.08-46.258-.08-46.258 2.268-66.292l.338-2.948c.82-6.992 1.774-13.96 2.787-20.927l.456-3.171c12.38-85.395 43.712-174.44 98.63-255.93a209 209 0 0 0 6.414-9.774c3.564-5.694 7.56-11.045 11.563-16.434a302 302 0 0 0 5.25-7.289c8.69-12.472 18.347-24.14 28.62-35.34 1.92-2.162 3.69-4.387 5.442-6.687 3.896-5.088 8.143-9.806 12.5-14.5l1.74-1.877c7.145-7.688 14.355-15.31 21.76-22.748l1.632-1.646c3.485-3.471 7.118-6.724 10.837-9.943 3.324-2.923 6.511-5.987 9.718-9.036 10.143-9.564 20.738-18.401 31.743-26.95a310 310 0 0 0 7.015-5.632c10.686-8.802 22.03-16.512 33.555-24.168l2.6-1.74c19.71-13.17 40.298-24.49 61.4-35.26l2.293-1.172a820 820 0 0 1 11.843-5.914 612 612 0 0 0 3.674-1.816C889.128 322.48 905.085 316.245 921 310l1.903-.747c33.192-12.995 67.25-22.71 102.152-29.851 2.97-.614 5.936-1.256 8.902-1.894 17.657-3.744 35.397-5.938 53.355-7.633l2.417-.23c15.245-1.346 30.509-1.81 45.806-1.848M998 311l-3.223.85A634 634 0 0 0 890 350l-2.904 1.35c-49.594 23.145-96.623 52.403-138.043 88.3a392 392 0 0 1-10.99 9.163c-3.65 2.96-7.029 6.019-10.282 9.407-1.773 1.772-3.612 3.4-5.517 5.028-4.098 3.563-7.966 7.31-11.8 11.154l-2.067 2.065q-2.145 2.145-4.288 4.293a3400 3400 0 0 1-6.51 6.504l-4.197 4.2-1.935 1.93c-4.353 4.375-8.443 8.929-12.467 13.606a1947 1947 0 0 1-3.14 3.57c-6.778 7.732-13.299 15.608-19.569 23.757a702 702 0 0 1-3.775 4.841C631.038 566.699 612.73 596.395 596 627l-1.378 2.505c-42.098 76.834-67.727 166.96-72.755 272.089l-.003 5.04q-.002 5.259.006 10.518.006 6.645-.004 13.29c-.188 32.441-.188 32.441 2.447 64.745l.397 3.146c.416 3.224.85 6.446 1.29 9.667l.417 3.08c11.29 81.72 37.318 162.206 79.163 233.489a417 417 0 0 1 3.748 6.568c12.19 21.56 26.61 42.226 41.672 61.863l1.478 1.933c6.142 8.005 12.546 15.768 19.117 23.424 1.421 1.662 2.83 3.333 4.237 5.006 11.552 13.694 23.962 26.519 36.606 39.2l1.558 1.566c5.288 5.309 10.602 10.535 16.299 15.41 2.395 2.052 4.701 4.196 7.018 6.336 5.402 4.92 10.987 9.555 16.687 14.125l3.465 2.809C793.913 1452.28 833.115 1476.98 875 1498l3.34 1.684c71.232 35.731 148.44 54.6 227.451 62.1q2.274.223 4.543.483c8.944.953 17.894.916 26.877.936l2.635.009q6.926.022 13.852.028 5.63.007 11.257.041c21.185.127 41.97-.14 63.01-2.888 4.201-.544 8.41-1.019 12.618-1.497 12.245-1.43 24.329-3.495 36.417-5.896l3.611-.702c71.239-13.957 140.77-40.245 202.931-77.817a488 488 0 0 1 6.528-3.86c26.065-15.225 50.806-33.244 73.93-52.621l1.561-1.304c19.484-16.287 39.241-33.39 55.732-52.77 1.983-2.237 4.079-4.327 6.207-6.426 4.049-4.008 7.795-8.176 11.5-12.5q1.45-1.656 2.902-3.309c30.98-35.333 56.61-74.495 79.098-115.691l1.492-2.718c40.472-74.039 67.151-163.51 70.332-248.04.176-3.242.176-3.242.678-6.533.468-3.486.631-6.787.643-10.302l.02-3.85.003-4.131.01-4.343q.009-4.563.007-9.126 0-4.589.02-9.176c.123-27.486-1.34-54.564-4.892-81.843l-.387-3.01c-2.436-18.844-5.775-37.391-9.926-55.928l-.7-3.158a521 521 0 0 0-3.7-15.483 458 458 0 0 1-1.17-4.698C1762.605 719.249 1744.52 676.705 1724 636l-1.566-3.12C1709.677 607.6 1695.07 582.617 1678 560q-1.606-2.19-3.207-4.383c-12.811-17.536-26.198-34.327-40.8-50.41a333 333 0 0 1-5.18-5.894c-8.538-9.77-17.533-19.124-26.688-28.313l-2.087-2.101a230 230 0 0 0-12.18-11.287c-2.615-2.27-5.137-4.627-7.67-6.987a273 273 0 0 0-14.106-12.133 490 490 0 0 1-6.883-5.672C1523.47 402.91 1483.6 377.888 1442 357l-3.118-1.573c-27.09-13.59-55.17-24.749-83.882-34.427l-3.125-1.057c-19.946-6.652-40.36-11.424-60.875-15.943l-3.546-.785c-38.033-8.215-77.228-11.285-116.052-12.16q-3.3-.077-6.6-.172C1109.208 289.446 1051.738 296.787 998 311"></path><path fill="#eb232c" d="M1153.46 468.684c3.772.003 7.545-.02 11.317-.045 15.61-.04 30.839.961 46.315 2.985a652 652 0 0 0 8.656 1.051c50.151 5.854 100.736 21.834 145.334 45.321a516 516 0 0 0 6.293 3.223c39.173 19.995 73.788 46.468 105.812 76.406l2.017 1.884c6.195 5.813 12.19 11.703 17.73 18.147 2.046 2.321 4.154 4.577 6.276 6.828 6.734 7.173 12.862 14.67 18.79 22.516l1.6 2.1c14.686 19.319 27.783 39.598 39.4 60.9l1.503 2.748c17.78 32.73 31.135 67.224 40.497 103.252l.74 2.838c2.975 11.625 5.064 23.382 6.947 35.225l.615 3.833c.616 4.03 1.175 8.061 1.698 12.104l.29 2.166c2.145 16.603 2.019 33.264 1.97 49.971-.01 3.995-.004 7.99.008 11.984.041 17.044-.133 33.94-2.268 50.879l-.458 3.725a344 344 0 0 1-1.355 9.15l-.52 3.274c-12.659 77.709-45.6 152.912-95.667 213.851l-1.362 1.658c-5.773 6.99-11.76 13.755-17.935 20.393-2.053 2.214-4.032 4.482-6.004 6.77-3.865 4.432-7.968 8.595-12.137 12.742l-2.158 2.17c-4.638 4.629-9.437 8.996-14.404 13.267a1497 1497 0 0 0-3.465 3.07c-50.135 44.247-111.132 77.062-175.535 94.93l-3.398.944c-39.4 10.824-78.54 15.488-119.352 15.431h-2.172c-20.682-.004-41.058-.372-61.508-3.78-3.703-.617-7.413-1.16-11.129-1.693-44.898-6.676-91.1-20.463-131.295-41.774a613 613 0 0 0-7.591-3.901c-12.196-6.229-24.038-12.816-35.555-20.227l-2.212-1.42c-16.724-10.805-32.82-22.44-47.788-35.58l-2.219-1.918A732 732 0 0 1 854 1271l-2.03-1.775c-7.28-6.443-14.176-13.245-21.047-20.117-1.98-1.978-3.968-3.947-5.956-5.917-7.124-7.092-13.758-14.274-19.967-22.191a260 260 0 0 0-2.61-3.066C783.58 1196 768.139 1171.114 754 1146l-1.292-2.278c-11.76-20.885-20.693-43.258-28.675-65.813a566 566 0 0 0-2.67-7.339c-15.727-43.491-21.977-90.645-21.754-136.68.017-3.548.007-7.095-.01-10.643C699.232 834.087 726.789 748.16 812 627l2.352-2.652c2.201-2.463 4.422-4.907 6.648-7.348l2.578-2.86c8.342-9.22 16.89-18.303 26.371-26.37 2.528-2.181 4.971-4.445 7.426-6.707C872.949 566.908 890.254 554.3 908 543l2.297-1.474c54.07-34.58 113.844-57.098 177.078-67.838l2.164-.374c21.233-3.629 42.4-4.667 63.92-4.63M1098 488l-2.394.313c-18.854 2.51-37.239 6.808-55.606 11.687l-3.193.848A287 287 0 0 0 1020 506l-2.831.95c-16.13 5.472-31.687 11.967-47.169 19.05l-2.568 1.155C933.943 542.221 903.099 562.453 875 586l-1.811 1.51c-14.917 12.479-29.775 25.646-42.427 40.45-1.958 2.267-3.984 4.461-6.012 6.665-5.103 5.658-9.764 11.62-14.412 17.652a376 376 0 0 1-3.697 4.664C766.115 708.006 740.09 769.9 725.375 833l-.588 2.474C714.143 882.16 712.4 932.668 719 980l.454 3.38c11.075 81.254 43.714 156.906 95.046 220.808l1.434 1.796c9.944 12.219 21.194 23.33 32.32 34.456a2734 2734 0 0 1 6.924 6.962c7.631 7.661 15.24 15 23.822 21.598q2.173 1.74 4.344 3.484c10.562 8.34 21.418 16.116 32.656 23.516l2.331 1.539c56.708 37.196 122.072 61.79 189.669 68.461q2.451.25 4.901.504 7.025.72 14.053 1.404 2.805.274 5.61.555c54.823 5.446 111.297-3.242 163.436-20.463l3.43-1.132c68.145-22.807 126.149-61.66 176.843-111.967q1.636-1.624 3.279-3.244c6.963-6.882 13.362-13.97 19.448-21.657a824 824 0 0 1 3.3-3.977c7.74-9.345 14.852-19.01 21.7-29.023l1.315-1.9c12.092-17.488 22.095-36.151 31.685-55.1l1.226-2.403C1601.628 1031.903 1610.988 927.35 1591 834q-.483-2.38-.96-4.762c-13.668-66.333-45.24-129.071-87.665-181.613l-1.447-1.797c-9.63-11.741-20.381-22.467-31.107-33.193a2751 2751 0 0 1-6.95-6.989c-7.646-7.675-15.27-15.038-23.871-21.646q-1.755-1.41-3.504-2.828c-63.383-50.189-138.117-81.875-218.191-92.854q-2.494-.345-4.986-.703c-15.128-2.146-29.939-3.041-45.213-2.896-3.303.031-6.606.04-9.909.047-19.82.07-39.534.613-59.197 3.234"></path><path fill="#FEFEFE" d="M973 644q.046 26.438.063 52.875v2.02c.03 44.892-.166 89.778-.563 134.668l-.018 2.052Q972.255 861.308 972 887c-31.19.055-62.375-.011-93.563-.372q-7.373-.084-14.744-.155-5.805-.06-11.61-.126-2.724-.03-5.45-.056-3.747-.037-7.494-.086l-2.198-.017c-4.411-.063-8.598-.48-12.941-1.188 1.17-11.641 2.986-22.964 5.563-34.375l.523-2.344c6.183-27.447 15.954-53.474 28.948-78.422.952-1.832 1.887-3.67 2.821-5.511 14.725-28.675 34.681-54.5 57.723-76.959a425 425 0 0 0 8.492-8.53c5.62-5.77 11.601-10.889 17.93-15.859l2.135-1.68C970.185 644 970.185 644 973 644M1195.277 844.77l2.307.005 2.353.038 2.342.001c12.632.097 12.632.097 14.721 2.186.168 2.525.271 5.027.335 7.555l.072 2.429q.118 4.063.226 8.126l.168 5.806q.18 6.282.355 12.564.278 10.005.569 20.012.561 19.543 1.11 39.085.695 24.627 1.403 49.253.24 8.279.47 16.557c.675 24.27 1.5 48.525 2.593 72.78a2350 2350 0 0 1 1.55 43.396l.194 6.976q.196 7.146.388 14.293.242 9.055.497 18.109.2 7.138.391 14.275.09 3.339.185 6.678c.4 14.372.569 28.728.494 43.106-7.69 3.902-13.255 4.182-21.812 4.188l-3.237.037c-11.235.02-11.235.02-15.951-2.225-1.862-4.275-2.25-7.997-2.246-12.626l-.007-1.95c-.005-2.153.004-4.305.012-6.458q0-2.34-.005-4.68c-.004-4.285.004-8.57.014-12.855.009-4.622.006-9.243.004-13.865q-.001-12.01.017-24.02c.016-11.575.021-23.151.024-34.727q.007-28.171.036-56.343.028-27.368.041-54.734l.002-3.407.007-16.925q.033-70.205.101-140.41c6.546-2.253 6.546-2.253 10.277-2.23M1114.813 843.813l2.04-.038c5.255-.015 8.797.887 14.147 2.225v383c-8.067 1.613-14.635 2.365-22.687 2.375l-3.3.074c-6.58.024-10.644-.562-16.013-4.449-.273-15.827.042-31.59.721-47.4 1.076-25.392 1.806-50.793 2.498-76.198l.078-2.882q.525-19.278 1.042-38.556a115066 115066 0 0 1 1.52-56.325c.768-28.232 1.62-56.46 2.624-84.686l.112-3.156.109-3.04c.324-9.272.574-18.545.802-27.819.533-21.715.533-21.715.931-31.688l.083-2.548c.246-5.468.246-5.468 2.48-7.702 4.208-1.208 8.466-1.183 12.813-1.187"></path><path fill="#FBFBFB" d="m1158 843.688 2.328-.05 2.297-.001 2.04-.01C1167 844 1167 844 1174 847v383c-5.872 1.468-9.649 2.275-15.437 2.25l-3.684.016C1151 1232 1151 1232 1142 1230V846c5.994-1.713 10.004-2.338 16-2.312"></path><path fill="#eb232c" d="M1617.578 560.23 1620 562l1.922 1.363c11.112 8.64 19.672 23.155 21.828 37.055 1.514 15.636-1.853 28.79-11.785 41.105-2.247 2.576-4.572 5.037-6.965 7.477l-2.238 2.348c-11.797 11.558-27.375 17.493-43.762 18.09-15.239-.39-28.482-7.23-39.36-17.61-11.19-11.985-17.958-25.98-17.792-42.445.7-15.536 8.374-29.574 19.578-40.188 21.8-18.59 51.132-26.139 76.152-8.965M722 524a444 444 0 0 1 14.938 11.563c7.596 6.114 15.332 12.036 23.094 17.938 2.83 2.156 5.65 4.327 8.468 6.499a5174 5174 0 0 0 15 11.5c10.197 7.794 20.382 15.604 30.5 23.5-1.327 2.814-2.817 5.26-4.68 7.75l-1.566 2.094-1.629 2.156-1.605 2.156-1.575 2.094-1.421 1.89c-4.733 5.776-4.733 5.776-8.06 6.13l-2.972-.344-3.5-.388q-1.997-.265-3.992-.538l-2.208-.29c-5.899-.778-11.783-1.643-17.667-2.523l-5.502-.813c-12.913-1.92-25.784-4.006-38.623-6.374l-6.102-1.11L708 606l1.354 1.035a8192 8192 0 0 1 25.275 19.375q3.724 2.864 7.46 5.711A1942 1942 0 0 1 769 653c-1.43 4.26-3.544 7.146-6.437 10.563-2.605 3.093-5.174 6.173-7.563 9.437-4.838-1.54-8.158-4.314-12-7.5l-4.043-3.29-2.029-1.652c-3.747-3.027-7.586-5.933-11.412-8.859-4.214-3.226-8.394-6.497-12.578-9.761a1063 1063 0 0 0-18.09-13.805c-7.927-5.937-15.738-12.028-23.535-18.133l-1.82-1.421c-2.269-1.782-4.451-3.537-6.493-5.579.18-4.81 2.913-8.155 5.688-11.875l1.393-1.87a894 894 0 0 1 2.731-3.63c1.298-1.727 1.298-1.727 2.692-4.094 1.988-3.042 3.433-4.3 7.023-5.082 12.768-.552 25.931 2.499 38.473 4.551l1.97.321a4199 4199 0 0 1 24.662 4.11c5.121.865 10.245 1.718 15.368 2.569l-3.262-2.273c-8.459-5.919-16.79-11.934-24.919-18.302-2.91-2.279-5.826-4.547-8.743-6.816q-2.319-1.805-4.634-3.612A810 810 0 0 0 707 546c.537-3.973 1.578-6.16 4.16-9.207l1.904-2.275 1.999-2.33 2.01-2.39A903 903 0 0 1 722 524M1689 673c1.245 1.54 1.245 1.54 2.297 3.55l1.205 2.278 1.248 2.485 1.313 2.562c9.052 18.024 19.307 39.555 14.175 60.188-3.556 9.447-9.59 14.13-18.238 18.937-7.054 2.95-15.156 3.467-22.336.727A105 105 0 0 1 1657 757l-.82 1.984c-4.438 9.407-11.19 14.742-19.18 21.016q-1.89 1.512-3.777 3.027c-2.84 2.264-5.682 4.523-8.574 6.719q-1.754 1.337-3.474 2.715c-4.621 3.57-4.621 3.57-7.252 3.424-2.583-1.189-2.962-2.32-4.028-4.928l-1.041-2.506-1.042-2.639-1.076-2.58c-.975-2.392-1.865-4.8-2.736-7.232l-1.238-3.176c.294-3.49 1.065-3.986 3.605-6.293A162 162 0 0 1 1611 763l2.255-1.66c3.042-2.19 6.12-4.325 9.21-6.445 5.384-3.789 10.534-7.893 13.535-13.895.252-4.116-.084-7.754-1.012-11.746l-.557-2.424L1634 725c-11.059 3.582-22.007 7.202-32.676 11.836-3.852 1.349-7.269 1.784-11.324 2.164q-1.688-3.844-3.375-7.687l-.96-2.186q-.928-2.114-1.84-4.234a152 152 0 0 0-2.114-4.6c-.903-2.911-.676-4.409.289-7.293 1.998-1.368 1.998-1.368 4.719-2.445l3.19-1.296 3.591-1.384q1.895-.754 3.786-1.513c3.697-1.474 7.405-2.918 11.116-4.355q4.189-1.625 8.373-3.257a6794 6794 0 0 1 25.411-9.855c13.229-5.089 13.229-5.089 26.38-10.372 1.176-.48 2.351-.962 3.562-1.458a651 651 0 0 0 6.123-2.564l2.612-1.08 2.166-.918c2.43-.62 3.668-.493 5.971.497M920 386c1.536 1.18 1.536 1.18 2.988 2.66l1.63 1.644c.56.58 1.119 1.16 1.694 1.759.58.59 1.16 1.18 1.757 1.79a225 225 0 0 1 10.392 11.39c2.115 2.415 4.404 4.634 6.696 6.882 1.783 1.814 3.45 3.682 5.109 5.61 3.565 4.1 7.252 8.068 10.984 12.015 4.427 4.701 8.837 9.415 13.188 14.188 5.233 5.736 10.558 11.383 15.906 17.013A305 305 0 0 1 1002 474q-4.591 2.443-9.187 4.875l-2.62 1.395-2.548 1.347-2.333 1.238c-6.462 3.2-6.462 3.2-9.91 2.975-2.749-.95-3.917-1.95-5.847-4.103l-1.825-2-1.855-2.102-3.695-4.086-1.634-1.837L959 470l-1.324-1.784c-1.715-1.513-1.715-1.513-4.512-1.06-3.158.842-5.848 1.914-8.781 3.348l-3.086 1.494-3.172 1.565-3.242 1.576A1709 1709 0 0 0 927 479l.383 2.415c.568 3.61 1.124 7.223 1.68 10.835l.603 3.8.557 3.653.523 3.364c.236 2.728.328 4.432-.746 6.933a69 69 0 0 1-7.125 4.063l-1.977 1.025c-11.76 6.032-11.76 6.032-15.273 5.662C904 520 904 520 903 519a95 95 0 0 1-.814-4.75l-.467-3.084-.5-3.389-1.082-7.184-.567-3.793c-.733-4.886-1.481-9.77-2.23-14.654q-1.137-7.416-2.267-14.832l-1.146-7.498q-1.692-11.07-3.368-22.14a5953 5953 0 0 0-1.73-11.29l-1.11-7.296-.526-3.379c-.799-5.3-1.403-10.35-1.193-15.711 6.493-3.698 13.087-7.12 19.813-10.375l2.81-1.402 2.709-1.309 2.429-1.189c2.614-.846 3.72-.77 6.239.275M1261.06 343.742l2.381.356 2.688.387c4.96.89 9.888 1.864 14.808 2.953l3.112.658 2.978.65 2.68.584C1292 350 1292 350 1295 352c.681 2.574.681 2.574 1.1 5.798l.473 3.56a878 878 0 0 1 1.83 16.876l.37 3.713q.487 4.896.967 9.792l.598 6.07q1.171 11.865 2.325 23.73.45 4.63.907 9.259.57 5.797 1.117 11.595.271 2.845.551 5.688c.735 7.99.885 15.897.762 23.919-4.164.083-7.911-.007-11.953-1.023l-2.625-.657-2.672-.695-2.719-.672c-3.864-.983-6.675-1.716-10.031-3.953-1.508-5.58-1.336-11.623-1.563-17.375l-.13-3.098q-.159-3.764-.307-7.527c-10.301-2.382-20.521-4.55-31-6l-1.07 1.972q-2.401 4.421-4.805 8.84l-1.684 3.104-1.62 2.979c-.74 1.358-.74 1.358-1.492 2.745-1.032 1.833-2.162 3.61-3.329 5.36-5.477.541-10.414-.57-15.688-1.875l-2.26-.527c-3.623-.873-6.743-1.842-10.052-3.598 2.714-7.417 6.152-14.123 10.125-20.937 4.093-7.124 8.099-14.267 11.875-21.563 4.095-7.885 8.413-15.628 12.81-23.349a1464 1464 0 0 0 9.249-16.475l1.029-1.862c1.341-2.428 2.683-4.857 4.018-7.288q1.385-2.52 2.777-5.038l1.606-2.92c3.814-6.48 3.814-6.48 6.572-6.826M619 683c2.911.016 5.785.111 8.691.258l2.905.14c14.441.753 28.857 1.932 43.27 3.076q5.07.402 10.137.791c18.739 1.439 37.395 2.983 55.997 5.735q-.7 2.37-1.404 4.74l-.79 2.667c-1.115 3.586-2.452 7.055-3.869 10.53l-.775 1.956c-1.186 2.942-2.395 5.456-4.162 8.107-3.934.267-7.314.103-11.21-.48-4.245-.582-8.452-.859-12.727-1.082l-2.362-.131q-2.85-.157-5.701-.307l-.352 2.188c-.67 2.905-1.686 5.154-3.023 7.812-2.888 6.137-4.328 12.368-5.625 19l7.625 6.188 2.16 1.751a640 640 0 0 1 4.216 3.453 74 74 0 0 0 3.896 2.939c1.689 1.22 1.689 1.22 4.103 3.669.339 5.635-3.22 11.347-5.562 16.375l-1.288 2.809A1353 1353 0 0 1 700 792c-4.503-1.454-7.635-3.98-11.125-7.062l-3.477-3.004-1.739-1.509c-2.35-2.02-4.752-3.973-7.159-5.925a645 645 0 0 1-11.812-9.875 370 370 0 0 0-13.563-11c-5.743-4.454-11.253-9.132-16.719-13.92a374 374 0 0 0-11.218-9.455c-5.952-4.82-11.77-9.832-17.188-15.25.077-7.064 3.534-13.106 6.5-19.375l1.55-3.348c3.78-8.107 3.78-8.107 4.95-9.277"></path><path fill="#FBFBFB" d="M1107 639h103v68h-103z"></path><path fill="#eb232c" d="M1493 441c5.356.42 8.926 3.44 13.125 6.5l2.285 1.642A275 275 0 0 1 1526 463l2.422 1.98c9.279 7.8 17.322 18.624 18.816 30.993.355 9.99-3.535 18.742-10.238 26.027-7.122 7.327-14.27 13.031-24.797 13.54-16.702.186-30.862-7.84-43.203-18.54-4.146 1.545-5.932 4.241-8.5 7.75-5.493 7.384-11.452 14.319-17.5 21.25-4.792-1.564-8.33-4.25-12.25-7.312l-1.93-1.436c-2.675-2.08-4.524-3.665-6.062-6.717.373-3.909 2.777-6.05 5.367-8.785a786 786 0 0 0 3.355-3.742l1.768-1.98c2.89-3.346 5.536-6.868 8.19-10.403 4.835-6.41 9.81-12.679 14.9-18.888a436 436 0 0 0 9.6-12.175c5.083-6.667 10.418-13.114 15.765-19.57A810 810 0 0 0 1493 441M1433.188 402.75A741 741 0 0 1 1437 406l3 2.063c2 1.937 2 1.937 2.96 4.667.047 3.894-1.08 5.216-3.733 7.965l-1.602 1.555c-3.745 3.55-3.745 3.55-6.625 7.75-3.431-.572-4.85-1.599-7.125-4.187-6.532-6.828-14.977-11.692-24.5-12.188-3.106.09-4.258.305-7 1.938-1.503 2.663-1.879 4.336-1.223 7.343 2.833 6.997 8.47 12.7 13.398 18.303 8.738 9.935 14.864 18.744 14.727 32.37-.807 9.964-6.467 17.92-13.465 24.733-8.533 6.809-20.41 6.699-30.812 5.688-17.424-2.367-30.814-10.675-43-23l-1.828-1.512C1329 478 1329 478 1328.472 475.73c.79-4.09 3.206-6.399 5.966-9.418 3.663-3.886 3.663-3.886 6.562-8.312 4.332.46 6.113 3.007 8.938 6.125 7.303 7.723 16.665 13.833 27.562 14.188 3.059-.061 4.34-.223 7.063-1.75 2.204-3.93 2.34-7.172 1.437-11.563-2.87-6.437-8.103-11.345-12.88-16.402-8.93-9.6-13.783-18.592-13.432-31.797.68-8.288 4.023-15.305 10.312-20.801 20.044-14.562 44.805-7.466 63.188 6.75M1118.438 334.813l2.078-.04c3.736-.007 6.37.13 9.484 2.227 1.445 2.344 1.445 2.344 2.77 5.285l1.495 3.276 1.547 3.502 1.6 3.544C1149 378.457 1149 378.457 1149 382h2l.532-1.662c1.778-5.459 3.787-10.764 6.007-16.057l.989-2.375q1.023-2.457 2.052-4.91 1.578-3.774 3.147-7.55l2-4.79.95-2.285c2.208-5.256 2.208-5.256 3.323-6.371 2.219-.088 4.44-.107 6.66-.098l2.014.005c2.13.005 4.259.018 6.389.03q2.16.008 4.322.014 5.307.017 10.615.049c-.588 3.598-1.55 6.446-3.23 9.676l-1.414 2.722-1.543 2.914-1.603 3.051c-4.485 8.452-9.24 16.732-14.137 24.95a371 371 0 0 0-3.298 5.667 110 110 0 0 1-3.941 6.198c-7.516 11.56-6.96 23.346-6.834 36.76q-.012 3.366-.035 6.732c-.03 5.444-.015 10.886.035 16.33-4.372 1.895-8.09 2.303-12.812 2.25l-2.042.023c-5.006-.019-9.312-1.003-14.146-2.273l.162-3.946c.957-26.861.772-47.751-15.075-70.057-3.194-4.586-5.872-9.43-8.587-14.31l-2.86-4.968c-3.832-6.762-7.272-13.716-10.64-20.719 3.746-3.746 15.194-2.134 20.438-2.187M831.94 432.234c3.774 1.403 5.578 4.848 7.872 8.016l1.561 2.027 1.459 1.989 1.335 1.805c1.172 2.713.801 4.169-.167 6.929-1.61 1.698-1.61 1.698-3.676 3.191l-2.26 1.674-2.377 1.697a1629 1629 0 0 0-4.613 3.38l-2.166 1.59c-2.158 1.66-4.073 3.456-5.908 5.468l2.02 2.57 33.73 42.93 1.378 1.752q1.363 1.736 2.72 3.476a430 430 0 0 0 7.324 9.124l1.56 1.914q1.486 1.821 3.004 3.617c3.311 4.086 3.311 4.086 3.087 6.62-.987 2.396-2.021 3.328-4.061 4.907l-1.987 1.56-2.088 1.592-2.052 1.604A529 529 0 0 1 858 559c-8.966-4.105-14.573-13.354-20.432-20.965-2.197-2.851-4.411-5.69-6.624-8.53a7010 7010 0 0 1-12.632-16.267c-6.331-8.17-12.697-16.293-19.312-24.238-4.162 1.41-6.977 3.411-10.313 6.25A259 259 0 0 1 775 506c-4.553-2.011-6.801-5.03-9.813-8.875l-1.56-1.895-1.459-1.847-1.335-1.675C760 490 760 490 760.188 487.95c1.413-3.396 4.525-5.276 7.374-7.451l2.03-1.586c5.416-4.212 10.914-8.316 16.42-12.41 6.51-4.854 12.829-9.933 19.15-15.03a987 987 0 0 1 10.969-8.655c2.566-2 5.103-4.014 7.603-6.096l2.391-1.973 2.008-1.703C830 432 830 432 831.94 432.234M1030 350c5.21 21.542 10.321 43.1 15.063 64.75l.585 2.668q.822 3.751 1.637 7.504l.485 2.22c.85 3.939 1.603 7.877 2.23 11.858l2.551-.535q4.727-.99 9.455-1.974 2.038-.425 4.076-.852 2.945-.617 5.89-1.229l3.571-.746c6.587-1.265 12.781-1.767 19.457-1.664q1.01 4.092 2 8.188l.578 2.33.547 2.275.508 2.079c.415 2.408.427 4.689.367 7.128a1297 1297 0 0 1-42.556 9.167q-4.498.892-8.995 1.79l-5.793 1.152-2.68.534c-4.316.853-8.63 1.665-12.976 2.357-1.872-4.206-2.842-8.47-3.742-12.96l-.499-2.42q-.538-2.617-1.072-5.235c-.977-4.795-1.967-9.586-2.96-14.377l-.645-3.11c-1.71-8.211-3.498-16.404-5.309-24.593l-.823-3.733a5272 5272 0 0 0-3.259-14.686q-1.15-5.144-2.285-10.292l-.693-3.06c-1.427-6.499-2.267-12.896-2.713-19.534 9.43-3.842 17.85-5.144 28-5"></path><path fill="#FDFDFD" d="M1605.313 579c5.717 4.255 11.37 9.541 12.574 16.84.571 10.895-1.935 18.995-9.012 27.285-8.046 8.508-18.694 16.366-30.703 17.113-15.975.404-15.975.404-21.172-4.238a52.7 52.7 0 0 1-6-8l-1.133-1.809c-2.406-6.079-1.894-14.304.266-20.375 1.463-2.76 3.049-5.276 4.867-7.816l1.277-1.914c6.79-9.04 18.064-15.097 28.723-18.086l1.91-.61c5.927-1.107 12.686-.116 18.402 1.61"></path><path fill="#FEFEFE" d="M1100 781h117v21h-117zM1100 813h116v22l-5.25-.5c-11.55-1.095-11.55-1.095-22.937.5-6.65 1.744-11.964 1.332-18.563-.5-9.732-2.597-18.154-2.041-27.695.89-5.387 1.286-10.384-.09-15.637-1.433-5.346-1.198-10.526-1.18-15.98-1.082L1100 833z"></path><path fill="#FFF" d="M1085 720h147v13h-147z" data-source="https://football-logos.cc"></path><path fill="#eb232c" d="M1239 1284c.167 4.343.13 7.21-2 11l-2.23-.105c-7.424-.36-7.424-.36-13.77 3.105l-1 2 2.414-.105c10.96-.28 10.96-.28 15.586 3.105 5.835 5.979 6.483 10.27 6.398 18.504-.484 4.253-1.395 6.294-4.511 9.164-6.324 4.465-12.163 6.132-19.95 5.844-5.625-.98-9.862-3.832-13.343-8.328-4.735-7.83-4.537-17.318-3.594-26.184 1.996-7.387 6.602-12.89 13-17 6.345-2.473 16.745-4.127 23-1M1135.25 1282.063c5.616 3.065 8.703 6.797 10.75 12.937.227 3.08.185 6.163.188 9.25l.037 2.527c.023 9.76-2.576 16.107-9.225 23.223-5.795 5.055-12.21 4.434-19.55 4.238C1114 1334 1114 1334 1112 1333v-10c4-1 4-1 7.875-.875 4.05.045 6.703-.844 10.125-3.125 1.405-2.05 1.405-2.05 2-4l-1.668.477c-5.027 1.128-10.598 1.594-15.465-.313-4.616-2.977-7.187-6.984-8.867-12.164-.871-5.988.722-10.997 4-16 7.477-7.206 15.624-9.326 25.25-4.937M1191 1282c.125 6.625.125 6.625-1 10l-2.414.113c-8.213.454-8.213.454-15.586 3.887l-1 2 2.414-.14c10.715-.366 10.715-.366 15.586 4.14 4.919 5.45 5.418 9.825 5.34 16.984-.503 4.464-2.034 7.036-5.34 10.016-4.505 3.466-9.453 5.032-15 6l-3 .563c-5.722-1.073-9.633-5.667-12.937-10.25-2.419-5.264-2.28-10.365-2.313-16.063l-.062-2.633c-.04-6.73.733-12.386 5.074-17.824 7.94-6.62 19.962-11.931 30.238-6.793"></path><path fill="#F4F5F5" d="M1097 760h124l-3 10h-118c-3-7-3-7-3-10"></path><path fill="#FBFBFB" d="M1504 475c6.866 3.503 12.92 7.741 16 15.063 1.13 3.64 1.202 6.25 0 9.937-2.847 5.273-6.3 8.567-11.937 10.75L1506 511l-3.062.438c-6.732-.748-12.84-4.003-17.27-9.145L1484 500c6.061-8.666 12.499-17.499 20-25"></path><path fill="#eb232c" d="M1097 1280v52c-2.501 1.25-4.274 1.133-7.062 1.125l-2.723.008C1085 1333 1085 1333 1084 1332c-.089-2.594-.115-5.16-.098-7.754l.005-2.35c.005-2.486.018-4.972.03-7.458q.008-2.523.014-5.045.017-6.197.049-12.393h-11v-10l4.188-.687c3.66-.78 4.605-1.09 7.25-3.938C1087 1280 1087 1280 1097 1280"></path><path fill="#FCFCFC" d="M1681 705q.972 1.904 1.938 3.813l1.09 2.144c1.866 3.92 2.163 7.113 2.222 11.418l.078 3.398c-.364 3.585-1.148 5.386-3.328 8.227-4.752 2.65-8.591 3.76-14 3-5.095-1.48-7.773-4.342-10.285-8.895-2.048-3.973-3.909-8.017-5.715-12.105 2.326-2.652 4.465-3.793 7.746-5.043l2.787-1.064 2.905-1.08 2.892-1.116C1676.481 705 1676.481 705 1681 705"></path><path fill="#FAFBFB" d="M636 710c13.875.404 27.316 1.663 41 4-1.081 5.445-2.393 10.452-4.625 15.563l-1.352 3.128L670 735c-2.82-1.32-5.203-2.803-7.652-4.723l-2.087-1.62-2.198-1.72a355 355 0 0 0-19.817-14.328L636 711z"></path><path fill="#FDFDFD" d="M1270 372h1c1.208 14.032 2.276 27.912 2 42l-21-5c5.84-12.42 11.81-24.752 18-37"></path><path fill="#FBFBFB" d="M913 417q1.665 1.664 3.324 3.332a336 336 0 0 0 3.696 3.617c5.806 5.664 10.946 11.698 15.98 18.051l4 5c-2.483 2.483-4.535 2.955-7.875 4-4.256 1.326-4.256 1.326-8.32 3.125C922 455 922 455 919 455q-1.288-7.152-2.563-14.307-.435-2.433-.874-4.865-.63-3.5-1.25-7l-.398-2.191c-.582-3.293-.915-6.277-.915-9.637"></path><path fill="#F6F6F6" d="M1128.063 1291c2.51 1.296 3.46 2.594 4.937 5 .293 2.578.293 2.578.188 5.25l-.083 2.703L1133 1306c-7.38.484-7.38.484-10-1.562-1.389-3.386-1.453-5.813-1-9.438 2.8-4 2.8-4 6.063-4"></path><path fill="#F7F7F7" d="M1171 1309c6.6.6 6.6.6 9 3 .3 2.277.3 2.277.313 4.938l.05 2.652c-.363 2.41-.363 2.41-1.754 4.234-1.609 1.176-1.609 1.176-3.671 1.051C1173 1324 1173 1324 1171 1321c-.45-2.664-.45-2.664-.687-5.625l-.262-2.977L1170 1310z"></path><path fill="#F9F9F9" d="m1218 1312 3.875-.187 2.18-.106 1.945.293c2.712 4.068 2.307 6.165 2 11-2 2-2 2-4.437 2.375-2.563-.375-2.563-.375-4.376-1.812-1.763-3.807-1.425-7.435-1.187-11.563" data-source="https://football-logos.cc"></path><!-- source: https://football-logos.cc --></svg>