<svg xmlns="http://www.w3.org/2000/svg" xml:space="preserve" style="shape-rendering:geometricPrecision;text-rendering:geometricPrecision;image-rendering:optimizeQuality;fill-rule:evenodd;clip-rule:evenodd" viewBox="0 0 190.04 195.63"><metadata xmlns:fl="https://football-logos.cc/turkey/sakaryaspor">dl1_39fd66d263890504cea487565f90e4d92d7a850f9e267899342564591635eead</metadata><!-- Source: https://football-logos.cc --><defs data-source="https://football-logos.cc"><style>.fil1,.fil3,.fil5{fill:none;fill-rule:nonzero}.fil3,.fil5{fill:#000}.fil3{fill:#007a31}.fil0,.fil2,.fil4{fill:#fefefe;fill-rule:nonzero}.fil2,.fil4{fill:#000}.fil4{fill:#fff}</style></defs><g id="turkey-sakaryaspor-football-logos-cc-Layer_x0020_1" data-source="https://football-logos.cc"><g id="turkey-sakaryaspor-football-logos-cc-_105553151259424"><path d="M95.02 193.43c-18.22 0-36.17-4.62-51.91-13.37-15.59-8.66-29.04-21.37-38.91-36.75l-1.17-1.83 19.57-12.92a83.8 83.8 0 0 1-11.51-42.43c0-11.33 2.22-22.32 6.6-32.67a83.6 83.6 0 0 1 17.99-26.67c7.71-7.71 16.68-13.76 26.67-17.99C72.7 4.42 83.69 2.2 95.02 2.2c11.32 0 22.31 2.22 32.66 6.6a83.8 83.8 0 0 1 26.68 17.99c7.7 7.7 13.75 16.68 17.98 26.67 4.38 10.35 6.6 21.34 6.6 32.67 0 14.94-3.96 29.54-11.47 42.36l19.54 12.98-1.17 1.82c-9.86 15.39-23.32 28.1-38.91 36.76-15.74 8.75-33.7 13.38-51.91 13.38" class="fil0"></path><path d="M95.02 4.41c45.12 0 81.71 36.59 81.71 81.72 0 15.79-4.48 30.53-12.24 43.03l19.49 12.94c-19.59 30.57-52.4 49.13-88.96 49.13s-69.36-18.55-88.96-49.11l19.52-12.89c-7.78-12.51-12.28-27.28-12.28-43.1C13.3 41 49.89 4.41 95.02 4.41m0-4.41c-11.63 0-22.9 2.28-33.53 6.77-10.25 4.34-19.46 10.55-27.37 18.46S20 42.35 15.66 52.6c-4.49 10.62-6.77 21.9-6.77 33.53 0 14.66 3.71 29 10.77 41.73L3.63 138.44 0 140.84l2.35 3.66c5.05 7.87 11.01 15.07 17.71 21.39a109.5 109.5 0 0 0 21.98 16.09 108.4 108.4 0 0 0 25.3 10.14c8.98 2.33 18.29 3.51 27.68 3.51s18.7-1.18 27.68-3.51c8.82-2.3 17.33-5.71 25.3-10.14 7.93-4.41 15.33-9.82 21.98-16.1 6.71-6.32 12.67-13.52 17.71-21.4l2.35-3.65-3.62-2.4-16.01-10.64c7.03-12.71 10.73-27.02 10.73-41.66 0-11.63-2.27-22.91-6.77-33.53-4.34-10.25-10.55-19.46-18.45-27.37-7.91-7.91-17.12-14.12-27.38-18.46C117.92 2.28 106.64 0 95.02 0" class="fil0"></path><path d="M157.69 127.54h1.68v-2.66c-.54.9-1.1 1.78-1.68 2.66M93.97 137.57c-.91 0-1.33.72-1.33 1.55s.42 1.6 1.33 1.6c.92 0 1.38-.76 1.38-1.6 0-.81-.46-1.55-1.38-1.55M85.41 127.89l.06-.32h1.47v-21.44c-1.51.34-2.99.77-4.43 1.28-.01-.02-.03-.05-.04-.07 2.12 4.58 3.52 9.25 3.52 14.43 0 2.13-.2 4.17-.58 6.12M100.88 140.28c-.91 0-1.38.71-1.38 1.55 0 .83.47 1.59 1.38 1.59.89 0 1.34-.77 1.34-1.59 0-.81-.45-1.55-1.34-1.55" class="fil1"></path><path d="M95.02 6C50.77 6 14.89 41.88 14.89 86.13c0 15.54 4.43 30.04 12.09 42.33 7.65 12 17.92 21.61 29.87 28.13a79.7 79.7 0 0 0 33.93 9.55c.04 0 .08.01.13.01.2.01.41.02.62.02l.6.03c.18.01.35.01.53.02.25 0 .5.01.75.01.14.01.28.01.42.01.39.01.79.01 1.19.01.39 0 .79 0 1.19-.01.14 0 .28 0 .42-.01.25 0 .5-.01.75-.01.17-.01.35-.01.52-.02l.61-.03c.21 0 .41-.01.62-.02.04 0 .08-.01.12-.01a79.7 79.7 0 0 0 33.92-9.54c12-6.55 22.3-16.2 29.96-28.26 7.61-12.26 12.01-26.72 12.01-42.21C175.14 41.88 139.26 6 95.02 6m-5.95 138.3h-1.36v-5.37h-1.87v-.98c1.04.01 2.04-.35 2.22-1.27h1.01zm4.77.16c-1.21 0-2.24-.84-2.3-2.08h1.24c.06.62.47 1.04 1.11 1.04 1.35 0 1.5-1.61 1.58-2.61l-.02-.02c-.33.59-.95.91-1.65.91-1.43 0-2.4-1.01-2.4-2.57 0-1.48.96-2.6 2.62-2.6 2.16 0 2.69 1.76 2.69 3.99 0 1.81-.72 3.94-2.87 3.94m7.08 0c-2.24 0-2.78-1.77-2.78-3.99 0-1.82.72-3.94 2.88-3.94 1.21 0 2.23.84 2.3 2.08h-1.25c-.05-.62-.46-1.04-1.11-1.04-1.35 0-1.5 1.61-1.58 2.61l.03.02c.33-.6.97-.9 1.64-.9 1.51 0 2.41 1.1 2.41 2.55 0 1.49-1.02 2.61-2.54 2.61m62.19-16.92c-.51.83-1.04 1.65-1.57 2.47h-5.55c-12.06 16.75-30.86 28.35-52.37 30.79 9.01-5.96 18.55-16.61 21.48-30.76H84.92c.03-.13.07-.26.1-.4-3.3 13.07-14.34 21.65-22.49 24.12-11.23-5.47-20.9-13.67-28.15-23.73H28.5c-.54-.81-1.06-1.63-1.57-2.47h1.55v-7.17a74 74 0 0 1-5.79-15.17c-1.7.01-3.36.12-5 .34q-.3-1.215-.57-2.43c1.62-.22 3.28-.35 4.97-.37a75 75 0 0 1-1.81-16.38c0-38.9 29.92-71.04 67.92-74.57-13.09 6.69-26.12 20.73-26.12 42.32 0 24.21 12.53 37.59 19.45 51.26-.05-.09-.09-.18-.13-.26 4.22-1.54 8.83-2.37 13.76-2.37 12.8 0 23.44 5.59 30.78 14.66-1.17-33.36-29.78-44.51-29.78-71.59 0-16.2 11.85-27.49 27.09-28.87 27.41 11.14 46.82 38.09 46.82 69.42 0 5.61-.63 11.09-1.81 16.35q2.385.045 4.65.33c-.18.82-.36 1.63-.57 2.43-1.53-.19-3.09-.29-4.67-.29a74.6 74.6 0 0 1-5.83 15.25v7.09zm-55.6 12.61c-.52 0-1.03.16-1.23.69h-1.24l.82-4.16h3.94v1.11h-3.02l-.39 1.93.02.02c.34-.37.9-.57 1.41-.57 1.51 0 2.38 1.09 2.38 2.55 0 1.22-.76 2.74-2.63 2.74-1.47 0-2.62-.8-2.67-2.33h1.24c.08.82.6 1.29 1.41 1.29 1.05 0 1.41-.75 1.41-1.68 0-.84-.45-1.59-1.45-1.59M81.87 106.08l.15.3z" class="fil1"></path><path d="M82.13 106.6c.07.16.14.31.21.46-.07-.15-.14-.3-.21-.46M124.33 127.57h1.2v-.01h.01c.3-2 .46-4.07.47-6.2 0-.01-.01-.01-.01-.02v-.01c-.53-.76-1.09-1.5-1.67-2.21zM81.62 105.58c.06.1.11.21.16.31-.05-.1-.1-.21-.16-.31M85.22 128.8c-.05.23-.1.46-.16.69.06-.23.11-.46.16-.69M30.95 127.56h1.72c-.59-.89-1.17-1.81-1.72-2.73zM110.36 127.57h4.52v-16.76c-1.44-.89-2.95-1.68-4.52-2.38zM117.35 127.57h4.51v-11.2c-1.4-1.41-2.91-2.72-4.51-3.89zM96.39 127.57h4.52v-21.9c-1.48-.23-2.99-.37-4.52-.42zM103.38 127.57h4.51v-20.13c-1.46-.52-2.97-.96-4.51-1.31zM89.41 127.57h4.52v-22.32c-1.53.05-3.04.19-4.52.42zM85.37 128.11c-.04.2-.08.4-.13.59.05-.19.09-.39.13-.59M163.64 130.5a82.1 82.1 0 0 1-30.09 27.7c-1.11.6-2.24 1.17-3.38 1.71l-.01.01c-.36.17-.73.34-1.09.51-.03.01-.05.02-.08.03-1.12.52-2.26 1.01-3.4 1.47-.05.02-.09.04-.14.05-.34.14-.68.28-1.02.41-.04.01-.09.03-.13.05-.76.29-1.54.57-2.31.85-.04.01-.08.02-.11.03-.34.12-.68.24-1.03.35-.07.03-.14.05-.21.07-.34.11-.67.22-1.01.33-.05.01-.09.03-.14.04-.78.25-1.55.48-2.33.7l-.24.06c-.31.09-.62.17-.94.26-.09.02-.18.04-.27.07-.34.09-.69.18-1.04.26l-.12.03c-.39.1-.79.19-1.19.29-.06.01-.12.02-.17.03-.33.08-.66.15-.99.22-.11.03-.22.05-.32.07l-.9.18-.3.06c-.79.16-1.58.3-2.37.43-.1.01-.2.03-.3.05-.3.04-.6.09-.89.13-.13.02-.25.04-.37.06l-.91.12c-.09.01-.19.03-.29.04l-1.2.15c-.06 0-.11.01-.17.01-.34.04-.68.08-1.03.11-.12.02-.25.03-.37.04-.29.03-.57.05-.86.07-.13.02-.25.03-.38.04-.33.02-.66.05-.99.07-.07 0-.15.01-.22.01-.41.03-.81.05-1.21.07-.11.01-.21.01-.32.02l-.91.03c-.13.01-.27.01-.41.02-.28 0-.57.01-.86.02h-.38c-.41.01-.81.01-1.22.01s-.82 0-1.23-.01h-.37c-.29-.01-.58-.02-.87-.02-.13-.01-.27-.01-.41-.02l-.9-.03c-.11-.01-.21-.01-.32-.02-.4-.02-.81-.04-1.21-.07-.07 0-.15-.01-.22-.01-.33-.02-.66-.05-.99-.07l-.38-.03c-.29-.03-.57-.05-.85-.08-.13-.01-.26-.02-.39-.04-.33-.03-.67-.07-1-.1-.06-.01-.13-.02-.19-.02l-1.2-.15c-.1-.01-.19-.02-.29-.04l-.9-.12-.38-.06c-.29-.04-.58-.08-.87-.13-.11-.02-.22-.04-.32-.05-.79-.13-1.58-.27-2.36-.42-.1-.02-.21-.05-.31-.07-.29-.05-.59-.11-.88-.17-.11-.03-.22-.05-.34-.08-.31-.06-.63-.13-.94-.2-.07-.02-.15-.04-.22-.05-.39-.09-.79-.19-1.18-.28l-.12-.03c-.35-.09-.69-.18-1.03-.27-.1-.02-.2-.05-.3-.07-.3-.08-.59-.16-.89-.25-.09-.02-.19-.05-.28-.07-.37-.11-.74-.21-1.12-.32 0 0 0-.01-.01-.01-.39-.11-.78-.23-1.18-.36a1 1 0 0 1-.16-.05c-.33-.1-.65-.21-.98-.31-.08-.03-.16-.06-.25-.09-.32-.1-.63-.21-.95-.32l-.18-.06q-1.14-.405-2.28-.84a3 3 0 0 0-.17-.06c-.32-.13-.64-.25-.96-.38-.06-.03-.13-.05-.19-.08-.36-.14-.72-.29-1.07-.44-.01 0-.02-.01-.03-.01-.75-.32-1.51-.65-2.25-.99-.05-.02-.09-.04-.14-.06-.33-.16-.67-.31-1-.47-.03-.02-.07-.03-.1-.05-1.11-.53-2.21-1.09-3.29-1.66a.5.5 0 0 0-.1-.05c-1.45-.79-2.89-1.61-4.29-2.48-.01 0-.02-.01-.03-.01a82.3 82.3 0 0 1-25.71-25.14L8.25 142.58c18.47 28.33 50.44 47.05 86.77 47.05s68.3-18.73 86.77-47.07z" class="fil1"></path><path d="M125.95 117.43a46 46 0 0 1 5.41 8.51c6.9-13.99 19.79-23.21 36.23-23.21h.67a74.7 74.7 0 0 0 1.81-16.35c0-31.33-19.41-58.28-46.82-69.42-15.24 1.38-27.09 12.67-27.09 28.87 0 27.08 28.61 38.23 29.78 71.59h.01z" class="fil2"></path><path d="M147.87 127.54h4.52V108.4c-1.57.69-3.07 1.49-4.52 2.38zM140.89 127.54h4.52v-15.1a38 38 0 0 0-4.52 3.89zM133.29 133.4h-3.7v-3.37h-4.48c0 .01-.01.01-.01.01-2.93 14.15-12.47 24.8-21.48 30.76 21.51-2.44 40.31-14.04 52.37-30.79h-22.7zM138.42 127.54v-8.46c-2.08 2.56-3.83 5.4-5.19 8.46zM161.84 105.63v14.82c2.47-4.81 4.44-9.92 5.83-15.25h-.08c-1.95 0-3.87.15-5.75.43M129.51 127.56c-.97-2.18-2.15-4.26-3.5-6.2-.01 2.13-.17 4.2-.47 6.2zM159.37 106.1c-1.54.34-3.05.78-4.51 1.31v20.13h2.83c.58-.88 1.14-1.76 1.68-2.66z" class="fil2"></path><path d="M30.95 124.83c.55.92 1.13 1.84 1.72 2.73h2.79v-20.12a38 38 0 0 0-4.51-1.32zM37.93 127.56h4.52v-16.75a36 36 0 0 0-4.52-2.38zM44.92 127.56h4.51v-11.2c-1.4-1.41-2.91-2.71-4.51-3.89zM22.73 105.22h-.04a74 74 0 0 0 5.79 15.17v-14.73c-1.87-.29-3.8-.44-5.75-.44" class="fil3"></path><path d="M85.22 128.8c.01-.03.02-.06.02-.1.05-.19.09-.39.13-.59.01-.07.03-.15.04-.22.38-1.95.58-3.99.58-6.12 0-5.18-1.4-9.85-3.52-14.43-.04-.09-.08-.19-.13-.28-.07-.15-.14-.3-.21-.46-.04-.07-.07-.14-.11-.22l-.15-.3c-.03-.06-.06-.13-.09-.19-.05-.1-.1-.21-.16-.31-.03-.06-.06-.13-.09-.19-6.92-13.67-19.45-27.05-19.45-51.26 0-21.59 13.03-35.63 26.12-42.32-38 3.53-67.92 35.67-67.92 74.57 0 5.62.63 11.1 1.81 16.38.21 0 .43-.01.64-.01 11.78 0 21.74 4.74 28.98 12.57h.19v.21c2.77 3.04 5.13 6.54 7.04 10.4 4.83-9.78 12.59-17.22 22.44-20.81.39.76.76 1.52 1.12 2.29l-.09.03v20.12h3.05c-.15.85-.34 1.67-.55 2.47H60.83v3.31h-3.71v-3.31H34.38c7.25 10.06 16.92 18.26 28.15 23.73 8.15-2.47 19.19-11.05 22.49-24.12.01-.05.03-.1.04-.15.06-.23.11-.46.16-.69" class="fil3"></path><path d="M65.98 119.11c-2.09 2.56-3.84 5.4-5.19 8.45h5.19zM72.96 112.47a38 38 0 0 0-4.52 3.89v11.2h4.52zM79.94 108.43c-1.56.69-3.07 1.48-4.51 2.38v16.75h4.51zM51.9 127.56h5.19a37.8 37.8 0 0 0-5.19-8.45z" class="fil3"></path><path d="M85.84 137.95v.98h1.87v5.37h1.36v-7.62h-1.01c-.18.92-1.18 1.28-2.22 1.27M94.02 136.53c-1.66 0-2.62 1.12-2.62 2.6 0 1.56.97 2.57 2.4 2.57.7 0 1.32-.32 1.65-.91l.02.02c-.08 1-.23 2.61-1.58 2.61-.64 0-1.05-.42-1.11-1.04h-1.24c.06 1.24 1.09 2.08 2.3 2.08 2.15 0 2.87-2.13 2.87-3.94 0-2.23-.53-3.99-2.69-3.99m-.05 4.19c-.91 0-1.33-.77-1.33-1.6s.42-1.55 1.33-1.55c.92 0 1.38.74 1.38 1.55 0 .84-.46 1.6-1.38 1.6M107.55 143.42c-.81 0-1.33-.47-1.41-1.29h-1.24c.05 1.53 1.2 2.33 2.67 2.33 1.87 0 2.63-1.52 2.63-2.74 0-1.46-.87-2.55-2.38-2.55-.51 0-1.07.2-1.41.57l-.02-.02.39-1.93h3.02v-1.11h-3.94l-.82 4.16h1.24c.2-.53.71-.69 1.23-.69 1 0 1.45.75 1.45 1.59 0 .93-.36 1.68-1.41 1.68" class="fil2"></path><path d="M57.12 133.34h3.71v-3.31h24.08c.21-.8.4-1.62.55-2.47h-3.05v-20.12l.09-.03c-.36-.77-.73-1.53-1.12-2.29-9.85 3.59-17.61 11.03-22.44 20.81-1.91-3.86-4.27-7.36-7.04-10.4v-.21h-.19c-7.24-7.83-17.2-12.57-28.98-12.57-.21 0-.43.01-.64.01-1.69.02-3.35.15-4.97.37q.27 1.215.57 2.43c1.64-.22 3.3-.33 5-.34h.04c1.95 0 3.88.15 5.75.44v21.9h-1.55c.51.84 1.03 1.66 1.57 2.47h28.619999999999997zm18.31-22.53c1.44-.9 2.95-1.69 4.51-2.38v19.13h-4.51zm-6.99 5.55c1.4-1.41 2.91-2.71 4.52-3.89v15.09h-4.52zm-2.46 2.75v8.45h-5.19c1.35-3.05 3.1-5.89 5.19-8.45m-30.52 8.45h-4.51v-21.44c1.54.35 3.05.79 4.51 1.32zm6.99 0h-4.52v-19.13c1.57.69 3.07 1.48 4.52 2.38zm6.98 0h-4.51v-15.09c1.6 1.18 3.11 2.48 4.51 3.89zm2.47 0v-8.45c2.08 2.56 3.83 5.4 5.19 8.45zM161.84 105.63c1.88-.28 3.8-.43 5.75-.43h.08c1.58 0 3.14.1 4.67.29.21-.8.39-1.61.57-2.43q-2.265-.285-4.65-.33h-.67c-16.44 0-29.33 9.22-36.23 23.21a46 46 0 0 0-5.41-8.51c.02.69.03 1.4.03 2.11.02.61.03 1.21.03 1.81 0-.01-.01-.01-.01-.02v.01c0 .01.01.01.01.02 1.35 1.94 2.53 4.02 3.5 6.2h-3.98v.01h.01c-.12.83-.27 1.65-.43 2.46h4.48v3.37h3.7v-3.39h28.25c.53-.82 1.06-1.64 1.57-2.47h-1.27v-21.91m-23.42 21.91h-5.19c1.36-3.06 3.11-5.9 5.19-8.46zm6.99 0h-4.52v-11.21c1.4-1.41 2.91-2.71 4.52-3.89zm6.98 0h-4.52v-16.76c1.45-.89 2.95-1.69 4.52-2.38zm5.3 0h-2.83v-20.13c1.46-.53 2.97-.97 4.51-1.31v21.44z" class="fil4"></path><path d="M101.05 139.3c-.67 0-1.31.3-1.64.9l-.03-.02c.08-1 .23-2.61 1.58-2.61.65 0 1.06.42 1.11 1.04h1.25c-.07-1.24-1.09-2.08-2.3-2.08-2.16 0-2.88 2.12-2.88 3.94 0 2.22.54 3.99 2.78 3.99 1.52 0 2.54-1.12 2.54-2.61 0-1.45-.9-2.55-2.41-2.55m-.17 4.12c-.91 0-1.38-.76-1.38-1.59 0-.84.47-1.55 1.38-1.55.89 0 1.34.74 1.34 1.55 0 .82-.45 1.59-1.34 1.59M125.11 130.03c.16-.81.31-1.63.43-2.46h-1.21v-8.45c.58.71 1.14 1.45 1.67 2.21 0 .01.01.01.01.02 0-.6-.01-1.2-.03-1.81 0-.71-.01-1.42-.03-2.11v-.01h-.01c-7.34-9.07-17.98-14.66-30.78-14.66-4.93 0-9.54.83-13.76 2.37.04.08.08.17.13.26.03.06.06.13.09.19.06.1.11.21.16.31.03.06.06.13.09.19l.15.3c.04.08.07.15.11.22.07.16.14.31.21.46.05.09.09.19.13.28.01.02.03.05.04.07 1.44-.51 2.92-.94 4.43-1.28v21.44h-1.47l-.06.32c-.01.07-.03.15-.04.22-.04.2-.08.4-.13.59 0 .04-.01.07-.02.1-.05.23-.1.46-.16.69-.01.05-.03.1-.04.15-.03.14-.07.27-.1.4h40.18s.01 0 .01-.01m-31.18-2.46h-4.52v-21.9c1.48-.23 2.99-.37 4.52-.42zm6.98 0h-4.52v-22.32c1.53.05 3.04.19 4.52.42zm6.98 0h-4.51v-21.44c1.54.35 3.05.79 4.51 1.31zm6.99 0h-4.52v-19.14c1.57.7 3.08 1.49 4.52 2.38zm6.98 0h-4.51v-15.09c1.6 1.17 3.11 2.48 4.51 3.89zM71.76 164.49c.38.11.75.21 1.12.32-.37-.11-.74-.21-1.12-.32M83.3 167.01l.9.12zM84.49 167.17l1.2.15zM69.43 163.76c.33.1.65.21.98.31-.33-.1-.65-.21-.98-.31M75.5 165.5c.39.09.79.19 1.18.28-.39-.09-.79-.19-1.18-.28M74.35 165.2c.34.09.68.18 1.03.27-.35-.09-.69-.18-1.03-.27M59.96 159.96c.33.16.67.31 1 .47-.33-.16-.67-.31-1-.47M85.88 167.34c.33.03.67.07 1 .1-.33-.03-.67-.07-1-.1M52.18 155.72" class="fil2"></path><path d="M26.98 128.46c-7.66-12.29-12.09-26.79-12.09-42.33C14.89 41.88 50.77 6 95.02 6c44.24 0 80.12 35.88 80.12 80.13 0 15.49-4.4 29.95-12.01 42.21.01-.02.03-.04.04-.06l1.32.88c7.76-12.5 12.24-27.24 12.24-43.03 0-45.13-36.59-81.72-81.71-81.72C49.89 4.41 13.3 41 13.3 86.13c0 15.82 4.5 30.59 12.28 43.1l1.33-.88c.02.04.05.07.07.11M64.64 162.01c.32.13.64.25.96.38-.32-.13-.64-.25-.96-.38M68.23 163.35c.32.11.63.22.95.32-.32-.1-.63-.21-.95-.32M90.78 166.14a79.7 79.7 0 0 1-33.93-9.55c10.26 5.6 21.76 8.92 33.93 9.55M97.9 166.2c-.17.01-.35.01-.52.02.17-.01.35-.01.52-.02M133.17 156.6a79.7 79.7 0 0 1-33.92 9.54c12.17-.63 23.67-3.95 33.92-9.54M99.13 166.15c-.21.01-.41.02-.62.02.21 0 .41-.01.62-.02M96.63 166.23c-.14.01-.28.01-.42.01.14 0 .28 0 .42-.01M92.66 166.22c-.18-.01-.35-.01-.53-.02.18.01.35.01.53.02M93.83 166.24c-.14 0-.28 0-.42-.01.14.01.28.01.42.01M121.99 163.29c.77-.28 1.55-.56 2.31-.85-.76.29-1.54.57-2.31.85M87.27 167.48c.28.03.56.05.85.08-.29-.03-.57-.05-.85-.08M115.98 165.13c.32-.09.63-.17.94-.26-.31.09-.62.17-.94.26M120.85 163.67c.35-.11.69-.23 1.03-.35-.34.12-.68.24-1.03.35M119.63 164.07c.34-.11.67-.22 1.01-.33-.34.11-.67.22-1.01.33M112.2 166.03c.33-.07.66-.14.99-.22-.33.08-.66.15-.99.22M113.36 165.78c.4-.1.8-.19 1.19-.29-.39.1-.79.19-1.19.29M110.98 166.28l.9-.18zM52.15 155.71a82.264 82.264 0 0 0 0 0M124.43 162.39c.34-.13.68-.27 1.02-.41-.34.14-.68.28-1.02.41M129.07 160.43c.36-.17.73-.34 1.09-.51-.36.17-.73.34-1.09.51M107.12 166.95c.29-.04.59-.09.89-.13-.3.04-.6.09-.89.13M95.02 167.84c.41 0 .81 0 1.22-.01-.41.01-.81.01-1.22.01M92.55 167.81c.29 0 .58.01.87.02-.29-.01-.58-.02-.87-.02M96.62 167.83c.29-.01.58-.02.86-.02-.28 0-.57.01-.86.02M88.5 167.59c.33.02.66.05.99.07-.33-.02-.66-.05-.99-.07M91.24 167.76l.9.03zM89.71 167.67c.4.03.81.05 1.21.07-.4-.02-.81-.04-1.21-.07" class="fil2"></path><path d="M93.79 167.83c.41.01.82.01 1.23.01-.41 0-.82 0-1.23-.01M103.15 167.44c.35-.03.69-.07 1.03-.11-.34.04-.68.08-1.03.11M104.35 167.32l1.2-.15zM105.84 167.13l.91-.12zM97.89 167.79l.91-.03zM99.12 167.74c.4-.02.8-.04 1.21-.07-.41.03-.81.05-1.21.07M100.55 167.66c.33-.02.66-.05.99-.07-.33.02-.66.05-.99.07M101.92 167.55" class="fil2"></path><path d="m164.49 129.16-1.32-.88c-.01.02-.03.04-.04.06-7.66 12.06-17.96 21.71-29.96 28.26-10.25 5.59-21.75 8.91-33.92 9.54-.04 0-.08.01-.12.01-.21.01-.41.02-.62.02l-.61.03c-.17.01-.35.01-.52.02-.25 0-.5.01-.75.01-.14.01-.28.01-.42.01-.4.01-.8.01-1.19.01-.4 0-.8 0-1.19-.01-.14 0-.28 0-.42-.01-.25 0-.5-.01-.75-.01-.18-.01-.35-.01-.53-.02l-.6-.03c-.21 0-.42-.01-.62-.02-.05 0-.09-.01-.13-.01-12.17-.63-23.67-3.95-33.93-9.55-11.95-6.52-22.22-16.13-29.87-28.13-.02-.04-.05-.07-.07-.11l-1.33.88-19.52 12.89c19.6 30.56 52.4 49.11 88.96 49.11s69.37-18.56 88.96-49.13zm-69.47 60.47c-36.33 0-68.3-18.72-86.77-47.05l18.19-12.01a82.3 82.3 0 0 0 25.71 25.14c.01 0 .02.01.03.01 1.4.87 2.84 1.69 4.29 2.48.03.01.07.03.1.05 1.08.57 2.18 1.13 3.29 1.66.03.02.07.03.1.05.33.16.67.31 1 .47.05.02.09.04.14.06.74.34 1.5.67 2.25.99.01 0 .02.01.03.01.35.15.71.3 1.07.44.06.03.13.05.19.08.32.13.64.25.96.38.06.02.12.04.17.06q1.14.435 2.28.84l.18.06c.32.11.63.22.95.32.09.03.17.06.25.09.33.1.65.21.98.31.05.02.11.04.16.05.4.13.79.25 1.18.36.01 0 .01.01.01.01.38.11.75.21 1.12.32.09.02.19.05.28.07.3.09.59.17.89.25.1.02.2.05.3.07.34.09.68.18 1.03.27l.12.03c.39.09.79.19 1.18.28.07.01.15.03.22.05.31.07.63.14.94.2.12.03.23.05.34.08.29.06.59.12.88.17.1.02.21.05.31.07.78.15 1.57.29 2.36.42.1.01.21.03.32.05.29.05.58.09.87.13l.38.06.9.12c.1.02.19.03.29.04l1.2.15c.06 0 .13.01.19.02.33.03.67.07 1 .1.13.02.26.03.39.04.28.03.56.05.85.08l.38.03c.33.02.66.05.99.07.07 0 .15.01.22.01.4.03.81.05 1.21.07.11.01.21.01.32.02l.9.03c.14.01.28.01.41.02.29 0 .58.01.87.02h.37c.41.01.82.01 1.23.01s.81 0 1.22-.01h.38c.29-.01.58-.02.86-.02.14-.01.28-.01.41-.02l.91-.03c.11-.01.21-.01.32-.02.4-.02.8-.04 1.21-.07.07 0 .15-.01.22-.01.33-.02.66-.05.99-.07.13-.01.25-.02.38-.04.29-.02.57-.04.86-.07.12-.01.25-.02.37-.04.35-.03.69-.07 1.03-.11.06 0 .11-.01.17-.01l1.2-.15c.1-.01.2-.03.29-.04l.91-.12c.12-.02.24-.04.37-.06.29-.04.59-.09.89-.13.1-.02.2-.04.3-.05.79-.13 1.58-.27 2.37-.43l.3-.06.9-.18c.1-.02.21-.04.32-.07.33-.07.66-.14.99-.22.05-.01.11-.02.17-.03.4-.1.8-.19 1.19-.29l.12-.03c.35-.08.7-.17 1.04-.26.09-.03.18-.05.27-.07.32-.09.63-.17.94-.26l.24-.06c.78-.22 1.55-.45 2.33-.7.05-.01.09-.03.14-.04.34-.11.67-.22 1.01-.33.07-.02.14-.04.21-.07.35-.11.69-.23 1.03-.35.03-.01.07-.02.11-.03.77-.28 1.55-.56 2.31-.85.04-.02.09-.04.13-.05.34-.13.68-.27 1.02-.41.05-.01.09-.03.14-.05 1.14-.46 2.28-.95 3.4-1.47.03-.01.05-.02.08-.03.36-.17.73-.34 1.09-.51l.01-.01c1.14-.54 2.27-1.11 3.38-1.71a82.1 82.1 0 0 0 30.09-27.7l18.15 12.06c-18.47 28.34-50.44 47.07-86.77 47.07" class="fil2"></path><path d="M28.01 148.42c.18.38.32.77.41 1.2.1.42.13.79.09 1.12q-.03.51-.36 1.08c-.21.38-.48.72-.81 1-1.02.89-2.2 1.21-3.55.96-1.35-.24-2.58-1-3.69-2.27-1.09-1.25-1.7-2.58-1.83-4-.09-1.06.1-1.8.58-2.22.22-.2.47-.29.73-.28.25.01.48.12.67.34.25.28.29.71.13 1.28-.16.58-.26.97-.29 1.19-.04.22-.03.45.02.72.11.66.4 1.25.86 1.78.29.33.61.6.96.82s.68.33.99.36c.27.03.56.01.86-.06.31-.08.55-.19.72-.34.65-.57.68-1.37.09-2.42l-1.01-1.75c-.6-1.08-.88-2.1-.82-3.04.05-.94.43-1.72 1.13-2.33.92-.81 2.01-1.09 3.26-.85 1.24.24 2.39.95 3.42 2.14.43.49.82 1.06 1.16 1.7.35.64.58 1.23.7 1.77.07.26.06.47-.06.64-.11.18-.27.38-.47.62s-.37.42-.5.53q-.69.615-1.2.03c-.19-.21-.23-.46-.11-.74l.27-.79c.05-.13.07-.37.07-.74.01-.29-.01-.57-.08-.85-.11-.47-.34-.91-.69-1.31-.44-.5-.92-.8-1.44-.91-.53-.1-.99.02-1.39.37-.36.32-.54.72-.55 1.23.01.23.05.46.12.67.06.22.19.5.37.86zM32.12 157.36l-.63.36c-.64.37-1.06.68-1.27.94-.27.32-.32.65-.13.98.18.32.19.59.01.81-.25.3-.55.3-.91.01l-2.18-1.82c-.34-.28-.4-.57-.16-.86q.27-.33.63-.21l.15.05c.22.07.46.05.71-.07.06-.03.22-.11.47-.25.69-.37 1.17-.64 1.45-.81l3.28-1.84c1.12-.62 2.03-1.1 2.72-1.41.7-.31 1.53-.64 2.51-.98.42-.14.72-.2.91-.16.2.03.46.19.81.48.28.23.44.41.48.53.02.05.03.16.04.31 0 .16 0 .31-.02.47-.06.61-.19 1.34-.39 2.16-.23.95-.53 2.02-.91 3.21-.33 1.02-.76 2.29-1.29 3.8-.43 1.19-.68 1.92-.74 2.2s-.03.54.1.77l.07.13c.12.23.09.44-.09.66-.24.29-.53.29-.88 0l-3.34-2.77c-.35-.29-.4-.58-.15-.88.1-.12.2-.19.31-.21q.15-.03.45.06c.37.13.66.06.88-.2.14-.17.36-.65.64-1.43l.32-.84zm3.47-2.02c-.3.16-.65.35-1.03.56-.39.22-.72.41-1.01.59l3 2.48c.16-.42.3-.81.41-1.18.12-.37.23-.71.35-1.04.26-.77.4-1.22.43-1.35.09-.27.19-.69.31-1.25-.6.27-.93.41-.98.44-.42.18-.91.43-1.48.75M47.03 167.28l-1.43 2.53q-.225.375-.21.6c.01.15.08.32.22.49.21.29.25.54.13.77-.19.33-.49.39-.89.16l-3.44-1.94c-.4-.23-.5-.51-.31-.85.13-.23.37-.32.72-.28.23.04.41.02.53-.05.13-.07.26-.24.41-.5l4.24-7.49c.21-.38.33-.64.34-.79q.015-.225-.27-.57c-.2-.24-.23-.47-.09-.72.19-.34.49-.39.88-.17l3.45 1.95c.4.23.5.51.31.85-.13.23-.37.32-.71.28-.22-.04-.4-.02-.53.06-.14.07-.28.24-.43.51l-2.07 3.65c.94-.09 1.63-.18 2.07-.26.45-.07 1.15-.23 2.12-.48.67-.17 1.21-.33 1.62-.5.4-.16.65-.31.72-.44.1-.17.03-.4-.2-.67-.24-.28-.29-.53-.15-.78.19-.33.48-.39.87-.17l2.7 1.53c.41.22.51.51.32.85-.13.23-.37.32-.72.28-.18-.03-.3-.05-.36-.04s-.21.06-.45.17l-.53.2-2.36.75-1.8.51.44 2.07c.12.72.23 1.58.31 2.57.09 1 .12 1.73.1 2.21l-.03.68c.01.3.09.55.26.73.12.16.18.3.21.4.02.11-.01.23-.08.36q-.12.225-.36.27c-.16.04-.32.01-.48-.08l-3.86-2.18q-.585-.33-.3-.84c.13-.23.38-.32.74-.27.35.07.57.01.68-.18.13-.22.15-.77.06-1.66l-.16-1.84-.37-1.97zM60.73 174.88l-.47.56c-.47.57-.75 1.01-.86 1.32-.14.4-.06.72.22.97q.435.36.3.75-.195.555-.84.33l-2.68-.93c-.43-.15-.58-.4-.46-.76.1-.26.27-.4.52-.42h.15c.24-.01.45-.11.65-.31a48.859 48.859 0 0 0 1.42-1.67l2.42-2.87c.83-.98 1.52-1.74 2.06-2.28s1.2-1.14 2-1.8c.34-.28.6-.44.8-.48.19-.03.5.02.92.17.34.12.56.23.64.34.03.04.08.13.14.27s.11.29.15.44c.16.6.3 1.32.4 2.17.12.96.21 2.07.27 3.32.05 1.07.1 2.41.13 4.01.01 1.27.04 2.04.08 2.32.04.29.16.51.36.69l.12.1c.19.16.23.38.14.64-.12.36-.39.46-.82.31l-4.1-1.42c-.43-.15-.58-.41-.45-.77q.075-.225.21-.3c.09-.06.24-.09.45-.11.39 0 .64-.17.75-.49.07-.22.11-.74.1-1.56v-.91zm2.54-3.11c-.23.26-.49.55-.77.89-.29.34-.53.64-.74.9l3.68 1.27c0-.44-.01-.86-.03-1.25-.02-.38-.03-.75-.04-1.1-.03-.8-.05-1.27-.07-1.41-.01-.29-.06-.71-.15-1.28-.47.46-.72.72-.76.75-.33.32-.71.73-1.12 1.23M78.27 178.56l-.51 3.23c-.05.29-.04.5.02.64.05.14.18.26.37.38.3.19.43.42.39.67-.06.38-.32.54-.77.47l-3.94-.63c-.45-.07-.65-.29-.59-.68.04-.26.23-.43.58-.51q.345-.075.48-.24c.09-.11.16-.31.2-.61l1.38-8.73c.05-.3.05-.52 0-.67-.05-.14-.18-.27-.38-.37-.31-.17-.44-.4-.4-.67.06-.38.32-.54.78-.47l6.84 1.08q1.905.3 2.91 1.38c.68.72.93 1.58.78 2.57-.23 1.43-1.27 2.41-3.14 2.93l.26.49c.27.58.5 1.1.67 1.56.18.45.37 1.05.58 1.77.21.73.36 1.19.44 1.38q.135.285.39.42l.17.08c.26.17.36.38.32.64-.06.39-.3.54-.72.48l-4.33-.69c-.44-.07-.63-.29-.57-.68.04-.26.23-.43.58-.51.34-.06.53-.19.56-.41.05-.29-.06-.7-.3-1.24-.01-.02-.04-.11-.1-.3a31 31 0 0 1-.36-1.12c-.06-.28-.18-.59-.33-.94-.09-.21-.19-.43-.3-.65-.26.02-.53.03-.82.04q-.42.015-1.14-.09m.75-5.22-.6 3.79q1.935.3 3.18-.24c.83-.36 1.32-.95 1.45-1.78.1-.67-.04-1.25-.42-1.75-.38-.49-.93-.8-1.65-.91a4.6 4.6 0 0 0-.72-.06c-.22 0-.43.02-.61.07-.35.12-.56.41-.63.88M93.57 180.14c-.92-1.2-1.59-2.09-2.01-2.68-.41-.59-.76-1.17-1.05-1.75l-.68-1.29c-.26-.5-.52-.8-.8-.91l-.15-.05c-.23-.1-.34-.28-.34-.55 0-.39.21-.58.65-.58l4.29-.01c.45 0 .68.19.68.58 0 .27-.16.46-.48.59-.31.13-.47.3-.47.52 0 .19.2.64.59 1.34l.87 1.57 1.35 1.9 1.31-1.82 1-1.75c.14-.23.26-.43.34-.61.13-.27.2-.47.2-.61 0-.25-.17-.43-.49-.55-.33-.11-.5-.31-.5-.59 0-.39.23-.58.68-.58l2.58-.01c.43 0 .65.19.65.58 0 .27-.11.45-.34.55l-.11.05c-.11.04-.22.11-.33.2-.11.1-.19.22-.25.35l-.96 1.75c-.25.48-.6 1.05-1.02 1.68-.43.64-1.08 1.53-1.94 2.67l.01 3.17c0 .29.04.5.12.62.08.13.23.24.45.32.32.13.49.33.49.6 0 .39-.23.58-.69.58l-4 .01c-.45 0-.67-.19-.68-.58 0-.27.18-.47.52-.61.35-.14.52-.44.52-.9zM105.96 180.6l-.15.72q-.225 1.08-.15 1.56c.06.42.27.67.64.75s.57.26.62.54c.05.38-.15.61-.6.67l-2.81.43c-.44.06-.69-.09-.75-.46-.04-.28.05-.48.26-.61l.14-.08c.2-.11.34-.31.43-.57.01-.07.05-.24.12-.52q.27-1.14.36-1.62l.81-3.67c.28-1.25.53-2.25.76-2.97.23-.73.54-1.57.94-2.53.17-.4.33-.66.48-.79.16-.12.46-.21.9-.28q.54-.075.72 0c.05.02.13.08.25.18s.23.21.34.32c.42.46.88 1.03 1.36 1.73.55.8 1.15 1.74 1.79 2.82.54.93 1.2 2.09 1.97 3.49.6 1.12.98 1.79 1.15 2.02s.38.38.64.44l.15.03c.24.06.38.23.43.51.05.37-.14.59-.59.65l-4.29.65c-.45.07-.7-.09-.76-.48-.02-.15 0-.27.05-.36s.17-.19.35-.3c.34-.19.49-.45.43-.79-.03-.22-.24-.7-.63-1.43l-.42-.8zm.8-3.93q-.12.495-.27 1.14c-.09.43-.17.81-.23 1.14l3.85-.58c-.21-.4-.41-.76-.61-1.09-.19-.34-.38-.65-.55-.96-.4-.7-.63-1.11-.71-1.22-.15-.24-.39-.6-.73-1.06q-.3.945-.33 1.02c-.14.44-.28.97-.42 1.61M125.84 172.41c.41-.02.83.01 1.26.08.43.08.78.2 1.06.36.31.16.6.41.86.76q.405.525.6 1.14c.42 1.28.25 2.49-.5 3.64-.76 1.14-1.94 1.98-3.54 2.5-1.58.51-3.05.55-4.4.11-1.02-.33-1.62-.8-1.82-1.4q-.135-.435.03-.78c.11-.23.3-.39.58-.48.35-.12.76.01 1.23.38.46.37.79.61.97.73.19.12.41.21.67.26q.975.24 1.98-.09c.42-.13.79-.32 1.13-.56.34-.23.58-.49.72-.76.14-.24.23-.51.28-.82.06-.31.05-.58-.03-.8-.26-.82-.99-1.16-2.19-1.03l-2 .24c-1.24.13-2.27-.01-3.12-.43a3.26 3.26 0 0 1-1.7-1.96c-.38-1.17-.21-2.28.5-3.33s1.81-1.82 3.31-2.31c.62-.21 1.29-.34 2.02-.4.72-.07 1.36-.05 1.9.06q.405.045.57.3c.11.17.24.4.38.68.15.28.24.5.3.66.19.59.04.96-.44 1.12-.28.09-.52.03-.73-.19l-.63-.56c-.09-.09-.31-.21-.65-.36-.26-.12-.52-.2-.81-.25-.47-.09-.96-.05-1.47.11-.64.21-1.1.53-1.41.98-.3.44-.37.92-.2 1.42.15.45.45.78.91.99.22.08.44.13.67.15.22.03.53.02.93 0zM137.14 170.57l1.29 2.46c.13.26.26.43.39.5.13.08.31.11.53.09.36-.03.59.08.71.3.18.35.07.62-.34.84l-3.53 1.84c-.41.22-.7.15-.88-.19-.13-.24-.07-.49.15-.76.16-.18.24-.34.25-.48s-.06-.35-.2-.61l-4.09-7.84c-.14-.27-.28-.44-.4-.53-.13-.08-.31-.11-.53-.07q-.525.06-.72-.3c-.18-.35-.06-.63.35-.84l5.77-3.02c1.16-.6 2.24-.81 3.25-.61 1 .2 1.75.77 2.24 1.7.6 1.14.59 2.32-.02 3.54-.1.23-.23.47-.41.73-.17.26-.35.49-.54.71q-.705.81-1.2 1.2c-.52.44-1.21.89-2.07 1.34m-2.8-5.21 2.07 3.97c1.01-.53 1.71-1.24 2.09-2.11.38-.88.37-1.71-.04-2.49-.36-.68-.85-1.08-1.49-1.2-.63-.12-1.38.05-2.24.5-.32.17-.53.35-.61.56-.03.1-.04.19-.02.26s.07.19.15.35zM145.99 163.84c-.54-.69-.94-1.5-1.19-2.42-.26-.92-.31-1.82-.18-2.71.24-1.79 1.19-3.34 2.85-4.63.85-.66 1.69-1.12 2.53-1.38.85-.27 1.72-.35 2.62-.24s1.76.4 2.59.86c.84.47 1.52 1.06 2.07 1.75.54.7.94 1.51 1.19 2.43s.32 1.82.2 2.71c-.24 1.78-1.18 3.31-2.85 4.61-1.66 1.29-3.38 1.83-5.18 1.63-.87-.09-1.73-.37-2.57-.84a6.8 6.8 0 0 1-2.08-1.77m2.33-8.67c-.8.62-1.16 1.57-1.07 2.83.09 1.27.6 2.49 1.52 3.68q1.38 1.77 3.18 2.37c1.2.4 2.21.29 3.01-.34.79-.61 1.15-1.56 1.07-2.83s-.58-2.5-1.5-3.67c-.91-1.18-1.98-1.97-3.19-2.37-1.22-.4-2.22-.29-3.02.33M163.83 149.82l2.46 2.17c.22.19.4.3.55.32.14.03.32-.01.52-.11.32-.14.58-.13.77.03.29.26.29.56-.02.91l-2.64 2.98c-.3.35-.6.39-.89.13-.2-.17-.24-.43-.13-.76.09-.22.1-.4.06-.53-.04-.14-.18-.31-.4-.51l-6.63-5.85c-.22-.2-.41-.32-.56-.35-.15-.04-.32 0-.52.12-.31.16-.56.15-.77-.03-.29-.26-.29-.56.02-.9l4.59-5.19c.85-.97 1.76-1.54 2.73-1.72.96-.18 1.83.06 2.58.73 1.08.96 1.34 2.36.79 4.22l.54.04q.96.12 1.68.27c.48.1 1.08.26 1.81.47.72.21 1.19.33 1.4.36.21.04.39 0 .56-.09l.16-.1c.28-.13.51-.11.71.07.29.25.3.54.02.86l-2.91 3.28c-.29.34-.59.38-.88.12-.2-.17-.24-.43-.12-.76.13-.32.12-.55-.04-.7-.22-.19-.63-.33-1.22-.41-.01 0-.11-.02-.3-.07-.33-.08-.71-.19-1.14-.31a5.3 5.3 0 0 0-.96-.22c-.23-.04-.47-.07-.72-.1-.12.23-.25.47-.4.72-.14.24-.37.55-.7.91m-4-3.44 2.88 2.54c.87-.98 1.37-1.92 1.51-2.81.15-.89-.09-1.62-.72-2.17-.51-.45-1.08-.65-1.7-.59-.62.05-1.18.35-1.66.9-.17.19-.31.38-.43.57s-.21.38-.27.55c-.09.36.04.7.39 1.01" class="fil5"></path></g></g><!-- source: https://football-logos.cc --></svg>